<svg width="80" height="80" viewBox="0 0 80 80" fill="none" xmlns="http://www.w3.org/2000/svg">
<g clip-path="url(#clip0_17_932)">
<path d="M79.1172 16.1891L79.1047 16.0703C78.6996 12.1815 76.9689 8.55047 74.203 5.78693C71.4372 3.02338 67.8048 1.29562 63.9156 0.89375C58.2141 0.3 48.8187 0 40 0C31.1812 0 21.7859 0.3 16.0844 0.89375C12.1952 1.29562 8.56278 3.02338 5.79696 5.78693C3.03114 8.55047 1.30038 12.1815 0.895312 16.0703L0.882812 16.1891C0.389062 20.9172 0 21.6766 0 31.6484C0 41.6203 0.389062 43.2297 0.882812 47.9594L0.895312 48.0766C1.30038 51.9654 3.03114 55.5964 5.79696 58.3599C8.56278 61.1235 12.1952 62.8513 16.0844 63.2531C19.2297 63.5812 23.5 63.8188 28.1766 63.9672L37.2516 78.3781C37.5646 78.8749 37.9985 79.2842 38.5126 79.5679C39.0266 79.8515 39.6042 80.0003 40.1914 80.0003C40.7786 80.0003 41.3562 79.8515 41.8703 79.5679C42.3843 79.2842 42.8182 78.8749 43.1313 78.3781L52.2141 63.9547C56.7375 63.7984 60.8578 63.5719 63.9141 63.2531C67.8035 62.8516 71.4363 61.124 74.2024 58.3604C76.9686 55.5968 78.6996 51.9656 79.1047 48.0766L79.1172 47.9578C79.6109 43.2297 80 41.6203 80 31.6484C80 21.6766 79.6109 20.9188 79.1172 16.1891ZM39.9906 55.7906C38.9422 55.7888 37.9178 55.4762 37.0469 54.8923C36.1761 54.3085 35.4978 53.4796 35.0979 52.5104C34.6979 51.5412 34.5942 50.4753 34.7999 49.4472C35.0056 48.4191 35.5114 47.475 36.2534 46.7343C36.9955 45.9936 37.9404 45.4895 38.9689 45.2856C39.9973 45.0817 41.0631 45.1873 42.0316 45.589C43.0001 45.9906 43.8277 46.6703 44.41 47.5422C44.9923 48.4141 45.3031 49.439 45.3031 50.4875C45.3006 51.8948 44.7398 53.2437 43.7438 54.2379C42.7478 55.2322 41.398 55.7906 39.9906 55.7906ZM45.1344 37.5266C45.0457 38.3466 44.6751 39.1103 44.0859 39.6875C43.4895 40.2696 42.7135 40.6325 41.8844 40.7172H41.8594C41.3407 40.7773 40.819 40.8076 40.2969 40.8078C39.6707 40.8108 39.0448 40.7806 38.4219 40.7172H38.3953C37.5645 40.6339 36.7865 40.2708 36.1891 39.6875C35.5997 39.1111 35.229 38.3477 35.1406 37.5281C35.0125 36.3312 34.9484 28.0203 34.9484 26.1687C34.9484 24.3172 35.0125 15.9828 35.1406 14.7875C35.2293 13.9675 35.5999 13.2037 36.1891 12.6266C36.7851 12.045 37.5606 11.6826 38.3891 11.5984H38.4156C39.0386 11.5364 39.6651 11.5176 40.2906 11.5422C40.8121 11.5174 41.3348 11.5363 41.8531 11.5984H41.8781C42.7071 11.6825 43.4831 12.0449 44.0797 12.6266C44.6683 13.2041 45.0388 13.9677 45.1281 14.7875C45.2547 15.9828 45.3203 24.3187 45.3203 26.1687C45.3203 28.0187 45.2609 36.3297 45.1344 37.5266Z" fill="#009FB6"/>
</g>
<defs>
<clipPath id="clip0_17_932">
<rect width="80" height="80" fill="white"/>
</clipPath>
</defs>
</svg>
