<svg width="17" height="16" viewBox="0 0 17 16" fill="none" xmlns="http://www.w3.org/2000/svg">
<path d="M11.3307 8.6491H4.66408C4.29608 8.6491 3.99741 8.9471 3.99741 9.31577V11.9824C3.99741 12.3511 4.29608 12.6491 4.66408 12.6491H11.3307C11.6987 12.6491 11.9974 12.3511 11.9974 11.9824V9.31577C11.9974 8.9471 11.6987 8.6491 11.3307 8.6491ZM10.6641 11.3158H5.33074V9.98244H10.6641V11.3158ZM3.99741 6.6491C3.99741 6.28044 4.29608 5.98244 4.66408 5.98244H6.66408C7.03208 5.98244 7.33075 6.28044 7.33075 6.6491C7.33075 7.01777 7.03208 7.31577 6.66408 7.31577H4.66408C4.29608 7.31577 3.99741 7.01777 3.99741 6.6491ZM3.99741 4.6491C3.99741 4.28044 4.29608 3.98244 4.66408 3.98244H6.66408C7.03208 3.98244 7.33075 4.28044 7.33075 4.6491C7.33075 5.01777 7.03208 5.31577 6.66408 5.31577H4.66408C4.29608 5.31577 3.99741 5.01777 3.99741 4.6491ZM14.4327 5.00244C14.4101 4.8571 14.3401 4.72377 14.2341 4.62244L10.4201 0.993771C10.3287 0.907104 10.2154 0.847771 10.0921 0.823104C9.51741 0.707104 8.81275 0.648438 7.99741 0.648438C5.28008 0.649104 2.61474 1.30777 2.50208 1.33577C2.26341 1.3951 2.07674 1.58177 2.01674 1.8211C1.98874 1.9331 1.33008 4.60644 1.33008 7.98244C1.33008 11.3584 1.98874 14.0318 2.01674 14.1438C2.07674 14.3824 2.26341 14.5698 2.50208 14.6291C2.61408 14.6571 5.28008 15.3158 7.99741 15.3158C10.7147 15.3158 13.3801 14.6571 13.4927 14.6291C13.7314 14.5698 13.9181 14.3831 13.9781 14.1438C14.0061 14.0318 14.6647 11.3584 14.6647 7.98244V7.94777C14.6647 6.9611 14.5887 5.9971 14.4327 5.00244ZM12.3254 4.64777C11.5494 4.64044 10.8641 4.5751 10.4367 4.52177C10.3914 4.15444 10.3401 3.5591 10.3327 2.75177L12.3261 4.64844L12.3254 4.64777ZM7.99674 13.9824C6.03674 13.9824 4.04875 13.6038 3.22208 13.4258C3.04541 12.5784 2.66341 10.4584 2.66341 7.98244C2.66341 5.50644 3.04541 3.38644 3.22208 2.5391C4.04741 2.36044 6.03208 1.98244 7.99674 1.98244C8.35874 1.98244 8.69541 1.9971 9.00608 2.02244C8.96141 4.10644 9.19141 5.20777 9.20208 5.25577C9.26008 5.51977 9.47208 5.72177 9.73808 5.7691C9.80075 5.77977 10.9807 5.9831 12.4574 5.9831C12.6967 5.9831 12.9534 5.96377 13.2047 5.9511C13.2814 6.61777 13.3301 7.27844 13.3301 7.94777V7.98244C13.3301 10.4584 12.9481 12.5784 12.7714 13.4258C11.9461 13.6044 9.96141 13.9824 7.99674 13.9824Z" fill="black"/>
</svg>
