<svg width="39" height="40" viewBox="0 0 39 40" fill="none" xmlns="http://www.w3.org/2000/svg">
<rect width="39" height="40" rx="19.5" fill="#B9F2F8"/>
<g clip-path="url(#clip0_188_1138)">
<path d="M26.8789 16.7686C27.1948 16.7537 27.511 16.801 27.8086 16.9082C28.0318 16.9887 28.2421 17.1019 28.4316 17.2432L28.6143 17.3936C29.081 17.8224 29.3611 18.4177 29.3936 19.0508C29.426 19.6836 29.2083 20.304 28.7881 20.7783L23.1211 27.1426C22.3481 28.0095 21.4007 28.7035 20.3408 29.1787C19.2809 29.6539 18.1323 29.9001 16.9707 29.9004H12.833C11.9756 29.9003 11.1532 29.5594 10.5469 28.9531C9.94058 28.3468 9.5997 27.5244 9.59961 26.667V22.5C9.59961 21.6425 9.94061 20.8202 10.5469 20.2139C11.1532 19.6076 11.9756 19.2667 12.833 19.2666H20.2139C20.6477 19.2668 21.0744 19.3795 21.4521 19.5928C21.8298 19.8061 22.146 20.1131 22.3701 20.4844L22.4395 20.5986L22.5303 20.5L25.2109 17.5537C25.4238 17.3197 25.6806 17.1298 25.9668 16.9951C26.253 16.8604 26.563 16.7835 26.8789 16.7686ZM26.9473 18.2334C26.8235 18.2387 26.702 18.2686 26.5898 18.3213C26.4778 18.374 26.377 18.4481 26.2939 18.54L22.6064 22.5996L22.5928 22.6143L22.5859 22.6328C22.4302 23.0639 22.1599 23.4447 21.8047 23.7344C21.4496 24.0239 21.0227 24.2114 20.5693 24.2773L16.2686 24.8926C16.0761 24.9202 15.8803 24.8704 15.7246 24.7539C15.5689 24.6373 15.4661 24.4631 15.4385 24.2705C15.4109 24.078 15.4606 23.8822 15.5771 23.7266C15.6937 23.5711 15.8673 23.4681 16.0596 23.4404L20.3613 22.8262C20.6252 22.7893 20.8655 22.6543 21.0332 22.4473C21.2009 22.2402 21.2834 21.9767 21.2646 21.7109C21.2459 21.4453 21.1276 21.1961 20.9326 21.0146C20.7376 20.8331 20.4803 20.733 20.2139 20.7334H12.833C12.3646 20.7335 11.9152 20.9197 11.584 21.251C11.2528 21.5823 11.0664 22.0315 11.0664 22.5V26.667C11.0665 27.1354 11.2527 27.5848 11.584 27.916C11.9152 28.2473 12.3646 28.4335 12.833 28.4336H16.9707C17.9246 28.4332 18.8679 28.2311 19.7383 27.8408C20.6088 27.4505 21.3876 26.8801 22.0225 26.168L27.6934 19.8027C27.8578 19.6173 27.9432 19.3745 27.9307 19.127C27.918 18.8794 27.8084 18.6463 27.626 18.4785H27.625C27.4398 18.312 27.1971 18.2238 26.9482 18.2334H26.9473ZM20.3232 11.5674C20.055 11.5943 19.8083 11.7255 19.6357 11.9326C19.4847 12.1138 19.4013 12.3403 19.3975 12.5742L19.4004 12.667C19.4003 12.8614 19.323 13.0481 19.1855 13.1855C19.0481 13.323 18.8614 13.4003 18.667 13.4004C18.4727 13.4004 18.2859 13.3229 18.1484 13.1855C18.011 13.0481 17.9337 12.8614 17.9336 12.667H17.9326C17.9523 12.401 17.869 12.1377 17.6982 11.9326C17.5256 11.7255 17.278 11.5943 17.0098 11.5674L17 11.5664L16.9902 11.5674C16.722 11.5943 16.4744 11.7255 16.3018 11.9326C16.131 12.1377 16.0477 12.401 16.0674 12.667H16.0664C16.0665 13.0773 16.3255 13.598 16.7607 14.1602C17.1998 14.7272 17.8323 15.3538 18.6094 15.9775L18.6719 16.0273L18.7344 15.9766C19.5064 15.3528 20.1365 14.7272 20.5742 14.1602C21.0057 13.6012 21.2626 13.083 21.2656 12.6738L21.2666 12.6748C21.2885 12.4062 21.2037 12.1397 21.0312 11.9326C20.8587 11.7256 20.6119 11.5944 20.3438 11.5674L20.333 11.5664L20.3232 11.5674ZM14.5996 12.6641C14.5799 12.0058 14.8221 11.3662 15.2725 10.8857C15.7225 10.4057 16.3443 10.1228 17.002 10.0996C17.598 10.1025 18.1695 10.3372 18.5967 10.7529L18.667 10.8203L18.7363 10.7529C19.1635 10.3373 19.7351 10.1026 20.3311 10.0996C20.9887 10.1227 21.6104 10.4056 22.0605 10.8857C22.511 11.3662 22.7531 12.0058 22.7334 12.6641V12.667C22.7333 13.4676 22.3239 14.2927 21.7256 15.0674C21.2779 15.647 20.7294 16.1912 20.1836 16.668L19.6426 17.1211C19.3657 17.3425 19.0215 17.4629 18.667 17.4619H18.666C18.3113 17.4628 17.9673 17.3418 17.6904 17.1201C16.9803 16.5501 16.2042 15.8401 15.6074 15.0674C15.0092 14.2929 14.5997 13.4676 14.5996 12.667V12.6641Z" fill="black" stroke="#B9F2F8" stroke-width="0.2"/>
</g>
<defs>
<clipPath id="clip0_188_1138">
<rect width="20" height="20" fill="white" transform="translate(9.5 10)"/>
</clipPath>
</defs>
</svg>
