<svg width="39" height="40" viewBox="0 0 39 40" fill="none" xmlns="http://www.w3.org/2000/svg">
<rect width="39" height="40" rx="19.5" fill="#B9F2F8"/>
<g clip-path="url(#clip0_1799_488)">
<path d="M28.5367 21.7536C27.8621 21.4121 27.0687 21.5486 26.5447 22.036L24.8027 21.0634C25.0249 20.4583 25.1463 19.8049 25.1463 19.1237C25.1463 18.105 24.8749 17.1485 24.4007 16.3227L25.8906 15.044C26.115 15.1733 26.3673 15.2519 26.6332 15.2721C26.6789 15.2756 26.7243 15.2774 26.7696 15.2774C27.1888 15.2774 27.5899 15.1293 27.9113 14.8535C28.2675 14.5478 28.4833 14.1217 28.519 13.6536C28.5547 13.1856 28.406 12.7317 28.1002 12.3755C27.7946 12.0193 27.3685 11.8035 26.9004 11.7678C26.4323 11.7317 25.9785 11.8808 25.6223 12.1865C25.2661 12.4922 25.0503 12.9183 25.0146 13.3864C24.9943 13.6523 25.0337 13.9135 25.1275 14.155L23.7123 15.3696C22.6781 14.2115 21.1746 13.4809 19.5034 13.4809C17.8817 13.4809 16.4179 14.1688 15.3877 15.2678L12.8842 13.0046C13.159 12.3266 12.9896 11.5192 12.4063 11.0145C11.6736 10.3805 10.5616 10.4609 9.92757 11.1936C9.29358 11.9264 9.37395 13.0383 10.1067 13.6723C10.4289 13.9511 10.8321 14.1008 11.2538 14.1008C11.2968 14.1008 11.34 14.0993 11.3832 14.0962C11.6416 14.0774 11.8873 14.0036 12.1074 13.8817L14.6764 16.2039C14.1589 17.0563 13.8607 18.0558 13.8607 19.1237C13.8607 20.6724 14.4879 22.0772 15.5015 23.0979L12.5287 26.0708C11.8756 25.7597 11.0689 25.8738 10.5289 26.4137C9.84377 27.0989 9.84377 28.2137 10.5289 28.8989C10.8714 29.2415 11.3214 29.4127 11.7715 29.4127C12.2214 29.4127 12.6715 29.2414 13.0141 28.8989C13.554 28.3589 13.6681 27.5522 13.357 26.8992L16.4133 23.8428C17.3016 24.4264 18.3635 24.7665 19.5035 24.7665C20.2322 24.7665 20.9291 24.6277 21.5691 24.3751L22.5275 26.1007C22.3569 26.3047 22.2339 26.5465 22.1694 26.8125C22.0588 27.2687 22.1324 27.7407 22.3767 28.1414C22.621 28.5422 23.0068 28.8239 23.463 28.9345C23.6015 28.9681 23.7414 28.9847 23.8804 28.9847C24.1991 28.9847 24.5127 28.8973 24.7918 28.7272C25.1926 28.4829 25.4743 28.0971 25.5849 27.6409C25.6956 27.1848 25.6219 26.7128 25.3776 26.3121C25.1333 25.9113 24.7475 25.6296 24.2914 25.519C24.0392 25.4578 23.7823 25.4532 23.5353 25.5023L22.6082 23.8331C23.2821 23.3874 23.8551 22.8011 24.2853 22.1162L26.0033 23.0754C25.9016 23.7993 26.2614 24.541 26.9491 24.8892C27.2029 25.0176 27.4733 25.0785 27.74 25.0785C28.3819 25.0785 29.0015 24.7259 29.3107 24.1152C29.7484 23.2507 29.4011 22.1913 28.5367 21.7536ZM26.1829 13.4754C26.1948 13.3194 26.2667 13.1774 26.3854 13.0754C26.4926 12.9835 26.6263 12.9342 26.766 12.9342C26.7811 12.9342 26.7963 12.9347 26.8115 12.9359C26.9675 12.9478 27.1095 13.0197 27.2114 13.1385L27.2114 13.1385C27.3133 13.2572 27.3628 13.4085 27.3509 13.5645C27.339 13.7205 27.2671 13.8625 27.1483 13.9645C27.0296 14.0663 26.8779 14.1162 26.7223 14.104C26.5663 14.0921 26.4243 14.0202 26.3224 13.9014C26.2205 13.7827 26.1709 13.6314 26.1829 13.4754ZM11.2987 12.9276C11.1426 12.9394 10.9916 12.8887 10.8732 12.7864C10.629 12.5751 10.6022 12.2044 10.8135 11.9602C10.9292 11.8265 11.0926 11.7579 11.2569 11.7579C11.3927 11.7579 11.5292 11.8048 11.6397 11.9004C11.884 12.1117 11.9107 12.4824 11.6994 12.7266C11.5971 12.845 11.4548 12.9164 11.2987 12.9276ZM23.8761 26.6407C23.9224 26.6407 23.9691 26.6463 24.0152 26.6575C24.1673 26.6943 24.2958 26.7883 24.3773 26.9219V26.9219C24.4587 27.0555 24.4833 27.2127 24.4464 27.3648C24.4095 27.5169 24.3156 27.6455 24.182 27.7269C24.0484 27.8084 23.8911 27.8329 23.7391 27.796C23.587 27.7591 23.4584 27.6652 23.377 27.5316C23.2955 27.398 23.271 27.2407 23.3079 27.0887C23.3447 26.9366 23.4386 26.808 23.5723 26.7266C23.6653 26.6698 23.7698 26.6407 23.8761 26.6407ZM12.1857 28.0704C12.075 28.1811 11.9279 28.242 11.7715 28.242C11.615 28.242 11.4679 28.1811 11.3573 28.0704C11.1289 27.842 11.1289 27.4705 11.3573 27.2421C11.4679 27.1314 11.615 27.0705 11.7715 27.0705C11.928 27.0705 12.075 27.1314 12.1857 27.2421C12.414 27.4705 12.414 27.8421 12.1857 28.0704ZM19.5035 23.595C17.038 23.595 15.0322 21.5892 15.0322 19.1237C15.0322 16.6582 17.038 14.6524 19.5035 14.6524C21.969 14.6524 23.9748 16.6582 23.9748 19.1237C23.9748 21.5892 21.969 23.595 19.5035 23.595ZM28.2655 23.586C28.1196 23.8742 27.7665 23.9899 27.4783 23.844C27.3388 23.7733 27.235 23.6525 27.1863 23.5038C27.1375 23.3552 27.1496 23.1964 27.2203 23.0568C27.291 22.9173 27.4118 22.8135 27.5605 22.7648C27.6205 22.7451 27.6821 22.7353 27.7435 22.7353C27.8342 22.7353 27.9243 22.7566 28.0075 22.7988C28.2956 22.9447 28.4114 23.2979 28.2655 23.586Z" fill="#212121"/>
<path d="M18.0976 18.0107C17.1286 18.0107 16.3403 18.7991 16.3403 19.768C16.3403 20.737 17.1286 21.5253 18.0976 21.5253C19.0666 21.5253 19.8549 20.737 19.8549 19.768C19.8549 18.7991 19.0666 18.0107 18.0976 18.0107ZM18.0976 20.3538C17.7746 20.3538 17.5119 20.091 17.5119 19.768C17.5119 19.445 17.7746 19.1823 18.0976 19.1823C18.4206 19.1823 18.6834 19.445 18.6834 19.768C18.6834 20.091 18.4206 20.3538 18.0976 20.3538Z" fill="#212121"/>
<path d="M21.2217 17.3857H22.3932V18.5573H21.2217V17.3857Z" fill="#212121"/>
<path d="M21.0265 19.9639H22.198V21.1354H21.0265V19.9639Z" fill="#212121"/>
<path d="M18.8591 15.8242H20.0306V16.9957H18.8591V15.8242Z" fill="#212121"/>
</g>
<defs>
<clipPath id="clip0_1799_488">
<rect width="20" height="20" fill="white" transform="translate(9.5 10)"/>
</clipPath>
</defs>
</svg>
