<svg width="24" height="24" viewBox="0 0 24 24" fill="none" xmlns="http://www.w3.org/2000/svg">
<g clip-path="url(#clip0_584_4457)">
<path d="M22.844 14.1042C22.0345 13.6944 21.0824 13.8582 20.4536 14.443L18.3633 13.2759C18.6299 12.5498 18.7755 11.7657 18.7755 10.9483C18.7755 9.72586 18.4498 8.57805 17.8808 7.58704L19.6687 6.05259C19.938 6.20774 20.2407 6.30203 20.5599 6.32635C20.6146 6.33057 20.6692 6.33263 20.7236 6.33263C21.2265 6.33263 21.7079 6.15498 22.0935 5.82395C22.521 5.45713 22.7799 4.94583 22.8228 4.38411C22.8656 3.82253 22.6872 3.27782 22.3203 2.85041C21.9535 2.42299 21.4422 2.16404 20.8805 2.12116C20.3188 2.07786 19.7742 2.25678 19.3468 2.6236C18.9193 2.99043 18.6604 3.50172 18.6175 4.06344C18.5932 4.38252 18.6405 4.69606 18.753 4.9858L17.0547 6.44336C15.8138 5.05356 14.0095 4.17694 12.004 4.17694C10.0581 4.17694 8.30148 5.00239 7.0652 6.32115L4.061 3.60538C4.39076 2.79169 4.18748 1.8228 3.48752 1.21717C2.60827 0.456387 1.27387 0.552873 0.513085 1.43217C-0.247699 2.31151 -0.15126 3.64582 0.728082 4.40661C1.11468 4.7411 1.59847 4.92076 2.10462 4.92076C2.15616 4.92076 2.20794 4.91893 2.25982 4.91518C2.5699 4.89274 2.86479 4.80412 3.12885 4.65783L6.21168 7.44449C5.59068 8.46732 5.2328 9.66677 5.2328 10.9483C5.2328 12.8067 5.98548 14.4924 7.20184 15.7172L3.63438 19.2847C2.85073 18.9114 1.88264 19.0483 1.23465 19.6963C0.412522 20.5184 0.412522 21.8563 1.23465 22.6784C1.64571 23.0896 2.18573 23.2951 2.72575 23.2951C3.26573 23.2951 3.80575 23.0895 4.21686 22.6784C4.86476 22.0305 5.00169 21.0625 4.62839 20.2788L8.29599 16.6112C9.36194 17.3115 10.6362 17.7196 12.0042 17.7196C12.8786 17.7196 13.7149 17.553 14.4829 17.2499L15.633 19.3206C15.4283 19.5655 15.2807 19.8556 15.2033 20.1749C15.0705 20.7223 15.1589 21.2886 15.4521 21.7695C15.7453 22.2505 16.2082 22.5885 16.7556 22.7212C16.9218 22.7615 17.0897 22.7814 17.2564 22.7814C17.6389 22.7814 18.0153 22.6766 18.3502 22.4724C18.8312 22.1792 19.1692 21.7163 19.3019 21.1689C19.4347 20.6215 19.3463 20.0552 19.0531 19.5743C18.7599 19.0933 18.297 18.7553 17.7496 18.6226C17.4471 18.5492 17.1388 18.5436 16.8423 18.6026L15.7299 16.5996C16.5386 16.0647 17.2261 15.3611 17.7423 14.5393L19.804 15.6902C19.6819 16.559 20.1137 17.449 20.9389 17.8668C21.2434 18.021 21.568 18.094 21.888 18.094C22.6582 18.094 23.4018 17.6709 23.7728 16.938C24.298 15.9007 23.8814 14.6294 22.844 14.1042ZM20.0194 4.17029C20.0337 3.98308 20.12 3.81265 20.2625 3.69034C20.3911 3.58003 20.5515 3.5208 20.7192 3.5208C20.7373 3.5208 20.7555 3.5215 20.7737 3.52291C20.9609 3.5372 21.1314 3.62347 21.2536 3.76597L21.2537 3.76602C21.3759 3.90848 21.4354 4.09006 21.4211 4.27722C21.4068 4.46443 21.3206 4.63486 21.178 4.75717C21.0355 4.87938 20.8534 4.93927 20.6668 4.9246C20.4796 4.91031 20.3092 4.82404 20.1869 4.68149C20.0646 4.53908 20.0051 4.3575 20.0194 4.17029ZM2.15846 3.51297C1.97106 3.52703 1.7899 3.4663 1.64786 3.34348C1.35475 3.08991 1.3226 2.64511 1.57617 2.352C1.71502 2.19155 1.91108 2.10931 2.10822 2.10931C2.27125 2.10931 2.43503 2.16554 2.56765 2.2803C2.86076 2.53386 2.89286 2.97867 2.6393 3.27178C2.51652 3.41381 2.34571 3.49948 2.15846 3.51297ZM17.2513 19.9687C17.3069 19.9687 17.3629 19.9753 17.4182 19.9888C17.6007 20.033 17.755 20.1457 17.8527 20.306V20.3061C17.9505 20.4664 17.9799 20.6551 17.9357 20.8376C17.8914 21.02 17.7787 21.1744 17.6184 21.2721C17.4581 21.3699 17.2693 21.3993 17.0869 21.355C16.9044 21.3108 16.7501 21.1981 16.6524 21.0377C16.5546 20.8774 16.5252 20.6887 16.5694 20.5062C16.6137 20.3237 16.7264 20.1694 16.8867 20.0717C16.9984 20.0036 17.1238 19.9687 17.2513 19.9687ZM3.22281 21.6843C3.09005 21.8171 2.91353 21.8902 2.72575 21.8902C2.53798 21.8902 2.36151 21.8171 2.22875 21.6843C1.95471 21.4103 1.95471 20.9644 2.22875 20.6903C2.36151 20.5575 2.53803 20.4844 2.7258 20.4844C2.91357 20.4844 3.09005 20.5575 3.22281 20.6903C3.49685 20.9644 3.49685 21.4103 3.22281 21.6843ZM12.0042 16.3138C9.04558 16.3138 6.63862 13.9069 6.63862 10.9483C6.63862 7.98967 9.04558 5.58272 12.0042 5.58272C14.9628 5.58272 17.3697 7.98967 17.3697 10.9483C17.3697 13.9069 14.9628 16.3138 12.0042 16.3138ZM22.5186 16.303C22.3435 16.6488 21.9198 16.7877 21.574 16.6126C21.4065 16.5278 21.282 16.3828 21.2235 16.2044C21.165 16.026 21.1796 15.8355 21.2644 15.668C21.3492 15.5005 21.4941 15.376 21.6726 15.3175C21.7446 15.2939 21.8185 15.2822 21.8922 15.2822C22.001 15.2822 22.1091 15.3078 22.209 15.3584C22.5548 15.5335 22.6937 15.9573 22.5186 16.303Z" fill="#212121"/>
<path d="M10.3172 9.61328C9.15447 9.61328 8.2085 10.5593 8.2085 11.722C8.2085 12.8848 9.15447 13.8307 10.3172 13.8307C11.48 13.8307 12.426 12.8848 12.426 11.722C12.426 10.5593 11.48 9.61328 10.3172 9.61328ZM10.3172 12.4249C9.92964 12.4249 9.61432 12.1096 9.61432 11.722C9.61432 11.3344 9.92964 11.0191 10.3172 11.0191C10.7048 11.0191 11.0201 11.3344 11.0201 11.722C11.0201 12.1096 10.7048 12.4249 10.3172 12.4249Z" fill="#212121"/>
<path d="M14.0659 8.86328H15.4717V10.2691H14.0659V8.86328Z" fill="#212121"/>
<path d="M13.8315 11.9561H15.2374V13.3619H13.8315V11.9561Z" fill="#212121"/>
<path d="M11.231 6.98828H12.6368V8.3941H11.231V6.98828Z" fill="#212121"/>
</g>
<defs>
<clipPath id="clip0_584_4457">
<rect width="24" height="24" fill="white"/>
</clipPath>
</defs>
</svg>
