<svg width="21" height="21" viewBox="0 0 21 21" fill="none" xmlns="http://www.w3.org/2000/svg">
<path d="M8.04376 1.78125C8.33167 1.73943 9.08262 1.6933 9.65607 2.19141C10.0886 2.56704 10.2996 3.13918 10.2996 3.87109V8.93945C10.2996 9.57325 10.8153 10.0896 11.449 10.0898H16.5184C17.2512 10.0898 17.8224 10.3008 18.1981 10.7334C18.6973 11.308 18.6491 12.0585 18.6082 12.3457C17.9551 16.9145 13.9596 20.289 9.36115 20.2891C9.13887 20.2891 8.9152 20.2816 8.69025 20.2656C4.13079 19.9419 0.448193 16.2577 0.12384 11.6982C-0.222937 6.82281 3.25437 2.46629 8.04376 1.78125ZM8.18927 2.80371C3.9366 3.41202 0.845361 7.28558 1.15314 11.624C1.4371 15.6069 4.78162 18.9522 8.76447 19.2354C13.0996 19.5423 16.9764 16.4527 17.5848 12.2002L17.5867 12.1855C17.5952 12.1199 17.6068 11.9922 17.5906 11.8496C17.5732 11.6956 17.5247 11.5335 17.4178 11.4102C17.261 11.2287 16.9698 11.1221 16.5193 11.1221H11.45C10.2467 11.1219 9.26762 10.1427 9.2674 8.93945V3.87012C9.2674 3.42089 9.16076 3.12945 8.97931 2.97168L8.97833 2.9707C8.81108 2.82518 8.57318 2.79004 8.38751 2.79004L8.18927 2.80371ZM12.3738 0.457031C12.7668 0.144851 13.2745 0.030947 13.7645 0.141602C16.9735 0.870929 19.5174 3.41493 20.2469 6.62305C20.3586 7.11407 20.2436 7.62241 19.9305 8.01465C19.6224 8.39996 19.1616 8.62207 18.6678 8.62207H13.949C12.7448 8.62207 11.7657 7.6428 11.7654 6.43945V1.7207C11.7654 1.22699 11.9877 0.766132 12.3738 0.458008V0.457031ZM13.5359 1.14941C13.3757 1.11308 13.2113 1.1405 13.075 1.22559L13.0184 1.26562C12.878 1.37752 12.7986 1.5429 12.7986 1.7207V6.43945C12.7989 7.07241 13.3153 7.58887 13.949 7.58887H18.6678C18.8014 7.58887 18.9282 7.54414 19.0301 7.46289L19.1229 7.37012C19.2383 7.22518 19.2808 7.03758 19.2391 6.85352C18.5975 4.03032 16.3584 1.79169 13.5359 1.14941Z" fill="#212121" stroke="black" stroke-width="0.2"/>
</svg>
