<svg width="17" height="16" viewBox="0 0 17 16" fill="none" xmlns="http://www.w3.org/2000/svg">
<path d="M5.26343 10.7367C4.87267 10.3466 4.87267 9.71249 5.26343 9.3224C5.65419 8.93164 6.28701 8.93164 6.67777 9.3224C7.56198 10.2066 9.10501 10.2073 9.98923 9.3224L13.316 5.9956C14.2289 5.08272 14.2289 3.59703 13.316 2.68414C12.4031 1.77126 10.9174 1.77126 10.0046 2.68414C9.6138 3.0749 8.98098 3.0749 8.59022 2.68414C8.19946 2.29405 8.19946 1.6599 8.59022 1.2698C10.2826 -0.423268 13.038 -0.423268 14.7304 1.2698C16.4234 2.96288 16.4234 5.71687 14.7304 7.40994L11.4036 10.7367C10.5567 11.5836 9.4451 12.0064 8.3335 12.0064C7.2219 12.0064 6.10963 11.5829 5.26343 10.7367ZM4.34054 16C5.45214 16 6.56374 15.5766 7.41061 14.7304C7.80137 14.3403 7.80137 13.7061 7.41061 13.316C7.01985 12.9253 6.38703 12.9253 5.99627 13.316C5.08272 14.2296 3.59703 14.2289 2.68481 13.316C1.77192 12.4031 1.77192 10.9174 2.68481 10.0046L5.99294 6.69644C6.90649 5.78289 8.39218 5.78289 9.3044 6.69644C9.69516 7.0872 10.328 7.0872 10.7187 6.69644C11.1095 6.30634 11.1095 5.67219 10.7187 5.2821C9.02566 3.58903 6.27167 3.58903 4.5786 5.2821L1.2698 8.59022C-0.423268 10.2833 -0.423268 13.0373 1.2698 14.7304C2.11667 15.5772 3.22894 16 4.34054 16Z" fill="black"/>
</svg>
