<svg width="36" height="36" viewBox="0 0 36 36" fill="none" xmlns="http://www.w3.org/2000/svg">
<rect width="36" height="36" rx="18" fill="#F5F5F5"/>
<path d="M17.9436 7.90527C21.3436 7.90527 24.3644 10.1254 25.4016 13.3447L25.4954 13.6592L25.4963 13.6611L27.5002 21.4863H27.4993C27.7152 22.2667 27.5578 23.0925 27.0637 23.7441C26.5699 24.3966 25.8172 24.7715 25.0002 24.7715H22.0911C21.6653 26.6759 19.9695 28.1045 17.9436 28.1045C15.9178 28.1044 14.2218 26.6759 13.7961 24.7715H10.9866C10.1963 24.7715 9.45902 24.4166 8.96509 23.7979C8.47248 23.1804 8.28628 22.3849 8.4563 21.6162V21.6133L10.2922 14.0566C11.0934 10.4386 14.2417 7.90535 17.9436 7.90527ZM14.8743 24.7715C15.2754 26.0995 16.4937 27.0712 17.9436 27.0713C19.3935 27.0713 20.6117 26.0995 21.0129 24.7715H14.8743ZM17.9436 8.93848C14.7273 8.93856 11.9935 11.1391 11.2961 14.291L11.2952 14.293L9.46021 21.8477C9.35981 22.2998 9.47201 22.7788 9.76978 23.1523C10.0671 23.5252 10.5113 23.7383 10.9875 23.7383H25.0002C25.4929 23.7383 25.9459 23.5125 26.2434 23.1191C26.5408 22.7258 26.636 22.2285 26.5042 21.7529V21.751L24.5002 13.9268C23.6882 10.9929 20.9908 8.93848 17.9436 8.93848Z" fill="#212121" stroke="black" stroke-width="0.2"/>
</svg>
