<svg width="16" height="16" viewBox="0 0 16 16" fill="none" xmlns="http://www.w3.org/2000/svg">
<path d="M5.33329 9.66665C5.70148 9.66665 5.99996 9.36817 5.99996 8.99998C5.99996 8.63179 5.70148 8.33331 5.33329 8.33331C4.9651 8.33331 4.66663 8.63179 4.66663 8.99998C4.66663 9.36817 4.9651 9.66665 5.33329 9.66665Z" fill="black"/>
<path d="M5.33329 12.3333C5.70148 12.3333 5.99996 12.0349 5.99996 11.6667C5.99996 11.2985 5.70148 11 5.33329 11C4.9651 11 4.66663 11.2985 4.66663 11.6667C4.66663 12.0349 4.9651 12.3333 5.33329 12.3333Z" fill="black"/>
<path d="M7.99998 9.66665C8.36817 9.66665 8.66665 9.36817 8.66665 8.99998C8.66665 8.63179 8.36817 8.33331 7.99998 8.33331C7.63179 8.33331 7.33331 8.63179 7.33331 8.99998C7.33331 9.36817 7.63179 9.66665 7.99998 9.66665Z" fill="black"/>
<path d="M7.99998 12.3333C8.36817 12.3333 8.66665 12.0349 8.66665 11.6667C8.66665 11.2985 8.36817 11 7.99998 11C7.63179 11 7.33331 11.2985 7.33331 11.6667C7.33331 12.0349 7.63179 12.3333 7.99998 12.3333Z" fill="black"/>
<path d="M10.6667 9.66665C11.0349 9.66665 11.3333 9.36817 11.3333 8.99998C11.3333 8.63179 11.0349 8.33331 10.6667 8.33331C10.2985 8.33331 10 8.63179 10 8.99998C10 9.36817 10.2985 9.66665 10.6667 9.66665Z" fill="black"/>
<path d="M10.6667 12.3333C11.0349 12.3333 11.3333 12.0349 11.3333 11.6667C11.3333 11.2985 11.0349 11 10.6667 11C10.2985 11 10 11.2985 10 11.6667C10 12.0349 10.2985 12.3333 10.6667 12.3333Z" fill="black"/>
<path fill-rule="evenodd" clip-rule="evenodd" d="M15.1666 4.33331V13C15.1666 13.6633 14.9033 14.2986 14.4346 14.768C13.9653 15.2366 13.33 15.5 12.6666 15.5H3.33331C2.66998 15.5 2.03465 15.2366 1.56531 14.768C1.09665 14.2986 0.833313 13.6633 0.833313 13V4.33331C0.833313 3.66998 1.09665 3.03465 1.56531 2.56531C2.03465 2.09665 2.66998 1.83331 3.33331 1.83331H12.6666C13.33 1.83331 13.9653 2.09665 14.4346 2.56531C14.9033 3.03465 15.1666 3.66998 15.1666 4.33331ZM14.1666 4.33331C14.1666 3.93531 14.0086 3.55398 13.7273 3.27265C13.446 2.99131 13.0646 2.83331 12.6666 2.83331H3.33331C2.93531 2.83331 2.55398 2.99131 2.27265 3.27265C1.99131 3.55398 1.83331 3.93531 1.83331 4.33331V13C1.83331 13.398 1.99131 13.7793 2.27265 14.0606C2.55398 14.342 2.93531 14.5 3.33331 14.5H12.6666C13.0646 14.5 13.446 14.342 13.7273 14.0606C14.0086 13.7793 14.1666 13.398 14.1666 13V4.33331Z" fill="black"/>
<path fill-rule="evenodd" clip-rule="evenodd" d="M14.6666 5.5C14.9426 5.5 15.1666 5.724 15.1666 6C15.1666 6.276 14.9426 6.5 14.6666 6.5H1.33331C1.05731 6.5 0.833313 6.276 0.833313 6C0.833313 5.724 1.05731 5.5 1.33331 5.5H14.6666Z" fill="black"/>
<path fill-rule="evenodd" clip-rule="evenodd" d="M10.1666 1C10.1666 0.724 10.3906 0.5 10.6666 0.5C10.9426 0.5 11.1666 0.724 11.1666 1V3.66667C11.1666 3.94267 10.9426 4.16667 10.6666 4.16667C10.3906 4.16667 10.1666 3.94267 10.1666 3.66667V1Z" fill="black"/>
<path fill-rule="evenodd" clip-rule="evenodd" d="M4.83331 1C4.83331 0.724 5.05731 0.5 5.33331 0.5C5.60931 0.5 5.83331 0.724 5.83331 1V3.66667C5.83331 3.94267 5.60931 4.16667 5.33331 4.16667C5.05731 4.16667 4.83331 3.94267 4.83331 3.66667V1Z" fill="black"/>
</svg>
