<svg width="19" height="19" viewBox="0 0 19 19" fill="none" xmlns="http://www.w3.org/2000/svg">
<path d="M10.2607 0.792931C10.2607 0.582968 10.3441 0.381604 10.4926 0.233138C10.6411 0.0846718 10.8424 0.00126427 11.0524 0.00126427C13.1513 0.00356928 15.1636 0.838384 16.6478 2.32255C18.1319 3.80671 18.9668 5.81901 18.9691 7.91793C18.9691 8.12789 18.8857 8.32926 18.7372 8.47772C18.5887 8.62619 18.3874 8.7096 18.1774 8.7096C17.9674 8.7096 17.7661 8.62619 17.6176 8.47772C17.4691 8.32926 17.3857 8.12789 17.3857 7.91793C17.3838 6.23881 16.716 4.62899 15.5287 3.44167C14.3413 2.25435 12.7315 1.58648 11.0524 1.5846C10.8424 1.5846 10.6411 1.50119 10.4926 1.35272C10.3441 1.20426 10.2607 1.00289 10.2607 0.792931ZM11.0524 4.75126C11.8923 4.75126 12.6977 5.08489 13.2916 5.67876C13.8854 6.27262 14.2191 7.07808 14.2191 7.91793C14.2191 8.12789 14.3025 8.32926 14.4509 8.47772C14.5994 8.62619 14.8008 8.7096 15.0107 8.7096C15.2207 8.7096 15.4221 8.62619 15.5705 8.47772C15.719 8.32926 15.8024 8.12789 15.8024 7.91793C15.8011 6.65854 15.3003 5.45109 14.4098 4.56056C13.5192 3.67004 12.3118 3.16919 11.0524 3.16793C10.8424 3.16793 10.6411 3.25134 10.4926 3.3998C10.3441 3.54827 10.2607 3.74963 10.2607 3.9596C10.2607 4.16956 10.3441 4.37092 10.4926 4.51939C10.6411 4.66786 10.8424 4.75126 11.0524 4.75126ZM18.251 13.253C18.7098 13.713 18.9674 14.3362 18.9674 14.9859C18.9674 15.6356 18.7098 16.2588 18.251 16.7189L17.5306 17.5493C11.0469 23.7568 -4.73106 7.98285 1.38061 1.47851L2.29102 0.686848C2.75159 0.240884 3.36922 -0.00582188 4.01029 0.000104349C4.65136 0.00603058 5.26432 0.264112 5.71657 0.718514C5.74111 0.743056 7.20807 2.6486 7.20807 2.6486C7.64335 3.10589 7.88566 3.71333 7.88462 4.34467C7.88359 4.976 7.6393 5.58265 7.20252 6.03851L6.28577 7.19118C6.79311 8.42389 7.53903 9.54421 8.48068 10.4878C9.42232 11.4313 10.5411 12.1795 11.7728 12.6893L12.9326 11.767C13.3885 11.3306 13.9951 11.0866 14.6262 11.0857C15.2574 11.0848 15.8646 11.3271 16.3217 11.7623C16.3217 11.7623 18.2265 13.2284 18.251 13.253ZM17.1617 14.4041C17.1617 14.4041 15.2672 12.9466 15.2427 12.9221C15.0796 12.7603 14.8592 12.6696 14.6295 12.6696C14.3999 12.6696 14.1795 12.7603 14.0164 12.9221C13.995 12.9442 12.3982 14.2164 12.3982 14.2164C12.2906 14.3021 12.1626 14.3582 12.0267 14.3793C11.8908 14.4004 11.7517 14.3858 11.6232 14.3368C10.0276 13.7427 8.57823 12.8126 7.37339 11.6095C6.16855 10.4065 5.23634 8.95852 4.6399 7.36376C4.58701 7.2335 4.56977 7.0915 4.58995 6.95237C4.61012 6.81323 4.66698 6.68198 4.75469 6.5721C4.75469 6.5721 6.0269 4.97451 6.04827 4.95393C6.20999 4.79084 6.30072 4.57046 6.30072 4.34079C6.30072 4.11111 6.20999 3.89073 6.04827 3.72764C6.02373 3.70389 4.56627 1.80785 4.56627 1.80785C4.40074 1.65942 4.18469 1.57992 3.96243 1.58566C3.74016 1.5914 3.52851 1.68194 3.37086 1.83872L2.46044 2.63039C-2.00614 8.00106 11.6667 20.9155 16.3732 16.4679L17.0944 15.6367C17.2634 15.4801 17.3649 15.264 17.3775 15.034C17.39 14.804 17.3126 14.5781 17.1617 14.4041Z" fill="black"/>
</svg>
