<svg width="39" height="40" viewBox="0 0 39 40" fill="none" xmlns="http://www.w3.org/2000/svg">
<rect width="39" height="40" rx="19.5" fill="#B9F2F8"/>
<g clip-path="url(#clip0_484_2070)">
<path d="M22.4163 9.90039C23.6206 9.90039 24.5997 10.8788 24.5999 12.083V17.5C24.5999 20.3126 22.3129 22.5995 19.5003 22.5996C16.6876 22.5996 14.3997 20.3127 14.3997 17.5V12.083C14.3999 10.8788 15.379 9.90041 16.5833 9.90039H22.4163ZM15.4329 17.5C15.4329 19.7423 17.258 21.5664 19.5003 21.5664C21.7424 21.5663 23.5667 19.7422 23.5667 17.5V16.7666H15.4329V17.5ZM16.5833 10.9336C15.9495 10.9336 15.4331 11.4492 15.4329 12.083V15.7334H23.5667V12.083C23.5665 11.4492 23.0501 10.9336 22.4163 10.9336H16.5833ZM19.5003 11.5664C19.7853 11.5666 20.0167 11.798 20.0169 12.083V12.8164H20.7503C21.0353 12.8166 21.2667 13.048 21.2669 13.333C21.2669 13.6181 21.0354 13.8495 20.7503 13.8496H20.0169V14.583C20.0169 14.8681 19.7854 15.0995 19.5003 15.0996C19.2151 15.0996 18.9837 14.8682 18.9837 14.583V13.8496H18.2503C17.9651 13.8496 17.7337 13.6182 17.7337 13.333C17.7339 13.0479 17.9652 12.8164 18.2503 12.8164H18.9837V12.083C18.9839 11.7979 19.2152 11.5664 19.5003 11.5664ZM27.0999 29.583C27.0999 29.8682 26.8685 30.0996 26.5833 30.0996C26.2981 30.0996 26.0667 29.8682 26.0667 29.583V29.0625C26.0667 27.323 25.3503 25.4894 24.2962 24.501C24.1275 24.3435 23.903 24.2608 23.6732 24.2734H23.6722C23.4291 24.2846 23.1971 24.3935 23.0345 24.5732L19.9036 28.498C19.8055 28.6209 19.6572 28.6923 19.4993 28.6924C19.3416 28.6924 19.1923 28.6211 19.0941 28.498L15.9603 24.5566L15.9017 24.4971C15.7562 24.3649 15.5513 24.2776 15.3372 24.2666C15.0962 24.2672 14.8748 24.3396 14.7103 24.4932C13.6513 25.4815 12.932 27.3187 12.9319 29.0615V29.582C12.9319 29.8672 12.7004 30.0994 12.4153 30.0996C12.1301 30.0996 11.8987 29.8673 11.8987 29.582V29.0615C11.8988 27.1817 12.6383 25.1846 13.7728 23.9697L14.0052 23.7373C14.3768 23.3895 14.8675 23.2037 15.3841 23.2354H15.3831C15.8392 23.2562 16.2765 23.4408 16.6107 23.748L16.7474 23.8867L16.7513 23.8906H16.7503L19.4993 27.3467L22.2405 23.9131L22.2435 23.9082C22.6042 23.502 23.1019 23.2651 23.6234 23.2412H23.8167C24.263 23.2634 24.6756 23.4412 25.0003 23.7451C26.2443 24.9119 27.0758 27.0095 27.096 28.9883L27.0999 28.9902V29.583Z" fill="black" stroke="black" stroke-width="0.2"/>
</g>
<defs>
<clipPath id="clip0_484_2070">
<rect width="20" height="20" fill="white" transform="translate(9.5 10)"/>
</clipPath>
</defs>
</svg>
