<svg width="17" height="16" viewBox="0 0 17 16" fill="none" xmlns="http://www.w3.org/2000/svg">
<g clip-path="url(#clip0_1799_2213)">
<path d="M9.33333 7.33333V3.33333C9.33333 2.23067 8.436 1.33333 7.33333 1.33333H3.33333C2.23067 1.33333 1.33333 2.23067 1.33333 3.33333V12.6667C1.33333 13.7693 2.23067 14.6667 3.33333 14.6667H7.33333C7.702 14.6667 8 14.9653 8 15.3333C8 15.7013 7.702 16 7.33333 16H3.33333C1.49533 16 0 14.5047 0 12.6667V3.33333C0 1.49533 1.49533 0 3.33333 0H7.33333C9.17133 0 10.6667 1.49533 10.6667 3.33333V7.33333C10.6667 7.70133 10.3687 8 10 8C9.63133 8 9.33333 7.70133 9.33333 7.33333ZM4 8.66667H3.33333C2.96467 8.66667 2.66667 8.96533 2.66667 9.33333C2.66667 9.70133 2.96467 10 3.33333 10H4C4.36867 10 4.66667 9.70133 4.66667 9.33333C4.66667 8.96533 4.36867 8.66667 4 8.66667ZM7.33333 8.66667H6.66667C6.298 8.66667 6 8.96533 6 9.33333C6 9.70133 6.298 10 6.66667 10H7.33333C7.702 10 8 9.70133 8 9.33333C8 8.96533 7.702 8.66667 7.33333 8.66667ZM4 11.3333H3.33333C2.96467 11.3333 2.66667 11.632 2.66667 12C2.66667 12.368 2.96467 12.6667 3.33333 12.6667H4C4.36867 12.6667 4.66667 12.368 4.66667 12C4.66667 11.632 4.36867 11.3333 4 11.3333ZM7.33333 11.3333H6.66667C6.298 11.3333 6 11.632 6 12C6 12.368 6.298 12.6667 6.66667 12.6667H7.33333C7.702 12.6667 8 12.368 8 12C8 11.632 7.702 11.3333 7.33333 11.3333ZM5.33333 6.66667C5.702 6.66667 6 6.368 6 6V5.33333H6.66667C7.03533 5.33333 7.33333 5.03467 7.33333 4.66667C7.33333 4.29867 7.03533 4 6.66667 4H6V3.33333C6 2.96533 5.702 2.66667 5.33333 2.66667C4.96467 2.66667 4.66667 2.96533 4.66667 3.33333V4H4C3.63133 4 3.33333 4.29867 3.33333 4.66667C3.33333 5.03467 3.63133 5.33333 4 5.33333H4.66667V6C4.66667 6.368 4.96467 6.66667 5.33333 6.66667ZM12.6667 12C13.5873 12 14.3333 11.254 14.3333 10.3333C14.3333 9.41267 13.5873 8.66667 12.6667 8.66667C11.746 8.66667 11 9.41267 11 10.3333C11 11.254 11.746 12 12.6667 12ZM15.9793 15.1673C15.6053 13.7187 14.2133 12.6673 12.6667 12.6673C11.12 12.6673 9.72667 13.7193 9.354 15.168C9.262 15.5247 9.47733 15.888 9.834 15.98C9.89 15.994 9.94533 16.0013 10.0007 16.0013C10.2973 16.0013 10.5687 15.8013 10.646 15.5007C10.8653 14.646 11.7347 14.0013 12.6667 14.0013C13.5987 14.0013 14.4673 14.646 14.6873 15.5013C14.7793 15.858 15.1473 16.072 15.4993 15.9807C15.856 15.8887 16.0707 15.5253 15.9793 15.1687V15.1673Z" fill="black"/>
</g>
<defs>
<clipPath id="clip0_1799_2213">
<rect width="16" height="16" fill="white"/>
</clipPath>
</defs>
</svg>
