<svg width="24" height="24" viewBox="0 0 24 24" fill="none" xmlns="http://www.w3.org/2000/svg">
<g clip-path="url(#clip0_584_4526)">
<path d="M18.2178 11.1445C18.4001 11.0835 18.6009 11.0835 18.7832 11.1445L22.5762 12.4023L22.5771 12.4033L22.5996 12.4111C23.3776 12.6686 23.9013 13.3931 23.9014 14.2119V17.5361C23.9013 19.5161 22.9772 20.9555 21.9062 21.9609C20.8338 22.9678 19.6177 23.5359 19.0469 23.7656L19.0371 23.7686L19.0293 23.7744L19.0283 23.7754C19.0271 23.7761 19.0244 23.7776 19.0215 23.7793C19.0157 23.7827 19.0068 23.7877 18.9951 23.7939C18.9706 23.8069 18.9336 23.8249 18.8867 23.8428C18.7928 23.8785 18.6594 23.9141 18.502 23.9141C18.3485 23.9141 18.1998 23.8667 18.0869 23.8174C18.0313 23.7931 17.9855 23.7691 17.9541 23.751C17.9384 23.7419 17.9259 23.7345 17.918 23.7295C17.9141 23.727 17.911 23.7248 17.9092 23.7236L17.9072 23.7227L17.9082 23.7217L17.8955 23.7158L17.6562 23.5918C17.0345 23.261 15.9979 22.6347 15.0703 21.7246C14.0101 20.6845 13.1006 19.2829 13.1006 17.5352V14.2109C13.1006 13.3921 13.6244 12.6676 14.4023 12.4102L18.2178 11.1445ZM5 17.0996H10C10.4978 17.0996 10.9004 17.5022 10.9004 18C10.9004 18.4978 10.4978 18.9004 10 18.9004H5C4.50223 18.9004 4.09961 18.4978 4.09961 18C4.09961 17.5022 4.50223 17.0996 5 17.0996ZM5 13.0996H10C10.4978 13.0996 10.9004 13.5022 10.9004 14C10.9004 14.4978 10.4978 14.9004 10 14.9004H5C4.50223 14.9004 4.09961 14.4978 4.09961 14C4.09961 13.5022 4.50223 13.0996 5 13.0996ZM11.9004 7C11.9004 7.60723 12.3928 8.09961 13 8.09961H17.5117L17.4258 7.9502C17.2014 7.55964 16.9258 7.19823 16.6055 6.87793L13.1221 3.39453C12.797 3.07053 12.4376 2.79476 12.0498 2.57227L11.9004 2.48633V7ZM22.0996 14.1396L22.0312 14.1172L18.5312 12.959L18.5 12.9482L18.4688 12.959L14.9688 14.1191L14.9004 14.1416V17.5361C14.9004 18.7161 15.5802 19.7126 16.3604 20.4688C17.1421 21.2263 18.0383 21.7559 18.499 22.0029L18.542 22.0264L18.5859 22.0068C19.1068 21.777 19.9829 21.3216 20.7295 20.5947C21.4772 19.8668 22.0996 18.8612 22.0996 17.5361V14.1396ZM10.0996 1.93164L10.0098 1.92383C9.84682 1.90855 9.68092 1.90039 9.51465 1.90039H5C3.29077 1.90039 1.90039 3.29077 1.90039 5V19C1.90039 20.7092 3.29077 22.0996 5 22.0996H12C12.4978 22.0996 12.9004 22.5022 12.9004 23C12.9004 23.4978 12.4978 23.9004 12 23.9004H5C2.29823 23.9004 0.0996094 21.7018 0.0996094 19V5C0.0996094 2.29823 2.29823 0.0996094 5 0.0996094H9.51465C11.3581 0.0996094 13.0913 0.818805 14.3945 2.12207L17.8779 5.60547C18.7541 6.48066 19.379 7.57781 19.6855 8.77637C19.7539 9.04545 19.6944 9.33216 19.5244 9.55176C19.3545 9.77114 19.0914 9.90024 18.8135 9.90039H13C11.4012 9.90039 10.0996 8.59877 10.0996 7V1.93164Z" fill="black" stroke="#B9F2F8" stroke-width="0.2"/>
</g>
<defs>
<clipPath id="clip0_584_4526">
<rect width="24" height="24" fill="white"/>
</clipPath>
</defs>
</svg>
