<svg width="16" height="16" viewBox="0 0 16 16" fill="none" xmlns="http://www.w3.org/2000/svg">
<path d="M11.2534 12.2997C11.4701 12.2303 11.6361 12.055 11.6941 11.8357C11.7174 11.747 12.2681 9.63299 12.2681 6.81433C12.2681 6.01833 12.2241 5.20299 12.1368 4.39033C12.1208 4.23833 12.0528 4.09633 11.9441 3.98833L8.89542 0.958325C8.78942 0.852992 8.65075 0.786326 8.50275 0.768992C7.92009 0.700992 7.34875 0.666992 6.80409 0.666992C4.44542 0.666992 2.43942 1.30233 2.35475 1.32966C2.13809 1.39899 1.97209 1.57433 1.91409 1.79433C1.89075 1.88299 1.34009 3.99699 1.34009 6.81566C1.34009 9.65833 1.89075 11.751 1.91475 11.8383C1.97275 12.057 2.13875 12.231 2.35409 12.3003C2.43809 12.3277 4.44009 12.9637 6.80409 12.9637C9.16809 12.9637 11.1688 12.3277 11.2534 12.301V12.2997ZM2.67342 6.81433C2.67342 4.83233 2.97009 3.19566 3.11942 2.49699C3.76675 2.32633 5.21342 1.99899 6.80409 1.99899C7.12809 1.99899 7.46342 2.01299 7.80609 2.03966C7.97409 3.37366 8.20542 4.10033 8.21609 4.13299C8.27875 4.32633 8.42609 4.48033 8.61609 4.55166C8.65475 4.56633 9.50075 4.87966 10.8628 5.07366C10.9108 5.65833 10.9354 6.24099 10.9354 6.81299C10.9354 8.79499 10.6388 10.4317 10.4894 11.1297C9.84209 11.3003 8.39542 11.6277 6.80475 11.6277C5.21409 11.6277 3.76475 11.3003 3.11942 11.1297C2.97009 10.4357 2.67409 8.80966 2.67409 6.81233L2.67342 6.81433Z" fill="#00BCD4"/>
<path d="M14.5808 4.81506C14.5514 4.44839 14.2348 4.17573 13.8634 4.20306C13.4961 4.23173 13.2221 4.55306 13.2514 4.92039C13.3014 5.55373 13.3268 6.18706 13.3268 6.80373C13.3268 9.19439 12.9934 12.2344 12.8534 13.4064C11.7154 13.5837 8.83009 13.9997 6.80476 13.9997C6.22143 13.9997 5.61143 13.9644 4.99143 13.8951C4.63009 13.8524 4.29543 14.1171 4.25476 14.4831C4.21343 14.8491 4.47676 15.1784 4.84276 15.2197C5.51209 15.2951 6.17209 15.3331 6.80476 15.3331C9.48009 15.3331 13.4001 14.6704 13.5654 14.6424C13.8534 14.5931 14.0761 14.3624 14.1141 14.0724C14.1368 13.9037 14.6601 9.90373 14.6601 6.80373C14.6601 6.15239 14.6334 5.48306 14.5808 4.81506Z" fill="#00BCD4"/>
</svg>
