<svg width="80" height="80" viewBox="0 0 80 80" fill="none" xmlns="http://www.w3.org/2000/svg">
<path d="M66.5038 66.5125C81.1463 51.8701 81.1463 28.1299 66.5038 13.4875C51.8614 -1.15495 28.1213 -1.15495 13.4788 13.4875C-1.16364 28.1299 -1.16364 51.8701 13.4788 66.5125C28.1213 81.1549 51.8614 81.155 66.5038 66.5125Z" fill="#46CC6B"/>
<path fill-rule="evenodd" clip-rule="evenodd" d="M76.9601 46.3616C74.2918 61.9741 61.9735 74.2917 46.3615 76.9602L26.1738 56.7725C21.3431 52.7858 18.2642 46.7525 18.2642 40C18.2642 27.9955 27.9954 18.2642 39.9999 18.2642C46.7524 18.2642 52.7857 21.3433 56.7724 26.1739L76.9601 46.3616Z" fill="#179C5F"/>
<path fill-rule="evenodd" clip-rule="evenodd" d="M29.8259 41.2906L36.0162 46.9753C36.9192 47.8066 38.3168 47.7624 39.166 46.8867L50.2096 36.3131C51.1079 35.4494 51.1351 34.0203 50.271 33.1216C49.407 32.2242 47.9787 32.1961 47.0804 33.0598L37.5145 42.2188L32.884 37.9667C31.9667 37.1227 30.5374 37.1819 29.6929 38.1002C28.8485 39.0175 28.9081 40.4458 29.8259 41.2906ZM39.9999 18.2642C52.0045 18.2642 61.7357 27.9955 61.7357 40C61.7357 52.0045 52.0045 61.7358 39.9999 61.7358C27.9954 61.7358 18.2642 52.0045 18.2642 40C18.2642 27.9955 27.9954 18.2642 39.9999 18.2642Z" fill="white"/>
</svg>
