<svg width="80" height="80" viewBox="0 0 80 80" fill="none" xmlns="http://www.w3.org/2000/svg">
<g clip-path="url(#clip0_77_378)">
<path d="M40 80C62.0914 80 80 62.0914 80 40C80 17.9086 62.0914 0 40 0C17.9086 0 0 17.9086 0 40C0 62.0914 17.9086 80 40 80Z" fill="#F15249"/>
<path d="M23.2178 58.0441L44.7951 79.6213C62.9654 77.4762 77.3503 63.2176 79.6216 45.0472L57.9181 23.3438L23.2178 58.0441Z" fill="#AD0E0E"/>
<path d="M58.9279 48.8327C60.6944 50.5993 60.6944 53.6277 58.9279 55.3942L55.3947 58.9273C53.6282 60.6939 50.5998 60.6939 48.8332 58.9273L21.073 31.1671C19.3064 29.4005 19.3064 26.3721 21.073 24.6056L24.7323 20.9463C26.4988 19.1797 29.5272 19.1797 31.2938 20.9463L58.9279 48.8327Z" fill="white"/>
<path d="M44.2902 34.0693L34.0693 44.2902L48.8327 58.9274C50.5993 60.6939 53.6277 60.6939 55.3943 58.9274L59.0536 55.2681C60.8201 53.5015 60.8201 50.4731 59.0536 48.7066L44.2902 34.0693Z" fill="#D6D6D6"/>
<path d="M48.8332 21.0725C50.5998 19.3059 53.6282 19.3059 55.3947 21.0725L59.054 24.7318C60.8206 26.4983 60.8206 29.5267 59.054 31.2933L31.1676 58.9274C29.401 60.6939 26.3727 60.6939 24.6061 58.9274L21.073 55.3942C19.3064 53.6277 19.3064 50.5993 21.073 48.8327L48.8332 21.0725Z" fill="white"/>
</g>
<defs>
<clipPath id="clip0_77_378">
<rect width="80" height="80" fill="white"/>
</clipPath>
</defs>
</svg>
