<svg width="17" height="16" viewBox="0 0 17 16" fill="none" xmlns="http://www.w3.org/2000/svg">
<path d="M13.6435 3.06135C13.5815 3.04668 12.6908 2.84068 11.3648 2.67202L10.9261 1.33202C10.8508 1.10135 10.6561 0.930016 10.4168 0.884682C10.3708 0.876016 9.25481 0.666016 8.00081 0.666016C6.74681 0.666016 5.63081 0.875349 5.58414 0.884682C5.34614 0.930016 5.15147 1.10202 5.07547 1.33202L4.63681 2.67268C3.31147 2.84135 2.42081 3.04668 2.35881 3.06135C2.00014 3.14468 1.77747 3.50335 1.86147 3.86202C1.93281 4.16935 2.20747 4.37735 2.51014 4.37735C2.55147 4.37735 2.59347 4.37335 2.63547 4.36535C2.52947 5.42268 2.44147 6.85068 2.44147 8.20402C2.44147 11.6113 2.99681 14.114 3.02014 14.2187C3.07347 14.454 3.24947 14.6427 3.48014 14.7113C3.56614 14.7367 5.60014 15.3327 8.00081 15.3327C10.4015 15.3327 12.4348 14.7367 12.5208 14.7113C12.7528 14.642 12.9295 14.4533 12.9815 14.2167C13.0055 14.1107 13.5601 11.582 13.5601 8.20335C13.5601 6.84468 13.4728 5.41868 13.3675 4.36535C13.7115 4.43135 14.0575 4.21135 14.1395 3.86202C14.2235 3.50335 14.0008 3.14468 13.6428 3.06068L13.6435 3.06135ZM11.7581 13.5333C11.0881 13.696 9.62214 13.9993 8.00081 13.9993C6.37947 13.9993 4.91281 13.6953 4.24214 13.5327C4.09081 12.716 3.77414 10.7013 3.77414 8.20335C3.77414 6.73002 3.88681 5.12735 4.00347 4.11068C4.99814 3.95468 6.44681 3.78268 8.00081 3.78268C9.55481 3.78268 11.0061 3.95402 12.0001 4.11002C12.1155 5.12202 12.2275 6.72202 12.2275 8.20268C12.2275 10.6753 11.9088 12.7087 11.7581 13.5327V13.5333Z" fill="#FF0000"/>
<path d="M6.45378 5.82031C6.08511 5.82031 5.78711 6.11898 5.78711 6.48698V11.5936C5.78711 11.9616 6.08511 12.2603 6.45378 12.2603C6.82244 12.2603 7.12044 11.9616 7.12044 11.5936V6.48698C7.12044 6.11898 6.82244 5.82031 6.45378 5.82031Z" fill="#FF0000"/>
<path d="M9.54557 5.82031C9.17691 5.82031 8.87891 6.11898 8.87891 6.48698V11.5936C8.87891 11.9616 9.17691 12.2603 9.54557 12.2603C9.91424 12.2603 10.2122 11.9616 10.2122 11.5936V6.48698C10.2122 6.11898 9.91424 5.82031 9.54557 5.82031Z" fill="#FF0000"/>
</svg>
