<svg width="80" height="80" viewBox="0 0 80 80" fill="none" xmlns="http://www.w3.org/2000/svg">
<path d="M40 77.5C60.7107 77.5 77.5 60.7107 77.5 40C77.5 19.2893 60.7107 2.5 40 2.5C19.2893 2.5 2.5 19.2893 2.5 40C2.5 60.7107 19.2893 77.5 40 77.5Z" fill="#FF5A54"/>
<path fill-rule="evenodd" clip-rule="evenodd" d="M77.4931 39.463C77.4957 39.642 77.5 39.8206 77.5 40.0003C77.5 60.7109 60.7107 77.5003 40 77.5003C39.8033 77.5003 39.6077 77.4959 39.4116 77.4928L25.558 63.6391C25.0792 63.2284 24.763 62.6319 24.7217 61.9552L22.7847 30.1867H23.0275L20.2983 27.4575C20.1567 27.3159 20.0691 27.1206 20.0691 26.9055V22.8805C20.0691 21.5528 21.1519 20.4702 22.4794 20.4702H32.6355V18.4994C32.6355 17.0022 33.8566 15.7812 35.3536 15.7812H44.6464C45.4417 15.7812 46.1593 16.1258 46.6571 16.6734L50.4538 20.4702H57.5207C58.2674 20.4702 58.9367 20.8128 59.3794 21.3489L77.4931 39.463Z" fill="#DB3A3C"/>
<path fill-rule="evenodd" clip-rule="evenodd" d="M32.1754 36.6308C32.8657 36.6308 33.4254 37.1905 33.4254 37.8808V53.7534C33.4254 54.4438 32.8657 55.0034 32.1754 55.0034C31.4851 55.0034 30.9254 54.4438 30.9254 53.7534V37.8808C30.9254 37.1905 31.4851 36.6308 32.1754 36.6308ZM38.7499 37.8808C38.7499 37.1905 39.3096 36.6308 39.9999 36.6308C40.6903 36.6308 41.2499 37.1905 41.2499 37.8808V53.7534C41.2499 54.4438 40.6903 55.0034 39.9999 55.0034C39.3096 55.0034 38.7499 54.4438 38.7499 53.7534V37.8808ZM46.5745 37.8808C46.5745 37.1905 47.1342 36.6308 47.8245 36.6308C48.5148 36.6308 49.0745 37.1905 49.0745 37.8808V53.7534C49.0745 54.4438 48.5148 55.0034 47.8245 55.0034C47.1342 55.0034 46.5745 54.4438 46.5745 53.7534V37.8808ZM22.7846 30.1866L24.7217 61.955C24.7993 63.2287 25.8513 64.2186 27.1274 64.2186H52.8723C54.1484 64.2186 55.2006 63.2287 55.2781 61.955L57.2151 30.1866H22.7846ZM22.4793 20.4702H32.6354V18.4994C32.6354 17.0022 33.8565 15.7812 35.3535 15.7812H44.6463C46.1434 15.7812 47.3645 17.0022 47.3645 18.4994V20.4702H57.5204C58.8481 20.4702 59.9307 21.553 59.9307 22.8805V26.9055C59.9307 27.3358 59.5798 27.6867 59.1495 27.6867H20.8501C20.4198 27.6867 20.0688 27.3358 20.0688 26.9055V22.8805C20.0688 21.5528 21.1518 20.4702 22.4793 20.4702Z" fill="white"/>
</svg>
