<svg width="39" height="40" viewBox="0 0 39 40" fill="none" xmlns="http://www.w3.org/2000/svg">
<rect width="39" height="40" rx="19.5" fill="#E8F9FF"/>
<path d="M25.3333 14.1663H22.8333V13.333C22.8333 12.67 22.5699 12.0341 22.1011 11.5652C21.6323 11.0964 20.9964 10.833 20.3333 10.833H18.6667C18.0036 10.833 17.3677 11.0964 16.8989 11.5652C16.4301 12.0341 16.1667 12.67 16.1667 13.333V14.1663H13.6667C12.562 14.1677 11.503 14.6071 10.7218 15.3882C9.94073 16.1693 9.50132 17.2283 9.5 18.333L9.5 24.9997C9.50132 26.1043 9.94073 27.1634 10.7218 27.9445C11.503 28.7256 12.562 29.165 13.6667 29.1663H25.3333C26.438 29.165 27.497 28.7256 28.2782 27.9445C29.0593 27.1634 29.4987 26.1043 29.5 24.9997V18.333C29.4987 17.2283 29.0593 16.1693 28.2782 15.3882C27.497 14.6071 26.438 14.1677 25.3333 14.1663ZM17.8333 13.333C17.8333 13.112 17.9211 12.9 18.0774 12.7438C18.2337 12.5875 18.4457 12.4997 18.6667 12.4997H20.3333C20.5543 12.4997 20.7663 12.5875 20.9226 12.7438C21.0789 12.9 21.1667 13.112 21.1667 13.333V14.1663H17.8333V13.333ZM27.8333 24.9997C27.8333 25.6627 27.5699 26.2986 27.1011 26.7674C26.6323 27.2363 25.9964 27.4997 25.3333 27.4997H13.6667C13.0036 27.4997 12.3677 27.2363 11.8989 26.7674C11.4301 26.2986 11.1667 25.6627 11.1667 24.9997V18.333C11.1667 17.67 11.4301 17.0341 11.8989 16.5652C12.3677 16.0964 13.0036 15.833 13.6667 15.833H25.3333C25.9964 15.833 26.6323 16.0964 27.1011 16.5652C27.5699 17.0341 27.8333 17.67 27.8333 18.333V24.9997ZM22.8333 21.6663C22.8333 21.8874 22.7455 22.0993 22.5893 22.2556C22.433 22.4119 22.221 22.4997 22 22.4997H20.3333V24.1663C20.3333 24.3874 20.2455 24.5993 20.0893 24.7556C19.933 24.9119 19.721 24.9997 19.5 24.9997C19.279 24.9997 19.067 24.9119 18.9107 24.7556C18.7545 24.5993 18.6667 24.3874 18.6667 24.1663V22.4997H17C16.779 22.4997 16.567 22.4119 16.4107 22.2556C16.2545 22.0993 16.1667 21.8874 16.1667 21.6663C16.1667 21.4453 16.2545 21.2334 16.4107 21.0771C16.567 20.9208 16.779 20.833 17 20.833H18.6667V19.1663C18.6667 18.9453 18.7545 18.7334 18.9107 18.5771C19.067 18.4208 19.279 18.333 19.5 18.333C19.721 18.333 19.933 18.4208 20.0893 18.5771C20.2455 18.7334 20.3333 18.9453 20.3333 19.1663V20.833H22C22.221 20.833 22.433 20.9208 22.5893 21.0771C22.7455 21.2334 22.8333 21.4453 22.8333 21.6663Z" fill="#009FB6"/>
</svg>
