<svg width="24" height="24" viewBox="0 0 24 24" fill="none" xmlns="http://www.w3.org/2000/svg">
<g clip-path="url(#clip0_980_5520)">
<path d="M14.0156 -0.0976562C15.779 -0.0976562 17.4369 0.58831 18.6826 1.83496L22.168 5.31934L22.3389 5.49023H22.3291C23.4721 6.7167 24.0996 8.30448 24.0996 9.9873V19.502C24.0996 22.0382 22.0362 24.1016 19.5 24.1016H8.5C6.40056 24.1016 4.56844 22.6834 4.04492 20.6523C3.96207 20.3317 4.15613 20.0036 4.47754 19.9209L4.59668 19.9033C4.87357 19.8906 5.13592 20.0689 5.20801 20.3516L5.29102 20.6279C5.76392 21.9806 7.04543 22.9023 8.50098 22.9023H19.501C21.3757 22.9023 22.9014 21.3767 22.9014 19.502V9.9873C22.9014 9.68873 22.8694 9.39375 22.8203 9.10156H17.501C16.0678 9.10155 14.9014 7.9362 14.9014 6.50195V1.18262C14.6101 1.13352 14.3151 1.10156 14.0156 1.10156H8.50098C6.62622 1.10158 5.10059 2.62719 5.10059 4.50195C5.10059 4.83318 4.83221 5.10156 4.50098 5.10156C4.16976 5.10155 3.90137 4.83317 3.90137 4.50195C3.90137 1.96573 5.96476 -0.0976436 8.50098 -0.0976562H14.0156ZM18.501 18.9014C18.8322 18.9014 19.1006 19.1697 19.1006 19.501C19.1006 19.8322 18.8322 20.1006 18.501 20.1006H9.50098C9.16977 20.1006 8.90138 19.8322 8.90137 19.501C8.90137 19.1698 9.16976 18.9014 9.50098 18.9014H18.501ZM4.5 6.90137C6.48523 6.90137 8.09961 8.51575 8.09961 10.501C8.0996 11.4636 7.71702 12.3365 7.09961 12.9824V17.0527C7.09961 17.477 6.84661 17.858 6.4541 18.0205C6.32347 18.0747 6.1862 18.0996 6.05176 18.0996C5.79392 18.0996 5.54257 18.0045 5.3457 17.8232H5.33789L5.30762 17.79L4.49902 16.8965L3.70801 17.7715L3.70508 17.7744C3.42787 18.0535 3.05037 18.1562 2.69629 18.0693L2.5459 18.0205C2.15339 17.858 1.90039 17.477 1.90039 17.0527V12.9824C1.28301 12.3357 0.900397 11.4636 0.900391 10.501C0.900391 8.51575 2.51477 6.90137 4.5 6.90137ZM5.90137 13.8037C5.47135 13.9888 5.001 14.1006 4.50098 14.1006C4.00106 14.1006 3.53078 13.9895 3.10059 13.8037V16.6553L4.05566 15.5986C4.28423 15.344 4.71647 15.3443 4.94531 15.5986L5.90137 16.6553V13.8037ZM18.501 14.9014C18.8322 14.9014 19.1006 15.1697 19.1006 15.501C19.1006 15.8322 18.8322 16.1006 18.501 16.1006H9.50098C9.16977 16.1006 8.90138 15.8322 8.90137 15.501C8.90137 15.1698 9.16976 14.9014 9.50098 14.9014H18.501ZM4.50098 8.10059C3.17819 8.1006 2.10059 9.17724 2.10059 10.501C2.1006 11.8247 3.1782 12.9014 4.50098 12.9014C5.82377 12.9014 6.90135 11.8247 6.90137 10.501C6.90137 9.17723 5.82377 8.10059 4.50098 8.10059ZM18.501 10.9014C18.8322 10.9014 19.1006 11.1697 19.1006 11.501C19.1006 11.8322 18.8322 12.1006 18.501 12.1006H10.501C10.1698 12.1006 9.90138 11.8322 9.90137 11.501C9.90137 11.1698 10.1698 10.9014 10.501 10.9014H18.501ZM16.1006 6.50098C16.1006 7.27273 16.7292 7.90135 17.501 7.90137L22.4707 7.90039C22.2046 7.26143 21.8232 6.6718 21.3193 6.16699L17.834 2.68262C17.3301 2.17876 16.7399 1.79632 16.1006 1.5293V6.50098Z" fill="black" stroke="black" stroke-width="0.2"/>
</g>
<defs>
<clipPath id="clip0_980_5520">
<rect width="24" height="24" fill="white"/>
</clipPath>
</defs>
</svg>
