<svg width="16" height="17" viewBox="0 0 16 17" fill="none" xmlns="http://www.w3.org/2000/svg">
<g clip-path="url(#clip0_1799_2793)">
<path d="M15.4079 3.44308C15.7899 3.06242 15.9999 2.55575 16.0005 2.01642C16.0005 1.47708 15.7912 0.971083 15.4099 0.58975C14.6245 -0.19625 13.3465 -0.196917 12.5599 0.58975L10.9345 2.21508C10.2592 2.89042 8.85186 2.74175 7.88119 2.20508C7.22052 1.84308 6.38386 1.96975 5.84319 2.51108C5.51519 2.83908 5.33386 3.27508 5.33386 3.73975C5.33386 4.20442 5.51452 4.64042 5.84319 4.96908L6.78719 5.91308L1.34986 11.3497C0.603857 12.0957 0.469857 13.2251 0.94719 14.1091L0.194523 14.8617C-0.0661432 15.1224 -0.0661432 15.5437 0.194523 15.8044C0.324523 15.9344 0.49519 15.9997 0.665857 15.9997C0.836523 15.9997 1.00719 15.9344 1.13719 15.8044L1.88852 15.0531C2.22586 15.2357 2.60452 15.3331 2.99919 15.3331C3.62252 15.3331 4.20852 15.0904 4.64919 14.6497L10.0859 9.21375L11.0299 10.1577C11.3579 10.4864 11.7945 10.6671 12.2585 10.6671C12.7225 10.6671 13.1592 10.4864 13.4872 10.1577C14.0299 9.61642 14.1552 8.77775 13.7925 8.11908C13.2585 7.14842 13.1092 5.74108 13.7845 5.06642L15.4079 3.44308ZM3.70652 13.7071C3.32986 14.0844 2.67052 14.0844 2.29252 13.7071C1.90319 13.3171 1.90319 12.6831 2.29252 12.2931L3.91852 10.6671H6.74719L3.70652 13.7071ZM8.08119 9.33308H5.25252L7.72919 6.85642L9.14386 8.27108L8.08119 9.33308ZM12.8419 4.12375C11.6692 5.29575 11.8445 7.34442 12.6252 8.76242C12.7032 8.90442 12.6705 9.08975 12.5452 9.21508C12.3925 9.36842 12.1259 9.36842 11.9739 9.21508L6.78652 4.02775C6.70986 3.95175 6.66786 3.84908 6.66786 3.74108C6.66786 3.63308 6.70986 3.53175 6.78652 3.45508C6.86586 3.37508 6.97052 3.33308 7.07252 3.33308C7.13052 3.33308 7.18786 3.34708 7.23919 3.37442C8.65719 4.15508 10.7052 4.33175 11.8779 3.15842L13.5032 1.53308C13.7699 1.26775 14.2025 1.26775 14.4679 1.53308C14.5972 1.66175 14.6679 1.83375 14.6679 2.01642C14.6679 2.19908 14.5965 2.37042 14.4672 2.49975L12.8419 4.12375Z" fill="black"/>
</g>
<defs>
<clipPath id="clip0_1799_2793">
<rect width="16" height="16" fill="white"/>
</clipPath>
</defs>
</svg>
