<svg width="16" height="16" viewBox="0 0 16 16" fill="none" xmlns="http://www.w3.org/2000/svg">
<g clip-path="url(#clip0_1799_2823)">
<path d="M5.32905 11.2607L5.36572 12H10.7011L10.6617 11.2273C10.6617 9.74467 9.78572 8.66 9.02772 8C9.49439 7.59 10.4691 6.572 10.6417 5.09733C10.6737 4.82333 10.5851 4.546 10.3997 4.338C10.2084 4.12333 9.93372 4 9.64572 4H6.35505C6.06705 4 5.79239 4.12333 5.60105 4.338C5.41572 4.546 5.32705 4.82333 5.35905 5.09733C5.53439 6.60667 6.57639 7.65333 6.97039 8C6.20905 8.66 5.32839 9.74467 5.32905 11.2607ZM6.75972 5.33333H9.24105C8.99439 6.22 8.33105 6.84333 8.11105 7.03L7.99972 7.12533L7.88505 7.028C7.66572 6.84267 7.00505 6.22267 6.75972 5.33333ZM7.88505 8.972L7.99905 8.87467L8.11039 8.96933C8.55439 9.348 9.06705 9.92 9.25505 10.666H6.73105C6.91572 9.92933 7.43505 9.352 7.88439 8.97133L7.88505 8.972ZM6.12305 1.606L5.74639 0.322C6.47505 0.108 7.23372 0 8.00039 0V1.33333C7.34772 1.33333 6.71905 1.43133 6.12305 1.606ZM2.96572 3.63867L1.95439 2.762C2.45439 2.18467 3.03305 1.68333 3.67439 1.27L4.39905 2.39533C3.86372 2.74 3.38172 3.15933 2.96572 3.63867ZM1.94105 10.768L0.722388 11.3253C0.404388 10.6307 0.189055 9.89467 0.0810547 9.138L1.40905 8.94867C1.50039 9.58933 1.68105 10.1993 1.94105 10.768ZM1.40905 7.052L0.0810547 6.86267C0.188388 6.10667 0.404388 5.37067 0.721721 4.676L1.94039 5.23333C1.68039 5.80133 1.50039 6.412 1.40905 7.052ZM16.0004 8C16.0004 12.4113 12.4117 16 8.00039 16C5.60505 16 3.35572 14.94 1.82905 13.0913L2.85705 12.2427C4.12972 13.7833 6.00439 14.6673 8.00039 14.6673C11.6764 14.6673 14.6671 11.6767 14.6671 8.00067C14.6671 6.20867 13.9291 4.49733 12.6671 3.252V5.334H11.3337V2.66733C11.3337 1.932 11.9317 1.334 12.6671 1.334H15.3337V2.66733H13.9471C15.2477 4.12267 16.0004 6.02 16.0004 8.00067V8Z" fill="black"/>
</g>
<defs>
<clipPath id="clip0_1799_2823">
<rect width="16" height="16" fill="white"/>
</clipPath>
</defs>
</svg>
