<svg width="16" height="16" viewBox="0 0 16 16" fill="none" xmlns="http://www.w3.org/2000/svg">
<g clip-path="url(#clip0_258_1153)">
<path d="M7.99805 0.516602C8.44965 0.516602 8.81543 0.883239 8.81543 1.33398V10.1475C9.55921 9.56794 10.5596 8.55636 11.4307 6.87109C11.6374 6.46986 12.1305 6.31323 12.5312 6.52051L12.6035 6.5625C12.951 6.78849 13.0761 7.24523 12.8828 7.62012C10.9731 11.3141 8.41586 12.3113 8.28516 12.3604C8.19317 12.3945 8.09645 12.4121 8 12.4121C7.9228 12.4121 7.84627 12.3965 7.77148 12.375L7.76172 12.3809L7.7002 12.3564C7.40687 12.2422 4.96774 11.2028 3.11621 7.62109C2.9096 7.22093 3.06567 6.72723 3.4668 6.52051C3.8679 6.31247 4.36008 6.47086 4.56738 6.87109C5.42911 8.53766 6.43394 9.55241 7.18164 10.1377V1.33398C7.18164 0.883379 7.54663 0.516828 7.99805 0.516602Z" fill="white" stroke="white" stroke-width="0.3"/>
<path d="M14.25 10.3545H14.2559L14.2656 10.3555C14.7131 10.4143 15.0273 10.825 14.9688 11.2715C14.8426 12.2291 14.6523 13.1996 14.4014 14.1523C14.3261 14.4387 14.1018 14.6609 13.8145 14.7344C11.886 15.2307 9.94372 15.4795 8.00098 15.4795C6.0581 15.4795 4.11512 15.2318 2.18652 14.7354C1.8994 14.6617 1.6758 14.4385 1.60059 14.1523L1.42383 13.4346C1.2585 12.7153 1.12782 11.9905 1.0332 11.2725L1.02637 11.1885C1.01371 10.7749 1.31706 10.4106 1.73633 10.3555H1.7373C2.18238 10.2995 2.593 10.6112 2.65137 11.0586C2.74799 11.7915 2.88595 12.5322 3.06152 13.2666C6.34166 14.0364 9.65735 14.0361 12.9375 13.2666C13.1131 12.532 13.252 11.7916 13.3486 11.0586C13.4064 10.6153 13.8097 10.307 14.25 10.3545Z" fill="white" stroke="white" stroke-width="0.3"/>
</g>
<defs>
<clipPath id="clip0_258_1153">
<rect width="16" height="16" fill="white"/>
</clipPath>
</defs>
</svg>
