<svg width="16" height="16" viewBox="0 0 16 16" fill="none" xmlns="http://www.w3.org/2000/svg">
<path d="M4.03228 5.05261H11.4856C11.6175 5.05317 11.7462 5.0928 11.8555 5.16651C11.9648 5.24022 12.0498 5.34469 12.0998 5.46671C12.1497 5.58873 12.1624 5.72283 12.1361 5.85203C12.1099 5.98124 12.0459 6.09976 11.9523 6.19261L8.23228 9.91261C8.1703 9.9751 8.09657 10.0247 8.01533 10.0585C7.93409 10.0924 7.84695 10.1098 7.75895 10.1098C7.67094 10.1098 7.5838 10.0924 7.50256 10.0585C7.42132 10.0247 7.34759 9.9751 7.28561 9.91261L3.56561 6.19261C3.472 6.09976 3.40802 5.98124 3.38176 5.85203C3.3555 5.72283 3.36815 5.58873 3.4181 5.46671C3.46805 5.34469 3.55306 5.24022 3.66239 5.16651C3.77171 5.0928 3.90043 5.05317 4.03228 5.05261Z" fill="black"/>
</svg>
