<svg width="16" height="17" viewBox="0 0 16 17" fill="none" xmlns="http://www.w3.org/2000/svg">
<g clip-path="url(#clip0_1799_575)">
<path d="M5.32808 11.2607L5.36474 12H10.7001L10.6607 11.2273C10.6607 9.74467 9.78474 8.66 9.02674 8C9.49341 7.59 10.4681 6.572 10.6407 5.09733C10.6727 4.82333 10.5841 4.546 10.3987 4.338C10.2074 4.12333 9.93274 4 9.64474 4H6.35408C6.06608 4 5.79141 4.12333 5.60008 4.338C5.41474 4.546 5.32608 4.82333 5.35808 5.09733C5.53341 6.60667 6.57541 7.65333 6.96941 8C6.20808 8.66 5.32741 9.74467 5.32808 11.2607ZM6.75874 5.33333H9.24008C8.99341 6.22 8.33008 6.84333 8.11008 7.03L7.99874 7.12533L7.88408 7.028C7.66474 6.84267 7.00408 6.22267 6.75874 5.33333ZM7.88408 8.972L7.99808 8.87467L8.10941 8.96933C8.55341 9.348 9.06608 9.92 9.25408 10.666H6.73008C6.91474 9.92933 7.43408 9.352 7.88341 8.97133L7.88408 8.972ZM6.12208 1.606L5.74541 0.322C6.47408 0.108 7.23274 0 7.99941 0V1.33333C7.34674 1.33333 6.71808 1.43133 6.12208 1.606ZM2.96474 3.63867L1.95341 2.762C2.45341 2.18467 3.03208 1.68333 3.67341 1.27L4.39808 2.39533C3.86274 2.74 3.38074 3.15933 2.96474 3.63867ZM1.94008 10.768L0.721411 11.3253C0.403411 10.6307 0.188078 9.89467 0.0800781 9.138L1.40808 8.94867C1.49941 9.58933 1.68008 10.1993 1.94008 10.768ZM1.40808 7.052L0.0800781 6.86267C0.187411 6.10667 0.403411 5.37067 0.720745 4.676L1.93941 5.23333C1.67941 5.80133 1.49941 6.412 1.40808 7.052ZM15.9994 8C15.9994 12.4113 12.4107 16 7.99941 16C5.60408 16 3.35474 14.94 1.82808 13.0913L2.85608 12.2427C4.12874 13.7833 6.00341 14.6673 7.99941 14.6673C11.6754 14.6673 14.6661 11.6767 14.6661 8.00067C14.6661 6.20867 13.9281 4.49733 12.6661 3.252V5.334H11.3327V2.66733C11.3327 1.932 11.9307 1.334 12.6661 1.334H15.3327V2.66733H13.9461C15.2467 4.12267 15.9994 6.02 15.9994 8.00067V8Z" fill="black"/>
</g>
<defs>
<clipPath id="clip0_1799_575">
<rect width="16" height="16" fill="white"/>
</clipPath>
</defs>
</svg>
