<svg width="14" height="13" viewBox="0 0 14 13" fill="none" xmlns="http://www.w3.org/2000/svg">
<path d="M12.6553 7.65234C12.8066 7.65234 12.9516 7.71233 13.0586 7.81934C13.1656 7.92634 13.2256 8.07135 13.2256 8.22266V9.83008C13.2248 10.4846 12.9648 11.1123 12.502 11.5752C12.0391 12.038 11.4114 12.2981 10.7568 12.2988H2.56836C1.91377 12.2982 1.28614 12.038 0.823242 11.5752C0.360401 11.1123 0.10036 10.4846 0.0996094 9.83008V8.22266C0.0996094 8.07133 0.159599 7.92634 0.266602 7.81934C0.373604 7.71233 0.518597 7.65234 0.669922 7.65234C0.821202 7.65238 0.96627 7.71236 1.07324 7.81934C1.18017 7.92633 1.24023 8.07139 1.24023 8.22266V9.83008C1.24036 10.182 1.38016 10.5196 1.62891 10.7686C1.87794 11.0176 2.21617 11.1582 2.56836 11.1582H10.7568C11.109 11.1581 11.4463 11.0175 11.6953 10.7686C11.9443 10.5196 12.0848 10.1822 12.085 9.83008V8.22266C12.085 8.07137 12.145 7.92633 12.252 7.81934C12.3589 7.71234 12.504 7.65235 12.6553 7.65234Z" fill="#009FB6" stroke="#009FB6" stroke-width="0.2"/>
<path d="M6.66211 0.0996094C6.81344 0.0996094 6.9594 0.159595 7.06641 0.266602C7.17319 0.373574 7.2334 0.518762 7.2334 0.669922V7.42285L8.94434 5.71191L8.95215 5.70508L9.04004 5.64648C9.13212 5.59649 9.23679 5.57245 9.34277 5.57812C9.48417 5.58577 9.61812 5.6455 9.71777 5.74609C9.81743 5.84682 9.87567 5.98149 9.88184 6.12305C9.88798 6.26464 9.84156 6.40369 9.75098 6.5127L9.74512 6.51953L7.06738 9.19727L7.06641 9.19629C7.01345 9.24957 6.95118 9.29239 6.88184 9.32129C6.81231 9.35026 6.73743 9.36523 6.66211 9.36523C6.58697 9.36518 6.51273 9.35017 6.44336 9.32129C6.37405 9.29241 6.31075 9.25051 6.25781 9.19727L3.57324 6.5127C3.46619 6.40564 3.40625 6.2598 3.40625 6.1084C3.40631 5.95708 3.46624 5.81208 3.57324 5.70508C3.68026 5.59808 3.82523 5.53812 3.97656 5.53809C4.12788 5.53809 4.27285 5.59813 4.37988 5.70508L6.0918 7.41602V0.669922C6.0918 0.518714 6.15195 0.373583 6.25879 0.266602C6.3657 0.159686 6.51092 0.0997115 6.66211 0.0996094Z" fill="#009FB6" stroke="#009FB6" stroke-width="0.2"/>
</svg>
