<svg width="32" height="32" viewBox="0 0 32 32" fill="none" xmlns="http://www.w3.org/2000/svg">
<rect width="32" height="32" rx="16" fill="white"/>
<path d="M15.756 20.2163C15.834 20.2463 15.9174 20.2617 16 20.2617C16.0787 20.2617 16.1574 20.2477 16.2327 20.2197C16.3394 20.1797 18.8614 19.2037 20.7494 15.5517C20.918 15.225 20.7907 14.8223 20.4627 14.6537C20.1354 14.4843 19.7327 14.6123 19.564 14.9397C18.584 16.8357 17.4414 17.8963 16.6654 18.449V9.33366C16.6654 8.96566 16.3674 8.66699 15.9987 8.66699C15.63 8.66699 15.332 8.96566 15.332 9.33366V18.4403C14.5527 17.881 13.404 16.815 12.4347 14.9403C12.2654 14.613 11.8634 14.4843 11.536 14.6543C11.2087 14.823 11.0807 15.2257 11.2494 15.5523C13.08 19.0937 15.486 20.1123 15.7547 20.217L15.756 20.2163Z" fill="#009FB6"/>
<path d="M22.2448 18.5044C21.8794 18.459 21.5448 18.7137 21.4974 19.0784C21.3961 19.847 21.2501 20.6237 21.0628 21.393C17.7008 22.1964 14.2994 22.1964 10.9374 21.393C10.7501 20.6237 10.6041 19.847 10.5028 19.0784C10.4554 18.7137 10.1201 18.4584 9.75545 18.5044C9.39011 18.5524 9.13278 18.8877 9.18145 19.2524C9.30678 20.2037 9.49611 21.167 9.74545 22.1137C9.80678 22.3477 9.98945 22.5297 10.2241 22.5897C12.1408 23.083 14.0708 23.3297 16.0008 23.3297C17.9308 23.3297 19.8608 23.083 21.7774 22.5897C22.0121 22.5297 22.1948 22.3477 22.2561 22.1137C22.5054 21.167 22.6948 20.2037 22.8201 19.2524C22.8681 18.8877 22.6114 18.5524 22.2461 18.5044H22.2448Z" fill="#009FB6"/>
</svg>
