<svg width="17" height="16" viewBox="0 0 17 16" fill="none" xmlns="http://www.w3.org/2000/svg">
<path d="M14.1077 6.81091C13.7397 6.82291 13.4503 7.13025 13.4623 7.49825C13.469 7.71891 13.473 7.94425 13.473 8.17425C13.473 8.52625 13.4643 8.88358 13.447 9.24091C11.4597 9.45625 10.0217 9.86891 9.95834 9.88758C9.73968 9.95091 9.56834 10.1222 9.50434 10.3409C9.48568 10.4042 9.07234 11.8376 8.86701 13.9716C8.52301 13.9902 8.18434 14.0002 7.85568 14.0002C5.63368 14.0002 3.63301 13.5696 2.84034 13.3742C2.65101 12.5956 2.23768 10.6182 2.23768 8.17558C2.23768 5.75025 2.65168 3.76025 2.84101 2.97691C3.63368 2.78158 5.63301 2.35091 7.85568 2.35091L8.15101 2.35358C8.50701 2.35691 8.82234 2.06558 8.82834 1.69758C8.83434 1.32958 8.54034 1.02625 8.17234 1.02025L7.85568 1.01758C4.80568 1.01625 2.21501 1.75758 2.10634 1.78958C1.88768 1.85291 1.71634 2.02425 1.65234 2.24291C1.62168 2.34758 0.902344 4.84425 0.902344 8.17491C0.902344 11.5342 1.62234 14.0056 1.65234 14.1089C1.71701 14.3269 1.88768 14.4969 2.10568 14.5596C2.21434 14.5909 4.79834 15.3329 7.85368 15.3329C8.39701 15.3329 8.96368 15.3089 9.53634 15.2616C9.69768 15.2482 9.84768 15.1769 9.96034 15.0609L14.5563 10.3142C14.665 10.2022 14.731 10.0549 14.7423 9.89891C14.7843 9.32358 14.8057 8.74358 14.8057 8.17491C14.8057 7.93091 14.8023 7.69158 14.7943 7.45691C14.7823 7.08825 14.4783 6.79758 14.107 6.81158L14.1077 6.81091ZM12.281 10.7476L10.367 12.7249C10.4823 11.9882 10.6083 11.4162 10.691 11.0736C11.0283 10.9902 11.5843 10.8649 12.281 10.7476Z" fill="#009FB6"/>
<path d="M15.0922 2.90325C15.0796 2.81059 14.9542 1.98392 14.3602 1.38725C13.7656 0.808586 12.9349 0.685253 12.8422 0.673253C12.6869 0.65392 12.5309 0.68792 12.3996 0.770586C12.3409 0.80792 10.9322 1.71059 8.05824 4.55525C5.03357 7.54925 4.22357 8.74259 4.19091 8.79192C4.13091 8.88192 4.09357 8.98459 4.08224 9.09192L3.87291 11.0586C3.85157 11.2586 3.92157 11.4579 4.06424 11.5999C4.18957 11.7259 4.35957 11.7953 4.53624 11.7953C4.55957 11.7953 4.58224 11.7939 4.60557 11.7919L6.59291 11.5839C6.69891 11.5726 6.80024 11.5366 6.88891 11.4786C6.93891 11.4459 8.14357 10.6446 11.1682 7.65059C14.0422 4.80525 14.9549 3.41059 14.9922 3.35259C15.0782 3.21925 15.1136 3.05992 15.0929 2.90259L15.0922 2.90325ZM10.2296 6.70325C7.85491 9.05325 6.64357 10.0059 6.27824 10.2766L5.28491 10.3806L5.38824 9.41125C5.66624 9.04525 6.62957 7.84525 8.99624 5.50325C11.1189 3.40192 12.4116 2.39992 12.8949 2.04925C13.0616 2.10125 13.2769 2.19259 13.4229 2.33459C13.5662 2.47925 13.6596 2.68592 13.7136 2.85125C13.3542 3.33592 12.3416 4.61259 10.2296 6.70325Z" fill="#009FB6"/>
</svg>
