<svg width="19" height="19" viewBox="0 0 19 19" fill="none" xmlns="http://www.w3.org/2000/svg">
<path d="M16.207 3C17.7415 3.00019 18.9999 4.25846 19 5.79297V14.2031C18.9693 15.7378 17.7412 16.9971 16.1758 16.9971H2.79297C1.25835 16.9969 0 15.7378 0 14.2031V5.79297C0.000124848 4.25842 1.25842 3.00012 2.79297 3H16.207ZM3.03906 6.19238C2.85502 6.06969 2.60955 6.13093 2.45605 6.28418C2.39467 6.34557 2.36328 6.40736 2.36328 6.46875C2.3021 6.6222 2.36363 6.83727 2.48633 6.95996L2.97754 7.41992L3.16113 7.60449C3.22243 7.66579 3.28412 7.72679 3.37598 7.78809L3.46875 7.88086C4.05184 8.43323 4.66595 8.95486 5.24902 9.47656C5.46383 9.6607 5.67833 9.87601 5.92383 10.0908L5.83203 10.1826C4.88051 11.1341 3.92906 12.0553 2.97754 13.0068C2.94682 13.0375 2.88517 13.0982 2.85449 13.1289C2.73171 13.2824 2.73214 13.4979 2.82422 13.6514C2.947 13.8046 3.13142 13.8967 3.31543 13.8047C3.40741 13.774 3.49922 13.7121 3.56055 13.6201C4.51202 12.6993 5.46356 11.7479 6.41504 10.8271L6.56836 10.6738C6.84455 10.9193 7.09044 11.1338 7.33594 11.3486C7.82702 11.809 8.44097 12.0851 9.11621 12.1465C9.23891 12.1465 9.36167 12.1777 9.48438 12.1777C9.60706 12.1777 9.72985 12.1771 9.85254 12.1465C10.5278 12.0851 11.111 11.7783 11.6328 11.3486C11.8783 11.1338 12.1242 10.8886 12.4004 10.6738C12.4617 10.7352 12.523 10.7658 12.5537 10.8271C13.5051 11.7479 14.4568 12.6994 15.4082 13.6201C15.4696 13.6815 15.5622 13.774 15.6543 13.8047C15.8384 13.866 16.0228 13.8047 16.1455 13.6514C16.2683 13.4979 16.237 13.2824 16.1143 13.1289L15.9922 13.0068C15.0408 12.0554 14.0891 11.134 13.1377 10.1826C13.107 10.1519 13.0756 10.1215 13.0449 10.0908C13.2598 9.87596 13.4751 9.69142 13.7207 9.47656C14.3038 8.95482 14.9179 8.43329 15.501 7.88086L15.5312 7.84961L15.5928 7.78809C15.6541 7.72677 15.7157 7.6658 15.8076 7.60449L15.9922 7.41992L16.4834 6.95996C16.6061 6.83722 16.6668 6.65284 16.6055 6.46875C16.5748 6.40736 16.5444 6.34557 16.5137 6.28418C16.3602 6.13078 16.1148 6.10038 15.9307 6.19238C15.9 6.22308 15.8686 6.22321 15.8379 6.25391L15.4395 6.62207C14.2118 7.727 13.0148 8.80132 11.7871 9.90625C11.5109 10.1517 11.2342 10.3971 10.958 10.6426C10.5283 11.0109 10.0062 11.1953 9.48438 11.1953C8.96269 11.1953 8.47204 11.0415 8.01172 10.6426C7.73549 10.397 7.45885 10.1518 7.18262 9.90625C5.95493 8.80133 4.75795 7.72698 3.53027 6.62207L3.13086 6.25391C3.10024 6.22329 3.06968 6.22285 3.03906 6.19238Z" fill="#009FB6"/>
</svg>
