<svg width="16" height="16" viewBox="0 0 16 16" fill="none" xmlns="http://www.w3.org/2000/svg">
<path d="M15.1215 1.68242C15.04 1.45043 14.8466 1.27589 14.6081 1.21771C14.483 1.18717 11.5122 0.47229 7.99964 0.47229C4.54961 0.47229 1.52211 1.18644 1.39485 1.21698C1.15267 1.27516 0.957775 1.45188 0.877051 1.68678C0.841416 1.79078 0 4.2583 0 7.50033C0 10.7424 0.840689 13.2106 0.877051 13.3139C0.958502 13.5495 1.15558 13.727 1.39848 13.7837C1.52793 13.8142 4.61288 14.5277 8.00036 14.5277C11.5049 14.5277 14.483 13.8128 14.6081 13.7822C14.8481 13.7241 15.0415 13.5481 15.1229 13.3146C15.1586 13.2121 16 10.762 16 7.49961C16 4.20885 15.1579 1.7835 15.1222 1.68169L15.1215 1.68242ZM7.99964 1.92677C10.6112 1.92677 12.9594 2.35511 13.8663 2.54347C13.9165 2.71873 13.9797 2.95145 14.0459 3.23362C13.6387 3.66342 12.6052 4.70628 11.1668 5.81605C9.97264 6.73746 8.62215 7.54761 7.99964 7.90686C7.37712 7.54761 6.02882 6.73891 4.83178 5.81532C3.39694 4.70919 2.36644 3.66924 1.95627 3.23726C2.02245 2.95509 2.085 2.72092 2.13518 2.5442C3.05441 2.35584 5.42739 1.92677 7.99964 1.92677ZM13.8641 12.4565C12.9543 12.6456 10.6039 13.0732 7.99964 13.0732C5.47466 13.0732 3.06532 12.6419 2.13372 12.4536C1.91264 11.674 1.45448 9.78605 1.45448 7.49961C1.45448 6.57965 1.52939 5.72223 1.63338 4.97536C2.19335 5.51497 2.9795 6.2233 3.94382 6.96727C5.64411 8.27921 7.56984 9.33662 7.65129 9.38098C7.76037 9.44061 7.88037 9.47043 8.00036 9.47043C8.12036 9.47043 8.24035 9.44061 8.34871 9.38098C8.43016 9.33662 10.3559 8.27921 12.0562 6.96727C13.0227 6.22185 13.8096 5.51206 14.3703 4.97245C14.4721 5.71496 14.5455 6.57092 14.5455 7.49961C14.5455 9.79187 14.0866 11.6798 13.8648 12.4557L13.8641 12.4565Z" fill="black"/>
</svg>
