<svg width="39" height="40" viewBox="0 0 39 40" fill="none" xmlns="http://www.w3.org/2000/svg">
<rect width="39" height="40" rx="19.5" fill="#B9F2F8"/>
<g clip-path="url(#clip0_188_1132)">
<path d="M19.4998 13.4336C23.5804 13.4336 26.9002 16.7534 26.9002 20.834V25.1826L26.9754 25.2021C28.3689 25.562 29.4002 26.83 29.4002 28.334C29.4001 29.1977 28.6975 29.9002 27.8338 29.9004H11.1668C10.3029 29.9004 9.60047 29.1978 9.60037 28.334C9.60037 26.8299 10.6315 25.5619 12.0252 25.2021L12.1004 25.1826V20.834C12.1004 16.7535 15.4193 13.4337 19.4998 13.4336ZM12.8338 26.5674C11.8594 26.5674 11.0662 27.3596 11.0662 28.334V28.4336H27.9334V28.334C27.9334 27.3596 27.1411 26.5674 26.1668 26.5674H12.8338ZM19.4998 14.9004C16.2288 14.9005 13.5662 17.563 13.5662 20.834V25.1006H25.4334V20.834C25.4334 17.5629 22.7708 14.9004 19.4998 14.9004ZM19.4998 17.6006C19.9054 17.6006 20.2332 17.9284 20.2332 18.334C20.2331 18.7395 19.9053 19.0674 19.4998 19.0674C18.5255 19.0675 17.7332 19.8597 17.7332 20.834C17.7331 21.2395 17.4053 21.5674 16.9998 21.5674C16.5943 21.5673 16.2665 21.2394 16.2664 20.834C16.2664 19.051 17.7168 17.6007 19.4998 17.6006ZM9.81815 12.7988C10.1054 12.5139 10.5707 12.5169 10.8543 12.8047L12.1043 14.0693H12.1053C12.3901 14.3575 12.3867 14.8211 12.0984 15.1064C11.9564 15.2468 11.7698 15.3183 11.5838 15.3184C11.4181 15.3184 11.2524 15.2623 11.118 15.1514L11.0623 15.1006L9.81229 13.8359C9.52707 13.5478 9.5298 13.0842 9.81815 12.7988ZM28.1453 12.8037C28.4297 12.5158 28.8941 12.5134 29.1824 12.7979C29.4706 13.0831 29.4726 13.5467 29.1883 13.835L27.9383 15.0996C27.7954 15.2446 27.6062 15.3174 27.4168 15.3174C27.2769 15.3174 27.1371 15.277 27.0154 15.1973L26.9012 15.1055C26.6488 14.8557 26.6159 14.4694 26.8025 14.1836L26.8953 14.0684L28.1453 12.8037ZM13.9324 10.1826C14.289 9.99675 14.7336 10.1354 14.9207 10.4961L15.5681 11.7461C15.7544 12.1053 15.6131 12.5491 15.2537 12.7354C15.147 12.7909 15.0313 12.8173 14.9178 12.8174C14.6526 12.8174 14.3958 12.6729 14.2654 12.4209L13.618 11.1709C13.4319 10.8118 13.5724 10.369 13.9314 10.1826H13.9324ZM24.0799 10.4961C24.2545 10.1582 24.655 10.0147 24.9998 10.1514L25.0681 10.1826C25.4275 10.3689 25.5679 10.8108 25.3816 11.1709L24.7342 12.4209C24.6038 12.6729 24.3486 12.8173 24.0828 12.8174C23.9693 12.8174 23.8538 12.7911 23.7459 12.7354C23.3865 12.5491 23.2461 12.1062 23.4324 11.7461L24.0799 10.4961Z" fill="black" stroke="#B9F2F8" stroke-width="0.2"/>
</g>
<defs>
<clipPath id="clip0_188_1132">
<rect width="20" height="20" fill="white" transform="translate(9.5 10)"/>
</clipPath>
</defs>
</svg>
