<svg width="160" height="160" viewBox="0 0 160 160" fill="none" xmlns="http://www.w3.org/2000/svg">
<g clip-path="url(#clip0_1934_9722)">
<path d="M152.968 67.9685C149.913 67.9685 147.308 69.9277 146.34 72.656H132.969V69.9216C132.969 68.6277 131.92 67.5779 130.625 67.5779C129.331 67.5779 128.281 68.6277 128.281 69.9216V81.3474C128.281 93.0355 124.363 104.041 117.247 112.336C107.309 123.917 94.7802 132.723 80 138.515C66.7859 133.337 55.337 125.726 45.9669 115.891C45.0734 114.953 43.5902 114.917 42.6527 115.81C41.7165 116.702 41.6798 118.186 42.5722 119.123C45.807 122.518 49.2787 125.655 52.9689 128.537V146.341C50.2418 147.308 48.2814 149.913 48.2814 152.969C48.2814 156.846 51.4357 160.001 55.3126 160.001C59.1895 160.001 62.3438 156.846 62.3438 152.969C62.3438 149.914 60.3846 147.308 57.6563 146.341V131.971C64.0894 136.397 71.1158 140.102 78.6939 143.038C79.1162 143.2 79.5581 143.282 80.0012 143.282C80.4431 143.282 80.885 143.2 81.3049 143.038C96.9824 136.966 110.272 127.664 120.806 115.388C125.679 109.708 129.189 102.889 131.152 95.4684H139.074C140.042 98.1967 142.647 100.156 145.703 100.156C149.58 100.156 152.734 97.0016 152.734 93.1247C152.734 89.2477 149.58 86.0934 145.703 86.0934C142.647 86.0934 140.042 88.0539 139.074 90.7809H132.171C132.699 87.7048 132.969 84.548 132.969 81.3474V77.3435H146.34C147.308 80.0717 149.913 82.0309 152.968 82.0309C156.845 82.0309 160 78.8767 160 74.9997C160 71.1228 156.845 67.9685 152.968 67.9685ZM55.3126 155.312C54.0199 155.312 52.9689 154.261 52.9689 152.968C52.9689 151.675 54.0199 150.624 55.3126 150.624C56.6053 150.624 57.6563 151.675 57.6563 152.968C57.6563 154.261 56.6053 155.312 55.3126 155.312ZM145.703 90.7809C146.996 90.7809 148.047 91.8319 148.047 93.1247C148.047 94.4174 146.996 95.4684 145.703 95.4684C144.41 95.4684 143.359 94.4174 143.359 93.1247C143.359 91.8319 144.41 90.7809 145.703 90.7809ZM152.968 77.3435C151.676 77.3435 150.625 76.2924 150.625 74.9997C150.625 73.707 151.676 72.656 152.968 72.656C154.261 72.656 155.312 73.707 155.312 74.9997C155.312 76.2924 154.261 77.3435 152.968 77.3435Z" fill="#33CCCC"/>
<path d="M31.7189 81.3473V38.7108C40.3163 36.6783 49.2482 32.8905 58.2838 27.4425C71.6785 19.3676 88.3215 19.3676 101.716 27.4425C105.737 29.8656 109.736 31.9591 113.695 33.7169C113.739 33.7377 113.783 33.7584 113.829 33.7755C118.722 35.9398 123.552 37.5926 128.281 38.7108V59.8948C128.281 61.1899 129.33 62.2385 130.625 62.2385C131.92 62.2385 132.969 61.1899 132.969 59.8948V37.8502C132.969 36.1742 131.814 34.7008 130.222 34.3468C125.918 33.3898 121.509 31.9518 117.031 30.0548V13.6596C119.759 12.6916 121.719 10.0866 121.719 7.03122C121.719 3.15428 118.564 0 114.687 0C110.81 0 107.656 3.15428 107.656 7.03122C107.656 10.0866 109.617 12.6916 112.344 13.6596V27.9149C109.628 26.5831 106.89 25.0878 104.137 23.4289C89.2492 14.4531 70.7508 14.4543 55.8643 23.4289C46.9386 28.8085 38.1618 32.4828 29.778 34.3468C28.1862 34.7008 27.0315 36.1742 27.0315 37.8502V52.031H13.6599C12.6919 49.3028 10.0869 47.3436 7.03153 47.3436C3.15459 47.3436 0.000305176 50.4978 0.000305176 54.3748C0.000305176 58.2517 3.15459 61.406 7.03153 61.406C10.0869 61.406 12.6919 59.4468 13.6599 56.7185H27.0315V70.156H20.9255C19.9575 67.4277 17.3525 65.4685 14.2971 65.4685C10.4202 65.4685 7.2659 68.6228 7.2659 72.4997C7.2659 76.3766 10.4202 79.5309 14.2971 79.5309C17.3525 79.5309 19.9575 77.5717 20.9255 74.8435H27.0315V81.3473C27.0315 92.5802 30.2761 103.116 36.4125 111.815C36.8691 112.462 37.5942 112.807 38.3302 112.807C38.7965 112.807 39.269 112.668 39.6791 112.379C40.7362 111.632 40.9889 110.169 40.2431 109.112C34.6669 101.208 31.7189 91.6073 31.7189 81.3473ZM114.687 4.68748C115.98 4.68748 117.031 5.7385 117.031 7.03122C117.031 8.32394 115.98 9.37496 114.687 9.37496C113.395 9.37496 112.344 8.32394 112.344 7.03122C112.344 5.7385 113.395 4.68748 114.687 4.68748ZM7.03153 56.7185C5.73881 56.7185 4.68779 55.6675 4.68779 54.3748C4.68779 53.0821 5.73881 52.031 7.03153 52.031C8.32425 52.031 9.37527 53.0821 9.37527 54.3748C9.37527 55.6675 8.32425 56.7185 7.03153 56.7185ZM14.2971 74.8435C13.0044 74.8435 11.9534 73.7924 11.9534 72.4997C11.9534 71.207 13.0044 70.156 14.2971 70.156C15.5898 70.156 16.6409 71.207 16.6409 72.4997C16.6409 73.7924 15.5898 74.8435 14.2971 74.8435Z" fill="#33CCCC"/>
<path d="M54.2164 40.3601C55.3761 39.7863 55.8521 38.3801 55.2784 37.2204C54.7047 36.0608 53.2984 35.5847 52.1375 36.1584C47.7027 38.352 43.2496 40.1721 38.904 41.5685C37.4098 42.0483 36.4064 43.4228 36.4064 44.9889V81.3474C36.4064 91.9175 39.9232 101.838 46.3087 109.282C55.0501 119.47 65.9473 127.419 78.6987 132.912C79.1113 133.09 79.5556 133.18 80 133.18C80.4443 133.18 80.8886 133.09 81.3025 132.912C94.0527 127.42 104.949 119.471 113.689 109.284C120.076 101.838 123.594 91.9175 123.594 81.3474V44.9889C123.594 43.4228 122.59 42.0483 121.096 41.5685C113.955 39.2749 106.621 35.8728 99.2968 31.4575C93.4765 27.948 86.8042 26.0938 80 26.0938C73.197 26.0938 66.5247 27.948 60.7032 31.4575L60.2051 31.7566C59.0931 32.4194 58.7293 33.8586 59.3922 34.9707C60.055 36.0827 61.493 36.4465 62.605 35.7837C62.7784 35.6799 62.9517 35.5761 63.1238 35.4724C68.2141 32.4035 74.0503 30.7812 80 30.7812C85.9509 30.7812 91.787 32.4035 96.8774 35.4724C104.254 39.9194 111.661 43.3862 118.906 45.7848V81.3462C118.906 90.7981 115.79 99.6359 110.132 106.231C101.986 115.725 91.8505 123.17 80 128.366C68.1482 123.169 58.0128 115.724 49.867 106.23C44.2091 99.6347 41.0939 90.7981 41.0939 81.3462V45.7848C45.4188 44.353 49.8292 42.5292 54.2164 40.3601Z" fill="black"/>
<path d="M80 54.8435C73.5388 54.8435 68.2813 60.0998 68.2813 66.5622V70.4684H67.5C64.4849 70.4684 62.0313 72.922 62.0313 75.9372V94.6871C62.0313 97.7022 64.4849 100.156 67.5 100.156H92.4999C95.5151 100.156 97.9687 97.7022 97.9687 94.6871V75.9372C97.9687 72.922 95.5151 70.4684 92.4999 70.4684H91.7187V66.5622C91.7187 60.0998 86.4624 54.8435 80 54.8435ZM72.9688 66.5622C72.9688 62.6853 76.1231 59.531 80 59.531C83.8769 59.531 87.0312 62.6853 87.0312 66.5622V70.4684H72.9688V66.5622ZM93.2812 75.9372V94.6871C93.2812 95.118 92.9308 95.4683 92.4999 95.4683H67.5C67.0691 95.4683 66.7188 95.118 66.7188 94.6871V75.9372C66.7188 75.5063 67.0691 75.1559 67.5 75.1559H92.4999C92.9308 75.1559 93.2812 75.5063 93.2812 75.9372Z" fill="black"/>
<path d="M80 75.9373C76.1231 75.9373 72.9688 79.0915 72.9688 82.9685C72.9688 86.0239 74.9292 88.6289 77.6563 89.5969V92.3434C77.6563 93.6374 78.7061 94.6872 80 94.6872C81.2952 94.6872 82.3437 93.6374 82.3437 92.3434V89.5969C85.072 88.6289 87.0312 86.0239 87.0312 82.9685C87.0312 79.0915 83.8769 75.9373 80 75.9373ZM80 85.3122C78.7073 85.3122 77.6563 84.2612 77.6563 82.9685C77.6563 81.6758 78.7073 80.6247 80 80.6247C81.2927 80.6247 82.3437 81.6758 82.3437 82.9685C82.3437 84.2612 81.2927 85.3122 80 85.3122Z" fill="#33CCCC"/>
</g>
<defs>
<clipPath id="clip0_1934_9722">
<rect width="160" height="160" fill="white"/>
</clipPath>
</defs>
</svg>
