<svg width="16" height="16" viewBox="0 0 16 16" fill="none" xmlns="http://www.w3.org/2000/svg">
<path d="M15.517 6.27935C14.9151 5.29384 14.156 4.41352 13.2696 3.67335L15.1363 1.80669C15.2577 1.68095 15.3249 1.51255 15.3234 1.33775C15.3219 1.16296 15.2518 0.995747 15.1282 0.872142C15.0046 0.748537 14.8374 0.678424 14.6626 0.676905C14.4878 0.675386 14.3194 0.742582 14.1936 0.864021L12.1636 2.89669C10.9052 2.14924 9.46658 1.75966 8.00296 1.77002C3.87563 1.77002 1.52363 4.59535 0.488964 6.27935C0.169316 6.79636 0 7.39218 0 8.00002C0 8.60786 0.169316 9.20368 0.488964 9.72069C1.0908 10.7062 1.84996 11.5865 2.7363 12.3267L0.869631 14.1934C0.805957 14.2549 0.755169 14.3284 0.72023 14.4098C0.68529 14.4911 0.666899 14.5786 0.66613 14.6671C0.665361 14.7556 0.682229 14.8434 0.715749 14.9253C0.74927 15.0073 0.798772 15.0817 0.861367 15.1443C0.923962 15.2069 0.998397 15.2564 1.08033 15.2899C1.16226 15.3234 1.25005 15.3403 1.33856 15.3395C1.42708 15.3388 1.51456 15.3204 1.5959 15.2854C1.67724 15.2505 1.7508 15.1997 1.8123 15.136L3.84696 13.1014C5.10381 13.8487 6.54074 14.2389 8.00296 14.23C12.1303 14.23 14.4823 11.4047 15.517 9.72069C15.8366 9.20368 16.0059 8.60786 16.0059 8.00002C16.0059 7.39218 15.8366 6.79636 15.517 6.27935ZM1.62496 9.02269C1.43505 8.71538 1.33446 8.36127 1.33446 8.00002C1.33446 7.63877 1.43505 7.28466 1.62496 6.97735C2.5143 5.53335 4.5243 3.10335 8.00296 3.10335C9.10981 3.09715 10.2011 3.36391 11.1803 3.88002L9.8383 5.22202C9.19825 4.79709 8.4309 4.60669 7.66645 4.68312C6.902 4.75955 6.18754 5.09811 5.6443 5.64136C5.10106 6.1846 4.76249 6.89906 4.68606 7.66351C4.60963 8.42796 4.80003 9.19531 5.22496 9.83535L3.68496 11.3754C2.86837 10.7152 2.17152 9.91932 1.62496 9.02269ZM10.003 8.00002C10.003 8.53045 9.79225 9.03916 9.41718 9.41424C9.04211 9.78931 8.5334 10 8.00296 10C7.70597 9.99887 7.4131 9.9305 7.1463 9.80002L9.80296 7.14335C9.93344 7.41015 10.0018 7.70303 10.003 8.00002ZM6.00296 8.00002C6.00296 7.46959 6.21368 6.96088 6.58875 6.58581C6.96382 6.21073 7.47253 6.00002 8.00296 6.00002C8.29996 6.00117 8.59283 6.06955 8.85963 6.20002L6.20296 8.85669C6.07249 8.58989 6.00411 8.29701 6.00296 8.00002ZM14.381 9.02269C13.4916 10.4667 11.4816 12.8967 8.00296 12.8967C6.89612 12.9029 5.80481 12.6361 4.82563 12.12L6.16763 10.778C6.80768 11.203 7.57503 11.3934 8.33948 11.3169C9.10393 11.2405 9.81839 10.9019 10.3616 10.3587C10.9049 9.81544 11.2434 9.10098 11.3199 8.33653C11.3963 7.57208 11.2059 6.80473 10.781 6.16469L12.321 4.62469C13.1376 5.28488 13.8344 6.08072 14.381 6.97735C14.5709 7.28466 14.6715 7.63877 14.6715 8.00002C14.6715 8.36127 14.5709 8.71538 14.381 9.02269Z" fill="black"/>
</svg>
