<svg width="16" height="16" viewBox="0 0 16 16" fill="none" xmlns="http://www.w3.org/2000/svg">
<path d="M1.66667 1.66667C1.66667 0.746667 2.41333 0 3.33333 0C4.25333 0 5 0.746 5 1.66667C5 2.58733 4.254 3.33333 3.33333 3.33333C2.41267 3.33333 1.66667 2.58733 1.66667 1.66667ZM4.88933 9.66067C4.64533 9.87933 4.32933 10 4 10H2.66667C1.93133 10 1.33333 9.402 1.33333 8.66667V6.66667C1.33333 5.93133 1.93133 5.33333 2.66667 5.33333C3.03533 5.33333 3.33333 5.03533 3.33333 4.66667C3.33333 4.298 3.03533 4 2.66667 4C1.196 4 0 5.196 0 6.66667V8.66667C0 9.64933 0.54 10.5 1.33333 10.9627V15.3333C1.33333 15.702 1.63133 16 2 16C2.36867 16 2.66667 15.702 2.66667 15.3333V11.3333H4V15.3333C4 15.702 4.298 16 4.66667 16C5.03533 16 5.33333 15.702 5.33333 15.3333V10.9713C5.49067 10.8807 5.64133 10.7773 5.77867 10.654C6.05267 10.4087 6.076 9.98667 5.83067 9.71267C5.58533 9.438 5.162 9.416 4.88933 9.66067ZM12.6667 3.33333C13.5873 3.33333 14.3333 2.58733 14.3333 1.66667C14.3333 0.746 13.5873 0 12.6667 0C11.746 0 11 0.746 11 1.66667C11 2.58733 11.746 3.33333 12.6667 3.33333ZM13.3333 4C12.9647 4 12.6667 4.298 12.6667 4.66667C12.6667 5.03533 12.9647 5.33333 13.3333 5.33333C14.0687 5.33333 14.6667 5.93133 14.6667 6.66667V8.66667C14.6667 9.402 14.0687 10 13.3333 10H12C11.6713 10 11.3553 9.87933 11.1113 9.66067C10.8387 9.416 10.416 9.43867 10.17 9.71267C9.92467 9.98667 9.948 10.4087 10.222 10.654C10.3593 10.7767 10.5093 10.88 10.6667 10.9707V15.3327C10.6667 15.7013 10.9647 15.9993 11.3333 15.9993C11.702 15.9993 12 15.7013 12 15.3327V11.3327H13.3333V15.3327C13.3333 15.7013 13.6313 15.9993 14 15.9993C14.3687 15.9993 14.6667 15.7013 14.6667 15.3327V10.962C15.46 10.4993 16 9.64867 16 8.666V6.666C16 5.19533 14.804 4 13.3333 4ZM11.3333 5.46667C11.3333 6.758 10.0633 8.25267 9.26333 8.89133C8.89133 9.18733 8.44533 9.336 8 9.336C7.55467 9.336 7.11 9.18733 6.738 8.892C5.93667 8.25333 4.66667 6.75867 4.66667 5.46667C4.66667 4.29 5.564 3.33333 6.66667 3.33333C7.168 3.33333 7.64067 3.54067 8 3.87067C8.35933 3.54067 8.832 3.33333 9.33333 3.33333C10.436 3.33333 11.3333 4.29067 11.3333 5.46667ZM10 5.46667C10 5.02533 9.70133 4.66667 9.33333 4.66667C8.96533 4.66667 8.66667 5.03133 8.66667 5.33333C8.66667 5.702 8.36867 6 8 6C7.63133 6 7.33333 5.702 7.33333 5.33333C7.33333 5.03133 7.036 4.66667 6.66667 4.66667C6.29733 4.66667 6 5.02533 6 5.46667C6 6.114 6.82867 7.25867 7.56933 7.84867C7.82333 8.052 8.178 8.04933 8.432 7.84867C9.172 7.258 10.0007 6.11333 10.0007 5.46667H10Z" fill="black"/>
</svg>
