<svg width="32" height="32" viewBox="0 0 32 32" fill="none" xmlns="http://www.w3.org/2000/svg">
<rect width="32" height="32" fill="#3B579D"/>
<path d="M18.2671 12.7048V15.4143H22.2893C22.6929 15.4143 23.0205 15.7419 23.0205 16.1458V19.217C23.0205 19.6208 22.6929 19.9485 22.2893 19.9485H18.2671V31.9998H13.7329V19.9485H9.71069C9.30713 19.9485 8.97949 19.6208 8.97949 19.217V16.1458C8.97949 15.7419 9.30713 15.4143 9.71069 15.4143H13.7329V12.2573C13.7329 8.67822 16.634 5.77637 20.2139 5.77637H22.2893C22.6929 5.77637 23.0205 6.104 23.0205 6.50781V9.5791C23.0205 9.98364 22.6929 10.3105 22.2893 10.3105H20.6614C19.3391 10.3105 18.2671 11.3826 18.2671 12.7048Z" fill="#DEEFFF"/>
</svg>
