<svg width="24" height="24" viewBox="0 0 24 24" fill="none" xmlns="http://www.w3.org/2000/svg">
<path d="M8.54883 11.1514H8.55273C8.8176 11.1677 9.05721 11.3069 9.2041 11.5234L9.26074 11.6201L11.4902 16.0791L11.6055 16.3105L11.749 16.0947L12.793 14.5293C12.9512 14.2929 13.2163 14.1514 13.5 14.1514H18C18.4691 14.1514 18.8496 14.5318 18.8496 15.001C18.8496 15.4701 18.4692 15.8506 18 15.8506H13.9551L12.207 18.4727C12.049 18.7097 11.7831 18.8506 11.5 18.8506C11.4776 18.8506 11.4643 18.8507 11.4531 18.8496H11.4473C11.1827 18.8333 10.9428 18.6946 10.7959 18.4785L10.7393 18.3809L8.50977 13.9219L8.39453 13.6904L8.25098 13.9062L7.20703 15.4717C7.04877 15.7081 6.78371 15.8496 6.5 15.8496H1C0.530843 15.8496 0.150391 15.4692 0.150391 15C0.150391 14.5308 0.530843 14.1504 1 14.1504H6.04492L7.79297 11.5283C7.96147 11.2751 8.25488 11.1265 8.54883 11.1514ZM13.8506 7.00098C13.8506 7.63481 14.3671 8.15135 15.001 8.15137H19.7041L19.458 7.9043C19.2358 7.52209 18.9632 7.16437 18.6416 6.84375L15.1572 3.35938C14.83 3.03212 14.4664 2.75477 14.0762 2.53027L13.8506 2.40039V7.00098ZM12.1504 1.88672L12.0137 1.87402C11.8493 1.85863 11.6824 1.84961 11.5146 1.84961H7C5.26316 1.84961 3.84961 3.26316 3.84961 5V11C3.84961 11.4692 3.46916 11.8496 3 11.8496C2.53084 11.8496 2.15039 11.4692 2.15039 11V5C2.15039 2.32584 4.32584 0.150391 7 0.150391H11.5146C13.3448 0.150391 15.0645 0.86233 16.3594 2.15625L19.8438 5.64062C21.1376 6.93448 21.8496 8.65512 21.8496 10.4854V19C21.8496 21.6742 19.6742 23.8496 17 23.8496H7C4.32584 23.8496 2.15039 21.6742 2.15039 19C2.15039 18.5308 2.53084 18.1504 3 18.1504C3.46916 18.1504 3.84961 18.5308 3.84961 19C3.84961 20.7368 5.26316 22.1504 7 22.1504H17C18.7368 22.1504 20.1504 20.7368 20.1504 19V10.4854C20.1504 10.3176 20.1414 10.1507 20.126 9.98633L20.1133 9.84961H15C13.4288 9.84961 12.1504 8.57116 12.1504 7V1.88672Z" fill="black" stroke="#F7FDFF" stroke-width="0.3"/>
</svg>
