<svg width="16" height="16" viewBox="0 0 16 16" fill="none" xmlns="http://www.w3.org/2000/svg">
<path d="M6.33352 5C6.33352 4.07933 7.07952 3.33333 8.00019 3.33333C8.92086 3.33333 9.66686 4.07933 9.66686 5C9.66686 5.92067 8.92086 6.66667 8.00019 6.66667C7.07952 6.66667 6.33352 5.92067 6.33352 5ZM10.6669 9.33333V11.3333C10.6669 11.922 10.4062 12.4467 10.0002 12.8133V15.3333C10.0002 15.702 9.70219 16 9.33352 16C8.96486 16 8.66686 15.702 8.66686 15.3333V13.3333H7.33352V15.3333C7.33352 15.702 7.03486 16 6.66686 16C6.29886 16 6.00019 15.702 6.00019 15.3333V12.8133C5.59419 12.4473 5.33352 11.922 5.33352 11.3333V9.33333C5.33352 8.23067 6.23086 7.33333 7.33352 7.33333H8.66686C9.76952 7.33333 10.6669 8.23067 10.6669 9.33333ZM8.66686 12C9.03486 12 9.33352 11.7013 9.33352 11.3333V9.33333C9.33352 8.96533 9.03486 8.66667 8.66686 8.66667H7.33352C6.96619 8.66667 6.66686 8.96533 6.66686 9.33333V11.3333C6.66686 11.7013 6.96619 12 7.33352 12H8.66686ZM12.6669 3.33333C13.5875 3.33333 14.3335 2.58733 14.3335 1.66667C14.3335 0.746 13.5875 0 12.6669 0C11.7462 0 11.0002 0.746 11.0002 1.66667C11.0002 2.58733 11.7462 3.33333 12.6669 3.33333ZM15.9849 11.0853L15.4009 6.41333C15.2295 5.038 14.0542 4 12.6669 4C12.0255 4 11.4015 4.22533 10.9075 4.63467C10.6242 4.87 10.5855 5.29 10.8202 5.57333C11.0542 5.85533 11.4749 5.896 11.7589 5.66067C12.0135 5.45 12.3355 5.33333 12.6662 5.33333C13.3815 5.33333 13.9882 5.86867 14.0769 6.57867L14.6609 11.2507C14.6849 11.4433 14.6275 11.6287 14.4995 11.7747C14.3715 11.92 14.1935 12 13.9995 12H11.9995C11.6309 12 11.3329 12.298 11.3329 12.6667C11.3329 13.0353 11.6309 13.3333 11.9995 13.3333H13.3329V15.3333C13.3329 15.702 13.6309 16 13.9995 16C14.3682 16 14.6662 15.702 14.6662 15.3333V13.2073C14.9822 13.0947 15.2722 12.9133 15.4989 12.6567C15.8782 12.226 16.0555 11.654 15.9849 11.0853ZM3.33352 3.33333C4.25419 3.33333 5.00019 2.58733 5.00019 1.66667C5.00019 0.746 4.25419 0 3.33352 0C2.41286 0 1.66686 0.746 1.66686 1.66667C1.66686 2.58733 2.41286 3.33333 3.33352 3.33333ZM3.33352 4C1.94686 4 0.771524 5.038 0.599524 6.41333L0.015524 11.0853C-0.0558094 11.6547 0.120857 12.2267 0.500857 12.6567C0.727524 12.9133 1.01752 13.0947 1.33352 13.2073V15.3333C1.33352 15.702 1.63219 16 2.00019 16C2.36819 16 2.66686 15.702 2.66686 15.3333V13.3333H4.00019C4.36819 13.3333 4.66686 13.0353 4.66686 12.6667C4.66686 12.298 4.36819 12 4.00019 12H2.00019C1.80619 12 1.62886 11.92 1.50019 11.7747C1.37219 11.6287 1.31419 11.4433 1.33819 11.2507L1.92219 6.57867C2.01086 5.86867 2.61752 5.33333 3.33286 5.33333C3.66352 5.33333 3.98552 5.45 4.24019 5.66067C4.52419 5.89667 4.94419 5.85733 5.17886 5.57333C5.41419 5.29 5.37486 4.86933 5.09152 4.63467C4.59819 4.22533 3.97352 4 3.33219 4H3.33352Z" fill="black"/>
</svg>
