<svg width="24" height="24" viewBox="0 0 24 24" fill="none" xmlns="http://www.w3.org/2000/svg">
<g clip-path="url(#clip0_584_4556)">
<path d="M20.8545 8.10254C21.2363 8.08462 21.6179 8.14188 21.9775 8.27148C22.337 8.40106 22.6676 8.60014 22.9502 8.85742C23.5142 9.37553 23.8523 10.0946 23.8916 10.8594C23.9308 11.6242 23.6681 12.3741 23.1602 12.9473L16.3604 20.584C15.4308 21.6265 14.2911 22.4608 13.0166 23.0322C11.7422 23.6036 10.3615 23.9 8.96484 23.9004H4C2.96566 23.9004 1.97358 23.4892 1.24219 22.7578C0.510796 22.0264 0.0996094 21.0343 0.0996094 20V15C0.0996094 13.9657 0.510796 12.9736 1.24219 12.2422C1.97358 11.5108 2.96566 11.0996 4 11.0996H12.8574C13.3812 11.0999 13.8964 11.2356 14.3525 11.4932C14.8086 11.7507 15.1901 12.122 15.4609 12.5703L15.5303 12.6855L15.6211 12.5859L18.8379 9.05176C19.0951 8.76887 19.406 8.53881 19.752 8.37598C20.0978 8.21323 20.4727 8.12049 20.8545 8.10254ZM20.9375 9.90039C20.7917 9.9066 20.6487 9.94183 20.5166 10.0039C20.4175 10.0505 20.3259 10.1113 20.2451 10.1846L20.168 10.2617L15.7422 15.1328L15.7285 15.1475L15.7217 15.166C15.5335 15.6867 15.2074 16.1471 14.7783 16.4971C14.4029 16.8031 13.9609 17.0147 13.4893 17.1162L13.2852 17.1533L8.125 17.8906C7.88869 17.9245 7.6481 17.8638 7.45703 17.7207C7.26605 17.5776 7.14038 17.3641 7.10645 17.1279C7.07255 16.8916 7.13324 16.651 7.27637 16.46C7.40169 16.2927 7.58103 16.1754 7.78223 16.126L7.86914 16.1094L13.0312 15.3721C13.3427 15.3284 13.6262 15.1682 13.8242 14.9238C14.0222 14.6793 14.1197 14.3685 14.0977 14.0547C14.0755 13.7408 13.9354 13.4467 13.7051 13.2324C13.4749 13.0183 13.1718 12.9 12.8574 12.9004H4C3.44305 12.9004 2.90847 13.1208 2.51465 13.5146C2.12082 13.9085 1.90039 14.443 1.90039 15V20C1.90039 20.557 2.12082 21.0915 2.51465 21.4854C2.90847 21.8792 3.44305 22.0996 4 22.0996H8.96484C10.1069 22.0992 11.2363 21.8579 12.2783 21.3906C13.3203 20.9234 14.2518 20.2411 15.0117 19.3887L21.8164 11.751V11.75C22.0104 11.5315 22.1114 11.2459 22.0967 10.9541C22.0819 10.6621 21.9525 10.3873 21.7373 10.1895V10.1885L21.6514 10.1191C21.4463 9.96812 21.1951 9.89047 20.9385 9.90039H20.9375ZM12.9902 1.90039C12.6735 1.93217 12.3815 2.0875 12.1777 2.33203C11.9995 2.54605 11.9009 2.81372 11.8965 3.08984L11.9004 3.20801C11.8983 3.44363 11.8034 3.66908 11.6367 3.83594C11.4679 4.00472 11.2387 4.09961 11 4.09961C10.7613 4.09961 10.5321 4.00472 10.3633 3.83594C10.1966 3.66908 10.1017 3.44363 10.0996 3.20801C10.1254 2.89094 10.0258 2.57648 9.82227 2.33203C9.61849 2.0875 9.32648 1.93217 9.00977 1.90039L9 1.89941L8.99023 1.90039C8.67352 1.93217 8.38151 2.0875 8.17773 2.33203C7.97418 2.57648 7.87458 2.89094 7.90039 3.20801V3.20703C7.90333 3.69131 8.20915 4.30867 8.72852 4.97949C9.25421 5.65846 10.0116 6.40928 10.9434 7.15723L11.0059 7.20703L11.0684 7.15723C11.9941 6.40931 12.7493 5.65842 13.2734 4.97949C13.7912 4.30878 14.0957 3.69124 14.0986 3.20703L14.0996 3.20801C14.1254 2.89094 14.0258 2.57648 13.8223 2.33203C13.6185 2.0875 13.3265 1.93217 13.0098 1.90039L13 1.89941L12.9902 1.90039ZM6.09961 3.19727C6.07585 2.40206 6.36799 1.62922 6.91211 1.04883C7.45588 0.468808 8.20743 0.127522 9.00195 0.0996094C9.72254 0.103021 10.4142 0.386105 10.9307 0.888672L11 0.956055L11.0693 0.888672C11.5856 0.386333 12.2768 0.103272 12.9971 0.0996094C13.792 0.127276 14.5439 0.468571 15.0879 1.04883C15.632 1.62922 15.9242 2.40206 15.9004 3.19727V3.2002C15.9003 4.16747 15.4055 5.16182 14.6865 6.09277C13.969 7.02181 13.0369 7.87562 12.1836 8.56055C11.8478 8.8291 11.43 8.97484 11 8.97363L10.8389 8.96777C10.466 8.93688 10.1093 8.795 9.81543 8.55957C8.96267 7.87514 8.03091 7.02169 7.31348 6.09277C6.59454 5.16191 6.09968 4.16751 6.09961 3.2002V3.19727Z" fill="black" stroke="#B9F2F8" stroke-width="0.2"/>
</g>
<defs>
<clipPath id="clip0_584_4556">
<rect width="24" height="24" fill="white"/>
</clipPath>
</defs>
</svg>
