<svg width="24" height="24" viewBox="0 0 24 24" fill="none" xmlns="http://www.w3.org/2000/svg">
<path d="M11.757 8.539C11.757 7.865 11.569 6.889 11.393 6.313C10.38 3.015 6.87102 1.029 2.00602 1H2.00002C1.45002 1 1.00302 1.444 1.00002 1.994C0.997015 2.546 1.44102 2.996 1.99402 3C3.47302 3.009 8.38101 3.316 9.48001 6.9C9.61101 7.326 9.75601 8.104 9.75601 8.539C9.75601 9.84 10.618 11.08 11.312 12.076C11.527 12.384 11.833 12.824 11.955 13.074C11.756 13.323 11.294 13.669 10.921 13.87C10.595 14.044 10.392 14.383 10.392 14.752V16.936C10.392 17.561 10.392 18.504 6.77502 18.504C6.23902 18.504 5.79802 18.926 5.77602 19.462C5.75202 20.05 5.68802 20.428 5.63202 20.656C4.86102 20.783 3.34601 21 2.00002 21C1.44702 21 1.00002 21.448 1.00002 22C1.00002 22.552 1.44702 23 2.00002 23C4.08301 23 6.42602 22.549 6.52402 22.53C6.71202 22.494 6.88402 22.405 7.02302 22.273C7.26301 22.044 7.54902 21.552 7.69302 20.489C9.52602 20.41 12.391 19.926 12.391 16.936V15.314C12.903 14.97 13.614 14.392 13.898 13.681C14.252 12.798 13.65 11.934 12.954 10.933C12.421 10.166 11.757 9.213 11.757 8.539Z" fill="#212121"/>
<path d="M16 16.002C16.5523 16.002 17 15.5542 17 15.002C17 14.4497 16.5523 14.002 16 14.002C15.4477 14.002 15 14.4497 15 15.002C15 15.5542 15.4477 16.002 16 16.002Z" fill="#212121"/>
<path d="M19 14.0059C19.5523 14.0059 20 13.5581 20 13.0059C20 12.4536 19.5523 12.0059 19 12.0059C18.4477 12.0059 18 12.4536 18 13.0059C18 13.5581 18.4477 14.0059 19 14.0059Z" fill="#212121"/>
<path d="M22 12C22.5523 12 23 11.5523 23 11C23 10.4477 22.5523 10 22 10C21.4477 10 21 10.4477 21 11C21 11.5523 21.4477 12 22 12Z" fill="#212121"/>
<path d="M22 16.002C22.5523 16.002 23 15.5542 23 15.002C23 14.4497 22.5523 14.002 22 14.002C21.4477 14.002 21 14.4497 21 15.002C21 15.5542 21.4477 16.002 22 16.002Z" fill="#212121"/>
<path d="M22 20.0059C22.5523 20.0059 23 19.5581 23 19.0059C23 18.4536 22.5523 18.0059 22 18.0059C21.4477 18.0059 21 18.4536 21 19.0059C21 19.5581 21.4477 20.0059 22 20.0059Z" fill="#212121"/>
<path d="M19 18.0059C19.5523 18.0059 20 17.5581 20 17.0059C20 16.4536 19.5523 16.0059 19 16.0059C18.4477 16.0059 18 16.4536 18 17.0059C18 17.5581 18.4477 18.0059 19 18.0059Z" fill="#212121"/>
</svg>
