<svg width="21" height="21" viewBox="0 0 21 21" fill="none" xmlns="http://www.w3.org/2000/svg">
<path d="M10.2 0.100586C15.7694 0.100586 20.2996 4.6308 20.2996 10.2002C20.2996 15.7696 15.7694 20.2998 10.2 20.2998C4.63062 20.2998 0.100403 15.7696 0.100403 10.2002C0.100403 4.6308 4.63062 0.100586 10.2 0.100586ZM10.2 1.13379C5.20107 1.13379 1.13361 5.20126 1.13361 10.2002C1.13361 15.1991 5.20107 19.2666 10.2 19.2666C15.199 19.2666 19.2664 15.1991 19.2664 10.2002C19.2664 5.20126 15.199 1.13379 10.2 1.13379ZM10.2 14.2666C10.7152 14.2666 11.1336 14.685 11.1336 15.2002C11.1336 15.7154 10.7152 16.1338 10.2 16.1338C9.68478 16.1338 9.26642 15.7154 9.26642 15.2002C9.26642 14.685 9.68478 14.2666 10.2 14.2666ZM8.06134 5.01562C8.88404 4.35873 9.95632 4.11929 11.0027 4.3584H11.0018C12.2575 4.64441 13.2547 5.64192 13.5408 6.89746L13.5945 7.18457C13.8033 8.61588 13.1283 10.0072 11.8543 10.709C11.1361 11.1059 10.7158 11.7679 10.7156 12.4766V12.7002C10.7156 12.9854 10.4843 13.2168 10.199 13.2168C9.91387 13.2167 9.68243 12.9854 9.68243 12.7002V12.4766C9.68255 11.377 10.3132 10.3792 11.3563 9.80371C12.3061 9.27994 12.7799 8.20608 12.534 7.12793V7.12695C12.3382 6.26975 11.6295 5.56093 10.7723 5.36523C10.0335 5.19678 9.27946 5.36363 8.7049 5.82227C8.12944 6.28167 7.79962 6.96569 7.79962 7.7002C7.79962 7.98542 7.56825 8.2168 7.28302 8.2168C6.99794 8.21662 6.76642 7.98532 6.76642 7.7002C6.76642 6.64969 7.23927 5.67122 8.06134 5.01562Z" fill="#212121" stroke="black" stroke-width="0.2"/>
</svg>
