<svg width="160" height="148" viewBox="0 0 160 148" fill="none" xmlns="http://www.w3.org/2000/svg">
<path d="M135.462 54.2863C135.475 53.9066 135.482 53.5272 135.482 53.1481C135.482 35.3334 120.988 20.8403 103.174 20.8403C102.212 20.8403 101.246 20.8837 100.284 20.9697C96.93 15.0809 92.1781 10.0891 86.4266 6.4375C79.7931 2.22594 72.1159 0 64.2247 0C41.3531 0 22.7456 18.6075 22.7456 41.4794C22.7456 41.6491 22.7469 41.8194 22.7491 41.99C16.7431 43.8541 11.3409 47.4747 7.31687 52.38C2.59844 58.1319 0 65.4037 0 72.8556C0 90.6703 14.4931 105.163 32.3078 105.163H37.9059V98.2884H32.3078C18.2841 98.2887 6.875 86.8794 6.875 72.8556C6.875 60.9041 15.3481 50.4397 27.0228 47.9738C28.7159 47.6159 29.8794 46.0556 29.7384 44.3309C29.6603 43.3731 29.6206 42.4134 29.6206 41.4791C29.6206 22.3981 45.1441 6.87469 64.2247 6.87469C70.8087 6.87469 77.2119 8.73031 82.7416 12.2413C88.1278 15.6613 92.4631 20.4878 95.2794 26.1994C95.9503 27.5603 97.4359 28.3197 98.9312 28.0694C100.331 27.8344 101.759 27.7153 103.174 27.7153C117.198 27.7153 128.607 39.1244 128.607 53.1481C128.607 54.5472 128.49 55.9581 128.261 57.3416C128.083 58.4159 128.424 59.5112 129.181 60.2941C129.938 61.0769 131.02 61.4534 132.102 61.3122C132.941 61.2016 133.766 61.1453 134.553 61.1453C144.794 61.1453 153.125 69.4766 153.125 79.7172C153.125 89.9578 144.794 98.2891 134.553 98.2891H122.583V105.164H134.553C148.585 105.164 160 93.7487 160 79.7172C160 65.9894 149.074 54.7659 135.462 54.2863Z" fill="#33CCCC"/>
<path d="M86.8862 93.5636L77.8534 102.597L73.1137 97.8571C71.7709 96.5149 69.5944 96.5146 68.2522 97.8571C66.9097 99.1996 66.9097 101.376 68.2522 102.718L75.4225 109.889C76.0669 110.533 76.9416 110.896 77.8531 110.896C78.7647 110.896 79.639 110.534 80.2837 109.889L91.7475 98.4252C93.09 97.0827 93.09 94.9061 91.7475 93.5636C90.405 92.2211 88.2291 92.2215 86.8862 93.5636Z" fill="#33CCCC"/>
<path d="M122.856 90.9199L118.097 89.8386C117.383 87.5477 116.462 85.3255 115.343 83.1965L117.945 79.0636C118.8 77.7055 118.602 75.9365 117.467 74.8015L106.925 64.2599C105.791 63.1252 104.022 62.9258 102.663 63.7815L98.53 66.3836C96.4009 65.2649 94.1785 64.3433 91.8875 63.6293L90.806 58.8702C90.45 57.3052 89.0588 56.1946 87.4538 56.1946H72.546C70.941 56.1946 69.5497 57.3052 69.1938 58.8702L68.1122 63.6293C65.8213 64.3436 63.5991 65.2652 61.4697 66.3836L57.3369 63.7815C55.9778 62.9261 54.2091 63.1246 53.0744 64.2599L42.5331 74.8015C41.3981 75.9365 41.1997 77.7055 42.055 79.0636L44.6572 83.1965C43.5381 85.3255 42.6169 87.5477 41.9025 89.8386L37.1438 90.9199C35.5785 91.2755 34.4681 92.6671 34.4681 94.2721V109.18C34.4681 110.785 35.5788 112.176 37.1438 112.532L41.9025 113.614C42.6169 115.905 43.5381 118.127 44.6572 120.256L42.055 124.389C41.2 125.747 41.3981 127.516 42.5331 128.651L53.0744 139.193C54.2091 140.327 55.9781 140.526 57.3366 139.671L61.4697 137.069C63.5988 138.187 65.8213 139.109 68.1122 139.823L69.1938 144.582C69.5497 146.147 70.941 147.257 72.546 147.257H87.4538C89.0588 147.257 90.45 146.147 90.806 144.582L91.8875 139.823C94.1785 139.109 96.4006 138.187 98.53 137.069L102.663 139.671C104.021 140.526 105.79 140.327 106.925 139.193L117.467 128.651C118.602 127.516 118.8 125.747 117.945 124.389L115.343 120.256C116.462 118.127 117.383 115.905 118.097 113.614L122.856 112.532C124.421 112.177 125.532 110.785 125.532 109.18V94.2721C125.532 92.6671 124.421 91.2755 122.856 90.9199ZM118.657 106.436L114.584 107.362C113.324 107.648 112.331 108.617 112.013 109.869C111.237 112.934 110.018 115.872 108.393 118.601C107.731 119.711 107.748 121.098 108.437 122.191L110.665 125.73L104.004 132.391L100.465 130.163C99.3722 129.474 97.9847 129.458 96.8747 130.119C94.1466 131.744 91.2084 132.962 88.1434 133.739C86.8909 134.057 85.9225 135.05 85.6363 136.31L84.7106 140.382H75.2903L74.3647 136.31C74.0785 135.05 73.1097 134.057 71.8575 133.739C68.7922 132.962 65.8544 131.744 63.1263 130.119C62.016 129.457 60.6291 129.474 59.5356 130.163L55.9969 132.391L49.3363 125.73L51.5641 122.191C52.2525 121.098 52.2697 119.711 51.6085 118.601C49.9828 115.872 48.7644 112.934 47.9878 109.869C47.67 108.617 46.6775 107.648 45.4172 107.362L41.3444 106.436V97.0158L45.4172 96.0902C46.6772 95.8036 47.67 94.8352 47.9878 93.5827C48.7644 90.5177 49.9828 87.5802 51.6085 84.8515C52.2697 83.7415 52.2528 82.354 51.5641 81.2605L49.336 77.7221L55.9969 71.0608L59.5353 73.289C60.6291 73.9774 62.0163 73.9946 63.1263 73.3333C65.8544 71.7077 68.7925 70.4896 71.8575 69.7127C73.11 69.3952 74.0785 68.4024 74.3647 67.1424L75.2903 63.0693H84.7106L85.6363 67.1424C85.9225 68.4021 86.8913 69.3949 88.1434 69.7127C91.2088 70.4899 94.1466 71.708 96.8747 73.3333C97.985 73.9946 99.3716 73.9777 100.466 73.289L104.004 71.0608L110.665 77.7221L108.437 81.2605C107.748 82.354 107.731 83.7411 108.393 84.8515C110.018 87.5802 111.237 90.5177 112.013 93.5827C112.331 94.8352 113.323 95.8036 114.584 96.0902L118.657 97.0158V106.436Z" fill="black"/>
<path d="M80 76.0833C65.8606 76.0833 54.3572 87.5867 54.3572 101.726C54.3572 115.866 65.8606 127.369 80 127.369C94.1394 127.369 105.643 115.865 105.643 101.726C105.643 87.5867 94.1394 76.0833 80 76.0833ZM80 120.494C69.6516 120.494 61.2322 112.075 61.2322 101.726C61.2322 91.3776 69.6512 82.9583 80 82.9583C90.3487 82.9583 98.7678 91.3773 98.7678 101.726C98.7678 112.074 90.3484 120.494 80 120.494Z" fill="black"/>
</svg>
