<svg width="39" height="40" viewBox="0 0 39 40" fill="none" xmlns="http://www.w3.org/2000/svg">
<rect width="39" height="40" rx="19.5" fill="#B9F2F8"/>
<g clip-path="url(#clip0_1799_499)">
<path d="M24.6865 19.3027C24.8351 19.253 24.9989 19.253 25.1475 19.3027V19.3037L28.3047 20.3496L28.3057 20.3506L28.3281 20.3584C28.9695 20.5708 29.4004 21.1687 29.4004 21.8438V24.6133C29.4004 26.2575 28.6342 27.4534 27.7441 28.2891C26.8526 29.126 25.8409 29.598 25.3662 29.7891L25.3564 29.793L25.3486 29.7979L25.3477 29.7988C25.3467 29.7994 25.3448 29.8005 25.3428 29.8018C25.3382 29.8045 25.3309 29.8084 25.3213 29.8135C25.3015 29.824 25.2716 29.8389 25.2334 29.8535C25.1565 29.8828 25.0468 29.9121 24.918 29.9121C24.7933 29.912 24.6719 29.8736 24.5791 29.833C24.5333 29.813 24.4955 29.7932 24.4697 29.7783C24.4569 29.7709 24.4469 29.7648 24.4404 29.7607C24.4373 29.7587 24.435 29.7568 24.4336 29.7559L24.4326 29.7549L24.376 29.8379L24.4326 29.7539L24.4209 29.748L23.9795 29.5127C23.4593 29.2168 22.7316 28.7406 22.0703 28.0918C21.1886 27.2267 20.4346 26.0626 20.4346 24.6123V21.8428C20.4346 21.2097 20.8135 20.6443 21.3896 20.4014L21.5068 20.3574L24.6865 19.3037V19.3027ZM13.667 24.2666H17.833C18.2386 24.2666 18.5664 24.5944 18.5664 25C18.5664 25.4056 18.2386 25.7334 17.833 25.7334H13.667C13.2614 25.7334 12.9336 25.4056 12.9336 25C12.9336 24.5944 13.2614 24.2666 13.667 24.2666ZM13.667 20.9336H17.833C18.2386 20.9336 18.5664 21.2614 18.5664 21.667C18.5662 22.0724 18.2385 22.4004 17.833 22.4004H13.667C13.2615 22.4004 12.9338 22.0724 12.9336 21.667C12.9336 21.2614 13.2614 20.9336 13.667 20.9336ZM19.4004 15.833C19.4004 16.3481 19.8179 16.7664 20.333 16.7666H24.1221L24.0361 16.6172C23.8485 16.2905 23.6176 15.9877 23.3496 15.7197L20.4463 12.8164C20.1745 12.5455 19.8742 12.315 19.5498 12.1289L19.4004 12.043V15.833ZM27.9336 21.7715L27.8643 21.748L24.9482 20.7832L24.917 20.7734L24.8848 20.7832L21.9688 21.75L21.9004 21.7725V24.6133C21.9004 25.6032 22.4705 26.4379 23.1221 27.0693C23.7751 27.7022 24.5237 28.1444 24.9082 28.3506L24.9512 28.374L24.9951 28.3535C25.4301 28.1615 26.162 27.7815 26.7861 27.1738C27.4114 26.5651 27.9336 25.7233 27.9336 24.6133V21.7715ZM17.9336 11.5947L17.8428 11.5859C17.7065 11.5732 17.5678 11.5664 17.4287 11.5664H13.667C12.2334 11.5664 11.0664 12.7334 11.0664 14.167V25.833C11.0664 27.2666 12.2334 28.4336 13.667 28.4336H19.5C19.9056 28.4336 20.2334 28.7614 20.2334 29.167C20.2332 29.5724 19.9055 29.9004 19.5 29.9004H13.667C11.4247 29.9004 9.59961 28.0753 9.59961 25.833V14.167C9.59961 11.9247 11.4247 10.0996 13.667 10.0996H17.4287C18.9605 10.0996 20.4005 10.6973 21.4834 11.7803L24.3867 14.6836C25.1147 15.4108 25.633 16.3224 25.8877 17.3184C25.9433 17.5375 25.8952 17.7704 25.7568 17.9492C25.6184 18.128 25.4043 18.2333 25.1777 18.2334H20.333C19.0101 18.2332 17.9336 17.156 17.9336 15.833V11.5947Z" fill="black" stroke="#B9F2F8" stroke-width="0.2"/>
</g>
<defs>
<clipPath id="clip0_1799_499">
<rect width="20" height="20" fill="white" transform="translate(9.5 10)"/>
</clipPath>
</defs>
</svg>
