<svg width="24" height="24" viewBox="0 0 24 24" fill="none" xmlns="http://www.w3.org/2000/svg">
<g clip-path="url(#clip0_584_4600)">
<path d="M9.5 13.9004C9.83104 13.9006 10.0996 14.1689 10.0996 14.5C10.0996 14.8311 9.83104 15.0994 9.5 15.0996C4.94559 15.0996 1.09961 18.836 1.09961 23.25V23.5C1.09961 23.8312 0.831211 24.0996 0.5 24.0996C0.168779 24.0996 -0.0996094 23.8312 -0.0996094 23.5V23.25C-0.0996094 18.1783 4.29852 13.9004 9.5 13.9004ZM17.5 11.9004C17.8312 11.9004 18.1006 12.1688 18.1006 12.5V13.9629L21.3408 14.3232C22.0096 14.3963 22.5794 14.8296 22.8281 15.4551C23.4606 17.046 23.7775 17.8902 23.9365 18.3545C24.0952 18.8177 24.0996 18.9124 24.0996 18.999C24.0996 20.1572 23.1582 21.0986 22 21.0986C20.8419 21.0986 19.9004 20.1572 19.9004 18.999C19.9004 18.9842 19.9041 18.9705 19.9043 18.9697C19.9054 18.965 19.9068 18.9598 19.9082 18.9551C19.9111 18.9452 19.9151 18.9326 19.9199 18.918C19.9298 18.8882 19.9441 18.8468 19.9619 18.7959C19.9977 18.6938 20.0492 18.5515 20.1104 18.3828C20.2327 18.0453 20.3956 17.6006 20.5586 17.1582C20.7216 16.7157 20.8846 16.2744 21.0068 15.9443C21.0679 15.7795 21.1187 15.6419 21.1543 15.5459C21.1589 15.5335 21.1629 15.5217 21.167 15.5107L18.1006 15.1689V22.8994H20.5C20.8312 22.8994 21.1006 23.1678 21.1006 23.499C21.1006 23.8302 20.8312 24.0986 20.5 24.0986H14.5C14.169 24.0984 13.9004 23.8301 13.9004 23.499C13.9004 23.1679 14.169 22.8996 14.5 22.8994H16.9004V15.0361L13.9043 14.7031C13.9382 14.7945 13.9862 14.9228 14.043 15.0762C14.1598 15.3915 14.3159 15.8124 14.4717 16.2354C14.6274 16.6582 14.7825 17.0832 14.8994 17.4062C14.9578 17.5675 15.0068 17.7038 15.041 17.8018C15.0581 17.8507 15.0716 17.8911 15.0811 17.9199C15.0857 17.9342 15.09 17.9464 15.0928 17.9561C15.0942 17.9608 15.0955 17.9659 15.0967 17.9707C15.0969 17.9718 15.1006 17.9846 15.1006 17.999C15.1006 19.1572 14.1582 20.0986 13 20.0986C11.842 20.0984 10.9004 19.1571 10.9004 17.999C10.9004 17.985 10.9038 17.9725 10.9043 17.9707C10.9054 17.966 10.9068 17.9608 10.9082 17.9561C10.911 17.9463 10.9152 17.9333 10.9199 17.9189C10.9294 17.89 10.9428 17.8498 10.96 17.8008C10.9945 17.702 11.0445 17.5644 11.1035 17.4014C11.2215 17.0752 11.3789 16.6459 11.5361 16.2188C11.6933 15.7917 11.8499 15.3663 11.9678 15.0479C12.0267 14.8887 12.076 14.7558 12.1104 14.6631C12.1275 14.617 12.1412 14.5805 12.1504 14.5557C12.1549 14.5435 12.1588 14.5338 12.1611 14.5273C12.1623 14.5241 12.1635 14.5212 12.1641 14.5195V14.5176L12.165 14.5166C12.4232 13.829 13.1044 13.4073 13.8408 13.4883L16.9004 13.8291V12.5C16.9004 12.1689 17.1689 11.9005 17.5 11.9004ZM21.1777 18.9004H22.8574C22.833 18.8291 22.7966 18.7218 22.7402 18.5664C22.6154 18.2222 22.3952 17.639 22.0137 16.667L21.1777 18.9004ZM12.1777 17.9004H13.8213L12.999 15.707L12.1777 17.9004ZM9.00098 -0.0996094C12.3649 -0.0994191 15.0996 2.63591 15.0996 6C15.0996 9.36377 12.3645 12.0979 9.00098 12.0986V12.0996C5.63688 12.0996 2.90039 9.36422 2.90039 6C2.90039 2.63578 5.63688 -0.0996094 9.00098 -0.0996094ZM9 1.09961C6.29861 1.09995 4.09961 3.29846 4.09961 6C4.09961 8.70178 6.29835 10.9004 9 10.9004C11.7015 10.9002 13.8994 8.70165 13.8994 6C13.8994 3.29835 11.7015 1.09981 9 1.09961Z" fill="black" stroke="black" stroke-width="0.2"/>
</g>
<defs>
<clipPath id="clip0_584_4600">
<rect width="24" height="24" fill="white"/>
</clipPath>
</defs>
</svg>
