<svg width="39" height="40" viewBox="0 0 39 40" fill="none" xmlns="http://www.w3.org/2000/svg">
<rect width="39" height="40" rx="19.5" fill="#B9F2F8"/>
<g clip-path="url(#clip0_188_1169)">
<path d="M19.5 10.9004C20.7957 10.9004 21.8496 11.9543 21.8496 13.25V13.9004H25.125C27.041 13.9004 28.5996 15.459 28.5996 17.375V25.625C28.5996 27.541 27.041 29.0996 25.125 29.0996H13.875C11.959 29.0996 10.4004 27.541 10.4004 25.625V17.375C10.4004 15.459 11.959 13.9004 13.875 13.9004H17.1504V13.25C17.1504 11.9543 18.2043 10.9004 19.5 10.9004ZM13.875 14.8496C12.4827 14.8496 11.3496 15.9827 11.3496 17.375V25.625C11.3496 27.0173 12.4827 28.1504 13.875 28.1504H25.125C26.5173 28.1504 27.6504 27.0173 27.6504 25.625V17.375C27.6504 15.9827 26.5173 14.8496 25.125 14.8496H21.8496V15.5C21.8496 16.3825 21.1325 17.0996 20.25 17.0996H18.75C17.8675 17.0996 17.1504 16.3825 17.1504 15.5V14.8496H13.875ZM17.25 19.1504C18.1325 19.1504 18.8496 19.8675 18.8496 20.75V24.5C18.8496 25.3825 18.1325 26.0996 17.25 26.0996H15C14.1175 26.0996 13.4004 25.3825 13.4004 24.5V20.75C13.4004 19.8675 14.1175 19.1504 15 19.1504H17.25ZM23.625 25.1504C23.8872 25.1504 24.0996 25.3628 24.0996 25.625C24.0996 25.8872 23.8872 26.0996 23.625 26.0996H20.625C20.3628 26.0996 20.1504 25.8872 20.1504 25.625C20.1504 25.3628 20.3628 25.1504 20.625 25.1504H23.625ZM15 20.0996C14.6412 20.0996 14.3496 20.3912 14.3496 20.75V24.5C14.3496 24.8588 14.6412 25.1504 15 25.1504H17.25C17.6088 25.1504 17.9004 24.8588 17.9004 24.5V20.75C17.9004 20.3912 17.6088 20.0996 17.25 20.0996H15ZM25.125 22.1504C25.3872 22.1504 25.5996 22.3628 25.5996 22.625C25.5996 22.8872 25.3872 23.0996 25.125 23.0996H20.625C20.3628 23.0996 20.1504 22.8872 20.1504 22.625C20.1504 22.3628 20.3628 22.1504 20.625 22.1504H25.125ZM25.125 19.1504C25.3872 19.1504 25.5996 19.3628 25.5996 19.625C25.5996 19.8872 25.3872 20.0996 25.125 20.0996H20.625C20.3628 20.0996 20.1504 19.8872 20.1504 19.625C20.1504 19.3628 20.3628 19.1504 20.625 19.1504H25.125ZM19.5 11.8496C18.728 11.8496 18.0996 12.478 18.0996 13.25V15.5C18.0996 15.8588 18.3912 16.1504 18.75 16.1504H20.25C20.6088 16.1504 20.9004 15.8588 20.9004 15.5V13.25C20.9004 12.478 20.272 11.8496 19.5 11.8496Z" fill="black" stroke="#212121" stroke-width="0.2"/>
</g>
<defs>
<clipPath id="clip0_188_1169">
<rect width="20" height="20" fill="white" transform="translate(9.5 10)"/>
</clipPath>
</defs>
</svg>
