<svg width="24" height="24" viewBox="0 0 24 24" fill="none" xmlns="http://www.w3.org/2000/svg">
<g clip-path="url(#clip0_584_4542)">
<path d="M12 4.10059C16.9078 4.10059 20.9004 8.09321 20.9004 13.001V18.2041L20.9756 18.2236C22.6564 18.6577 23.9004 20.1869 23.9004 22.001C23.9002 23.0486 23.0476 23.9004 22 23.9004H2C0.952492 23.9002 0.100816 23.0485 0.100586 22.001C0.100586 20.1867 1.34442 18.6575 3.02539 18.2236L3.10059 18.2041V13.001C3.10059 8.0933 7.09235 4.10073 12 4.10059ZM4 19.9004C2.84189 19.9005 1.90039 20.8428 1.90039 22.001V22.1006H22.1006V22.001C22.1006 20.8427 21.1582 19.9004 20 19.9004H4ZM12 5.90039C8.08589 5.90054 4.90039 9.08684 4.90039 13.001V18.1006H19.1006V13.001C19.1006 9.08675 15.9142 5.90039 12 5.90039ZM12 9.10059C12.4978 9.10059 12.9004 9.50321 12.9004 10.001C12.9002 10.4986 12.4976 10.9004 12 10.9004C10.8419 10.9005 9.90039 11.8428 9.90039 13.001C9.90016 13.4986 9.49763 13.9004 9 13.9004C8.50249 13.9002 8.10081 13.4985 8.10059 13.001C8.10059 10.8503 9.84935 9.10073 12 9.10059ZM0.368164 3.34473C0.720767 2.99497 1.29151 2.99832 1.63965 3.35156H1.64062L3.14062 4.86914C3.49034 5.22281 3.48655 5.79146 3.13281 6.1416C2.95827 6.31428 2.72864 6.40137 2.5 6.40137C2.26767 6.4013 2.03562 6.31267 1.86035 6.13477V6.13379L0.360352 4.61719C0.0103936 4.26363 0.0136042 3.69499 0.367188 3.34473H0.368164ZM22.3604 3.35059C22.7094 2.99713 23.279 2.99452 23.6328 3.34375C23.9865 3.69388 23.9889 4.26243 23.6396 4.61621L22.1406 6.13281L22.1396 6.13379C21.9643 6.31157 21.7323 6.40039 21.5 6.40039C21.2716 6.40032 21.0429 6.31357 20.8672 6.14062C20.5137 5.79055 20.5113 5.22192 20.8604 4.86816L22.3604 3.35059ZM5.30957 0.201172C5.74744 -0.0271574 6.2929 0.143995 6.52246 0.586914L7.2998 2.08691C7.51369 2.50003 7.37523 3.00319 6.99414 3.25293L6.91406 3.2998C6.78287 3.36809 6.64053 3.40039 6.50098 3.40039C6.17592 3.40029 5.86125 3.22405 5.70117 2.91504L4.92383 1.41504V1.41406C4.69564 0.973241 4.86869 0.429708 5.30957 0.201172ZM17.4785 0.586914C17.707 0.144262 18.2513 -0.0274223 18.6914 0.201172C19.1324 0.429798 19.3048 0.973102 19.0762 1.41504L18.2998 2.91504C18.1397 3.2243 17.8252 3.40039 17.499 3.40039C17.3597 3.40035 17.2183 3.36825 17.0859 3.2998C16.6452 3.07117 16.4728 2.52873 16.7012 2.08691L17.4785 0.586914Z" fill="black" stroke="#B9F2F8" stroke-width="0.2"/>
</g>
<defs>
<clipPath id="clip0_584_4542">
<rect width="24" height="24" fill="white"/>
</clipPath>
</defs>
</svg>
