<svg width="39" height="40" viewBox="0 0 39 40" fill="none" xmlns="http://www.w3.org/2000/svg">
<rect width="39" height="40" rx="19.5" fill="#B9F2F8"/>
<path d="M21.1201 10.5547C22.4309 10.5547 23.6633 11.0719 24.5889 12.0117L27.165 14.625L27.332 14.7949H27.3242C28.1489 15.7134 28.5995 16.8939 28.5996 18.1426V25.2793C28.5996 27.1939 27.0642 28.7539 25.1738 28.7539H17.0439C15.4792 28.7539 14.1151 27.6812 13.7256 26.1475C13.6614 25.895 13.8112 25.6352 14.0635 25.5693H14.0645C14.3136 25.5068 14.5718 25.6558 14.6357 25.9111L14.6963 26.1162C15.0426 27.1211 15.9804 27.8046 17.0439 27.8047H25.1748C26.5447 27.8046 27.6611 26.6729 27.6611 25.2793V18.1426C27.6611 17.9274 27.6377 17.7152 27.6035 17.5039H23.6963C22.6212 17.5039 21.749 16.6174 21.749 15.5293V11.5615C21.5418 11.527 21.3323 11.5039 21.1201 11.5039H17.0439C15.6741 11.5041 14.5576 12.6357 14.5576 14.0293C14.5576 14.2901 14.3484 14.5038 14.0879 14.5039C13.8273 14.5039 13.6182 14.2901 13.6182 14.0293C13.6182 12.1148 15.1537 10.5548 17.0439 10.5547H21.1201ZM24.4355 24.8037C24.6961 24.8037 24.9052 25.0176 24.9053 25.2783C24.9053 25.5392 24.6961 25.7539 24.4355 25.7539H17.7832C17.5227 25.7538 17.3135 25.5391 17.3135 25.2783C17.3136 25.0176 17.5227 24.8038 17.7832 24.8037H24.4355ZM14.0869 15.8037C15.57 15.8037 16.7733 17.0271 16.7734 18.5283C16.7734 19.2521 16.4908 19.9085 16.0352 20.3965V23.4424C16.0352 23.7698 15.8422 24.0652 15.542 24.1914C15.4421 24.2335 15.3371 24.2529 15.2344 24.2529C15.0401 24.2529 14.8505 24.181 14.7012 24.0449H14.6943L14.6641 24.0117L14.0859 23.3623L13.5215 23.9971L13.5186 24.001C13.2773 24.2475 12.9347 24.3168 12.6328 24.1914H12.6318C12.3316 24.0652 12.1387 23.7698 12.1387 23.4424V20.3965C11.6831 19.9078 11.4004 19.2522 11.4004 18.5283C11.4005 17.0271 12.6039 15.8037 14.0869 15.8037ZM15.0967 21.041C14.7856 21.1719 14.4477 21.2539 14.0879 21.2539C13.7287 21.2539 13.3899 21.1758 13.0791 21.0449V23.0762L13.7383 22.3359C13.9177 22.1327 14.257 22.1329 14.4365 22.3359L15.0967 23.0762V21.041ZM24.4355 21.8037C24.6961 21.8037 24.9052 22.0176 24.9053 22.2783C24.9053 22.5392 24.6961 22.7539 24.4355 22.7539H17.7832C17.5227 22.7538 17.3135 22.5391 17.3135 22.2783C17.3136 22.0176 17.5227 21.8038 17.7832 21.8037H24.4355ZM14.0879 16.7539C13.126 16.7539 12.34 17.548 12.3398 18.5283C12.3398 19.5087 13.1259 20.3037 14.0879 20.3037C15.0497 20.3036 15.8359 19.5086 15.8359 18.5283C15.8358 17.5481 15.0497 16.754 14.0879 16.7539ZM24.4355 18.8037C24.6961 18.8037 24.9052 19.0176 24.9053 19.2783C24.9053 19.5392 24.6961 19.7539 24.4355 19.7539H18.5225C18.2619 19.7539 18.0527 19.5392 18.0527 19.2783C18.0529 19.0176 18.2619 18.8037 18.5225 18.8037H24.4355ZM22.6875 15.5283C22.6875 16.0947 23.1417 16.5537 23.6963 16.5537L27.3311 16.5527C27.1361 16.0896 26.861 15.6619 26.5 15.2949L23.9238 12.6816C23.5635 12.316 23.1429 12.0361 22.6875 11.8379V15.5283Z" fill="black" stroke="black" stroke-width="0.2"/>
</svg>
