<svg width="24" height="24" viewBox="0 0 24 24" fill="none" xmlns="http://www.w3.org/2000/svg">
<g clip-path="url(#clip0_584_4575)">
<path d="M14.0156 -0.0996094C15.779 -0.0996094 17.4369 0.586356 18.6826 1.83301L22.168 5.31738L22.3389 5.48828H22.3291C23.4721 6.71474 24.0996 8.30253 24.0996 9.98535V19.5C24.0996 22.0362 22.0362 24.0996 19.5 24.0996H8.5C6.40056 24.0996 4.56844 22.6814 4.04492 20.6504C3.96207 20.3298 4.15613 20.0017 4.47754 19.9189L4.59668 19.9014C4.87357 19.8886 5.13592 20.067 5.20801 20.3496L5.29102 20.626C5.76392 21.9787 7.04543 22.9004 8.50098 22.9004H19.501C21.3757 22.9004 22.9014 21.3748 22.9014 19.5V9.98535C22.9014 9.68678 22.8694 9.39179 22.8203 9.09961H17.501C16.0678 9.0996 14.9014 7.93425 14.9014 6.5V1.18066C14.6101 1.13157 14.3151 1.09961 14.0156 1.09961H8.50098C6.62622 1.09962 5.10059 2.62524 5.10059 4.5C5.10059 4.83123 4.83221 5.09961 4.50098 5.09961C4.16976 5.0996 3.90137 4.83122 3.90137 4.5C3.90137 1.96378 5.96476 -0.0995967 8.50098 -0.0996094H14.0156ZM18.501 18.8994C18.8322 18.8994 19.1006 19.1678 19.1006 19.499C19.1006 19.8302 18.8322 20.0986 18.501 20.0986H9.50098C9.16977 20.0986 8.90138 19.8302 8.90137 19.499C8.90137 19.1678 9.16976 18.8994 9.50098 18.8994H18.501ZM4.5 6.89941C6.48523 6.89941 8.09961 8.51379 8.09961 10.499C8.0996 11.4616 7.71702 12.3346 7.09961 12.9805V17.0508C7.09961 17.4751 6.84661 17.856 6.4541 18.0186C6.32347 18.0728 6.1862 18.0977 6.05176 18.0977C5.79392 18.0976 5.54257 18.0026 5.3457 17.8213H5.33789L5.30762 17.7881L4.49902 16.8945L3.70801 17.7695L3.70508 17.7725C3.42787 18.0516 3.05037 18.1543 2.69629 18.0674L2.5459 18.0186C2.15339 17.856 1.90039 17.4751 1.90039 17.0508V12.9805C1.28301 12.3337 0.900397 11.4617 0.900391 10.499C0.900391 8.51379 2.51477 6.89941 4.5 6.89941ZM5.90137 13.8018C5.47135 13.9869 5.001 14.0986 4.50098 14.0986C4.00106 14.0986 3.53078 13.9875 3.10059 13.8018V16.6533L4.05566 15.5967C4.28423 15.342 4.71647 15.3424 4.94531 15.5967L5.90137 16.6533V13.8018ZM18.501 14.8994C18.8322 14.8994 19.1006 15.1678 19.1006 15.499C19.1006 15.8302 18.8322 16.0986 18.501 16.0986H9.50098C9.16977 16.0986 8.90138 15.8302 8.90137 15.499C8.90137 15.1678 9.16976 14.8994 9.50098 14.8994H18.501ZM4.50098 8.09863C3.17819 8.09865 2.10059 9.17529 2.10059 10.499C2.1006 11.8227 3.1782 12.8994 4.50098 12.8994C5.82377 12.8994 6.90135 11.8228 6.90137 10.499C6.90137 9.17528 5.82377 8.09863 4.50098 8.09863ZM18.501 10.8994C18.8322 10.8994 19.1006 11.1678 19.1006 11.499C19.1006 11.8302 18.8322 12.0986 18.501 12.0986H10.501C10.1698 12.0986 9.90138 11.8302 9.90137 11.499C9.90137 11.1678 10.1698 10.8994 10.501 10.8994H18.501ZM16.1006 6.49902C16.1006 7.27078 16.7292 7.8994 17.501 7.89941L22.4707 7.89844C22.2046 7.25948 21.8232 6.66985 21.3193 6.16504L17.834 2.68066C17.3301 2.17681 16.7399 1.79436 16.1006 1.52734V6.49902Z" fill="black" stroke="black" stroke-width="0.2"/>
</g>
<defs>
<clipPath id="clip0_584_4575">
<rect width="24" height="24" fill="white"/>
</clipPath>
</defs>
</svg>
