<svg width="80" height="80" viewBox="0 0 80 80" fill="none" xmlns="http://www.w3.org/2000/svg">
<g clip-path="url(#clip0_196_1470)">
<path d="M77.5812 20.2891C75.4812 12.5594 67.4422 4.51875 59.7109 2.41875C54.9703 1.2375 48.6203 0.0203125 40 0C31.3797 0.0203125 25.0297 1.2375 20.2891 2.41875C12.5594 4.51875 4.51875 12.5578 2.41875 20.2891C1.2375 25.0297 0.0203125 31.3797 0 40C0.0203125 48.6203 1.2375 54.9703 2.41875 59.7109C4.51875 67.4422 12.5594 75.4812 20.2891 77.5812C25.0297 78.7625 31.3828 79.9797 40 80C48.6188 79.9797 54.9703 78.7625 59.7109 77.5812C67.4422 75.4812 75.4812 67.4422 77.5812 59.7109C78.7625 54.9703 79.9797 48.6172 80 40C79.9797 31.3797 78.7625 25.0297 77.5812 20.2891Z" fill="#E8F9FF"/>
<path d="M50.9375 30.1564C47.7187 29.9768 43.775 29.8877 40 29.8877C36.225 29.8877 32.2828 29.9768 29.0625 30.1564C29.0625 30.1564 27.2375 30.1814 24.2015 30.6346C22.0797 31.1123 20.1614 32.2438 18.7169 33.8697C17.2724 35.4956 16.3745 37.5338 16.15 39.6971L16.1421 39.7705C15.8437 42.6471 15.6062 41.8752 15.6062 47.9689C15.6062 54.0627 15.8437 53.8018 16.1437 56.6893L16.1515 56.7611C16.3983 59.1338 17.4536 61.3495 19.1404 63.0363C20.8273 64.7231 23.0429 65.7784 25.4156 66.0252C28.8921 66.3799 34.6218 66.5627 40 66.5627C45.3781 66.5627 51.1078 66.3783 54.5843 66.0174C56.957 65.7706 59.1727 64.7153 60.8595 63.0285C62.5463 61.3416 63.6016 59.126 63.8484 56.7533L63.8562 56.6799C64.1562 53.7939 64.3937 54.0471 64.3937 47.9611C64.3937 41.8752 64.1562 42.6486 63.8562 39.7596L63.8484 39.6861C63.6238 37.5229 62.726 35.4847 61.2814 33.8588C59.8369 32.2329 57.9186 31.1013 55.7968 30.6236C53.6953 30.2877 50.9375 30.1564 50.9375 30.1564Z" fill="#009FB6"/>
<path d="M55.8093 30.6254C55.7718 27.2863 55.6374 24.2676 55.4328 22.3145C55.2066 20.1398 54.2397 18.109 52.6941 16.5625C51.1485 15.0161 49.1182 14.048 46.9437 13.8207H46.8906C46.5875 13.7895 46.3171 13.7582 46.0593 13.7301C44.6171 13.5738 43.4781 13.4395 39.8343 13.4395C36.3609 13.4395 35.4234 13.552 34.125 13.7082C33.8296 13.7426 33.514 13.7801 33.1312 13.8207H33.0843C30.9089 14.047 28.8776 15.0146 27.331 16.5612C25.7845 18.1077 24.8169 20.1391 24.5906 22.3145C24.3875 24.2676 24.2531 27.2863 24.2156 30.6254L29.075 30.1473C29.1187 27.1863 29.2421 24.5035 29.4171 22.8176C29.5286 21.7487 30.0046 20.7508 30.7652 19.9916C31.5258 19.2324 32.5246 18.7583 33.5937 18.6488H33.6406C34.0484 18.6066 34.3875 18.566 34.7046 18.527C35.8781 18.3863 36.6531 18.2941 39.8375 18.2941C43.2093 18.2941 44.1281 18.3973 45.5203 18.5535C45.7906 18.5832 46.0734 18.616 46.3875 18.6488H46.4406C47.5069 18.7607 48.5024 19.2353 49.2607 19.9933C50.0189 20.7513 50.4939 21.7466 50.6062 22.8129C50.7828 24.4988 50.9046 27.1879 50.9484 30.1426L55.8093 30.6254Z" fill="url(#paint0_linear_196_1470)"/>
<path d="M42.5312 50.1113V54.9441C42.515 55.5871 42.2482 56.1983 41.7877 56.6473C41.3273 57.0963 40.7095 57.3477 40.0664 57.3477C39.4232 57.3477 38.8055 57.0963 38.345 56.6473C37.8845 56.1983 37.6177 55.5871 37.6015 54.9441V50.18C36.5168 49.6421 35.6445 48.7549 35.1248 47.6613C34.6052 46.5677 34.4684 45.3311 34.7365 44.1504C35.0045 42.9696 35.6618 41.9133 36.6027 41.1512C37.5436 40.3892 38.7135 39.9657 39.9242 39.9488C41.1348 39.9319 42.316 40.3226 43.2778 41.0581C44.2396 41.7936 44.9261 42.8312 45.227 44.0041C45.5279 45.1769 45.4256 46.4168 44.9367 47.5245C44.4477 48.6322 43.6005 49.5433 42.5312 50.1113Z" fill="url(#paint1_linear_196_1470)"/>
</g>
<defs>
<linearGradient id="paint0_linear_196_1470" x1="50.6468" y1="35.7879" x2="29.3765" y2="14.5176" gradientUnits="userSpaceOnUse">
<stop stop-color="#34344F"/>
<stop offset="0.54" stop-color="#353551"/>
<stop offset="1" stop-color="#666684"/>
</linearGradient>
<linearGradient id="paint1_linear_196_1470" x1="45.2296" y1="53.2675" x2="34.8375" y2="42.8753" gradientUnits="userSpaceOnUse">
<stop stop-color="white" stop-opacity="0.4"/>
<stop offset="0.586538" stop-color="white"/>
<stop offset="1" stop-color="white"/>
</linearGradient>
<clipPath id="clip0_196_1470">
<rect width="80" height="80" rx="40" fill="white"/>
</clipPath>
</defs>
</svg>
