<svg width="16" height="16" viewBox="0 0 16 16" fill="none" xmlns="http://www.w3.org/2000/svg">
<path d="M13.0177 5.616V4.66667C13.0177 3.42899 12.526 2.242 11.6508 1.36684C10.7757 0.491665 9.58867 0 8.35099 0C7.11332 0 5.92633 0.491665 5.05116 1.36684C4.17599 2.242 3.68433 3.42899 3.68433 4.66667V5.616C3.09057 5.87514 2.58519 6.30168 2.22999 6.84347C1.8748 7.38527 1.68518 8.01882 1.68433 8.66667V12.6667C1.68538 13.5504 2.03691 14.3976 2.66181 15.0225C3.2867 15.6474 4.13393 15.9989 5.01766 16H11.6843C12.5681 15.9989 13.4153 15.6474 14.0402 15.0225C14.6651 14.3976 15.0166 13.5504 15.0177 12.6667V8.66667C15.0168 8.01882 14.8272 7.38527 14.472 6.84347C14.1168 6.30168 13.6114 5.87514 13.0177 5.616ZM5.01766 4.66667C5.01766 3.78261 5.36885 2.93477 5.99397 2.30964C6.61909 1.68452 7.46694 1.33333 8.35099 1.33333C9.23505 1.33333 10.0829 1.68452 10.708 2.30964C11.3331 2.93477 11.6843 3.78261 11.6843 4.66667V5.33333H5.01766V4.66667ZM13.6843 12.6667C13.6843 13.1971 13.4736 13.7058 13.0985 14.0809C12.7235 14.456 12.2148 14.6667 11.6843 14.6667H5.01766C4.48723 14.6667 3.97852 14.456 3.60345 14.0809C3.22837 13.7058 3.01766 13.1971 3.01766 12.6667V8.66667C3.01766 8.13623 3.22837 7.62753 3.60345 7.25245C3.97852 6.87738 4.48723 6.66667 5.01766 6.66667H11.6843C12.2148 6.66667 12.7235 6.87738 13.0985 7.25245C13.4736 7.62753 13.6843 8.13623 13.6843 8.66667V12.6667Z" fill="black"/>
<path d="M8.35099 9.33301C8.17418 9.33301 8.00461 9.40325 7.87959 9.52827C7.75456 9.65329 7.68433 9.82286 7.68433 9.99967V11.333C7.68433 11.5098 7.75456 11.6794 7.87959 11.8044C8.00461 11.9294 8.17418 11.9997 8.35099 11.9997C8.5278 11.9997 8.69737 11.9294 8.8224 11.8044C8.94742 11.6794 9.01766 11.5098 9.01766 11.333V9.99967C9.01766 9.82286 8.94742 9.65329 8.8224 9.52827C8.69737 9.40325 8.5278 9.33301 8.35099 9.33301Z" fill="black"/>
</svg>
