<svg width="16" height="17" viewBox="0 0 16 17" fill="none" xmlns="http://www.w3.org/2000/svg">
<g clip-path="url(#clip0_1799_1748)">
<path d="M2 5.33333H3.33333C4.436 5.33333 5.33333 4.436 5.33333 3.33333V2C5.33333 0.897333 4.436 0 3.33333 0H2C0.897333 0 0 0.897333 0 2V3.33333C0 4.436 0.897333 5.33333 2 5.33333ZM1.33333 2C1.33333 1.632 1.632 1.33333 2 1.33333H3.33333C3.70133 1.33333 4 1.632 4 2V3.33333C4 3.70133 3.70133 4 3.33333 4H2C1.632 4 1.33333 3.70133 1.33333 3.33333V2ZM5.33333 10V8.66667C5.33333 7.564 4.436 6.66667 3.33333 6.66667H2C0.897333 6.66667 0 7.564 0 8.66667V10C0 11.1027 0.897333 12 2 12H3.33333C4.436 12 5.33333 11.1027 5.33333 10ZM4 10C4 10.368 3.70133 10.6667 3.33333 10.6667H2C1.632 10.6667 1.33333 10.368 1.33333 10V8.66667C1.33333 8.29867 1.632 8 2 8H3.33333C3.70133 8 4 8.29867 4 8.66667V10ZM8.66667 5.33333H10C11.1027 5.33333 12 4.436 12 3.33333V2C12 0.897333 11.1027 0 10 0H8.66667C7.564 0 6.66667 0.897333 6.66667 2V3.33333C6.66667 4.436 7.564 5.33333 8.66667 5.33333ZM8 2C8 1.632 8.29867 1.33333 8.66667 1.33333H10C10.368 1.33333 10.6667 1.632 10.6667 2V3.33333C10.6667 3.70133 10.368 4 10 4H8.66667C8.29867 4 8 3.70133 8 3.33333V2ZM8.66667 3V2.33333C8.66667 2.14933 8.816 2 9 2H9.66667C9.85067 2 10 2.14933 10 2.33333V3C10 3.184 9.85067 3.33333 9.66667 3.33333H9C8.816 3.33333 8.66667 3.184 8.66667 3ZM15.9987 15.294C16.02 15.662 15.7393 15.9767 15.3727 15.9987C15.3587 15.9987 15.346 16 15.3327 16C14.9827 16 14.6887 15.7267 14.668 15.3727C14.622 14.5827 14.114 13.894 13.374 13.6167L10.454 12.6313C10.1827 12.54 10 12.2853 10 12V8.07133C10 7.71267 9.75867 7.39267 9.45 7.34267C9.24733 7.308 9.05333 7.362 8.902 7.49133C8.75267 7.618 8.66667 7.804 8.66667 8V13.636C8.66667 14.0413 8.43933 14.4027 8.074 14.5793C7.708 14.7553 7.284 14.708 6.96733 14.4547C6.96733 14.4547 5.79333 13.518 5.78667 13.512C5.51867 13.2633 5.09733 13.276 4.84667 13.544C4.59533 13.8127 4.60933 14.236 4.87733 14.488L5.256 14.8533C5.688 15.2693 5.39333 16 4.79333 16C4.62067 16 4.45467 15.9333 4.33067 15.8133L3.95867 15.4547C3.16133 14.708 3.11867 13.44 3.872 12.6347C4.60733 11.8467 5.83333 11.7947 6.64 12.496C6.64533 12.5 7.33267 13.0427 7.33267 13.0427V8.00067C7.33267 7.41267 7.59 6.85733 8.038 6.47667C8.486 6.09533 9.078 5.93333 9.664 6.02733C10.6153 6.182 11.3327 7.062 11.3327 8.072V11.522L13.8193 12.3613C15.074 12.8307 15.9207 13.98 15.998 15.2947L15.9987 15.294Z" fill="black"/>
</g>
<defs>
<clipPath id="clip0_1799_1748">
<rect width="16" height="16" fill="white"/>
</clipPath>
</defs>
</svg>
