<svg width="32" height="32" viewBox="0 0 32 32" fill="none" xmlns="http://www.w3.org/2000/svg">
<rect width="32" height="32" rx="16" fill="#F7FDFF"/>
<g clip-path="url(#clip0_738_3396)">
<path d="M13 8.56836C14.462 8.56836 15.507 8.85847 16.207 9.56348C16.905 10.2664 17.2397 11.3614 17.3311 12.9209L17.3691 13.4854C17.389 13.8398 17.4111 14.3514 17.4238 14.9922V14.9932C17.428 15.2319 17.2388 15.4291 17 15.4346H16.9883C16.7685 15.4146 16.563 15.2578 16.5576 15.0098C16.5453 14.3841 16.5224 13.8799 16.5029 13.5312C16.4932 13.3569 16.4841 13.2211 16.4775 13.1289C16.4743 13.0829 16.4716 13.0473 16.4697 13.0234C16.4688 13.0116 16.4683 13.0023 16.4678 12.9961C16.4674 12.991 16.4669 12.9881 16.4668 12.9873V12.9834C16.3867 11.6078 16.1307 10.7297 15.6035 10.1914C15.0785 9.65545 14.2624 9.43457 13 9.43457C11.7375 9.43457 10.9213 9.65548 10.3965 10.1904C9.86954 10.7276 9.61426 11.6036 9.53418 12.9746V12.9756C9.5329 12.9935 9.45995 13.8697 9.43945 15.2842C10.0651 15.3823 11.4431 15.5684 13 15.5684C13.8363 15.5684 14.7155 15.5161 15.6143 15.4141L15.7041 15.4111C15.9096 15.425 16.0743 15.5902 16.0977 15.7949C16.1245 16.0323 15.9535 16.2475 15.7158 16.2744C14.7837 16.3808 13.8707 16.4346 13 16.4346C11.4701 16.4346 10.1328 16.2679 9.43359 16.1621C9.43645 17.0121 9.45993 17.7115 9.4834 18.2051C9.49565 18.4628 9.50834 18.6648 9.51758 18.8027C9.52217 18.8712 9.52558 18.924 9.52832 18.96L9.5332 19.0146V19.0195L9.57129 19.5127C9.68109 20.6097 9.93526 21.3405 10.3965 21.8115C10.9215 22.3476 11.7375 22.5684 13 22.5684C13.7764 22.5684 14.3771 22.4779 14.8418 22.2969L14.9268 22.2734C15.1259 22.2389 15.3275 22.3481 15.4033 22.543C15.4899 22.7655 15.38 23.0166 15.1572 23.1035C14.5818 23.3275 13.8744 23.4346 12.999 23.4346C11.5373 23.4345 10.4921 23.1443 9.79199 22.4395C9.09387 21.7364 8.75896 20.6409 8.66797 19.0811C8.66437 19.0386 8.56641 17.8702 8.56641 16.001C8.56642 14.131 8.6648 12.9626 8.66895 12.9121C8.75993 11.3573 9.09418 10.2644 9.79199 9.5625C10.4921 8.85867 11.538 8.56836 13 8.56836ZM19.667 15.9014C20.963 15.9014 21.9116 16.1774 22.5342 16.7998C23.1568 17.4225 23.4336 18.3715 23.4336 19.668C23.4336 20.9644 23.1568 21.9135 22.5342 22.5361C21.9116 23.1585 20.9631 23.4345 19.667 23.4346C18.3707 23.4346 17.4215 23.1587 16.7988 22.5361C16.1762 21.9135 15.9004 20.9644 15.9004 19.668C15.9004 18.3715 16.1762 17.4225 16.7988 16.7998C17.4215 16.1773 18.3707 15.9014 19.667 15.9014ZM17.7764 22.1699C18.22 22.4344 18.8284 22.5684 19.667 22.5684C20.752 22.5683 21.468 22.365 21.916 21.917C22.3639 21.469 22.5664 20.7531 22.5664 19.668C22.5664 18.8296 22.4343 18.2209 22.1699 17.7773L17.7764 22.1699ZM19.667 16.7676C18.5818 16.7676 17.865 16.9709 17.417 17.4189C16.9692 17.867 16.7666 18.583 16.7666 19.668C16.7666 20.5058 16.899 21.1141 17.1631 21.5576L21.5557 17.165C21.1122 16.9011 20.5045 16.7676 19.667 16.7676Z" fill="black" stroke="black" stroke-width="0.2"/>
</g>
<defs>
<clipPath id="clip0_738_3396">
<rect width="16" height="16" fill="white" transform="translate(8 8)"/>
</clipPath>
</defs>
</svg>
