<svg width="39" height="40" viewBox="0 0 39 40" fill="none" xmlns="http://www.w3.org/2000/svg">
<rect width="39" height="40" rx="19.5" fill="#F7FDFF"/>
<g clip-path="url(#clip0_182_302)">
<path d="M14.9167 23.3333H10.3333C9.87333 23.3333 9.5 22.96 9.5 22.5C9.5 22.04 9.87333 21.6667 10.3333 21.6667H14.4708L15.89 19.5375C16.0542 19.2908 16.3417 19.1433 16.635 19.1683C16.9317 19.1867 17.1958 19.3617 17.3292 19.6275L19.1867 23.3433L20.0567 22.0383C20.2117 21.8067 20.4717 21.6675 20.75 21.6675H24.5C24.96 21.6675 25.3333 22.0408 25.3333 22.5008C25.3333 22.9608 24.96 23.3342 24.5 23.3342H21.1958L19.7767 25.4633C19.6217 25.6958 19.3608 25.8342 19.0833 25.8342C19.0658 25.8342 19.0483 25.8342 19.0317 25.8325C18.735 25.8142 18.4708 25.6392 18.3375 25.3733L16.48 21.6575L15.61 22.9625C15.455 23.1942 15.195 23.3333 14.9167 23.3333ZM27.8333 18.7375V25.8333C27.8333 28.1308 25.9642 30 23.6667 30H15.3333C13.0358 30 11.1667 28.1308 11.1667 25.8333C11.1667 25.3733 11.54 25 12 25C12.46 25 12.8333 25.3733 12.8333 25.8333C12.8333 27.2117 13.955 28.3333 15.3333 28.3333H23.6667C25.045 28.3333 26.1667 27.2117 26.1667 25.8333V18.7375C26.1667 18.6017 26.16 18.4667 26.1475 18.3333H22C20.6217 18.3333 19.5 17.2117 19.5 15.8333V11.6858C19.3667 11.6733 19.2317 11.6667 19.0958 11.6667H15.3333C13.955 11.6667 12.8333 12.7883 12.8333 14.1667V19.1667C12.8333 19.6267 12.46 20 12 20C11.54 20 11.1667 19.6267 11.1667 19.1667V14.1667C11.1667 11.8692 13.0358 10 15.3333 10H19.0958C20.6542 10 22.1183 10.6067 23.2208 11.7083L26.125 14.6125C27.2267 15.7142 27.8333 17.1792 27.8333 18.7375ZM25.6175 16.6667C25.4358 16.3508 25.2117 16.0558 24.9467 15.7917L22.0425 12.8875C21.7775 12.6225 21.4833 12.3983 21.1675 12.2167V15.8342C21.1675 16.2933 21.5417 16.6675 22.0008 16.6675H25.6183L25.6175 16.6667Z" fill="black"/>
</g>
<defs>
<clipPath id="clip0_182_302">
<rect width="20" height="20" fill="white" transform="translate(9.5 10)"/>
</clipPath>
</defs>
</svg>
