<svg width="16" height="17" viewBox="0 0 16 17" fill="none" xmlns="http://www.w3.org/2000/svg">
<g clip-path="url(#clip0_1799_2784)">
<path d="M5 0.568359C6.46195 0.568359 7.507 0.858468 8.20703 1.56348C8.90496 2.26643 9.23967 3.3614 9.33105 4.9209L9.36914 5.48535C9.38895 5.83982 9.41113 6.35142 9.42383 6.99219V6.99316C9.42797 7.23191 9.23876 7.42912 9 7.43457H8.98828C8.76851 7.41459 8.56301 7.25776 8.55762 7.00977C8.54531 6.3841 8.52236 5.87988 8.50293 5.53125C8.49321 5.35691 8.48411 5.22105 8.47754 5.12891C8.47426 5.08286 8.47161 5.04734 8.46973 5.02344C8.4688 5.01161 8.46828 5.00226 8.46777 4.99609C8.46735 4.99098 8.46687 4.98813 8.4668 4.9873V4.9834C8.38668 3.60785 8.13067 2.72966 7.60352 2.19141C7.07851 1.65545 6.26241 1.43457 5 1.43457C3.7375 1.43457 2.92133 1.65548 2.39648 2.19043C1.86954 2.72758 1.61426 3.60363 1.53418 4.97461V4.97559C1.5329 4.99353 1.45995 5.86974 1.43945 7.28418C2.06508 7.38233 3.44307 7.56836 5 7.56836C5.83631 7.56836 6.71546 7.5161 7.61426 7.41406L7.7041 7.41113C7.90955 7.42498 8.07429 7.59022 8.09766 7.79492C8.12451 8.0323 7.95353 8.24752 7.71582 8.27441C6.78371 8.3808 5.87066 8.43457 5 8.43457C3.47011 8.43457 2.1328 8.26792 1.43359 8.16211C1.43645 9.01207 1.45993 9.71145 1.4834 10.2051C1.49565 10.4628 1.50834 10.6648 1.51758 10.8027C1.52217 10.8712 1.52558 10.924 1.52832 10.96L1.5332 11.0146V11.0195L1.57129 11.5127C1.68109 12.6097 1.93526 13.3405 2.39648 13.8115C2.92148 14.3476 3.7375 14.5684 5 14.5684C5.77637 14.5684 6.37714 14.4779 6.8418 14.2969L6.92676 14.2734C7.12589 14.2389 7.32747 14.3481 7.40332 14.543C7.4899 14.7655 7.37996 15.0166 7.15723 15.1035C6.58175 15.3275 5.8744 15.4346 4.99902 15.4346C3.53732 15.4345 2.49205 15.1443 1.79199 14.4395C1.09387 13.7364 0.758961 12.6409 0.667969 11.0811C0.664368 11.0386 0.566406 9.8702 0.566406 8.00098C0.566418 6.13098 0.664797 4.96258 0.668945 4.91211C0.759933 3.35726 1.09418 2.26437 1.79199 1.5625C2.49209 0.858672 3.538 0.568361 5 0.568359ZM11.667 7.90137C12.963 7.90141 13.9116 8.17743 14.5342 8.7998C15.1568 9.42246 15.4336 10.3715 15.4336 11.668C15.4336 12.9644 15.1568 13.9135 14.5342 14.5361C13.9116 15.1585 12.9631 15.4345 11.667 15.4346C10.3707 15.4346 9.42149 15.1587 8.79883 14.5361C8.17617 13.9135 7.90039 12.9644 7.90039 11.668C7.90039 10.3715 8.17617 9.42246 8.79883 8.7998C9.42149 8.17726 10.3707 7.90137 11.667 7.90137ZM9.77637 14.1699C10.22 14.4344 10.8284 14.5684 11.667 14.5684C12.752 14.5683 13.468 14.365 13.916 13.917C14.3639 13.469 14.5664 12.7531 14.5664 11.668C14.5664 10.8296 14.4343 10.2209 14.1699 9.77734L9.77637 14.1699ZM11.667 8.76758C10.5818 8.76758 9.865 8.97093 9.41699 9.41895C8.96921 9.86698 8.7666 10.583 8.7666 11.668C8.7666 12.5058 8.89905 13.1141 9.16309 13.5576L13.5557 9.16504C13.1122 8.90111 12.5045 8.76761 11.667 8.76758Z" fill="black" stroke="black" stroke-width="0.2"/>
</g>
<defs>
<clipPath id="clip0_1799_2784">
<rect width="16" height="16" fill="white"/>
</clipPath>
</defs>
</svg>
