<svg width="16" height="16" viewBox="0 0 16 16" fill="none" xmlns="http://www.w3.org/2000/svg">
<path d="M12.6667 3.33268H10.6667V2.66602C10.6667 2.13558 10.456 1.62687 10.0809 1.2518C9.70581 0.876729 9.1971 0.666016 8.66667 0.666016H7.33333C6.8029 0.666016 6.29419 0.876729 5.91912 1.2518C5.54405 1.62687 5.33333 2.13558 5.33333 2.66602V3.33268H3.33333C2.4496 3.33374 1.60237 3.68527 0.97748 4.31016C0.352588 4.93505 0.00105857 5.78229 0 6.66602L0 11.9994C0.00105857 12.8831 0.352588 13.7303 0.97748 14.3552C1.60237 14.9801 2.4496 15.3316 3.33333 15.3327H12.6667C13.5504 15.3316 14.3976 14.9801 15.0225 14.3552C15.6474 13.7303 15.9989 12.8831 16 11.9994V6.66602C15.9989 5.78229 15.6474 4.93505 15.0225 4.31016C14.3976 3.68527 13.5504 3.33374 12.6667 3.33268ZM6.66667 2.66602C6.66667 2.4892 6.7369 2.31964 6.86193 2.19461C6.98695 2.06959 7.15652 1.99935 7.33333 1.99935H8.66667C8.84348 1.99935 9.01305 2.06959 9.13807 2.19461C9.2631 2.31964 9.33333 2.4892 9.33333 2.66602V3.33268H6.66667V2.66602ZM14.6667 11.9994C14.6667 12.5298 14.456 13.0385 14.0809 13.4136C13.7058 13.7886 13.1971 13.9994 12.6667 13.9994H3.33333C2.8029 13.9994 2.29419 13.7886 1.91912 13.4136C1.54405 13.0385 1.33333 12.5298 1.33333 11.9994V6.66602C1.33333 6.13558 1.54405 5.62688 1.91912 5.2518C2.29419 4.87673 2.8029 4.66602 3.33333 4.66602H12.6667C13.1971 4.66602 13.7058 4.87673 14.0809 5.2518C14.456 5.62688 14.6667 6.13558 14.6667 6.66602V11.9994ZM10.6667 9.33268C10.6667 9.50949 10.5964 9.67906 10.4714 9.80409C10.3464 9.92911 10.1768 9.99935 10 9.99935H8.66667V11.3327C8.66667 11.5095 8.59643 11.6791 8.4714 11.8041C8.34638 11.9291 8.17681 11.9994 8 11.9994C7.82319 11.9994 7.65362 11.9291 7.5286 11.8041C7.40357 11.6791 7.33333 11.5095 7.33333 11.3327V9.99935H6C5.82319 9.99935 5.65362 9.92911 5.5286 9.80409C5.40357 9.67906 5.33333 9.50949 5.33333 9.33268C5.33333 9.15587 5.40357 8.9863 5.5286 8.86128C5.65362 8.73625 5.82319 8.66602 6 8.66602H7.33333V7.33268C7.33333 7.15587 7.40357 6.9863 7.5286 6.86128C7.65362 6.73625 7.82319 6.66602 8 6.66602C8.17681 6.66602 8.34638 6.73625 8.4714 6.86128C8.59643 6.9863 8.66667 7.15587 8.66667 7.33268V8.66602H10C10.1768 8.66602 10.3464 8.73625 10.4714 8.86128C10.5964 8.9863 10.6667 9.15587 10.6667 9.33268Z" fill="#212121"/>
</svg>
