<svg width="24" height="22" viewBox="0 0 24 22" fill="none" xmlns="http://www.w3.org/2000/svg">
<path d="M11 0.0996094H13C13.7691 0.0996094 14.5069 0.405363 15.0508 0.949219C15.5946 1.49307 15.9004 2.23087 15.9004 3V4.09961H19C20.2991 4.1012 21.5443 4.61852 22.4629 5.53711C23.3815 6.45569 23.8988 7.70093 23.9004 9V17L23.8936 17.2432C23.832 18.4536 23.324 19.6018 22.4629 20.4629C21.5443 21.3815 20.2991 21.8988 19 21.9004H5C3.70093 21.8988 2.45569 21.3815 1.53711 20.4629C0.618524 19.5443 0.101197 18.2991 0.0996094 17V9C0.101197 7.70093 0.618524 6.45569 1.53711 5.53711C2.45569 4.61852 3.70093 4.1012 5 4.09961H8.09961V3C8.09961 2.23087 8.40536 1.49307 8.94922 0.949219C9.49307 0.405363 10.2309 0.0996094 11 0.0996094ZM5 5.90039C4.17783 5.90039 3.38898 6.22625 2.80762 6.80762C2.22625 7.38898 1.90039 8.17783 1.90039 9V17C1.90039 17.8222 2.22625 18.611 2.80762 19.1924C3.38898 19.7737 4.17783 20.0996 5 20.0996H19C19.8222 20.0996 20.611 19.7737 21.1924 19.1924C21.7737 18.611 22.0996 17.8222 22.0996 17V9C22.0996 8.17783 21.7737 7.38898 21.1924 6.80762C20.611 6.22625 19.8222 5.90039 19 5.90039H5ZM12 9.09961C12.2387 9.09961 12.4679 9.1945 12.6367 9.36328C12.8055 9.53206 12.9004 9.7613 12.9004 10V12.0996H15C15.2387 12.0996 15.4679 12.1945 15.6367 12.3633C15.8055 12.5321 15.9004 12.7613 15.9004 13C15.9004 13.2387 15.8055 13.4679 15.6367 13.6367C15.4679 13.8055 15.2387 13.9004 15 13.9004H12.9004V16C12.9004 16.2387 12.8055 16.4679 12.6367 16.6367C12.4679 16.8055 12.2387 16.9004 12 16.9004C11.7613 16.9004 11.5321 16.8055 11.3633 16.6367C11.1945 16.4679 11.0996 16.2387 11.0996 16V13.9004H9C8.7613 13.9004 8.53206 13.8055 8.36328 13.6367C8.1945 13.4679 8.09961 13.2387 8.09961 13C8.09961 12.7613 8.1945 12.5321 8.36328 12.3633C8.53206 12.1945 8.7613 12.0996 9 12.0996H11.0996V10C11.0996 9.7613 11.1945 9.53206 11.3633 9.36328C11.5321 9.1945 11.7613 9.09961 12 9.09961ZM11 1.90039C10.7083 1.90039 10.4289 2.01637 10.2227 2.22266C10.0164 2.42895 9.90039 2.70826 9.90039 3V4.09961H14.0996V3C14.0996 2.70826 13.9836 2.42895 13.7773 2.22266C13.5711 2.01637 13.2917 1.90039 13 1.90039H11Z" fill="#212121" stroke="#F7FDFF" stroke-width="0.2"/>
</svg>
