<svg width="17" height="16" viewBox="0 0 17 16" fill="none" xmlns="http://www.w3.org/2000/svg">
<path d="M7.55833 10.4987C7.68433 10.61 7.84233 10.666 8.00033 10.666C8.15833 10.666 8.31633 10.61 8.44233 10.4987C8.80633 10.176 12.0003 7.27135 12.0003 4.66602C12.0003 1.90002 10.7663 0.666016 8.00033 0.666016C5.23433 0.666016 4.00033 1.90002 4.00033 4.66602C4.00033 7.27135 7.19433 10.176 7.55833 10.4987ZM8.00033 1.99935C10.019 1.99935 10.667 2.64735 10.667 4.66602C10.667 6.12602 9.01566 8.07335 8.00033 9.08268C6.98499 8.07335 5.33366 6.12602 5.33366 4.66602C5.33366 2.64735 5.98166 1.99935 8.00033 1.99935ZM15.333 10.6613C15.333 10.8453 15.257 11.022 15.1223 11.1473C15.067 11.2 13.7343 12.4413 12.0463 13.4527C10.3697 14.4573 8.32499 15.246 8.23899 15.2793C8.08499 15.338 7.91499 15.338 7.76099 15.2793C7.67499 15.246 5.63033 14.4573 3.95366 13.4527C2.26566 12.4413 0.933659 11.2 0.877659 11.1473C0.742992 11.022 0.666992 10.8453 0.666992 10.6613C0.666992 10.4773 0.743659 10.3007 0.877659 10.1753C0.914992 10.14 1.80766 9.30801 3.05366 8.45001C3.35833 8.24201 3.77233 8.31935 3.98099 8.62135C4.18966 8.92468 4.11299 9.34001 3.80966 9.54935C3.21899 9.95535 2.70766 10.3613 2.34766 10.662C2.86766 11.096 3.70233 11.7487 4.63966 12.3107C5.89366 13.062 7.42033 13.706 8.00099 13.9407C8.58099 13.7053 10.1077 13.062 11.3623 12.3107C12.2997 11.7487 13.1337 11.0967 13.6543 10.662C13.3137 10.3773 12.8377 9.99935 12.2877 9.61535C11.9857 9.40468 11.9117 8.98935 12.1223 8.68668C12.333 8.38535 12.7483 8.31202 13.0503 8.52135C14.2437 9.35468 15.0883 10.1427 15.1237 10.1747C15.2583 10.3007 15.3343 10.4773 15.3343 10.6613H15.333ZM8.00033 5.99935C7.04766 5.99935 6.66699 5.61868 6.66699 4.66602C6.66699 3.71335 7.04766 3.33268 8.00033 3.33268C8.95299 3.33268 9.33366 3.71335 9.33366 4.66602C9.33366 5.61868 8.95299 5.99935 8.00033 5.99935Z" fill="black"/>
</svg>
