<svg width="16" height="16" viewBox="0 0 16 16" fill="none" xmlns="http://www.w3.org/2000/svg">
<g clip-path="url(#clip0_742_3604)">
<path d="M8.00015 3.33331C8.92062 3.33331 9.66681 2.58712 9.66681 1.66666C9.66681 0.746187 8.92062 0 8.00015 0C7.07968 0 6.3335 0.746187 6.3335 1.66666C6.3335 2.58712 7.07968 3.33331 8.00015 3.33331Z" fill="black"/>
<path d="M8.00015 9.6673C8.92062 9.6673 9.66681 8.92111 9.66681 8.00064C9.66681 7.08017 8.92062 6.33398 8.00015 6.33398C7.07968 6.33398 6.3335 7.08017 6.3335 8.00064C6.3335 8.92111 7.07968 9.6673 8.00015 9.6673Z" fill="black"/>
<path d="M8.00015 15.9993C8.92062 15.9993 9.66681 15.2531 9.66681 14.3327C9.66681 13.4122 8.92062 12.666 8.00015 12.666C7.07968 12.666 6.3335 13.4122 6.3335 14.3327C6.3335 15.2531 7.07968 15.9993 8.00015 15.9993Z" fill="black"/>
</g>
<defs>
<clipPath id="clip0_742_3604">
<rect width="16" height="16" fill="white"/>
</clipPath>
</defs>
</svg>
