<svg width="80" height="80" viewBox="0 0 80 80" fill="none" xmlns="http://www.w3.org/2000/svg">
<g clip-path="url(#clip0_17_926)">
<path d="M39.9996 0C17.9089 0 0.000488281 17.909 0.000488281 39.9996C0.000488281 62.0897 17.9089 80 39.9996 80C62.0902 80 80 62.0897 80 39.9996C80 17.909 62.0902 0 39.9996 0ZM40.0004 14.0497L63.6707 28.8099H16.33L40.0004 14.0497ZM63.9657 52.38H63.9633C63.9633 54.7475 62.0446 56.6659 59.6773 56.6659H20.3234C17.9559 56.6659 16.0374 54.7472 16.0374 52.38V29.7491C16.0374 29.4987 16.063 29.2552 16.1046 29.016L38.7203 43.1183C38.7481 43.1356 38.7777 43.1474 38.8062 43.1634C38.8361 43.1799 38.8665 43.1959 38.8969 43.2111C39.0566 43.2935 39.2211 43.3599 39.3894 43.4034C39.4067 43.4082 39.4241 43.4103 39.4414 43.4143C39.6259 43.4578 39.8129 43.485 39.9996 43.485H40.0009C40.0022 43.485 40.0036 43.485 40.0036 43.485C40.1902 43.485 40.3772 43.4586 40.5617 43.4143C40.579 43.41 40.5964 43.4082 40.6137 43.4034C40.7817 43.3599 40.9457 43.2935 41.1062 43.2111C41.1366 43.1959 41.167 43.1799 41.1969 43.1634C41.2252 43.1474 41.255 43.1356 41.2828 43.1183L63.8985 29.016C63.9401 29.2552 63.9657 29.4982 63.9657 29.7491V52.38Z" fill="#009FB6"/>
</g>
<defs>
<clipPath id="clip0_17_926">
<rect width="80" height="80" fill="white"/>
</clipPath>
</defs>
</svg>
