<svg width="80" height="80" viewBox="0 0 80 80" fill="none" xmlns="http://www.w3.org/2000/svg">
<g clip-path="url(#clip0_77_243)">
<path d="M39.9991 0C17.9084 0 0 17.909 0 39.9996C0 62.0897 17.9084 80 39.9991 80C62.0897 80 79.9995 62.0897 79.9995 39.9996C79.9995 17.909 62.0897 0 39.9991 0ZM39.9999 14.0497L63.6702 28.8099H16.3295L39.9999 14.0497ZM63.9652 52.38H63.9628C63.9628 54.7475 62.0441 56.6659 59.6769 56.6659H20.3229C17.9554 56.6659 16.037 54.7472 16.037 52.38V29.7491C16.037 29.4987 16.0626 29.2552 16.1042 29.016L38.7199 43.1183C38.7476 43.1356 38.7772 43.1474 38.8057 43.1634C38.8356 43.1799 38.866 43.1959 38.8964 43.2111C39.0561 43.2935 39.2207 43.3599 39.3889 43.4034C39.4063 43.4082 39.4236 43.4103 39.4409 43.4143C39.6255 43.4578 39.8124 43.485 39.9991 43.485H40.0004C40.0017 43.485 40.0031 43.485 40.0031 43.485C40.1897 43.485 40.3767 43.4586 40.5612 43.4143C40.5785 43.41 40.5959 43.4082 40.6132 43.4034C40.7812 43.3599 40.9452 43.2935 41.1057 43.2111C41.1361 43.1959 41.1665 43.1799 41.1964 43.1634C41.2247 43.1474 41.2545 43.1356 41.2823 43.1183L63.898 29.016C63.9396 29.2552 63.9652 29.4982 63.9652 29.7491V52.38Z" fill="#009FB6"/>
</g>
<defs>
<clipPath id="clip0_77_243">
<rect width="80" height="80" fill="white"/>
</clipPath>
</defs>
</svg>
