<svg width="16" height="16" viewBox="0 0 16 16" fill="none" xmlns="http://www.w3.org/2000/svg">
<path d="M15.2313 3.49164C15.1593 3.29018 15.0029 3.12945 14.8022 3.05309C14.7324 3.02691 13.1309 2.44582 10.0356 2.25018C9.952 1.29091 9.84582 0.783273 9.84 0.754182C9.78982 0.525091 9.632 0.333818 9.416 0.240727C9.35854 0.216 8.83127 0 8 0C7.16873 0 6.64145 0.216 6.584 0.240727C6.368 0.333818 6.21018 0.525091 6.16 0.754182C6.15418 0.783273 6.048 1.29091 5.96436 2.25018C2.86909 2.44582 1.26764 3.02691 1.19782 3.05309C0.997818 3.12873 0.840727 3.28945 0.768727 3.49164C0.737454 3.58036 0 5.70836 0 9.09091C0 12.4735 0.737454 14.6015 0.768727 14.6902C0.840727 14.8916 0.997091 15.0524 1.19782 15.1287C1.29236 15.1644 3.55491 16 8.00073 16C12.4465 16 14.7091 15.1644 14.8036 15.1287C15.0036 15.0531 15.1607 14.8924 15.2327 14.6902C15.264 14.6015 16.0015 12.4735 16.0015 9.09091C16.0015 5.70836 15.264 3.58036 15.2327 3.49164H15.2313ZM7.51054 1.49236C7.77454 1.44945 8.22618 1.45091 8.48945 1.49236C8.53309 1.80218 8.58836 2.27782 8.62836 2.91564C8.42473 2.91127 8.21527 2.90909 8 2.90909C7.78473 2.90909 7.57527 2.91127 7.37163 2.91564C7.41236 2.27782 7.46763 1.80218 7.51054 1.49236ZM13.96 13.8705C13.216 14.0822 11.2175 14.5462 8 14.5462C4.78254 14.5462 2.78182 14.0815 2.04 13.8705C1.84873 13.1789 1.45455 11.4633 1.45455 9.09164C1.45455 6.72 1.84873 5.00436 2.04 4.31273C2.60509 4.152 3.89964 3.84655 5.89236 3.70909C5.89818 4.09236 6.256 4.42836 6.63782 4.39418C7.49454 4.35855 8.50545 4.35855 9.36218 4.39418C9.74836 4.41891 10.1011 4.09745 10.1076 3.70909C12.1018 3.84655 13.3964 4.15127 13.96 4.31273C14.1513 5.00364 14.5455 6.72 14.5455 9.09164C14.5455 11.4633 14.1513 13.1789 13.96 13.8705ZM8.00436 9.45527C9.36291 9.44655 10.1571 8.65673 10.1825 7.26036C10.1593 5.93091 9.32436 5.09891 7.99563 5.09164C6.65527 5.09964 5.84145 5.91055 5.81745 7.26036V7.28655C5.84218 8.656 6.63636 9.44655 8.00436 9.45455V9.45527ZM7.99563 6.54618C8.53309 6.54982 8.71854 6.736 8.728 7.25964C8.71709 7.83782 8.56 7.99709 8.00436 8.00073C7.45091 7.99709 7.28509 7.83418 7.272 7.27346C7.28509 6.71927 7.45745 6.54982 7.99563 6.54618ZM11.5927 12.1171C11.7295 12.4953 11.5338 12.912 11.1556 13.048C10.7876 13.184 10.3607 12.9927 10.2247 12.6109C10.0502 12.1265 9.75272 11.7964 9.44872 11.7491C8.49454 11.5985 7.50618 11.5985 6.55054 11.7491C6.24727 11.7956 5.94982 12.1265 5.77527 12.6109C5.63854 12.9898 5.22109 13.1847 4.84436 13.048C4.46618 12.9113 4.27127 12.4945 4.40727 12.1171C4.768 11.1185 5.48509 10.4436 6.32654 10.3127C7.43054 10.1411 8.57091 10.1411 9.67491 10.3127C10.5149 10.4444 11.2335 11.1185 11.5942 12.1171H11.5927Z" fill="black"/>
</svg>
