<svg width="16" height="16" viewBox="0 0 16 16" fill="none" xmlns="http://www.w3.org/2000/svg">
<path d="M0.822626 5.42057C0.858983 5.41644 4.4743 4.97551 8.00018 4.97551C11.5617 4.97551 15.1399 5.42057 15.1756 5.42539C15.6249 5.49429 16.0547 5.09883 15.9943 4.6703C15.7987 2.92105 15.2366 1.65752 15.2134 1.60516C15.1101 1.37642 14.8847 1.21796 14.6237 1.19041C14.487 1.17594 11.2345 0.841797 8.00018 0.841797C4.76588 0.841797 1.51341 1.17594 1.3767 1.19041C1.10476 1.21865 0.872799 1.38951 0.77609 1.63134C0.753549 1.68714 0.225648 3.02164 0.00750738 4.65032C-0.0622976 5.08367 0.365985 5.4874 0.822626 5.42057ZM1.99477 2.51664C3.0084 2.42501 5.54319 2.2197 8.00018 2.2197C10.4572 2.2197 13.0145 2.42639 14.0194 2.51802C14.1321 2.83493 14.2899 3.33649 14.4135 3.9531C13.0894 3.81669 10.5706 3.59829 8.00018 3.59829C5.46393 3.59829 2.93932 3.81325 1.60357 3.94828C1.73082 3.35303 1.88497 2.84458 1.99477 2.51664ZM13.8173 11.865C12.3703 11.865 11.6359 12.5602 11.6359 13.9319C11.6359 15.3036 12.3703 15.9987 13.8173 15.9987C15.2643 15.9987 15.9987 15.3036 15.9987 13.9319C15.9987 12.5602 15.2643 11.865 13.8173 11.865ZM13.8173 14.6208C13.1781 14.6208 13.0901 14.5368 13.0901 13.9319C13.0901 13.327 13.1781 13.2429 13.8173 13.2429C14.4564 13.2429 14.5444 13.327 14.5444 13.9319C14.5444 14.5368 14.4564 14.6208 13.8173 14.6208ZM13.8173 6.35341C12.3703 6.35341 11.6359 7.04856 11.6359 8.42026C11.6359 9.79197 12.3703 10.4871 13.8173 10.4871C15.2643 10.4871 15.9987 9.79197 15.9987 8.42026C15.9987 7.04856 15.2643 6.35341 13.8173 6.35341ZM13.8173 9.10922C13.1781 9.10922 13.0901 9.02516 13.0901 8.42026C13.0901 7.81537 13.1781 7.73131 13.8173 7.73131C14.4564 7.73131 14.5444 7.81537 14.5444 8.42026C14.5444 9.02516 14.4564 9.10922 13.8173 9.10922ZM8.00018 14.9591C8.00745 15.3394 7.68824 15.6536 7.28686 15.6611C3.41486 15.7287 0.833533 15.9925 0.808084 15.9953C0.416158 16.038 0.048227 15.7652 0.00605312 15.3856C-0.037575 15.0073 0.250371 14.667 0.649568 14.6257C0.756457 14.6146 3.31597 14.3528 7.25923 14.2832C7.65406 14.2977 7.99218 14.5788 8.00018 14.9591ZM10.1809 12.6056C10.1663 12.9859 9.82602 13.287 9.42755 13.2684C8.97236 13.2519 8.49536 13.2429 8.00018 13.2429C3.74062 13.2429 0.848076 13.5784 0.818991 13.5819C0.428519 13.6301 0.0554983 13.3628 0.00750738 12.9839C-0.0419378 12.6063 0.240191 12.2619 0.638661 12.215C0.759366 12.2005 3.64246 11.865 8.00018 11.865C8.51499 11.865 9.00945 11.8747 9.48136 11.8912C9.88346 11.9057 10.1954 12.2253 10.1809 12.6056ZM0.00605312 9.87326C-0.037575 9.49503 0.250371 9.15469 0.649568 9.11335C0.756457 9.10233 3.31597 8.84052 7.25923 8.77094C7.65406 8.76061 7.99218 9.0665 8.00018 9.4468C8.00818 9.8271 7.68824 10.1413 7.28686 10.1488C3.41486 10.2164 0.833533 10.4802 0.808084 10.483C0.416158 10.5257 0.048227 10.2529 0.00605312 9.87326ZM10.1809 7.09403C10.1663 7.47433 9.82602 7.76645 9.42755 7.7568C8.97236 7.74027 8.49536 7.73131 8.00018 7.73131C3.74062 7.73131 0.848076 8.06683 0.818991 8.07028C0.428519 8.1185 0.0554983 7.85119 0.00750738 7.47227C-0.0419378 7.09472 0.240191 6.75025 0.638661 6.7034C0.759366 6.68893 3.64246 6.35341 8.00018 6.35341C8.51499 6.35341 9.00945 6.36306 9.48136 6.37959C9.88346 6.39406 10.1954 6.71373 10.1809 7.09403Z" fill="black"/>
</svg>
