<svg width="113" height="76" viewBox="0 0 113 76" fill="none" xmlns="http://www.w3.org/2000/svg">
<path d="M36.7543 75.7029C13.056 75.7029 -1.67574e-06 60.7817 -1.67574e-06 37.8514C-1.67574e-06 15.0309 13.056 -2.92097e-06 36.7543 -2.92097e-06C60.3429 -2.92097e-06 73.5086 15.0309 73.5086 37.8514C73.5086 60.7817 60.3429 75.7029 36.7543 75.7029ZM36.7543 59.6846C50.688 59.6846 55.8446 53.6503 55.8446 37.8514C55.8446 22.0526 50.688 16.0183 36.7543 16.0183C22.7109 16.0183 17.664 22.0526 17.664 37.8514C17.664 53.6503 22.7109 59.6846 36.7543 59.6846ZM112.539 74.6057H96.0823V21.504H77.2114V10.2034H80.2834C88.4023 10.2034 93.888 8.33828 97.5086 1.09714H112.539V74.6057Z" fill="black" fill-opacity="0.16"/>
</svg>
