<svg width="120" height="120" viewBox="0 0 120 120" fill="none" xmlns="http://www.w3.org/2000/svg">
<path d="M87.0034 71.5642C87.283 71.5657 87.5596 71.6227 87.8169 71.7322C88.0742 71.8417 88.3075 72.0014 88.5024 72.2019C88.6974 72.4024 88.8504 72.6399 88.9526 72.9001C89.0542 73.1586 89.1037 73.435 89.0981 73.7126V80.0027H95.4419C95.7215 80.0042 95.998 80.0621 96.2554 80.1716C96.5128 80.2812 96.7459 80.4408 96.9409 80.6414C97.1359 80.8419 97.2888 81.0793 97.3911 81.3396C97.4927 81.5983 97.5422 81.8743 97.5366 82.1521V88.0535L97.5308 88.2625C97.5148 88.4708 97.4678 88.6766 97.3911 88.8718C97.2888 89.132 97.1358 89.3697 96.9409 89.5701C96.746 89.7705 96.5126 89.9303 96.2554 90.0398C95.9981 90.1492 95.7215 90.2063 95.4419 90.2078H89.0981V96.7029L89.0923 96.9119C89.0763 97.1204 89.0294 97.3259 88.9526 97.5212C88.8504 97.7815 88.6974 98.019 88.5024 98.2195C88.3074 98.42 88.0743 98.5797 87.8169 98.6892C87.5596 98.7987 87.2831 98.8557 87.0034 98.8572H81.0942V98.8562C80.5204 98.8574 79.9684 98.6353 79.5571 98.2351C79.1457 97.8347 78.9072 97.2886 78.8931 96.7146V90.2078H72.4448C71.8709 90.2091 71.3191 89.9859 70.9077 89.5857C70.4962 89.1852 70.2578 88.6392 70.2437 88.0652V82.1453L70.2593 81.9324C70.3199 81.4378 70.5476 80.9762 70.9077 80.6257C71.3191 80.2254 71.8709 80.0013 72.4448 80.0027H78.8931V73.7068C78.9072 73.1328 79.1456 72.5867 79.5571 72.1863C79.9684 71.7861 80.5204 71.5639 81.0942 71.5652V71.5642H87.0034ZM82.3472 81.3025L82.3413 81.5115C82.3253 81.7197 82.2783 81.9247 82.2017 82.1199C82.0994 82.3802 81.9465 82.6185 81.7515 82.8191C81.5565 83.0196 81.3232 83.1793 81.0659 83.2888C80.8087 83.3983 80.532 83.4553 80.2524 83.4568H73.6968V86.7537H80.2524C80.5321 86.7552 80.8086 86.8131 81.0659 86.9226C81.3232 87.0321 81.5565 87.1918 81.7515 87.3923C81.9464 87.5928 82.0994 87.8303 82.2017 88.0906C82.3032 88.3492 82.3528 88.6253 82.3472 88.9031V95.4041H85.644V88.8962H85.645C85.6593 88.3223 85.8976 87.7771 86.3091 87.3767C86.7206 86.9763 87.2721 86.7522 87.8462 86.7537H94.0835V83.4568H87.8462C87.2722 83.4583 86.7205 83.2349 86.3091 82.8347C85.8976 82.4343 85.6592 81.8882 85.645 81.3142L85.644 81.3083V75.0173H82.3472V81.3025Z" fill="#009FB6" stroke="#009FB6" stroke-width="0.5"/>
<mask id="path-2-outside-1_1968_41" maskUnits="userSpaceOnUse" x="10" y="9" width="101" height="102" fill="black">
<rect fill="white" x="10" y="9" width="101" height="102"/>
<path d="M84.3818 59.4004C80.3024 59.4016 76.2837 60.3897 72.6689 62.2803C69.054 64.171 65.9502 66.9082 63.6223 70.2582C63.2246 70.1359 62.8483 70.0169 62.4934 69.9013L61.0601 65.8359C65.4905 62.5167 66.704 57.3338 67.0352 54.8232C70.0145 54.015 72.7506 50.5144 73.8468 45.8753C74.4375 43.3663 73.5725 41.0302 71.6936 40.0621C71.1729 39.794 70.5958 39.654 70.0101 39.6536C70.1071 38.9256 70.2084 38.0351 70.3133 36.9416C70.5584 34.3832 70.7141 31.799 70.7141 31.1441C70.7141 30.68 70.7234 30.2015 70.7331 29.695C70.8114 25.6551 70.9086 20.6277 66.4525 16.1205C62.4534 12.0758 56.7917 9.84604 50.9215 10.0083C45.0736 10.1682 39.5899 12.6635 35.8759 16.8545C35.762 16.9834 35.6463 17.1133 35.5287 17.2439C33.2886 19.7469 30.2205 23.1749 30.4407 31.9536C30.4618 32.8129 31.2846 36.7509 32.1367 39.7521C31.64 39.8015 31.1583 39.9503 30.7202 40.1897C28.9167 41.1644 28.0897 43.4492 28.6622 45.8756C29.7593 50.5226 32.5042 54.0275 35.4903 54.8268C35.8472 57.2888 37.0968 62.4205 41.4141 65.7424L39.5232 69.631C38.173 70.0542 36.6513 70.4734 35.0806 70.9135C24.9289 73.7589 11 77.6553 11 90.3141V103.55C11 106.677 12.6724 110 15.6743 110H84.4702C84.4839 110 84.4972 109.998 84.5107 109.998C91.2063 109.959 97.6136 107.268 102.329 102.514C107.043 97.76 109.681 91.3306 109.664 84.6349C109.647 77.9392 106.977 71.5234 102.238 66.7933C97.4985 62.0632 91.0775 59.4048 84.3818 59.4004ZM37.7299 19.2129C37.8506 19.0782 37.9697 18.9446 38.0871 18.8121C41.261 15.2302 45.9683 13.0971 51.0025 12.9595C56.0609 12.819 60.9259 14.73 64.3525 18.196C67.9318 21.8161 67.8515 25.9707 67.7806 29.6363C67.7704 30.1578 67.7609 30.6505 67.7609 31.1429C67.7609 31.4559 67.7293 32.1055 67.6753 32.9319C66.9612 30.2773 65.9626 27.7133 64.5877 26.2142L64.4785 25.9956C64.3538 25.7461 64.1609 25.537 63.9223 25.3926C63.6838 25.2481 63.4091 25.1742 63.1302 25.1793C62.8514 25.1845 62.5797 25.2685 62.3465 25.4216C62.1134 25.5748 61.9285 25.7908 61.8131 26.0448C59.4335 31.2787 57.0763 31.068 53.1713 30.7197C52.7179 30.6792 52.2567 30.638 51.788 30.6055C50.3021 30.5 49.7645 31.3684 49.6023 31.7448C49.1209 32.8629 49.7899 34.0703 51.0145 35.5019C47.116 35.0365 46.1278 32.1851 45.2375 29.6129C44.6196 27.8277 43.9194 25.8041 41.8831 25.8041C40.9019 25.7848 39.928 25.9758 39.0267 26.3641C38.1254 26.7524 37.3176 27.329 36.6576 28.0553C35.1443 29.6798 34.2915 31.9958 33.8169 34.2654C33.6247 33.4798 33.4838 32.6825 33.3949 31.8785C33.2023 24.2718 35.6076 21.584 37.7299 19.2129ZM38.3095 53.4627C38.2917 53.0823 38.1285 52.7232 37.8538 52.4595C37.579 52.1958 37.2135 52.0476 36.8327 52.0454C36.8116 52.0454 36.7905 52.0454 36.7683 52.0454C34.6055 52.0454 32.3217 48.5171 31.5363 45.1962C31.2356 43.922 31.6304 43.0543 32.1243 42.7872C32.6827 42.4859 33.2783 43.0165 33.5082 43.2589C33.7013 43.4622 33.9482 43.6063 34.2201 43.6744C34.492 43.7426 34.7777 43.7319 35.0438 43.6437C35.3099 43.5555 35.5454 43.3934 35.7227 43.1763C35.9001 42.9592 36.012 42.6961 36.0453 42.4178C36.1908 42.1644 36.2576 41.8735 36.2371 41.5821C36.0802 39.3169 36.2386 32.8325 38.8194 30.0669C39.1844 29.662 39.6292 29.3369 40.1259 29.1122C40.6226 28.8874 41.1604 28.7679 41.7055 28.761C41.9274 29.0815 42.2236 29.937 42.4458 30.5794C43.5403 33.7414 45.5774 39.6258 54.6053 38.3378C54.882 38.2983 55.1419 38.1811 55.3547 37.9997C55.5675 37.8184 55.7244 37.5803 55.8072 37.3133C55.89 37.0463 55.8954 36.7612 55.8226 36.4913C55.7498 36.2213 55.6018 35.9776 55.396 35.7884C54.6801 35.1302 54.0005 34.4336 53.3603 33.7015C56.8323 34.003 60.3738 34.1165 63.3008 29.5108C65.1506 32.98 66.1137 39.8785 66.3495 42.618C66.3812 42.9861 66.5497 43.329 66.8218 43.579C67.094 43.8289 67.4499 43.9678 67.8194 43.9682C67.8616 43.9682 67.9038 43.9663 67.9474 43.9625C68.215 43.9395 68.4712 43.844 68.6884 43.6863C68.9057 43.5285 69.0758 43.3144 69.1803 43.0671C69.4719 42.7789 69.9166 42.468 70.3407 42.6859C70.8825 42.965 71.2732 43.9171 70.9721 45.1964C70.1871 48.518 67.9036 52.046 65.7401 52.046H65.7031C65.4165 52.0414 65.1346 52.1196 64.8913 52.2713C64.685 52.4 64.5138 52.5778 64.3929 52.7888C64.2721 52.9997 64.2053 53.2374 64.1987 53.4804C64.1354 54.688 63.5635 60.8629 58.5318 63.9901C58.5236 63.995 58.516 64.0004 58.508 64.0055C56.5489 65.2142 54.1084 65.8272 51.2542 65.8272C48.4078 65.8272 45.9728 65.2002 44.0158 63.9631C39.0557 60.8312 38.392 54.6667 38.3093 53.4627H38.3095ZM41.9025 71.4918L43.9489 67.2842C46.0681 68.277 48.5169 68.7804 51.2544 68.7804C53.9523 68.7804 56.3685 68.3023 58.4654 67.3601L59.9477 71.5646C60.0218 71.7752 60.1428 71.9663 60.3015 72.1234C60.4602 72.2806 60.6525 72.3997 60.8639 72.4717C61.2318 72.5972 61.6214 72.7253 62.0325 72.8559C61.3087 74.2149 60.7114 75.6374 60.2481 77.1057C58.8814 78.7243 56.0133 81.2 51.2544 81.2C49.6485 81.2174 48.057 80.896 46.5837 80.2569C45.1103 79.6178 43.7883 78.6752 42.7038 77.4907C41.146 75.8198 40.2643 73.9572 39.9671 72.5855C40.3293 72.4743 40.6844 72.3629 41.0312 72.2502C41.2199 72.1888 41.3943 72.09 41.544 71.9597C41.6936 71.8294 41.8157 71.6703 41.9025 71.4918ZM13.9536 103.55V90.3141C13.9536 79.895 26.1213 76.492 35.8772 73.7576C36.2901 73.6418 36.7101 73.5277 37.1118 73.4144C38.1804 77.9034 42.9941 84.1528 51.2468 84.1528C54.075 84.1885 56.852 83.3973 59.2367 81.8764C58.6725 86.9212 59.6386 92.0191 62.0094 96.5078C64.3802 100.996 68.0462 104.668 72.531 107.046H15.6743C14.7342 107.046 13.9536 105.167 13.9536 103.55ZM84.3818 107.046C79.9622 107.046 75.6419 105.736 71.9671 103.28C68.2924 100.825 65.4283 97.335 63.737 93.2518C62.0457 89.1686 61.6032 84.6756 62.4654 80.3409C63.3277 76.0062 65.4559 72.0246 68.581 68.8994C71.7062 65.7743 75.6878 63.6461 80.0225 62.7838C84.3572 61.9216 88.8502 62.3641 92.9334 64.0554C97.0166 65.7467 100.507 68.6108 102.962 72.2855C105.417 75.9603 106.728 80.2806 106.728 84.7002C106.721 90.6248 104.365 96.3048 100.176 100.494C95.9864 104.683 90.3064 107.04 84.3818 107.046Z"/>
</mask>
<path d="M84.3818 59.4004C80.3024 59.4016 76.2837 60.3897 72.6689 62.2803C69.054 64.171 65.9502 66.9082 63.6223 70.2582C63.2246 70.1359 62.8483 70.0169 62.4934 69.9013L61.0601 65.8359C65.4905 62.5167 66.704 57.3338 67.0352 54.8232C70.0145 54.015 72.7506 50.5144 73.8468 45.8753C74.4375 43.3663 73.5725 41.0302 71.6936 40.0621C71.1729 39.794 70.5958 39.654 70.0101 39.6536C70.1071 38.9256 70.2084 38.0351 70.3133 36.9416C70.5584 34.3832 70.7141 31.799 70.7141 31.1441C70.7141 30.68 70.7234 30.2015 70.7331 29.695C70.8114 25.6551 70.9086 20.6277 66.4525 16.1205C62.4534 12.0758 56.7917 9.84604 50.9215 10.0083C45.0736 10.1682 39.5899 12.6635 35.8759 16.8545C35.762 16.9834 35.6463 17.1133 35.5287 17.2439C33.2886 19.7469 30.2205 23.1749 30.4407 31.9536C30.4618 32.8129 31.2846 36.7509 32.1367 39.7521C31.64 39.8015 31.1583 39.9503 30.7202 40.1897C28.9167 41.1644 28.0897 43.4492 28.6622 45.8756C29.7593 50.5226 32.5042 54.0275 35.4903 54.8268C35.8472 57.2888 37.0968 62.4205 41.4141 65.7424L39.5232 69.631C38.173 70.0542 36.6513 70.4734 35.0806 70.9135C24.9289 73.7589 11 77.6553 11 90.3141V103.55C11 106.677 12.6724 110 15.6743 110H84.4702C84.4839 110 84.4972 109.998 84.5107 109.998C91.2063 109.959 97.6136 107.268 102.329 102.514C107.043 97.76 109.681 91.3306 109.664 84.6349C109.647 77.9392 106.977 71.5234 102.238 66.7933C97.4985 62.0632 91.0775 59.4048 84.3818 59.4004ZM37.7299 19.2129C37.8506 19.0782 37.9697 18.9446 38.0871 18.8121C41.261 15.2302 45.9683 13.0971 51.0025 12.9595C56.0609 12.819 60.9259 14.73 64.3525 18.196C67.9318 21.8161 67.8515 25.9707 67.7806 29.6363C67.7704 30.1578 67.7609 30.6505 67.7609 31.1429C67.7609 31.4559 67.7293 32.1055 67.6753 32.9319C66.9612 30.2773 65.9626 27.7133 64.5877 26.2142L64.4785 25.9956C64.3538 25.7461 64.1609 25.537 63.9223 25.3926C63.6838 25.2481 63.4091 25.1742 63.1302 25.1793C62.8514 25.1845 62.5797 25.2685 62.3465 25.4216C62.1134 25.5748 61.9285 25.7908 61.8131 26.0448C59.4335 31.2787 57.0763 31.068 53.1713 30.7197C52.7179 30.6792 52.2567 30.638 51.788 30.6055C50.3021 30.5 49.7645 31.3684 49.6023 31.7448C49.1209 32.8629 49.7899 34.0703 51.0145 35.5019C47.116 35.0365 46.1278 32.1851 45.2375 29.6129C44.6196 27.8277 43.9194 25.8041 41.8831 25.8041C40.9019 25.7848 39.928 25.9758 39.0267 26.3641C38.1254 26.7524 37.3176 27.329 36.6576 28.0553C35.1443 29.6798 34.2915 31.9958 33.8169 34.2654C33.6247 33.4798 33.4838 32.6825 33.3949 31.8785C33.2023 24.2718 35.6076 21.584 37.7299 19.2129ZM38.3095 53.4627C38.2917 53.0823 38.1285 52.7232 37.8538 52.4595C37.579 52.1958 37.2135 52.0476 36.8327 52.0454C36.8116 52.0454 36.7905 52.0454 36.7683 52.0454C34.6055 52.0454 32.3217 48.5171 31.5363 45.1962C31.2356 43.922 31.6304 43.0543 32.1243 42.7872C32.6827 42.4859 33.2783 43.0165 33.5082 43.2589C33.7013 43.4622 33.9482 43.6063 34.2201 43.6744C34.492 43.7426 34.7777 43.7319 35.0438 43.6437C35.3099 43.5555 35.5454 43.3934 35.7227 43.1763C35.9001 42.9592 36.012 42.6961 36.0453 42.4178C36.1908 42.1644 36.2576 41.8735 36.2371 41.5821C36.0802 39.3169 36.2386 32.8325 38.8194 30.0669C39.1844 29.662 39.6292 29.3369 40.1259 29.1122C40.6226 28.8874 41.1604 28.7679 41.7055 28.761C41.9274 29.0815 42.2236 29.937 42.4458 30.5794C43.5403 33.7414 45.5774 39.6258 54.6053 38.3378C54.882 38.2983 55.1419 38.1811 55.3547 37.9997C55.5675 37.8184 55.7244 37.5803 55.8072 37.3133C55.89 37.0463 55.8954 36.7612 55.8226 36.4913C55.7498 36.2213 55.6018 35.9776 55.396 35.7884C54.6801 35.1302 54.0005 34.4336 53.3603 33.7015C56.8323 34.003 60.3738 34.1165 63.3008 29.5108C65.1506 32.98 66.1137 39.8785 66.3495 42.618C66.3812 42.9861 66.5497 43.329 66.8218 43.579C67.094 43.8289 67.4499 43.9678 67.8194 43.9682C67.8616 43.9682 67.9038 43.9663 67.9474 43.9625C68.215 43.9395 68.4712 43.844 68.6884 43.6863C68.9057 43.5285 69.0758 43.3144 69.1803 43.0671C69.4719 42.7789 69.9166 42.468 70.3407 42.6859C70.8825 42.965 71.2732 43.9171 70.9721 45.1964C70.1871 48.518 67.9036 52.046 65.7401 52.046H65.7031C65.4165 52.0414 65.1346 52.1196 64.8913 52.2713C64.685 52.4 64.5138 52.5778 64.3929 52.7888C64.2721 52.9997 64.2053 53.2374 64.1987 53.4804C64.1354 54.688 63.5635 60.8629 58.5318 63.9901C58.5236 63.995 58.516 64.0004 58.508 64.0055C56.5489 65.2142 54.1084 65.8272 51.2542 65.8272C48.4078 65.8272 45.9728 65.2002 44.0158 63.9631C39.0557 60.8312 38.392 54.6667 38.3093 53.4627H38.3095ZM41.9025 71.4918L43.9489 67.2842C46.0681 68.277 48.5169 68.7804 51.2544 68.7804C53.9523 68.7804 56.3685 68.3023 58.4654 67.3601L59.9477 71.5646C60.0218 71.7752 60.1428 71.9663 60.3015 72.1234C60.4602 72.2806 60.6525 72.3997 60.8639 72.4717C61.2318 72.5972 61.6214 72.7253 62.0325 72.8559C61.3087 74.2149 60.7114 75.6374 60.2481 77.1057C58.8814 78.7243 56.0133 81.2 51.2544 81.2C49.6485 81.2174 48.057 80.896 46.5837 80.2569C45.1103 79.6178 43.7883 78.6752 42.7038 77.4907C41.146 75.8198 40.2643 73.9572 39.9671 72.5855C40.3293 72.4743 40.6844 72.3629 41.0312 72.2502C41.2199 72.1888 41.3943 72.09 41.544 71.9597C41.6936 71.8294 41.8157 71.6703 41.9025 71.4918ZM13.9536 103.55V90.3141C13.9536 79.895 26.1213 76.492 35.8772 73.7576C36.2901 73.6418 36.7101 73.5277 37.1118 73.4144C38.1804 77.9034 42.9941 84.1528 51.2468 84.1528C54.075 84.1885 56.852 83.3973 59.2367 81.8764C58.6725 86.9212 59.6386 92.0191 62.0094 96.5078C64.3802 100.996 68.0462 104.668 72.531 107.046H15.6743C14.7342 107.046 13.9536 105.167 13.9536 103.55ZM84.3818 107.046C79.9622 107.046 75.6419 105.736 71.9671 103.28C68.2924 100.825 65.4283 97.335 63.737 93.2518C62.0457 89.1686 61.6032 84.6756 62.4654 80.3409C63.3277 76.0062 65.4559 72.0246 68.581 68.8994C71.7062 65.7743 75.6878 63.6461 80.0225 62.7838C84.3572 61.9216 88.8502 62.3641 92.9334 64.0554C97.0166 65.7467 100.507 68.6108 102.962 72.2855C105.417 75.9603 106.728 80.2806 106.728 84.7002C106.721 90.6248 104.365 96.3048 100.176 100.494C95.9864 104.683 90.3064 107.04 84.3818 107.046Z" fill="#009FB6"/>
<path d="M84.3818 59.4004C80.3024 59.4016 76.2837 60.3897 72.6689 62.2803C69.054 64.171 65.9502 66.9082 63.6223 70.2582C63.2246 70.1359 62.8483 70.0169 62.4934 69.9013L61.0601 65.8359C65.4905 62.5167 66.704 57.3338 67.0352 54.8232C70.0145 54.015 72.7506 50.5144 73.8468 45.8753C74.4375 43.3663 73.5725 41.0302 71.6936 40.0621C71.1729 39.794 70.5958 39.654 70.0101 39.6536C70.1071 38.9256 70.2084 38.0351 70.3133 36.9416C70.5584 34.3832 70.7141 31.799 70.7141 31.1441C70.7141 30.68 70.7234 30.2015 70.7331 29.695C70.8114 25.6551 70.9086 20.6277 66.4525 16.1205C62.4534 12.0758 56.7917 9.84604 50.9215 10.0083C45.0736 10.1682 39.5899 12.6635 35.8759 16.8545C35.762 16.9834 35.6463 17.1133 35.5287 17.2439C33.2886 19.7469 30.2205 23.1749 30.4407 31.9536C30.4618 32.8129 31.2846 36.7509 32.1367 39.7521C31.64 39.8015 31.1583 39.9503 30.7202 40.1897C28.9167 41.1644 28.0897 43.4492 28.6622 45.8756C29.7593 50.5226 32.5042 54.0275 35.4903 54.8268C35.8472 57.2888 37.0968 62.4205 41.4141 65.7424L39.5232 69.631C38.173 70.0542 36.6513 70.4734 35.0806 70.9135C24.9289 73.7589 11 77.6553 11 90.3141V103.55C11 106.677 12.6724 110 15.6743 110H84.4702C84.4839 110 84.4972 109.998 84.5107 109.998C91.2063 109.959 97.6136 107.268 102.329 102.514C107.043 97.76 109.681 91.3306 109.664 84.6349C109.647 77.9392 106.977 71.5234 102.238 66.7933C97.4985 62.0632 91.0775 59.4048 84.3818 59.4004ZM37.7299 19.2129C37.8506 19.0782 37.9697 18.9446 38.0871 18.8121C41.261 15.2302 45.9683 13.0971 51.0025 12.9595C56.0609 12.819 60.9259 14.73 64.3525 18.196C67.9318 21.8161 67.8515 25.9707 67.7806 29.6363C67.7704 30.1578 67.7609 30.6505 67.7609 31.1429C67.7609 31.4559 67.7293 32.1055 67.6753 32.9319C66.9612 30.2773 65.9626 27.7133 64.5877 26.2142L64.4785 25.9956C64.3538 25.7461 64.1609 25.537 63.9223 25.3926C63.6838 25.2481 63.4091 25.1742 63.1302 25.1793C62.8514 25.1845 62.5797 25.2685 62.3465 25.4216C62.1134 25.5748 61.9285 25.7908 61.8131 26.0448C59.4335 31.2787 57.0763 31.068 53.1713 30.7197C52.7179 30.6792 52.2567 30.638 51.788 30.6055C50.3021 30.5 49.7645 31.3684 49.6023 31.7448C49.1209 32.8629 49.7899 34.0703 51.0145 35.5019C47.116 35.0365 46.1278 32.1851 45.2375 29.6129C44.6196 27.8277 43.9194 25.8041 41.8831 25.8041C40.9019 25.7848 39.928 25.9758 39.0267 26.3641C38.1254 26.7524 37.3176 27.329 36.6576 28.0553C35.1443 29.6798 34.2915 31.9958 33.8169 34.2654C33.6247 33.4798 33.4838 32.6825 33.3949 31.8785C33.2023 24.2718 35.6076 21.584 37.7299 19.2129ZM38.3095 53.4627C38.2917 53.0823 38.1285 52.7232 37.8538 52.4595C37.579 52.1958 37.2135 52.0476 36.8327 52.0454C36.8116 52.0454 36.7905 52.0454 36.7683 52.0454C34.6055 52.0454 32.3217 48.5171 31.5363 45.1962C31.2356 43.922 31.6304 43.0543 32.1243 42.7872C32.6827 42.4859 33.2783 43.0165 33.5082 43.2589C33.7013 43.4622 33.9482 43.6063 34.2201 43.6744C34.492 43.7426 34.7777 43.7319 35.0438 43.6437C35.3099 43.5555 35.5454 43.3934 35.7227 43.1763C35.9001 42.9592 36.012 42.6961 36.0453 42.4178C36.1908 42.1644 36.2576 41.8735 36.2371 41.5821C36.0802 39.3169 36.2386 32.8325 38.8194 30.0669C39.1844 29.662 39.6292 29.3369 40.1259 29.1122C40.6226 28.8874 41.1604 28.7679 41.7055 28.761C41.9274 29.0815 42.2236 29.937 42.4458 30.5794C43.5403 33.7414 45.5774 39.6258 54.6053 38.3378C54.882 38.2983 55.1419 38.1811 55.3547 37.9997C55.5675 37.8184 55.7244 37.5803 55.8072 37.3133C55.89 37.0463 55.8954 36.7612 55.8226 36.4913C55.7498 36.2213 55.6018 35.9776 55.396 35.7884C54.6801 35.1302 54.0005 34.4336 53.3603 33.7015C56.8323 34.003 60.3738 34.1165 63.3008 29.5108C65.1506 32.98 66.1137 39.8785 66.3495 42.618C66.3812 42.9861 66.5497 43.329 66.8218 43.579C67.094 43.8289 67.4499 43.9678 67.8194 43.9682C67.8616 43.9682 67.9038 43.9663 67.9474 43.9625C68.215 43.9395 68.4712 43.844 68.6884 43.6863C68.9057 43.5285 69.0758 43.3144 69.1803 43.0671C69.4719 42.7789 69.9166 42.468 70.3407 42.6859C70.8825 42.965 71.2732 43.9171 70.9721 45.1964C70.1871 48.518 67.9036 52.046 65.7401 52.046H65.7031C65.4165 52.0414 65.1346 52.1196 64.8913 52.2713C64.685 52.4 64.5138 52.5778 64.3929 52.7888C64.2721 52.9997 64.2053 53.2374 64.1987 53.4804C64.1354 54.688 63.5635 60.8629 58.5318 63.9901C58.5236 63.995 58.516 64.0004 58.508 64.0055C56.5489 65.2142 54.1084 65.8272 51.2542 65.8272C48.4078 65.8272 45.9728 65.2002 44.0158 63.9631C39.0557 60.8312 38.392 54.6667 38.3093 53.4627H38.3095ZM41.9025 71.4918L43.9489 67.2842C46.0681 68.277 48.5169 68.7804 51.2544 68.7804C53.9523 68.7804 56.3685 68.3023 58.4654 67.3601L59.9477 71.5646C60.0218 71.7752 60.1428 71.9663 60.3015 72.1234C60.4602 72.2806 60.6525 72.3997 60.8639 72.4717C61.2318 72.5972 61.6214 72.7253 62.0325 72.8559C61.3087 74.2149 60.7114 75.6374 60.2481 77.1057C58.8814 78.7243 56.0133 81.2 51.2544 81.2C49.6485 81.2174 48.057 80.896 46.5837 80.2569C45.1103 79.6178 43.7883 78.6752 42.7038 77.4907C41.146 75.8198 40.2643 73.9572 39.9671 72.5855C40.3293 72.4743 40.6844 72.3629 41.0312 72.2502C41.2199 72.1888 41.3943 72.09 41.544 71.9597C41.6936 71.8294 41.8157 71.6703 41.9025 71.4918ZM13.9536 103.55V90.3141C13.9536 79.895 26.1213 76.492 35.8772 73.7576C36.2901 73.6418 36.7101 73.5277 37.1118 73.4144C38.1804 77.9034 42.9941 84.1528 51.2468 84.1528C54.075 84.1885 56.852 83.3973 59.2367 81.8764C58.6725 86.9212 59.6386 92.0191 62.0094 96.5078C64.3802 100.996 68.0462 104.668 72.531 107.046H15.6743C14.7342 107.046 13.9536 105.167 13.9536 103.55ZM84.3818 107.046C79.9622 107.046 75.6419 105.736 71.9671 103.28C68.2924 100.825 65.4283 97.335 63.737 93.2518C62.0457 89.1686 61.6032 84.6756 62.4654 80.3409C63.3277 76.0062 65.4559 72.0246 68.581 68.8994C71.7062 65.7743 75.6878 63.6461 80.0225 62.7838C84.3572 61.9216 88.8502 62.3641 92.9334 64.0554C97.0166 65.7467 100.507 68.6108 102.962 72.2855C105.417 75.9603 106.728 80.2806 106.728 84.7002C106.721 90.6248 104.365 96.3048 100.176 100.494C95.9864 104.683 90.3064 107.04 84.3818 107.046Z" stroke="#009FB6" mask="url(#path-2-outside-1_1968_41)"/>
</svg>
