<svg width="24" height="24" viewBox="0 0 24 24" fill="none" xmlns="http://www.w3.org/2000/svg">
<path d="M20.708 3.90039C22.0264 3.90039 23.0996 4.9736 23.0996 6.29199V18.208C23.0996 19.5264 22.0264 20.5996 20.708 20.5996H3.29199C1.9736 20.5996 0.900391 19.5264 0.900391 18.208V6.29199C0.900391 4.9736 1.9736 3.90039 3.29199 3.90039H20.708ZM3.29199 5.0166C2.58914 5.0166 2.0166 5.58914 2.0166 6.29199V18.208C2.0166 18.9109 2.58914 19.4834 3.29199 19.4834H20.708C21.4109 19.4834 21.9834 18.9109 21.9834 18.208V6.29199C21.9834 5.58914 21.4109 5.0166 20.708 5.0166H3.29199Z" fill="black" stroke="black" stroke-width="0.2"/>
<path d="M7.875 7.56738C9.19325 7.56756 10.2666 8.6407 10.2666 9.95898C10.2664 11.2771 9.19314 12.3504 7.875 12.3506C6.55671 12.3506 5.48358 11.2772 5.4834 9.95898C5.4834 8.64059 6.5566 7.56738 7.875 7.56738ZM7.875 8.68359C7.17215 8.68359 6.59961 9.25613 6.59961 9.95898C6.59979 10.6617 7.17225 11.2334 7.875 11.2334C8.5776 11.2332 9.14924 10.6616 9.14941 9.95898C9.14941 9.25624 8.57771 8.68377 7.875 8.68359Z" fill="black" stroke="black" stroke-width="0.2"/>
<path d="M9.70801 13.0674C11.0264 13.0674 12.0996 14.1406 12.0996 15.459V16.375C12.0996 16.6831 11.8501 16.9334 11.542 16.9336C11.2338 16.9336 10.9834 16.6832 10.9834 16.375V15.459C10.9834 14.7561 10.4109 14.1836 9.70801 14.1836H6.04199C5.33914 14.1836 4.7666 14.7561 4.7666 15.459V16.375C4.7666 16.6832 4.51624 16.9336 4.20801 16.9336C3.89993 16.9334 3.65039 16.6831 3.65039 16.375V15.459C3.65039 14.1406 4.7236 13.0674 6.04199 13.0674H9.70801Z" fill="black" stroke="black" stroke-width="0.2"/>
<path d="M19.791 8.4834C20.0991 8.4834 20.3494 8.73294 20.3496 9.04102C20.3496 9.34924 20.0992 9.59961 19.791 9.59961H14.291C13.9829 9.59943 13.7334 9.34914 13.7334 9.04102C13.7336 8.73305 13.983 8.48357 14.291 8.4834H19.791Z" fill="black" stroke="black" stroke-width="0.2"/>
<path d="M19.791 12.1504C20.0991 12.1504 20.3494 12.3999 20.3496 12.708C20.3496 13.0162 20.0992 13.2666 19.791 13.2666H14.291C13.9829 13.2664 13.7334 13.0161 13.7334 12.708C13.7336 12.4 13.983 12.1506 14.291 12.1504H19.791Z" fill="black" stroke="black" stroke-width="0.2"/>
<path d="M19.791 15.8174C20.0991 15.8174 20.3494 16.0669 20.3496 16.375C20.3496 16.6832 20.0992 16.9336 19.791 16.9336H14.291C13.9829 16.9334 13.7334 16.6831 13.7334 16.375C13.7336 16.067 13.983 15.8176 14.291 15.8174H19.791Z" fill="black" stroke="black" stroke-width="0.2"/>
</svg>
