<svg width="39" height="40" viewBox="0 0 39 40" fill="none" xmlns="http://www.w3.org/2000/svg">
<rect width="39" height="40" rx="19.5" fill="#B9F2F8"/>
<path d="M15.3336 10.0996H19.0953C20.6263 10.0996 22.0663 10.6964 23.15 11.7793L26.0533 14.6836C27.1362 15.7665 27.733 17.2048 27.733 18.7373V25.833C27.733 28.0753 25.9089 29.9004 23.6666 29.9004H15.3336C13.0913 29.9004 11.2662 28.0753 11.2662 25.833V14.167C11.2662 11.9247 13.0913 10.0996 15.3336 10.0996ZM19.4996 26.5674C18.3693 26.5675 17.4072 27.2924 17.0494 28.3008L17.0016 28.4346H21.9987L21.9508 28.3008C21.593 27.2923 20.6301 26.5674 19.4996 26.5674ZM19.4996 18.4336C21.0527 18.4336 22.317 19.6969 22.317 21.25C22.317 22.8031 21.0527 24.0664 19.4996 24.0664C17.9467 24.0662 16.6832 22.803 16.6832 21.25C16.6832 19.697 17.9467 18.4338 19.4996 18.4336ZM19.4996 19.9004C18.7554 19.9006 18.15 20.5057 18.15 21.25C18.15 21.9943 18.7554 22.5994 19.4996 22.5996C20.244 22.5996 20.8502 21.9944 20.8502 21.25C20.8502 20.5056 20.244 19.9004 19.4996 19.9004ZM21.066 15.834C21.066 16.3482 21.4836 16.7673 21.9987 16.7676H25.7897L25.7037 16.6182C25.5643 16.3751 25.4001 16.1446 25.2125 15.9307L25.0162 15.7217L25.0153 15.7207L22.1119 12.8164C21.8407 12.5452 21.5398 12.315 21.2155 12.1289L21.066 12.043V15.834ZM19.6002 11.5947L19.5094 11.5859C19.3731 11.5732 19.2344 11.5664 19.0953 11.5664H15.3336C13.9001 11.5664 12.733 12.7334 12.733 14.167V25.834C12.733 27.2675 13.9001 28.4346 15.3336 28.4346H15.4996L15.5153 28.3545C15.8926 26.501 17.5367 25.1007 19.4996 25.1006C21.4627 25.1006 23.1058 26.5008 23.484 28.3545L23.5006 28.4346H23.6666C25.1002 28.4346 26.2662 27.2675 26.2662 25.834V18.7373C26.2662 18.5983 26.2595 18.4604 26.2467 18.3242L26.2389 18.2334H21.9996C20.6767 18.2332 19.6002 17.156 19.6002 15.833V11.5947Z" fill="#212121" stroke="#B9F2F8" stroke-width="0.2"/>
</svg>
