<svg width="24" height="24" viewBox="0 0 24 24" fill="none" xmlns="http://www.w3.org/2000/svg">
<g clip-path="url(#clip0_584_4448)">
<path d="M23.8584 17.5537L22.7324 18.7881L22.2812 18.376L22.1133 18.2236V21.4531C22.113 22.7959 21.0205 23.8887 19.6777 23.8887H13.7559C12.4131 23.8886 11.3206 22.7958 11.3203 21.4531V18.2236L11.1523 18.376L10.7002 18.7871L9.5752 17.5537L16.7168 11.0381L23.8584 17.5537ZM9.58594 0.146484C14.8164 0.146484 19.0723 4.40234 19.0723 9.63281V9.89746C19.0723 10.0522 19.0645 10.2089 19.0537 10.3672L17.3584 8.82129C16.951 4.8917 13.6215 1.81738 9.58594 1.81738C5.27644 1.81738 1.77051 5.32331 1.77051 9.63281V9.89746C1.77051 12.1927 3.24594 14.7132 4.93945 16.8545C6.61638 18.9747 8.52493 20.7433 9.48633 21.5879V23.7646L9.06152 23.4219C8.97272 23.3501 6.81658 21.6002 4.63086 19.0908C1.61355 15.6266 0.0996094 12.5343 0.0996094 9.89746V9.63281C0.0996094 4.40234 4.35546 0.146484 9.58594 0.146484ZM18.043 17.4951V20.1006H15.4375V17.4951H18.043ZM9.58594 5.75781C11.7223 5.75781 13.4609 7.49645 13.4609 9.63281C13.4609 11.7692 11.7223 13.5078 9.58594 13.5078C7.44958 13.5078 5.71094 11.7692 5.71094 9.63281C5.71094 7.49645 7.44958 5.75781 9.58594 5.75781ZM9.58594 7.42871C8.37037 7.42871 7.38184 8.41724 7.38184 9.63281C7.38184 10.8482 8.37036 11.8369 9.58594 11.8369C10.8013 11.8369 11.79 10.8482 11.79 9.63281C11.79 8.41724 10.8013 7.42871 9.58594 7.42871ZM20.4434 16.6992L20.4102 16.6699L16.7842 13.3613L16.7168 13.2998L16.6494 13.3613L13.0234 16.6699L12.9902 16.6992V21.4521C12.9902 21.8743 13.3337 22.2177 13.7559 22.2178H19.6777C20.0999 22.2178 20.4434 21.8743 20.4434 21.4521V16.6992Z" fill="black" stroke="#F7FDFF" stroke-width="0.2"/>
</g>
<defs>
<clipPath id="clip0_584_4448">
<rect width="24" height="24" fill="white"/>
</clipPath>
</defs>
</svg>
