<svg width="24" height="24" viewBox="0 0 24 24" fill="none" xmlns="http://www.w3.org/2000/svg">
<path d="M19.1426 0.678711C20.6483 0.679734 21.8684 1.90152 21.8662 3.40723V20.5498C21.8659 22.0564 20.6442 23.2775 19.1377 23.2783H6.47852C4.97185 23.2776 3.75068 22.0565 3.75 20.5498V19.4424H2.54688C2.22338 19.4424 1.96112 19.1807 1.96094 18.8574C1.96094 18.534 2.22327 18.2715 2.54688 18.2715H3.75V14.8574H2.54688C2.22332 14.8574 1.961 14.595 1.96094 14.2715C1.96094 13.9481 2.22327 13.6855 2.54688 13.6855H3.75V10.2715H2.54688C2.22327 10.2715 1.96094 10.009 1.96094 9.68555C1.961 9.362 2.22332 9.09961 2.54688 9.09961H3.75V5.68555H2.54688C2.22327 5.68555 1.96094 5.42303 1.96094 5.09961C1.96112 4.77634 2.22338 4.51465 2.54688 4.51465H3.75586V3.40723C3.75637 1.90055 4.97771 0.679393 6.48438 0.678711H19.1426ZM6.48438 1.84961C5.62544 1.85204 4.92919 2.54829 4.92676 3.40723V4.51465H6.12988C6.45338 4.51465 6.71564 4.77634 6.71582 5.09961C6.71582 5.42303 6.45349 5.68555 6.12988 5.68555H4.92676V9.09961H6.12988C6.45344 9.09961 6.71576 9.362 6.71582 9.68555C6.71582 10.009 6.45349 10.2715 6.12988 10.2715H4.92676V13.6855H6.12988C6.45349 13.6855 6.71582 13.9481 6.71582 14.2715C6.71576 14.595 6.45344 14.8574 6.12988 14.8574H4.92676V18.2715H6.12988C6.45349 18.2715 6.71582 18.534 6.71582 18.8574C6.71564 19.1807 6.45338 19.4424 6.12988 19.4424H4.92676V20.5498L4.93555 20.709C5.01724 21.4931 5.67919 22.1051 6.48438 22.1074H19.1426C20.0015 22.105 20.6976 21.4088 20.7002 20.5498V3.40723L20.6914 3.24805C20.6096 2.46392 19.9478 1.85189 19.1426 1.84961H6.48438Z" fill="black" stroke="black" stroke-width="0.1"/>
<path d="M12.811 6.57715C14.2733 6.57737 15.4585 7.76306 15.4585 9.22559C15.4583 10.6879 14.2732 11.8728 12.811 11.873C11.349 11.8717 10.1642 10.6874 10.1626 9.22559C10.1626 7.76293 11.3484 6.57715 12.811 6.57715ZM12.811 7.74316C11.9959 7.74462 11.335 8.40493 11.3335 9.21973C11.3335 10.0352 11.9954 10.6963 12.811 10.6963C13.6263 10.6961 14.2876 10.0351 14.2876 9.21973C14.2876 8.40444 13.6263 7.74339 12.811 7.74316Z" fill="black" stroke="black" stroke-width="0.1"/>
<path d="M12.811 12.6357C15.0684 12.636 16.8354 14.465 16.8354 16.7998C16.8345 17.1226 16.5733 17.3846 16.2505 17.3857H9.37061C9.04781 17.3846 8.78656 17.1226 8.78564 16.7998C8.78566 14.4649 10.5533 12.6357 12.811 12.6357ZM12.811 13.8066C11.3783 13.8066 10.2592 14.8049 10.0112 16.2139H15.6099C15.3671 14.8053 14.2436 13.8068 12.811 13.8066Z" fill="black" stroke="black" stroke-width="0.1"/>
</svg>
