<svg width="24" height="24" viewBox="0 0 24 24" fill="none" xmlns="http://www.w3.org/2000/svg">
<g clip-path="url(#clip0_584_4480)">
<path d="M12 0.0996094C13.0343 0.0996094 14.0264 0.510796 14.7578 1.24219C15.4892 1.97358 15.9004 2.96566 15.9004 4V8.09961H20C21.0343 8.09961 22.0264 8.5108 22.7578 9.24219C23.4892 9.97358 23.9004 10.9657 23.9004 12C23.9004 13.0343 23.4892 14.0264 22.7578 14.7578C22.0264 15.4892 21.0343 15.9004 20 15.9004H15.9004V20C15.9004 21.0343 15.4892 22.0264 14.7578 22.7578C14.0264 23.4892 13.0343 23.9004 12 23.9004C10.9657 23.9004 9.97358 23.4892 9.24219 22.7578C8.5108 22.0264 8.09961 21.0343 8.09961 20V15.9004H4C2.96566 15.9004 1.97358 15.4892 1.24219 14.7578C0.510796 14.0264 0.0996094 13.0343 0.0996094 12C0.0996094 10.9657 0.510796 9.97358 1.24219 9.24219C1.97358 8.5108 2.96566 8.09961 4 8.09961H8.09961V4C8.09961 2.96566 8.5108 1.97358 9.24219 1.24219C9.97358 0.510796 10.9657 0.0996094 12 0.0996094ZM12 1.90039C11.443 1.90039 10.9085 2.12082 10.5146 2.51465C10.1208 2.90847 9.90039 3.44305 9.90039 4V9C9.90039 9.2387 9.8055 9.46794 9.63672 9.63672C9.46794 9.8055 9.2387 9.90039 9 9.90039H4C3.44305 9.90039 2.90847 10.1208 2.51465 10.5146C2.12082 10.9085 1.90039 11.443 1.90039 12C1.90039 12.557 2.12082 13.0915 2.51465 13.4854C2.90847 13.8792 3.44305 14.0996 4 14.0996H9C9.2387 14.0996 9.46794 14.1945 9.63672 14.3633C9.8055 14.5321 9.90039 14.7613 9.90039 15V20C9.90039 20.557 10.1208 21.0915 10.5146 21.4854C10.9085 21.8792 11.443 22.0996 12 22.0996C12.557 22.0996 13.0915 21.8792 13.4854 21.4854C13.8792 21.0915 14.0996 20.557 14.0996 20V15C14.0996 14.7613 14.1945 14.5321 14.3633 14.3633C14.5321 14.1945 14.7613 14.0996 15 14.0996H20C20.557 14.0996 21.0915 13.8792 21.4854 13.4854C21.8792 13.0915 22.0996 12.557 22.0996 12C22.0996 11.443 21.8792 10.9085 21.4854 10.5146C21.0915 10.1208 20.557 9.90039 20 9.90039H15C14.7613 9.90039 14.5321 9.8055 14.3633 9.63672C14.1945 9.46794 14.0996 9.2387 14.0996 9V4C14.0996 3.44305 13.8792 2.90847 13.4854 2.51465C13.0915 2.12082 12.557 1.90039 12 1.90039Z" fill="black" stroke="#B9F2F8" stroke-width="0.2"/>
</g>
<defs>
<clipPath id="clip0_584_4480">
<rect width="24" height="24" fill="white"/>
</clipPath>
</defs>
</svg>
