<svg width="19" height="19" viewBox="0 0 19 19" fill="none" xmlns="http://www.w3.org/2000/svg">
<g clip-path="url(#clip0_1799_2204)">
<path d="M9.5 0.0996094C10.3133 0.0996094 11.0938 0.422935 11.6689 0.998047C12.244 1.57314 12.5664 2.35374 12.5664 3.16699V6.43359H15.833C16.6463 6.43359 17.4269 6.75604 18.002 7.33105C18.5771 7.90617 18.9004 8.68667 18.9004 9.5C18.9004 10.3133 18.5771 11.0938 18.002 11.6689C17.4269 12.244 16.6463 12.5664 15.833 12.5664H12.5664V15.833C12.5664 16.6463 12.244 17.4269 11.6689 18.002C11.0938 18.5771 10.3133 18.9004 9.5 18.9004C8.68667 18.9004 7.90617 18.5771 7.33105 18.002C6.75604 17.4269 6.43359 16.6463 6.43359 15.833V12.5664H3.16699C2.35374 12.5664 1.57314 12.244 0.998047 11.6689C0.422935 11.0938 0.0996094 10.3133 0.0996094 9.5C0.0996094 8.68667 0.422935 7.90617 0.998047 7.33105C1.57314 6.75605 2.35374 6.43359 3.16699 6.43359H6.43359V3.16699C6.43359 2.35374 6.75605 1.57314 7.33105 0.998047C7.90617 0.422935 8.68667 0.0996094 9.5 0.0996094ZM9.5 1.4834C9.05355 1.4834 8.62526 1.66088 8.30957 1.97656C7.99399 2.29223 7.81641 2.72062 7.81641 3.16699V7.125C7.81641 7.30844 7.74397 7.48454 7.61426 7.61426C7.48454 7.74397 7.30844 7.81641 7.125 7.81641H3.16699C2.72062 7.81641 2.29223 7.99399 1.97656 8.30957C1.66088 8.62526 1.4834 9.05355 1.4834 9.5C1.4834 9.94645 1.66088 10.3747 1.97656 10.6904C2.29223 11.006 2.72062 11.1836 3.16699 11.1836H7.125C7.30844 11.1836 7.48454 11.256 7.61426 11.3857C7.74397 11.5155 7.81641 11.6916 7.81641 11.875V15.833C7.81641 16.2794 7.99399 16.7078 8.30957 17.0234C8.62526 17.3391 9.05355 17.5166 9.5 17.5166C9.94645 17.5166 10.3747 17.3391 10.6904 17.0234C11.006 16.7078 11.1836 16.2794 11.1836 15.833V11.875C11.1836 11.6916 11.256 11.5155 11.3857 11.3857C11.5155 11.256 11.6916 11.1836 11.875 11.1836H15.833C16.2794 11.1836 16.7078 11.006 17.0234 10.6904C17.3391 10.3747 17.5166 9.94645 17.5166 9.5C17.5166 9.05355 17.3391 8.62526 17.0234 8.30957C16.7078 7.99399 16.2794 7.81641 15.833 7.81641H11.875C11.6916 7.81641 11.5155 7.74397 11.3857 7.61426C11.256 7.48454 11.1836 7.30844 11.1836 7.125V3.16699C11.1836 2.72062 11.006 2.29223 10.6904 1.97656C10.3747 1.66088 9.94645 1.4834 9.5 1.4834Z" fill="black" stroke="black" stroke-width="0.2"/>
</g>
<defs>
<clipPath id="clip0_1799_2204">
<rect width="19" height="19" fill="white"/>
</clipPath>
</defs>
</svg>
