<svg width="39" height="40" viewBox="0 0 39 40" fill="none" xmlns="http://www.w3.org/2000/svg">
<rect width="39" height="40" rx="19.5" fill="#B9F2F8"/>
<g clip-path="url(#clip0_188_1157)">
<path d="M19.5 10.0996C20.3575 10.0996 21.1798 10.4406 21.7861 11.0469C22.3924 11.6532 22.7333 12.4756 22.7334 13.333V16.7666H26.167C27.0244 16.7667 27.8468 17.1076 28.4531 17.7139C29.0594 18.3202 29.4004 19.1425 29.4004 20C29.4004 20.8575 29.0594 21.6798 28.4531 22.2861C27.8468 22.8924 27.0244 23.2333 26.167 23.2334H22.7334V26.667C22.7333 27.5244 22.3924 28.3468 21.7861 28.9531C21.1798 29.5594 20.3575 29.9004 19.5 29.9004C18.6425 29.9004 17.8202 29.5594 17.2139 28.9531C16.6076 28.3468 16.2667 27.5244 16.2666 26.667V23.2334H12.833C11.9756 23.2333 11.1532 22.8924 10.5469 22.2861C9.94061 21.6798 9.59961 20.8575 9.59961 20C9.59961 19.1425 9.94061 18.3202 10.5469 17.7139C11.1532 17.1076 11.9756 16.7667 12.833 16.7666H16.2666V13.333C16.2667 12.4756 16.6076 11.6532 17.2139 11.0469C17.8202 10.4406 18.6425 10.0996 19.5 10.0996ZM19.5 11.5664C19.0315 11.5664 18.5823 11.7528 18.251 12.084C17.9197 12.4152 17.7335 12.8646 17.7334 13.333V17.5C17.7334 17.6945 17.6561 17.881 17.5186 18.0186C17.381 18.1561 17.1945 18.2334 17 18.2334H12.833C12.3646 18.2335 11.9152 18.4197 11.584 18.751C11.2528 19.0823 11.0664 19.5315 11.0664 20C11.0664 20.4685 11.2528 20.9177 11.584 21.249C11.9152 21.5803 12.3646 21.7665 12.833 21.7666H17C17.1945 21.7666 17.381 21.8439 17.5186 21.9814C17.6561 22.119 17.7334 22.3055 17.7334 22.5V26.667C17.7335 27.1354 17.9197 27.5848 18.251 27.916C18.5823 28.2472 19.0315 28.4336 19.5 28.4336C19.9685 28.4336 20.4177 28.2472 20.749 27.916C21.0803 27.5848 21.2665 27.1354 21.2666 26.667V22.5C21.2666 22.3055 21.3439 22.119 21.4814 21.9814C21.619 21.8439 21.8055 21.7666 22 21.7666H26.167C26.6354 21.7665 27.0848 21.5803 27.416 21.249C27.7472 20.9177 27.9336 20.4685 27.9336 20C27.9336 19.5315 27.7472 19.0823 27.416 18.751C27.0848 18.4197 26.6354 18.2335 26.167 18.2334H22C21.8055 18.2334 21.619 18.1561 21.4814 18.0186C21.3439 17.881 21.2666 17.6945 21.2666 17.5V13.333C21.2665 12.8646 21.0803 12.4152 20.749 12.084C20.4177 11.7528 19.9685 11.5664 19.5 11.5664Z" fill="black" stroke="#B9F2F8" stroke-width="0.2"/>
</g>
<defs>
<clipPath id="clip0_188_1157">
<rect width="20" height="20" fill="white" transform="translate(9.5 10)"/>
</clipPath>
</defs>
</svg>
