<svg width="39" height="40" viewBox="0 0 39 40" fill="none" xmlns="http://www.w3.org/2000/svg">
<rect width="39" height="40" rx="19.5" fill="#B9F2F8"/>
<g clip-path="url(#clip0_188_1151)">
<path d="M17.625 21.4004C17.8871 21.4006 18.0996 21.6129 18.0996 21.875C18.0996 22.1371 17.8871 22.3494 17.625 22.3496C14.2223 22.3496 11.3496 25.1415 11.3496 28.4375V28.625C11.3496 28.8872 11.1372 29.0996 10.875 29.0996C10.6128 29.0996 10.4004 28.8872 10.4004 28.625V28.4375C10.4004 24.6193 13.7107 21.4004 17.625 21.4004ZM23.625 19.9004C23.8872 19.9004 24.1006 20.1128 24.1006 20.375V21.4502L26.5088 21.7178C27.0194 21.7736 27.4546 22.1044 27.6445 22.582C28.1188 23.7751 28.3561 24.409 28.4756 24.7578C28.5946 25.1052 28.5996 25.1797 28.5996 25.249C28.5996 26.1315 27.8824 26.8496 27 26.8496C26.1176 26.8496 25.4004 26.1315 25.4004 25.249C25.4004 25.2351 25.4031 25.2227 25.4033 25.2217C25.4043 25.2175 25.4061 25.2128 25.4072 25.209C25.4095 25.2013 25.4124 25.1916 25.416 25.1807C25.4235 25.1581 25.4349 25.127 25.4482 25.0889C25.4751 25.0122 25.5127 24.9048 25.5586 24.7783C25.6504 24.525 25.7732 24.1912 25.8955 23.8594C26.0177 23.5278 26.1398 23.1976 26.2314 22.9502C26.2767 22.8279 26.3141 22.7253 26.3408 22.6533L24.1006 22.4043V28.1494H25.875C26.1371 28.1494 26.3495 28.3619 26.3496 28.624C26.3496 28.8862 26.1372 29.0996 25.875 29.0996H21.375C21.1129 29.0994 20.9004 28.8861 20.9004 28.624C20.9005 28.362 21.113 28.1496 21.375 28.1494H23.1504V22.2988L20.9658 22.0566C20.9897 22.121 21.0204 22.2037 21.0557 22.2988C21.1433 22.5353 21.2602 22.8509 21.377 23.168C21.4937 23.485 21.6106 23.8036 21.6982 24.0459C21.7421 24.167 21.779 24.2702 21.8047 24.3438C21.8174 24.3801 21.8278 24.4099 21.835 24.4316C21.8385 24.4425 21.8415 24.4523 21.8438 24.46C21.8448 24.4637 21.8457 24.4685 21.8467 24.4727C21.8472 24.4748 21.8506 24.4861 21.8506 24.499C21.8506 25.3815 21.1324 26.0996 20.25 26.0996C19.3677 26.0994 18.6504 25.3814 18.6504 24.499C18.6504 24.4848 18.6542 24.472 18.6543 24.4717C18.6553 24.4677 18.6562 24.4636 18.6572 24.46C18.6595 24.4523 18.6624 24.4425 18.666 24.4316C18.6732 24.4098 18.6834 24.3796 18.6963 24.3428C18.7222 24.2686 18.7595 24.1651 18.8037 24.043C18.8923 23.7983 19.01 23.4757 19.1279 23.1553C19.2459 22.8349 19.3647 22.5163 19.4531 22.2773C19.4974 22.1579 19.5338 22.0579 19.5596 21.9883C19.5724 21.9538 19.5829 21.9268 19.5898 21.9082C19.5933 21.899 19.5959 21.8915 19.5977 21.8867C19.5985 21.8843 19.5992 21.8821 19.5996 21.8809V21.8789H19.6006C19.7981 21.3525 20.3192 21.0299 20.8828 21.0918L23.1504 21.3438V20.375C23.1504 20.1128 23.3629 19.9005 23.625 19.9004ZM26.4189 25.1504H27.6084C27.5905 25.0987 27.5665 25.0281 27.5322 24.9336C27.4414 24.683 27.2822 24.2631 27.0107 23.5703L26.4189 25.1504ZM19.6699 24.4004H20.8301L20.249 22.8516L19.6699 24.4004ZM17.25 10.9004C19.7869 10.9004 21.8496 12.963 21.8496 15.5C21.8496 17.9576 19.9136 19.9702 17.4863 20.0938L17.25 20.0996C14.7133 20.0994 12.6504 18.0368 12.6504 15.5C12.6504 12.9632 14.7133 10.9006 17.25 10.9004ZM17.0625 11.8545C15.137 11.9527 13.5996 13.5505 13.5996 15.5C13.5996 17.5125 15.2376 19.1504 17.25 19.1504C19.2623 19.1502 20.8994 17.5124 20.8994 15.5C20.8994 13.4876 19.2623 11.8498 17.25 11.8496L17.0625 11.8545Z" fill="black" stroke="black" stroke-width="0.2"/>
</g>
<defs>
<clipPath id="clip0_188_1151">
<rect width="20" height="20" fill="white" transform="translate(9.5 10)"/>
</clipPath>
</defs>
</svg>
