<svg width="39" height="40" viewBox="0 0 39 40" fill="none" xmlns="http://www.w3.org/2000/svg">
<rect width="39" height="40" rx="19.5" fill="#B9F2F8"/>
<g clip-path="url(#clip0_188_1163)">
<path d="M24.3828 24.8035L20.2332 25.547C20.3065 25.3782 20.354 25.1957 20.354 24.9985C20.354 24.575 20.194 24.2007 19.8792 23.8877C19.6067 23.614 19.2317 23.481 18.7327 23.481H14.4796C14.4093 23.3992 14.3091 23.3447 14.1928 23.3447H12.1025C11.9403 23.3447 11.788 23.4082 11.674 23.5237C11.56 23.6387 11.4983 23.7912 11.5 23.9532C11.5095 24.8302 11.5358 28.5869 11.5138 29.3817C11.5093 29.5454 11.5698 29.7002 11.6843 29.8179C11.797 29.9339 11.9545 30.0004 12.1163 30.0004H13.9728C14.3051 30.0004 14.5751 29.7302 14.5751 29.3982V28.6597L17.6112 29.2944C17.6982 29.3127 18.1399 29.2869 18.1619 29.2762L24.9521 27.9957C25.8321 27.8387 26.4203 26.9952 26.2636 26.1149C26.1091 25.2465 25.2773 24.6432 24.3828 24.8035ZM13.8108 29.2359H12.2816C12.2976 28.2057 12.2751 25.0692 12.2661 24.1092H13.8106L13.8108 29.2359ZM24.8146 27.2439L17.9717 28.5374C17.9487 28.5449 17.8189 28.5567 17.7677 28.5459L14.5753 27.8784V24.2455H18.7329C19.0222 24.2455 19.2144 24.3032 19.3389 24.4285C19.5102 24.599 19.5897 24.78 19.5897 24.9987C19.5897 25.2922 19.3272 25.6007 19.0659 25.7565L16.7789 25.8697C16.5679 25.8749 16.4011 26.0504 16.4064 26.2614C16.4116 26.4724 16.5864 26.6402 16.7981 26.6339C16.7981 26.6339 18.7874 26.5832 18.8064 26.5797L24.518 25.5565C24.9896 25.472 25.4301 25.7902 25.5118 26.2494C25.5943 26.7142 25.2833 27.1599 24.8146 27.2439Z" fill="black"/>
<path d="M25.2081 11.9457H22.9883V11.0307C22.9886 10.4622 22.5261 10 21.9578 10H19.0393C18.471 10 18.0087 10.4622 18.0087 11.0307V11.9457H15.7887C14.6882 11.9457 13.7929 12.841 13.7929 13.9415V19.4691C13.7929 20.5699 14.6882 21.4651 15.7887 21.4651H25.2081C26.3087 21.4651 27.2039 20.5699 27.2039 19.4691V13.9415C27.2039 12.841 26.3087 11.9457 25.2081 11.9457ZM18.773 11.0307C18.773 10.8837 18.8925 10.7642 19.0393 10.7642H21.9578C22.1046 10.7642 22.2241 10.8837 22.2241 11.0307V11.9457H18.773V11.0307ZM26.4397 19.4691C26.4397 20.1484 25.8874 20.7006 25.2084 20.7006H15.7887C15.1097 20.7006 14.5574 20.1484 14.5574 19.4691V13.9415C14.5574 13.2625 15.1097 12.7102 15.7887 12.7102H25.2081C25.8871 12.7102 26.4394 13.2625 26.4394 13.9415L26.4397 19.4691Z" fill="black"/>
<path d="M22.0821 15.4263H21.7769V15.121C21.7769 14.4155 21.2029 13.8418 20.4974 13.8418C19.7918 13.8418 19.2178 14.4155 19.2178 15.121V15.4263H18.9126C18.2071 15.4263 17.6331 16.0003 17.6331 16.7058C17.6331 17.4113 18.2071 17.9853 18.9126 17.9853H19.2178V18.2905C19.2178 18.996 19.7918 19.5697 20.4974 19.5697C21.2029 19.5697 21.7769 18.996 21.7769 18.2905V17.9853H22.0821C22.7877 17.9853 23.3614 17.4113 23.3614 16.7058C23.3612 16.0003 22.7874 15.4263 22.0821 15.4263ZM22.0821 17.2208H21.0124V18.2905C21.0124 18.575 20.7816 18.8052 20.4974 18.8052C20.2131 18.8052 19.9824 18.5747 19.9824 18.2905V17.2208H18.9126C18.6281 17.2208 18.3976 16.99 18.3976 16.7058C18.3976 16.4213 18.6283 16.1908 18.9126 16.1908H19.9824V15.121C19.9824 14.8365 20.2131 14.6063 20.4974 14.6063C20.7816 14.6063 21.0124 14.8368 21.0124 15.121V16.1908H22.0821C22.3667 16.1908 22.5969 16.4215 22.5969 16.7058C22.5969 16.99 22.3664 17.2208 22.0821 17.2208Z" fill="black"/>
</g>
<defs>
<clipPath id="clip0_188_1163">
<rect width="20" height="20" fill="white" transform="translate(9.5 10)"/>
</clipPath>
</defs>
</svg>
