<svg width="24" height="24" viewBox="0 0 24 24" fill="none" xmlns="http://www.w3.org/2000/svg">
<path d="M5.96191 15.5791C6.10413 15.5791 6.22605 15.6396 6.31738 15.7285H10.9561C11.5233 15.7285 11.9645 15.8802 12.2881 16.2051C12.652 16.5671 12.8398 17.0043 12.8398 17.498C12.8398 17.666 12.8087 17.8235 12.7607 17.9717L17.1533 17.1846C18.1927 16.9984 19.1593 17.6995 19.3389 18.708C19.521 19.7306 18.8368 20.7112 17.8145 20.8936L17.8135 20.8926L10.3506 22.3008L10.3486 22.3018C10.3441 22.3029 10.3395 22.3041 10.3359 22.3047C10.3285 22.306 10.3192 22.3066 10.3105 22.3076C10.293 22.3097 10.2698 22.3114 10.2441 22.3135C10.1924 22.3176 10.1255 22.3221 10.0566 22.3252C9.98754 22.3283 9.91487 22.3301 9.85352 22.3301C9.79654 22.3301 9.73798 22.3287 9.70215 22.3213L6.48242 21.6475V22.3379C6.48221 22.7581 6.14033 23.0996 5.71973 23.0996H3.67773C3.4729 23.0996 3.27368 23.0161 3.13086 22.8691C2.98616 22.7203 2.90934 22.5236 2.91504 22.3164C2.93916 21.4444 2.91086 17.3161 2.90039 16.3496C2.89818 16.1449 2.9761 15.9511 3.12012 15.8057C3.26435 15.6595 3.45792 15.5791 3.66309 15.5791H5.96191ZM3.94336 16.6201C3.95347 17.7455 3.97531 20.8699 3.96094 22.0586H5.44238L5.44141 16.6201H3.94336ZM6.48242 20.584L9.91504 21.3018C9.92849 21.3046 9.96621 21.3056 10.0127 21.3027C10.0334 21.3015 10.053 21.2997 10.0684 21.2979C10.0874 21.2955 10.0922 21.2945 10.0879 21.2959L10.1006 21.292L17.627 19.8691H17.6279C18.0895 19.7864 18.3954 19.3481 18.3145 18.8916C18.2341 18.44 17.801 18.1272 17.3379 18.21L11.0547 19.335C11.0499 19.3358 11.0459 19.3368 11.0449 19.3369C11.0435 19.337 11.042 19.3369 11.041 19.3369C11.0389 19.337 11.0358 19.3378 11.0332 19.3379C11.028 19.3381 11.0211 19.3386 11.0127 19.3389C10.9953 19.3395 10.9703 19.3399 10.9395 19.3408C10.8775 19.3427 10.7896 19.3448 10.6855 19.3477C10.4775 19.3534 10.2023 19.361 9.92773 19.3682C9.65292 19.3754 9.37832 19.3824 9.17285 19.3877C9.07023 19.3903 8.98467 19.393 8.9248 19.3945C8.89509 19.3953 8.87149 19.3961 8.85547 19.3965H8.83008C8.5415 19.4046 8.30403 19.1762 8.29688 18.8896C8.28975 18.6033 8.51557 18.3649 8.80176 18.3564L11.291 18.2324C11.4168 18.1537 11.5427 18.0409 11.6377 17.9121C11.7384 17.7755 11.7988 17.6306 11.7988 17.498C11.7988 17.2869 11.7243 17.1123 11.5527 16.9414H11.5518C11.4426 16.8316 11.264 16.7695 10.9561 16.7695H6.48242V20.584Z" fill="black" stroke="black" stroke-width="0.2"/>
<path d="M14.5034 0.900391C15.1837 0.900411 15.7371 1.4532 15.7368 2.13379V3.04004H18.0786C19.3444 3.04004 20.3745 4.07017 20.3745 5.33594V11.416C20.3745 12.6821 19.3444 13.7119 18.0786 13.7119H7.71729C6.4515 13.7119 5.42236 12.682 5.42236 11.416V5.33594C5.42236 4.07019 6.45151 3.04007 7.71729 3.04004H10.0591V2.13379C10.0591 1.4534 10.6124 0.900654 11.2925 0.900391H14.5034ZM7.71729 4.08105C7.02562 4.08109 6.46338 4.6443 6.46338 5.33594V11.416C6.46338 12.1079 7.02563 12.6709 7.71729 12.6709H18.0786C18.7703 12.6709 19.3335 12.108 19.3335 11.416V5.33594C19.3335 4.64428 18.7703 4.08105 18.0786 4.08105H7.71729ZM11.2925 1.94043C11.1866 1.94069 11.1001 2.02743 11.1001 2.13379V3.04004H14.6958V2.13379C14.6958 2.02728 14.6095 1.94045 14.5034 1.94043H11.2925Z" fill="black" stroke="black" stroke-width="0.2"/>
<path d="M12.8965 5.12598C13.7278 5.12598 14.4043 5.80151 14.4043 6.63281V6.86816H14.6396C15.4707 6.86816 16.1472 7.54478 16.1475 8.37598C16.1474 9.20721 15.471 9.88379 14.6396 9.88379H14.4043V10.1191C14.4043 10.9504 13.7278 11.626 12.8965 11.626C12.0654 11.6258 11.3896 10.9503 11.3896 10.1191V9.88379H11.1533C10.3222 9.88365 9.6465 9.20716 9.64648 8.37598C9.64648 7.54479 10.3221 6.8683 11.1533 6.86816H11.3896V6.63281C11.3896 5.80163 12.0654 5.12617 12.8965 5.12598ZM12.8965 6.16699C12.6391 6.16718 12.4307 6.37531 12.4307 6.63281V7.90918H11.1533C10.8959 7.90932 10.6875 8.11838 10.6875 8.37598C10.6875 8.63335 10.8957 8.84264 11.1533 8.84277H12.4307V10.1191C12.4307 10.3764 12.6391 10.5848 12.8965 10.585C13.154 10.585 13.3633 10.3768 13.3633 10.1191V8.84277H14.6396C14.897 8.84277 15.1064 8.63347 15.1064 8.37598C15.1064 8.11844 14.8973 7.90918 14.6396 7.90918H13.3633V6.63281C13.3633 6.37544 13.154 6.16699 12.8965 6.16699Z" fill="black" stroke="black" stroke-width="0.2"/>
</svg>
