<svg width="24" height="24" viewBox="0 0 24 24" fill="none" xmlns="http://www.w3.org/2000/svg">
<path d="M5.96191 15.5801C6.10413 15.5801 6.22605 15.6406 6.31738 15.7295H10.9561C11.5233 15.7295 11.9645 15.8811 12.2881 16.2061C12.652 16.5681 12.8398 17.0053 12.8398 17.499C12.8398 17.6669 12.8087 17.8245 12.7607 17.9727L17.1533 17.1855C18.1927 16.9994 19.1593 17.7005 19.3389 18.709C19.521 19.7316 18.8368 20.7121 17.8145 20.8945L17.8135 20.8936L10.3506 22.3018L10.3486 22.3027C10.3441 22.3038 10.3395 22.305 10.3359 22.3057C10.3285 22.307 10.3192 22.3076 10.3105 22.3086C10.293 22.3107 10.2698 22.3124 10.2441 22.3145C10.1924 22.3186 10.1255 22.3231 10.0566 22.3262C9.98754 22.3292 9.91487 22.331 9.85352 22.3311C9.79654 22.3311 9.73798 22.3297 9.70215 22.3223L6.48242 21.6484V22.3389C6.48221 22.7591 6.14033 23.1006 5.71973 23.1006H3.67773C3.4729 23.1005 3.27368 23.017 3.13086 22.8701C2.98616 22.7213 2.90934 22.5246 2.91504 22.3174C2.93916 21.4454 2.91086 17.3171 2.90039 16.3506C2.89818 16.1459 2.9761 15.9521 3.12012 15.8066C3.26435 15.6605 3.45792 15.5801 3.66309 15.5801H5.96191ZM3.94336 16.6211C3.95347 17.7464 3.97531 20.8709 3.96094 22.0596H5.44238L5.44141 16.6211H3.94336ZM6.48242 20.585L9.91504 21.3027C9.92849 21.3056 9.96621 21.3065 10.0127 21.3037C10.0334 21.3024 10.053 21.3007 10.0684 21.2988C10.0874 21.2965 10.0922 21.2955 10.0879 21.2969L10.1006 21.293L17.627 19.8701H17.6279C18.0895 19.7874 18.3954 19.3491 18.3145 18.8926C18.2341 18.4409 17.801 18.1282 17.3379 18.2109L11.0547 19.3359C11.0499 19.3368 11.0459 19.3378 11.0449 19.3379C11.0435 19.338 11.042 19.3378 11.041 19.3379C11.0389 19.338 11.0358 19.3387 11.0332 19.3389C11.028 19.3391 11.0211 19.3395 11.0127 19.3398C10.9953 19.3405 10.9703 19.3409 10.9395 19.3418C10.8775 19.3437 10.7896 19.3457 10.6855 19.3486C10.4775 19.3544 10.2023 19.3619 9.92773 19.3691C9.65292 19.3764 9.37832 19.3834 9.17285 19.3887C9.07023 19.3913 8.98467 19.394 8.9248 19.3955C8.89509 19.3963 8.87149 19.3971 8.85547 19.3975H8.83008C8.5415 19.4055 8.30403 19.1772 8.29688 18.8906C8.28975 18.6042 8.51557 18.3659 8.80176 18.3574L11.291 18.2334C11.4168 18.1547 11.5427 18.0419 11.6377 17.9131C11.7384 17.7765 11.7988 17.6316 11.7988 17.499C11.7988 17.2879 11.7243 17.1133 11.5527 16.9424H11.5518C11.4426 16.8326 11.264 16.7705 10.9561 16.7705H6.48242V20.585Z" fill="black" stroke="black" stroke-width="0.2"/>
<path d="M14.5049 0.900391C15.1851 0.900411 15.7385 1.4532 15.7383 2.13379V3.04004H18.0801C19.3459 3.04004 20.376 4.07017 20.376 5.33594V11.416C20.376 12.6821 19.3459 13.7119 18.0801 13.7119H7.71875C6.45297 13.7119 5.42383 12.682 5.42383 11.416V5.33594C5.42383 4.07019 6.45298 3.04007 7.71875 3.04004H10.0605V2.13379C10.0606 1.4534 10.6138 0.900654 11.2939 0.900391H14.5049ZM7.71875 4.08105C7.02709 4.08109 6.46484 4.6443 6.46484 5.33594V11.416C6.46484 12.1079 7.0271 12.6709 7.71875 12.6709H18.0801C18.7718 12.6709 19.335 12.108 19.335 11.416V5.33594C19.335 4.64428 18.7718 4.08105 18.0801 4.08105H7.71875ZM11.2939 1.94043C11.188 1.94069 11.1016 2.02743 11.1016 2.13379V3.04004H14.6973V2.13379C14.6973 2.02728 14.611 1.94045 14.5049 1.94043H11.2939Z" fill="black" stroke="black" stroke-width="0.2"/>
<path d="M12.8965 5.12695C13.7278 5.12695 14.4043 5.80249 14.4043 6.63379V6.86914H14.6396C15.4707 6.86914 16.1472 7.54575 16.1475 8.37695C16.1474 9.20819 15.471 9.88477 14.6396 9.88477H14.4043V10.1201C14.4043 10.9514 13.7278 11.627 12.8965 11.627C12.0654 11.6268 11.3896 10.9513 11.3896 10.1201V9.88477H11.1533C10.3222 9.88463 9.6465 9.20813 9.64648 8.37695C9.64648 7.54576 10.3221 6.86928 11.1533 6.86914H11.3896V6.63379C11.3896 5.80261 12.0654 5.12714 12.8965 5.12695ZM12.8965 6.16797C12.6391 6.16816 12.4307 6.37628 12.4307 6.63379V7.91016H11.1533C10.8959 7.91029 10.6875 8.11935 10.6875 8.37695C10.6875 8.63433 10.8957 8.84361 11.1533 8.84375H12.4307V10.1201C12.4307 10.3774 12.6391 10.5857 12.8965 10.5859C13.154 10.5859 13.3633 10.3777 13.3633 10.1201V8.84375H14.6396C14.897 8.84375 15.1064 8.63445 15.1064 8.37695C15.1064 8.11942 14.8973 7.91016 14.6396 7.91016H13.3633V6.63379C13.3633 6.37641 13.154 6.16797 12.8965 6.16797Z" fill="black" stroke="black" stroke-width="0.2"/>
</svg>
