<svg width="40" height="41" viewBox="0 0 40 41" fill="none" xmlns="http://www.w3.org/2000/svg">
<rect width="40" height="41" rx="20" fill="#F7FDFF"/>
<g clip-path="url(#clip0_182_345)">
<path d="M18.3333 20.5003C18.7933 20.5003 19.1667 20.8728 19.1667 21.332C19.1667 21.7912 18.7933 22.1637 18.3333 22.1637C17.8733 22.1637 17.5 21.7912 17.5 21.332C17.5 20.8728 17.8733 20.5003 18.3333 20.5003ZM18.9708 28.477C18.7458 28.582 18.5617 28.6587 18.3767 28.7345C16.3108 27.6762 11.6675 25.1228 11.6675 20.5362V16.2362C11.6675 15.1595 12.3558 14.2078 13.3808 13.8678L18.3342 12.2287L23.2875 13.8678C24.3117 14.207 25.0008 15.1587 25.0008 16.2362V18.837C25.0008 19.297 25.3733 19.6687 25.8342 19.6687C26.295 19.6687 26.6675 19.297 26.6675 18.837V16.2362C26.6675 14.4403 25.52 12.8545 23.8117 12.2895L18.5958 10.522C18.425 10.4653 18.2417 10.4653 18.0708 10.522L12.855 12.2895C11.1475 12.8545 10 14.4403 10 16.2362V20.5362C10 26.3428 15.7225 29.2553 17.8767 30.3503C18.1583 30.527 18.5008 30.5112 18.7908 30.3645C19.0792 30.2487 19.3342 30.1428 19.6733 29.9862C20.0908 29.792 20.2717 29.2987 20.0775 28.882C19.8842 28.4645 19.3875 28.2837 18.9708 28.477ZM21.6667 21.332C21.2058 21.332 20.8333 20.9603 20.8333 20.5003C20.8333 20.0403 20.4592 19.667 20 19.667H16.6667C16.2075 19.667 15.8333 20.0412 15.8333 20.5003V22.1637C15.8333 22.6228 16.2075 23.0003 16.6667 23.0003H19.1667C19.6267 23.0003 20 23.367 20 23.8262C20 24.2853 19.6267 24.6578 19.1667 24.6578H16.6667C15.2883 24.6578 14.1667 23.5387 14.1667 22.1628V20.4995C14.1667 19.417 14.865 18.5028 15.8333 18.1578V17.1728C15.8333 15.797 16.955 14.6778 18.3333 14.6778C19.7117 14.6778 20.8333 15.797 20.8333 17.1728V18.1578C21.8008 18.502 22.5 19.417 22.5 20.4995C22.5 20.9595 22.1275 21.3312 21.6667 21.3312V21.332ZM17.5 17.1737V18.0053H19.1667V17.1737C19.1667 16.7145 18.7925 16.342 18.3333 16.342C17.8742 16.342 17.5 16.7145 17.5 17.1737ZM29.8933 28.1803C29.6667 28.5845 29.1533 28.7212 28.7592 28.4987L28.2333 28.2045C27.8125 28.642 27.2725 28.957 26.6675 29.1145V29.6487C26.6675 30.1087 26.295 30.4803 25.8342 30.4803C25.3733 30.4803 25.0008 30.1087 25.0008 29.6487V29.1145C24.395 28.9578 23.8558 28.642 23.435 28.2045L22.9092 28.4987C22.515 28.7212 22.0017 28.5845 21.775 28.1803C21.5492 27.7803 21.6925 27.2737 22.0942 27.0487L22.625 26.752C22.5533 26.4803 22.5025 26.2003 22.5025 25.9062C22.5025 25.612 22.5533 25.332 22.625 25.0603L22.0942 24.7637C21.6933 24.5387 21.55 24.032 21.775 23.632C22 23.2312 22.5067 23.0878 22.9092 23.3137L23.435 23.6078C23.8558 23.1703 24.3958 22.8553 25.0008 22.6978V22.1637C25.0008 21.7037 25.3733 21.332 25.8342 21.332C26.295 21.332 26.6675 21.7037 26.6675 22.1637V22.6978C27.2733 22.8545 27.8125 23.1703 28.2333 23.6078L28.7592 23.3137C29.16 23.0887 29.6683 23.2312 29.8933 23.632C30.1192 24.032 29.9758 24.5387 29.5742 24.7637L29.0433 25.0603C29.115 25.332 29.1658 25.612 29.1658 25.9062C29.1658 26.2003 29.115 26.4803 29.0433 26.752L29.5742 27.0487C29.975 27.2737 30.1183 27.7803 29.8933 28.1803ZM27.5 25.9053C27.5 24.9887 26.7525 24.242 25.8333 24.242C24.9142 24.242 24.1667 24.9887 24.1667 25.9053C24.1667 26.822 24.9142 27.5687 25.8333 27.5687C26.7525 27.5687 27.5 26.822 27.5 25.9053Z" fill="black"/>
</g>
<defs>
<clipPath id="clip0_182_345">
<rect width="20" height="20" fill="white" transform="translate(10 10.5)"/>
</clipPath>
</defs>
</svg>
