<svg width="24" height="24" viewBox="0 0 24 24" fill="none" xmlns="http://www.w3.org/2000/svg">
<path d="M16.4004 1C18.1501 1.00192 19.8272 1.69829 21.0645 2.93555C22.3017 4.1728 22.9981 5.84988 23 7.59961V16.4004C22.9981 18.1501 22.3017 19.8272 21.0645 21.0645C19.8272 22.3017 18.1501 22.9981 16.4004 23H7.59961C5.84988 22.9981 4.1728 22.3017 2.93555 21.0645C1.69829 19.8272 1.00192 18.1501 1 16.4004V7.59961C1.00192 5.84988 1.69829 4.1728 2.93555 2.93555C4.1728 1.69829 5.84988 1.00192 7.59961 1H16.4004ZM7.59961 2.46484C6.23826 2.46677 4.93333 3.00807 3.9707 3.9707C3.00807 4.93333 2.46677 6.23826 2.46484 7.59961V16.4004C2.46677 17.7617 3.00807 19.0667 3.9707 20.0293C4.93333 20.9919 6.23826 21.5332 7.59961 21.5352H16.4004C17.7617 21.5332 19.0667 20.9919 20.0293 20.0293C20.9919 19.0667 21.5332 17.7617 21.5352 16.4004V7.59961C21.5332 6.23826 20.9919 4.93333 20.0293 3.9707C19.0667 3.00807 17.7617 2.46677 16.4004 2.46484H7.59961Z" fill="black"/>
<path d="M16.4004 1C18.1501 1.00192 19.8272 1.69829 21.0645 2.93555C22.3017 4.1728 22.9981 5.84988 23 7.59961V16.4004C22.9981 18.1501 22.3017 19.8272 21.0645 21.0645C19.8272 22.3017 18.1501 22.9981 16.4004 23H7.59961C5.84988 22.9981 4.1728 22.3017 2.93555 21.0645C1.69829 19.8272 1.00192 18.1501 1 16.4004V7.59961C1.00192 5.84988 1.69829 4.1728 2.93555 2.93555C4.1728 1.69829 5.84988 1.00192 7.59961 1H16.4004ZM7.59961 2.46484C6.23826 2.46677 4.93333 3.00807 3.9707 3.9707C3.00807 4.93333 2.46677 6.23826 2.46484 7.59961V16.4004C2.46677 17.7617 3.00807 19.0667 3.9707 20.0293C4.93333 20.9919 6.23826 21.5332 7.59961 21.5352H16.4004C17.7617 21.5332 19.0667 20.9919 20.0293 20.0293C20.9919 19.0667 21.5332 17.7617 21.5352 16.4004V7.59961C21.5332 6.23826 20.9919 4.93333 20.0293 3.9707C19.0667 3.00807 17.7617 2.46677 16.4004 2.46484H7.59961Z" stroke="#F7FDFF"/>
<path d="M11.1413 4.74902C11.9947 4.57933 12.8794 4.66604 13.6833 4.99902C14.4871 5.33202 15.1745 5.89572 15.6579 6.61914C16.1414 7.34272 16.3991 8.19422 16.3991 9.06445C16.3972 10.2307 15.9328 11.3482 15.1081 12.1729C14.2834 12.9975 13.1659 13.4619 11.9997 13.4639C11.1295 13.4639 10.278 13.2061 9.55438 12.7227C8.83096 12.2392 8.26726 11.5519 7.93427 10.748C7.60128 9.94414 7.51457 9.05948 7.68427 8.20605C7.85404 7.35254 8.27302 6.56848 8.88837 5.95312C9.50372 5.33777 10.2878 4.9188 11.1413 4.74902ZM11.9997 6.13574C11.4192 6.13574 10.8515 6.30749 10.3688 6.62988C9.8861 6.95243 9.509 7.41089 9.2868 7.94727C9.06463 8.48364 9.00658 9.07414 9.11981 9.64355C9.23307 10.213 9.51303 10.7359 9.92352 11.1465C10.334 11.557 10.857 11.8369 11.4265 11.9502C11.9959 12.0635 12.5863 12.0054 13.1227 11.7832C13.6591 11.561 14.1176 11.1848 14.4401 10.7021C14.7626 10.2195 14.9352 9.65178 14.9352 9.07129C14.9352 8.29271 14.6254 7.54565 14.0749 6.99512C13.5245 6.44475 12.7781 6.13584 11.9997 6.13574Z" fill="black"/>
<path d="M11.1413 4.74902C11.9947 4.57933 12.8794 4.66604 13.6833 4.99902C14.4871 5.33202 15.1745 5.89572 15.6579 6.61914C16.1414 7.34272 16.3991 8.19422 16.3991 9.06445C16.3972 10.2307 15.9328 11.3482 15.1081 12.1729C14.2834 12.9975 13.1659 13.4619 11.9997 13.4639C11.1295 13.4639 10.278 13.2061 9.55438 12.7227C8.83096 12.2392 8.26726 11.5519 7.93427 10.748C7.60128 9.94414 7.51457 9.05948 7.68427 8.20605C7.85404 7.35254 8.27302 6.56848 8.88837 5.95312C9.50372 5.33777 10.2878 4.9188 11.1413 4.74902ZM11.9997 6.13574C11.4192 6.13574 10.8515 6.30749 10.3688 6.62988C9.8861 6.95243 9.509 7.41089 9.2868 7.94727C9.06463 8.48364 9.00658 9.07414 9.11981 9.64355C9.23307 10.213 9.51303 10.7359 9.92352 11.1465C10.334 11.557 10.857 11.8369 11.4265 11.9502C11.9959 12.0635 12.5863 12.0054 13.1227 11.7832C13.6591 11.561 14.1176 11.1848 14.4401 10.7021C14.7626 10.2195 14.9352 9.65178 14.9352 9.07129C14.9352 8.29271 14.6254 7.54565 14.0749 6.99512C13.5245 6.44475 12.7781 6.13584 11.9997 6.13574Z" stroke="#F7FDFF"/>
<path d="M13.1619 14.9355C14.8212 14.9352 16.4198 15.5613 17.6375 16.6885C17.7445 16.7889 17.8189 16.9194 17.8514 17.0625C17.8838 17.2056 17.8734 17.3554 17.8201 17.4922C17.7669 17.6288 17.674 17.7466 17.5535 17.8301C17.433 17.9135 17.29 17.9592 17.1434 17.9609V17.9541C16.96 17.9545 16.7832 17.8849 16.6483 17.7607C15.7035 16.8803 14.4602 16.3891 13.1688 16.3857H10.8387C9.5474 16.3891 8.30488 16.8805 7.36017 17.7607C7.28982 17.831 7.20542 17.8869 7.1131 17.9238C7.02095 17.9607 6.92227 17.9788 6.82306 17.9766C6.72367 17.9742 6.62544 17.9514 6.53497 17.9102C6.44459 17.869 6.36363 17.8097 6.29669 17.7363C6.22971 17.6628 6.17801 17.5763 6.14532 17.4824C6.11265 17.3885 6.09939 17.2886 6.10626 17.1895C6.11319 17.0904 6.14009 16.9937 6.18536 16.9053C6.23069 16.8168 6.29349 16.7383 6.36993 16.6748C7.58801 15.5541 9.18351 14.9332 10.8387 14.9355H13.1619Z" fill="black"/>
<path d="M13.1619 14.9355C14.8212 14.9352 16.4198 15.5613 17.6375 16.6885C17.7445 16.7889 17.8189 16.9194 17.8514 17.0625C17.8838 17.2056 17.8734 17.3554 17.8201 17.4922C17.7669 17.6288 17.674 17.7466 17.5535 17.8301C17.433 17.9135 17.29 17.9592 17.1434 17.9609V17.9541C16.96 17.9545 16.7832 17.8849 16.6483 17.7607C15.7035 16.8803 14.4602 16.3891 13.1688 16.3857H10.8387C9.5474 16.3891 8.30488 16.8805 7.36017 17.7607C7.28982 17.831 7.20542 17.8869 7.1131 17.9238C7.02095 17.9607 6.92227 17.9788 6.82306 17.9766C6.72367 17.9742 6.62544 17.9514 6.53497 17.9102C6.44459 17.869 6.36363 17.8097 6.29669 17.7363C6.22971 17.6628 6.17801 17.5763 6.14532 17.4824C6.11265 17.3885 6.09939 17.2886 6.10626 17.1895C6.11319 17.0904 6.14009 16.9937 6.18536 16.9053C6.23069 16.8168 6.29349 16.7383 6.36993 16.6748C7.58801 15.5541 9.18351 14.9332 10.8387 14.9355H13.1619Z" stroke="#F7FDFF"/>
</svg>
