<svg width="21" height="21" viewBox="0 0 21 21" fill="none" xmlns="http://www.w3.org/2000/svg">
<path d="M7.70001 11.7666C8.78996 11.7666 9.84353 11.9936 10.8299 12.4395C11.0566 12.5426 11.1733 12.7891 11.1209 13.0234L11.0877 13.123C10.9701 13.382 10.6648 13.4987 10.4041 13.3809C9.55209 12.9959 8.64252 12.7998 7.70001 12.7998C4.07941 12.7998 1.13361 15.7466 1.13361 19.3672V19.7832C1.13361 20.0683 0.902083 20.2996 0.617004 20.2998C0.331776 20.2998 0.100403 20.0684 0.100403 19.7832V19.3672C0.100403 15.177 3.50978 11.7666 7.70001 11.7666ZM13.5008 12.6025C13.9587 12.6225 14.3349 12.9645 14.4725 13.4512L16.0877 19.1719C16.0923 19.1882 16.0989 19.202 16.1043 19.2139C16.1064 19.209 16.111 19.2047 16.1131 19.1992L16.9861 16.8809C17.1992 16.3148 17.6771 15.9347 18.2147 15.9346H19.783C20.068 15.9346 20.2996 16.1647 20.2996 16.4502C20.2996 16.7354 20.0682 16.9668 19.783 16.9668H18.2147C18.1809 16.9669 18.1352 16.9848 18.0848 17.0332C18.0349 17.0811 17.9874 17.1534 17.9529 17.2441L17.0799 19.5625V19.5635C16.9317 19.9562 16.6318 20.2258 16.2674 20.2871L16.1072 20.2998H16.0652C15.6072 20.2799 15.2311 19.938 15.0936 19.4512L13.4783 13.7305C13.4736 13.7135 13.4663 13.6998 13.4608 13.6875L13.4529 13.7031L12.5799 16.0225C12.3668 16.5885 11.888 16.9688 11.3504 16.9688H9.78204C9.49712 16.9685 9.2656 16.7371 9.26544 16.4521C9.26544 16.1671 9.49703 15.9358 9.78204 15.9355H11.3504C11.3841 15.9355 11.4307 15.9177 11.4813 15.8691C11.5311 15.8212 11.5787 15.7489 11.6131 15.6582L12.4861 13.3389C12.66 12.8771 13.0452 12.5767 13.4988 12.6025H13.5008ZM7.70001 0.100586C10.5127 0.100586 12.7996 2.38747 12.7996 5.2002C12.7996 8.01292 10.5127 10.2998 7.70001 10.2998C4.88728 10.2998 2.6004 8.01292 2.6004 5.2002C2.6004 2.38747 4.88728 0.100586 7.70001 0.100586ZM7.70001 1.13379C5.45774 1.13379 3.63361 2.95792 3.63361 5.2002C3.63361 7.44247 5.45774 9.2666 7.70001 9.2666C9.94228 9.2666 11.7664 7.44247 11.7664 5.2002C11.7664 2.95792 9.94228 1.13379 7.70001 1.13379Z" fill="#212121" stroke="black" stroke-width="0.2"/>
</svg>
