<svg width="16" height="16" viewBox="0 0 16 16" fill="none" xmlns="http://www.w3.org/2000/svg">
<g clip-path="url(#clip0_2759_1826)">
<path d="M14.1077 6.8114C13.7397 6.8234 13.4503 7.13073 13.4623 7.49873C13.469 7.7194 13.473 7.94473 13.473 8.17473C13.473 8.52673 13.4643 8.88407 13.447 9.2414C11.4597 9.45673 10.0217 9.8694 9.95834 9.88807C9.73968 9.9514 9.56834 10.1227 9.50434 10.3414C9.48568 10.4047 9.07234 11.8381 8.86701 13.9721C8.52301 13.9907 8.18434 14.0007 7.85568 14.0007C5.63368 14.0007 3.63301 13.5701 2.84034 13.3747C2.65101 12.5961 2.23768 10.6187 2.23768 8.17607C2.23768 5.75073 2.65168 3.76073 2.84101 2.9774C3.63368 2.78207 5.63301 2.3514 7.85568 2.3514L8.15101 2.35407C8.50701 2.3574 8.82234 2.06607 8.82834 1.69807C8.83434 1.33007 8.54034 1.02673 8.17234 1.02073L7.85568 1.01807C4.80568 1.01673 2.21501 1.75807 2.10634 1.79007C1.88768 1.8534 1.71634 2.02473 1.65234 2.2434C1.62168 2.34807 0.902344 4.84473 0.902344 8.1754C0.902344 11.5347 1.62234 14.0061 1.65234 14.1094C1.71701 14.3274 1.88768 14.4974 2.10568 14.5601C2.21434 14.5914 4.79834 15.3334 7.85368 15.3334C8.39701 15.3334 8.96368 15.3094 9.53634 15.2621C9.69768 15.2487 9.84768 15.1774 9.96034 15.0614L14.5563 10.3147C14.665 10.2027 14.731 10.0554 14.7423 9.8994C14.7843 9.32407 14.8057 8.74407 14.8057 8.1754C14.8057 7.9314 14.8023 7.69207 14.7943 7.4574C14.7823 7.08873 14.4783 6.79807 14.107 6.81207L14.1077 6.8114ZM12.281 10.7481L10.367 12.7254C10.4823 11.9887 10.6083 11.4167 10.691 11.0741C11.0283 10.9907 11.5843 10.8654 12.281 10.7481Z" fill="#2075D9"/>
<path d="M15.0913 2.90277C15.0786 2.8101 14.9533 1.98343 14.3593 1.38676C13.7646 0.808098 12.9339 0.684765 12.8413 0.672765C12.6859 0.653432 12.5299 0.687432 12.3986 0.770098C12.3399 0.807432 10.9313 1.7101 8.05727 4.55476C5.0326 7.54877 4.2226 8.7421 4.18993 8.79143C4.12993 8.88143 4.0926 8.9841 4.08127 9.09143L3.87193 11.0581C3.8506 11.2581 3.9206 11.4574 4.06326 11.5994C4.1886 11.7254 4.3586 11.7948 4.53526 11.7948C4.5586 11.7948 4.58126 11.7934 4.6046 11.7914L6.59193 11.5834C6.69793 11.5721 6.79926 11.5361 6.88793 11.4781C6.93793 11.4454 8.1426 10.6441 11.1673 7.6501C14.0413 4.80476 14.9539 3.4101 14.9913 3.3521C15.0773 3.21876 15.1126 3.05943 15.0919 2.9021L15.0913 2.90277ZM10.2286 6.70276C7.85393 9.05276 6.6426 10.0054 6.27727 10.2761L5.28393 10.3801L5.38727 9.41076C5.66527 9.04476 6.6286 7.84476 8.99527 5.50276C11.1179 3.40143 12.4106 2.39943 12.8939 2.04876C13.0606 2.10076 13.2759 2.1921 13.4219 2.3341C13.5653 2.47876 13.6586 2.68543 13.7126 2.85076C13.3533 3.33543 12.3406 4.6121 10.2286 6.70276Z" fill="#2075D9"/>
</g>
<defs>
<clipPath id="clip0_2759_1826">
<rect width="16" height="16" fill="white"/>
</clipPath>
</defs>
</svg>
