<svg width="16" height="16" viewBox="0 0 16 16" fill="none" xmlns="http://www.w3.org/2000/svg">
<path d="M13.3333 4.06733V3.33333C13.3333 1.49533 11.838 0 10 0H6C4.162 0 2.66667 1.49533 2.66667 3.33333V4.06733C1.14733 4.37733 0 5.724 0 7.33333V12.6667C0 14.5047 1.49533 16 3.33333 16H12.6667C14.5047 16 16 14.5047 16 12.6667V7.33333C16 5.724 14.8527 4.37667 13.3333 4.06733ZM1.33333 12.6667V7.33333C1.33333 6.464 1.89067 5.72333 2.66667 5.448V14.552C1.89067 14.2767 1.33333 13.536 1.33333 12.6667ZM4 3.33333C4 2.23067 4.89733 1.33333 6 1.33333H10C11.1027 1.33333 12 2.23067 12 3.33333V14.6667H4V3.33333ZM14.6667 12.6667C14.6667 13.536 14.1093 14.2767 13.3333 14.552V5.448C14.1093 5.72333 14.6667 6.464 14.6667 7.33333V12.6667ZM7.33333 9.33333C7.33333 9.70133 7.03533 10 6.66667 10H6C5.63133 10 5.33333 9.70133 5.33333 9.33333C5.33333 8.96533 5.63133 8.66667 6 8.66667H6.66667C7.03533 8.66667 7.33333 8.96533 7.33333 9.33333ZM10.6667 9.33333C10.6667 9.70133 10.3687 10 10 10H9.33333C8.96467 10 8.66667 9.70133 8.66667 9.33333C8.66667 8.96533 8.96467 8.66667 9.33333 8.66667H10C10.3687 8.66667 10.6667 8.96533 10.6667 9.33333ZM7.33333 12C7.33333 12.368 7.03533 12.6667 6.66667 12.6667H6C5.63133 12.6667 5.33333 12.368 5.33333 12C5.33333 11.632 5.63133 11.3333 6 11.3333H6.66667C7.03533 11.3333 7.33333 11.632 7.33333 12ZM10.6667 12C10.6667 12.368 10.3687 12.6667 10 12.6667H9.33333C8.96467 12.6667 8.66667 12.368 8.66667 12C8.66667 11.632 8.96467 11.3333 9.33333 11.3333H10C10.3687 11.3333 10.6667 11.632 10.6667 12ZM8.66667 6C8.66667 6.368 8.36867 6.66667 8 6.66667C7.63133 6.66667 7.33333 6.368 7.33333 6V5.33333H6.66667C6.298 5.33333 6 5.03467 6 4.66667C6 4.29867 6.298 4 6.66667 4H7.33333V3.33333C7.33333 2.96533 7.63133 2.66667 8 2.66667C8.36867 2.66667 8.66667 2.96533 8.66667 3.33333V4H9.33333C9.702 4 10 4.29867 10 4.66667C10 5.03467 9.702 5.33333 9.33333 5.33333H8.66667V6Z" fill="black"/>
</svg>
