<svg width="120" height="120" viewBox="0 0 120 120" fill="none" xmlns="http://www.w3.org/2000/svg">
<path d="M99.6285 82.3268C98.3035 80.8098 96.5035 79.8067 94.5535 79.4886C92.5285 79.1705 90.3035 79.4886 87.7785 80.5162L70.6535 87.0981C70.6535 86.364 70.5035 85.5811 70.2535 84.7736C69.5285 82.5715 67.8785 80.7609 65.6535 79.7822C65.4285 79.6843 57.6035 76.5524 57.6035 76.5524L44.3535 71.1695C43.4285 70.778 42.4285 70.5823 41.3535 70.5823C37.4035 70.5823 33.5785 72.1238 30.8035 74.8397C30.1535 75.4758 29.5285 76.2099 29.0285 76.9439L19.1785 82.963C18.3285 83.5013 17.8785 84.48 18.0285 85.4587L21.0035 102.366C21.1285 103.027 21.5035 103.614 22.0785 103.981C22.6535 104.348 23.3535 104.47 24.0285 104.323L31.0785 102.684C37.9535 101.094 45.6785 104.177 52.6535 106.99L57.6785 109.021C59.2785 109.682 60.9285 110 62.5785 110C65.1535 110 67.7035 109.217 70.1035 107.7L97.3535 94.1448C98.4535 93.6065 99.8535 92.7502 100.779 91.0619C102.279 88.3459 101.804 84.8226 99.6285 82.3268ZM96.3785 88.7374C96.1785 89.08 95.9035 89.3736 95.1035 89.7651L67.6535 103.418C64.8535 105.18 62.2285 105.522 59.6035 104.47L54.4285 102.366C48.4535 99.9682 41.8285 97.3256 35.1285 97.3256C33.4035 97.3256 31.6785 97.4969 29.9285 97.9129L25.4785 98.9405L23.2285 86.2172L32.1285 80.7609C32.4535 80.5652 32.7285 80.296 32.9285 79.9779C33.3035 79.3907 33.7785 78.8035 34.3285 78.2652C36.1535 76.479 38.7285 75.4514 41.3285 75.4514C41.7285 75.4514 42.0785 75.5248 42.3785 75.6471L55.6535 81.0545L63.6535 84.2598C64.5035 84.6513 65.1535 85.3609 65.4535 86.2662C65.5785 86.6821 65.6535 87.0247 65.6035 87.2938C65.5535 87.7098 65.5035 88.2236 65.3785 88.5172C65.2035 88.9332 64.9535 89.2757 64.6535 89.5938L64.5785 89.6672C63.6785 90.4991 62.2535 90.7682 61.0535 90.2789L49.7785 85.7034C48.5035 85.1896 47.0285 85.7768 46.5035 87.0247C45.9785 88.2725 46.5785 89.7161 47.8535 90.23L59.1285 94.8055C62.0035 95.9799 65.4285 95.3927 67.6785 93.5087L89.5785 85.0917C91.2535 84.4311 92.6035 84.1864 93.6785 84.3577C94.4535 84.48 95.2035 84.9204 95.7535 85.5566C96.5785 86.5109 96.8035 87.8566 96.3035 88.7864L96.3785 88.7374Z" fill="#009FB6"/>
<path d="M26.5536 58.9602C26.7036 58.9602 26.8536 58.9602 27.0036 58.9112C28.3536 58.6666 29.2536 57.3942 29.0286 56.073C28.8286 55.0453 28.7536 54.0911 28.7536 53.1858C28.7536 43.4965 37.1536 35.6178 47.5036 35.6178C50.8536 35.6178 54.1036 36.4742 56.9786 38.0402C58.0036 39.5816 59.3036 40.9274 60.8036 42.0284C50.5286 45.5028 42.7036 54.3113 40.9286 65.4931C40.7286 66.8388 41.6536 68.0867 43.0286 68.2824C43.1536 68.2824 43.2786 68.3069 43.4036 68.3069C44.6036 68.3069 45.6786 67.4505 45.8786 66.2271C47.8036 54.0911 58.1786 45.2826 70.5786 45.2826C82.9786 45.2826 93.3036 54.0666 95.2536 66.1537C95.4786 67.4994 96.7536 68.4047 98.1036 68.1845C99.4786 67.9643 100.404 66.7165 100.179 65.3952C98.3786 54.2134 90.5286 45.4294 80.2286 41.9795C84.1786 39.0433 86.7286 34.3944 86.7286 29.1339C86.7286 20.2765 79.4286 13.0585 70.4786 13.0585C66.2036 13.0585 62.3286 14.7223 59.4286 17.3893C57.3036 13.034 52.7786 10 47.4786 10C40.2036 10 34.2786 15.7499 34.2786 22.7967C34.2786 26.5892 36.0286 29.9658 38.7286 32.2902C29.9536 35.5934 23.7286 43.6922 23.7286 53.1613C23.7286 54.3847 23.8536 55.6081 24.1036 56.9293C24.3286 58.1038 25.3786 58.9357 26.5536 58.9357V58.9602ZM70.4786 17.9765C76.6786 17.9765 81.7286 22.9924 81.7286 29.1583C81.7286 35.3242 76.6786 40.3401 70.4786 40.3401C64.2786 40.3401 59.2286 35.3242 59.2286 29.1583C59.2286 22.9924 64.2786 17.9765 70.4786 17.9765ZM47.4786 14.918C51.8536 14.918 55.4036 18.2212 55.6536 22.6009C55.0036 23.9956 54.5786 25.5126 54.3786 27.103C52.8536 29.3541 50.2786 30.7243 47.4786 30.7243C42.9536 30.7243 39.2786 27.1764 39.2786 22.8212C39.2786 18.4659 42.9536 14.918 47.4786 14.918Z" fill="#009FB6"/>
</svg>
