<svg width="16" height="16" viewBox="0 0 16 16" fill="none" xmlns="http://www.w3.org/2000/svg">
<g clip-path="url(#clip0_2759_1829)">
<path d="M16 2C16 1.46957 15.7893 0.960859 15.4142 0.585786C15.0391 0.210714 14.5304 0 14 0L6 0C5.46957 0 4.96086 0.210714 4.58579 0.585786C4.21071 0.960859 4 1.46957 4 2V7.33333H2C1.46957 7.33333 0.960859 7.54405 0.585786 7.91912C0.210714 8.29419 0 8.8029 0 9.33333L0 16H8.66667V12H16V2ZM7.33333 14.6667H1.33333V9.33333C1.33333 9.15652 1.40357 8.98695 1.5286 8.86193C1.65362 8.73691 1.82319 8.66667 2 8.66667H4V12H7.33333V14.6667ZM7.33333 9.33333V10.6667H5.33333V8.66667H6.66667C6.84348 8.66667 7.01305 8.73691 7.13807 8.86193C7.2631 8.98695 7.33333 9.15652 7.33333 9.33333ZM14.6667 10.6667H8.66667V9.33333C8.66552 9.03634 8.59714 8.74347 8.46667 8.47667L12 4.94333V7.33333H13.3333V2.66667H8.66667V4H11.0573L7.524 7.53333C7.257 7.40276 6.96388 7.33438 6.66667 7.33333H5.33333V2C5.33333 1.82319 5.40357 1.65362 5.5286 1.5286C5.65362 1.40357 5.82319 1.33333 6 1.33333H14C14.1768 1.33333 14.3464 1.40357 14.4714 1.5286C14.5964 1.65362 14.6667 1.82319 14.6667 2V10.6667Z" fill="#009FB6"/>
</g>
<defs>
<clipPath id="clip0_2759_1829">
<rect width="16" height="16" fill="white"/>
</clipPath>
</defs>
</svg>
