<svg width="160" height="160" viewBox="0 0 160 160" fill="none" xmlns="http://www.w3.org/2000/svg">
<g clip-path="url(#clip0_1934_9730)">
<path d="M112.445 78.7171C120.071 67.8296 124.102 55.0489 124.102 41.7566V12.1203C124.102 10.6567 123.085 9.38838 121.657 9.06978L81.305 0.0744019C80.857 -0.0244751 80.3931 -0.0244751 79.9451 0.0744019L39.5947 9.06978C38.1653 9.38838 37.1497 10.6567 37.1497 12.1203V41.7566C37.1497 55.0489 41.1804 67.8296 48.8062 78.7159C56.4319 89.6033 67.0655 97.7589 79.5582 102.302C79.9024 102.427 80.265 102.49 80.6251 102.49C80.9864 102.49 81.3489 102.427 81.6932 102.302C94.1859 97.7601 104.819 89.6033 112.445 78.7171ZM80.6251 96.0279C69.8072 91.8568 60.5921 84.6497 53.9258 75.1307C47.0398 65.3003 43.3997 53.7598 43.3997 41.7566V14.6252L80.6251 6.32685L117.852 14.6252V41.7566C117.852 53.7586 114.212 65.2991 107.326 75.1307C100.658 84.6497 91.443 91.8568 80.6251 96.0279Z" fill="black"/>
<path d="M112.535 21.3916C112.535 19.9267 111.52 18.6596 110.09 18.341L81.3061 11.9238C80.8581 11.8249 80.393 11.8249 79.945 11.9238L51.1596 18.341C49.475 18.717 48.4142 20.3869 48.7902 22.0715C49.165 23.7561 50.8361 24.8169 52.5195 24.4409L80.625 18.1762L106.285 23.8964V41.7566C106.285 51.3733 103.369 60.6189 97.8528 68.4961C93.4204 74.8243 87.4853 79.9512 80.625 83.3973C73.7646 79.9524 67.8308 74.8243 63.3984 68.4961C58.6266 61.6834 55.7604 53.7195 55.111 45.4675C55.0561 44.779 55.017 44.0832 54.9938 43.3972C54.934 41.6711 53.4777 40.3222 51.7626 40.3808C50.0378 40.4407 48.6877 41.8872 48.7475 43.612C48.7743 44.3896 48.8183 45.1794 48.8793 45.9582C49.6166 55.3223 52.8674 64.3555 58.2787 72.0813C63.6242 79.712 70.8972 85.8057 79.3127 89.7022C79.729 89.8951 80.1782 89.9915 80.6262 89.9915C81.0742 89.9915 81.5222 89.8951 81.9384 89.7022C90.3552 85.8045 97.6282 79.712 102.972 72.0813C109.229 63.1494 112.537 52.6624 112.537 41.7566V21.3916H112.535Z" fill="black"/>
<path d="M71.7224 57.9786C72.2693 58.6256 73.0542 59.0223 73.9002 59.0784C73.9698 59.0833 74.0393 59.0858 74.1089 59.0858C74.8804 59.0858 75.6287 58.8001 76.2049 58.2789L98.8612 37.7808C100.14 36.6236 100.239 34.6472 99.0821 33.3667C97.9237 32.0874 95.9473 31.9886 94.668 33.1458L74.408 51.4747L68.6255 44.6351C67.5122 43.3179 65.5396 43.1519 64.2224 44.2664C62.9041 45.3809 62.7393 47.3523 63.8526 48.6707L71.7224 57.9786Z" fill="#33CCCC"/>
<path d="M54.3103 103.423C52.6636 101.257 50.2698 99.8804 47.5708 99.5435C44.8718 99.2078 42.2131 99.9537 40.0842 101.647C39.0881 102.439 38.2837 103.389 37.677 104.435L36.759 103.239C35.9436 102.178 35.4956 100.857 35.4956 99.5191V71.3269C35.4956 65.5676 30.8093 60.8813 25.05 60.8813C19.6325 60.8813 15.1623 64.9487 14.6508 70.3406L11.3061 105.615C11.0119 108.705 11.8835 111.77 13.7695 114.26L40.332 148.848V156.875C40.332 158.601 41.731 160 43.457 160C45.1819 160 46.582 158.601 46.582 156.875V147.786C46.582 147.097 46.3538 146.428 45.9351 145.883L18.739 110.47C17.8125 109.247 17.3828 107.732 17.528 106.205L20.874 70.9314C21.0791 68.7647 22.8747 67.1314 25.05 67.1314C27.3645 67.1314 29.2456 69.0137 29.2456 71.3269V99.5191C29.2456 102.227 30.1538 104.899 31.803 107.045L38.3447 115.564C38.3545 115.577 38.3643 115.591 38.374 115.604L43.6523 122.478C44.7046 123.847 46.6663 124.104 48.0347 123.053C49.4031 122.002 49.6607 120.04 48.6096 118.671L43.3142 111.775C42.0874 110.151 42.3804 107.808 43.9771 106.538C44.7791 105.9 45.7813 105.619 46.7981 105.745C47.815 105.872 48.7171 106.392 49.3372 107.207L61.9532 123.787C64.4361 127.05 65.8033 131.105 65.8033 135.205V156.875C65.8033 158.601 67.2022 160 68.9283 160C70.6543 160 72.0533 158.601 72.0533 156.875V135.205C72.0533 129.746 70.2332 124.347 66.9275 120.003L54.3103 103.423Z" fill="#33CCCC"/>
<path d="M149.069 105.615L145.723 70.3406C145.211 64.9487 140.74 60.8813 135.324 60.8813C129.564 60.8813 124.878 65.5676 124.878 71.3269V99.5191C124.878 100.857 124.429 102.178 123.615 103.239L122.695 104.435C122.09 103.39 121.285 102.44 120.289 101.647C118.16 99.9537 115.502 99.2078 112.803 99.5435C110.104 99.8804 107.71 101.257 106.063 103.423L93.4473 120.003C90.1416 124.347 88.3203 129.746 88.3203 135.206V156.875C88.3203 158.601 89.7205 160 91.4453 160C93.1714 160 94.5703 158.601 94.5703 156.875V135.205C94.5703 131.105 95.9375 127.05 98.4204 123.787L111.036 107.207C111.658 106.392 112.56 105.873 113.577 105.745C114.594 105.619 115.596 105.9 116.398 106.538C117.993 107.808 118.287 110.151 117.059 111.775L111.765 118.671C110.714 120.04 110.972 122.002 112.34 123.053C113.709 124.104 115.67 123.847 116.722 122.478L122 115.604C122.009 115.592 122.018 115.58 122.028 115.568L128.572 107.046C130.22 104.899 131.128 102.227 131.128 99.5191V71.3269C131.128 69.0137 133.01 67.1314 135.324 67.1314C137.499 67.1314 139.295 68.7647 139.501 70.9314L142.847 106.205C142.991 107.733 142.561 109.247 141.647 110.454L114.439 145.883C114.02 146.428 113.793 147.099 113.793 147.787V156.875C113.793 158.601 115.192 160 116.918 160C118.644 160 120.043 158.601 120.043 156.875V148.848L146.616 114.244C148.49 111.77 149.362 108.705 149.069 105.615Z" fill="#33CCCC"/>
<path d="M50.105 35.0306C51.2048 35.7642 52.6941 35.7178 53.7415 34.9109C54.7266 34.1517 55.1892 32.826 54.8572 31.6224C54.502 30.3321 53.3472 29.3848 52.0056 29.3116C50.6775 29.2395 49.4238 30.0501 48.9368 31.2842C48.4021 32.6404 48.8965 34.2176 50.105 35.0306Z" fill="black"/>
</g>
<defs>
<clipPath id="clip0_1934_9730">
<rect width="160" height="160" fill="white"/>
</clipPath>
</defs>
</svg>
