<svg width="39" height="40" viewBox="0 0 39 40" fill="none" xmlns="http://www.w3.org/2000/svg">
<rect width="39" height="40" rx="19.5" fill="#F7FDFF"/>
<g clip-path="url(#clip0_182_332)">
<path d="M27.2483 21.5711L26.8724 21.3553C26.9574 20.902 26.9999 20.4486 26.9999 20.0011C26.9999 19.5536 26.9574 19.0995 26.8724 18.647L27.2483 18.4303C28.4433 17.7428 28.8566 16.2111 28.1691 15.017C27.8366 14.4378 27.2983 14.0236 26.6533 13.8495C26.0091 13.6761 25.3349 13.7636 24.7558 14.0953L24.3808 14.3111C23.6799 13.7111 22.8724 13.2445 21.9999 12.937V12.502C21.9999 11.1236 20.8783 10.002 19.4999 10.002C18.1216 10.002 16.9999 11.1236 16.9999 12.502V12.937C16.1274 13.2453 15.3199 13.7111 14.6191 14.3111L14.2441 14.0961C13.6658 13.7628 12.9916 13.6761 12.3466 13.8495C11.7016 14.0236 11.1633 14.4386 10.8308 15.017C10.1433 16.212 10.5566 17.7428 11.7516 18.4311L12.1274 18.647C12.0424 19.1003 11.9999 19.5536 11.9999 20.0011C11.9999 20.4486 12.0424 20.9028 12.1274 21.3553L11.7516 21.572C10.5566 22.2595 10.1433 23.7911 10.8308 24.9853C11.1633 25.5645 11.7016 25.9786 12.3466 26.1528C12.9908 26.3278 13.6658 26.2395 14.2441 25.907L14.6191 25.6911C15.3199 26.2911 16.1274 26.7578 16.9999 27.0653V27.5003C16.9999 28.8786 18.1216 30.0003 19.4999 30.0003C20.8783 30.0003 21.9999 28.8786 21.9999 27.5003V27.0653C22.8724 26.757 23.6799 26.2911 24.3808 25.6911L24.7558 25.9061C25.3349 26.2395 26.0091 26.3278 26.6533 26.1528C27.2983 25.9786 27.8366 25.5636 28.1691 24.9853C28.8566 23.7903 28.4433 22.2595 27.2483 21.5711ZM25.1183 18.4511C25.2608 18.9711 25.3333 19.4928 25.3333 20.0003C25.3333 20.5078 25.2608 21.0295 25.1183 21.5495C25.0174 21.9153 25.1774 22.3036 25.5066 22.4928L26.4174 23.0161C26.8158 23.2453 26.9541 23.7561 26.7241 24.1545C26.6133 24.347 26.4341 24.4853 26.2191 24.5436C26.0049 24.6028 25.7799 24.5728 25.5866 24.4611L24.6774 23.9386C24.3474 23.7495 23.9316 23.807 23.6666 24.0786C22.9258 24.8353 21.9899 25.3761 20.9583 25.642C20.5899 25.737 20.3333 26.0686 20.3333 26.4486V27.5003C20.3333 27.9595 19.9591 28.3336 19.4999 28.3336C19.0408 28.3336 18.6666 27.9595 18.6666 27.5003V26.4486C18.6666 26.0686 18.4091 25.737 18.0416 25.642C17.0108 25.3761 16.0741 24.8353 15.3333 24.0786C15.1724 23.9136 14.9558 23.8278 14.7374 23.8278C14.5958 23.8278 14.4524 23.8636 14.3224 23.9386L13.4133 24.4611C13.2199 24.572 12.9941 24.6011 12.7808 24.5436C12.5658 24.4853 12.3866 24.3478 12.2758 24.1545C12.0466 23.7561 12.1849 23.2461 12.5833 23.017L13.4941 22.4936C13.8233 22.3045 13.9824 21.9161 13.8824 21.5503C13.7399 21.0303 13.6674 20.5086 13.6674 20.0011C13.6674 19.4936 13.7399 18.972 13.8824 18.452C13.9833 18.0861 13.8233 17.6978 13.4941 17.5086L12.5833 16.9853C12.1849 16.7561 12.0466 16.2453 12.2766 15.847C12.3874 15.6545 12.5666 15.5161 12.7816 15.4578C12.9966 15.4003 13.2216 15.4295 13.4141 15.5403L14.3233 16.0628C14.6533 16.2528 15.0691 16.1945 15.3341 15.9228C16.0749 15.1661 17.0108 14.6253 18.0424 14.3595C18.4108 14.2645 18.6674 13.9328 18.6674 13.5528V12.5011C18.6674 12.042 19.0416 11.6678 19.5008 11.6678C19.9599 11.6678 20.3341 12.042 20.3341 12.5011V13.5528C20.3341 13.9328 20.5916 14.2645 20.9591 14.3595C21.9899 14.6253 22.9266 15.1661 23.6674 15.9228C23.9333 16.1945 24.3483 16.2528 24.6783 16.0628L25.5874 15.5403C25.7799 15.4286 26.0041 15.3986 26.2199 15.4578C26.4349 15.5161 26.6141 15.6536 26.7249 15.847C26.9541 16.2453 26.8158 16.7553 26.4174 16.9845L25.5066 17.5078C25.1774 17.697 25.0183 18.0853 25.1183 18.4511ZM22.6208 22.2286C22.9274 22.572 22.8983 23.0986 22.5558 23.4053C22.3966 23.5478 22.1983 23.6178 21.9999 23.6178C21.7708 23.6178 21.5433 23.5245 21.3783 23.3403C20.8999 22.8061 20.2149 22.5003 19.4991 22.5003C18.7833 22.5003 18.0983 22.807 17.6199 23.3403C17.3133 23.6828 16.7866 23.7128 16.4433 23.4053C16.0999 23.0986 16.0716 22.572 16.3783 22.2286C17.1716 21.342 18.3091 20.8336 19.4991 20.8336C20.6891 20.8336 21.8274 21.342 22.6208 22.2286ZM17.4166 17.917C17.4166 16.7661 18.3491 15.8336 19.4999 15.8336C20.6508 15.8336 21.5833 16.7661 21.5833 17.917C21.5833 19.0678 20.6508 20.0003 19.4999 20.0003C18.3491 20.0003 17.4166 19.0678 17.4166 17.917Z" fill="black"/>
</g>
<defs>
<clipPath id="clip0_182_332">
<rect width="20" height="20" fill="white" transform="translate(9.5 10)"/>
</clipPath>
</defs>
</svg>
