<svg width="20" height="21" viewBox="0 0 20 21" fill="none" xmlns="http://www.w3.org/2000/svg">
<path d="M9.99567 0.100586C11.4292 0.100586 12.5963 1.26663 12.5963 2.7002V3.05957C13.3534 3.33482 14.0578 3.7313 14.6998 4.24023L15.0123 4.04883H15.0132C16.2334 3.29757 17.8371 3.67631 18.5904 4.89551V4.89648C18.9548 5.4871 19.0689 6.18555 18.9088 6.86035C18.7493 7.53629 18.3345 8.10989 17.7437 8.47461L17.4302 8.66699C17.5384 9.18272 17.5963 9.69709 17.5963 10.2002C17.5963 10.7031 17.5383 11.2163 17.4302 11.7324L17.7437 11.9258C18.3346 12.2905 18.7485 12.8643 18.9088 13.54C19.068 14.2155 18.9549 14.9132 18.5904 15.5039C17.838 16.7244 16.2351 17.1028 15.0132 16.3516H15.0123L14.6998 16.1592C14.0576 16.6683 13.3535 17.0648 12.5963 17.3408V17.7002C12.5963 19.1338 11.4292 20.2998 9.99567 20.2998C8.5623 20.2996 7.39606 19.1336 7.39606 17.7002V17.3408C6.63806 17.0653 5.93317 16.668 5.29059 16.1582L4.97906 16.3516C3.75964 17.1029 2.15427 16.7234 1.40192 15.5039C1.03743 14.9133 0.923429 14.2149 1.08356 13.54C1.24301 12.8641 1.65776 12.2905 2.2486 11.9258L2.56012 11.7334C2.45199 11.2178 2.39606 10.7032 2.39606 10.2002C2.39606 9.69685 2.45185 9.1826 2.56012 8.66602L2.2486 8.47461C1.65769 8.10984 1.24384 7.53612 1.08356 6.86035C0.924295 6.18483 1.03736 5.48724 1.40192 4.89648C2.15431 3.67601 3.75805 3.2975 4.97906 4.04883L5.29059 4.24121C5.9332 3.73155 6.6382 3.33475 7.39606 3.05859V2.7002C7.39606 1.26678 8.5623 0.100821 9.99567 0.100586ZM9.99567 1.13184C9.13182 1.13184 8.42844 1.83444 8.42828 2.69824V3.42773C8.42827 3.65465 8.28117 3.85553 8.06403 3.92188C7.29648 4.1581 6.58501 4.53211 5.94489 5.03809L5.67535 5.2627C5.52521 5.39384 5.31704 5.42564 5.13824 5.35254L5.06403 5.31445L4.4361 4.92676C3.70176 4.47191 2.73534 4.70127 2.28082 5.43652C2.06146 5.79221 1.99314 6.21269 2.08942 6.62012C2.18664 7.02785 2.43433 7.37347 2.79059 7.59277H2.79156L3.41852 7.98047L3.4859 8.0293C3.63191 8.15618 3.69655 8.35748 3.64703 8.5498C3.50236 9.10797 3.42927 9.66247 3.42926 10.1992C3.42926 10.736 3.50234 11.2904 3.64703 11.8486C3.69661 12.0408 3.63257 12.242 3.4859 12.3691L3.41852 12.4189L2.79156 12.8057L2.79059 12.8066C2.43434 13.0261 2.18576 13.3702 2.08942 13.7783C1.99304 14.1858 2.06141 14.6062 2.28082 14.9619C2.73446 15.6965 3.7017 15.9266 4.4361 15.4717L5.06403 15.084C5.14795 15.0323 5.2422 15.0078 5.33551 15.0078C5.45832 15.0079 5.57952 15.0513 5.67633 15.1357L5.94586 15.3604C6.586 15.8663 7.29744 16.2413 8.065 16.4775C8.28144 16.5447 8.42912 16.7436 8.42926 16.9707V17.7002C8.42926 18.564 9.13193 19.2664 9.99567 19.2666C10.8596 19.2666 11.563 18.5641 11.563 17.7002V16.9707C11.5632 16.7439 11.7102 16.5429 11.9273 16.4766C12.8044 16.2066 13.608 15.7566 14.316 15.1357L14.3834 15.0859C14.5479 14.9832 14.7587 14.9812 14.9273 15.084H14.9283L15.5552 15.4717C16.2887 15.9265 17.256 15.6966 17.7105 14.9619L17.7857 14.8252C17.9215 14.5473 17.9718 14.2385 17.9302 13.9316L17.9009 13.7783C17.8037 13.3707 17.5559 13.0259 17.1998 12.8066V12.8057L16.5718 12.4189C16.3795 12.3 16.2866 12.0683 16.3433 11.8486C16.488 11.2904 16.5611 10.736 16.5611 10.1992C16.5611 9.66247 16.488 9.10797 16.3433 8.5498C16.2869 8.33059 16.3785 8.09958 16.5718 7.98047L17.1998 7.59277C17.5563 7.37338 17.8046 7.02839 17.9009 6.62012C17.9972 6.21268 17.9299 5.79222 17.7105 5.43652C17.2561 4.70099 16.2887 4.47184 15.5543 4.92676L14.9273 5.31445H14.9263C14.7343 5.43207 14.4864 5.4124 14.315 5.2627C13.6071 4.64187 12.8033 4.19178 11.9263 3.92188C11.7097 3.85478 11.5621 3.65506 11.5621 3.42773V2.69824C11.5619 1.83457 10.8593 1.13205 9.99567 1.13184ZM9.99567 6.76562C11.8892 6.76562 13.4292 8.30572 13.4293 10.1992C13.4293 12.0928 11.8892 13.6328 9.99567 13.6328C8.1023 13.6326 6.56305 12.0926 6.56305 10.1992C6.56313 8.30587 8.10235 6.76586 9.99567 6.76562ZM9.99567 7.7998C8.67281 7.80004 7.59633 8.87632 7.59625 10.1992C7.59625 11.5222 8.67276 12.5994 9.99567 12.5996C11.3188 12.5996 12.3961 11.5223 12.3961 10.1992C12.396 8.87618 11.3187 7.7998 9.99567 7.7998Z" fill="#212121" stroke="black" stroke-width="0.2"/>
</svg>
