<svg width="16" height="17" viewBox="0 0 16 17" fill="none" xmlns="http://www.w3.org/2000/svg">
<g clip-path="url(#clip0_1799_111)">
<path d="M8 0C6.9 0 6 0.9 6 2V14C6 15.1 6.9 16 8 16C9.1 16 10 15.1 10 14V2C10 0.9 9.1 0 8 0ZM8.66667 14C8.66667 14.3667 8.36667 14.6667 8 14.6667C7.63333 14.6667 7.33333 14.3667 7.33333 14V2C7.33333 1.63333 7.63333 1.33333 8 1.33333C8.36667 1.33333 8.66667 1.63333 8.66667 2V14ZM14 4C12.9 4 12 4.9 12 6V14C12 15.1 12.9 16 14 16C15.1 16 16 15.1 16 14V6C16 4.9 15.1 4 14 4ZM14.6667 14C14.6667 14.3667 14.3667 14.6667 14 14.6667C13.6333 14.6667 13.3333 14.3667 13.3333 14V6C13.3333 5.63333 13.6333 5.33333 14 5.33333C14.3667 5.33333 14.6667 5.63333 14.6667 6V14ZM2 8C0.9 8 0 8.9 0 10V14C0 15.1 0.9 16 2 16C3.1 16 4 15.1 4 14V10C4 8.9 3.1 8 2 8ZM2.66667 14C2.66667 14.3667 2.36667 14.6667 2 14.6667C1.63333 14.6667 1.33333 14.3667 1.33333 14V10C1.33333 9.63333 1.63333 9.33333 2 9.33333C2.36667 9.33333 2.66667 9.63333 2.66667 10V14Z" fill="black"/>
</g>
<defs>
<clipPath id="clip0_1799_111">
<rect width="16" height="16" fill="white"/>
</clipPath>
</defs>
</svg>
