<svg width="20" height="20" viewBox="0 0 20 20" fill="none" xmlns="http://www.w3.org/2000/svg">
<g clip-path="url(#clip0_1799_317)">
<path d="M20 12.3047V14.5313C20 14.9628 19.6503 15.3125 19.2188 15.3125H17.0312C16.5997 15.3125 16.25 14.9628 16.25 14.5313C16.25 14.0998 16.5997 13.75 17.0312 13.75H18.4375V12.3047C18.4375 11.8732 18.7872 11.5235 19.2188 11.5235C19.6503 11.5235 20 11.8732 20 12.3047ZM9.21875 8.47661C9.65027 8.47661 10 8.12687 10 7.69536V5.93754H10.7812C11.2128 5.93754 11.5625 5.58781 11.5625 5.15629V0.781294C11.5625 0.340315 11.1972 -0.0152148 10.7527 0.000501759C10.3294 0.015608 10 0.376326 10 0.800062V1.40629H9.21875C8.78723 1.40629 8.4375 1.75603 8.4375 2.18754C8.4375 2.61906 8.78723 2.96879 9.21875 2.96879H10V4.37504H9.21875C8.78723 4.37504 8.4375 4.72478 8.4375 5.15629V7.69536C8.4375 8.12687 8.78723 8.47661 9.21875 8.47661ZM0.78125 11.5235C1.21277 11.5235 1.5625 11.1737 1.5625 10.7422V9.96098H2.38281C2.81433 9.96098 3.16406 9.61125 3.16406 9.17973C3.16406 8.74821 2.81433 8.39848 2.38281 8.39848H0.78125C0.349731 8.39848 0 8.74821 0 9.17973V10.7422C0 11.1737 0.349731 11.5235 0.78125 11.5235ZM12.3438 9.96098H14.4531V12.286C14.4531 12.7097 14.7826 13.0704 15.2058 13.0855C15.6503 13.1012 16.0156 12.7457 16.0156 12.3047V11.5235H16.8359C17.2675 11.5235 17.6172 11.1737 17.6172 10.7422C17.6172 10.3107 17.2675 9.96098 16.8359 9.96098H16.0156V9.17973C16.0156 8.74821 15.6659 8.39848 15.2344 8.39848H12.3438C11.9122 8.39848 11.5625 8.74821 11.5625 9.17973C11.5625 9.61125 11.9122 9.96098 12.3438 9.96098ZM19.2188 8.39848C18.7872 8.39848 18.4375 8.74821 18.4375 9.17973C18.4375 9.61125 18.7872 9.96098 19.2188 9.96098C19.6503 9.96098 20 9.61125 20 9.17973C20 8.74821 19.6503 8.39848 19.2188 8.39848ZM12.3438 11.5235C11.9122 11.5235 11.5625 11.8732 11.5625 12.3047V13.75H11.1719C10.7404 13.75 10.3906 14.0998 10.3906 14.5313C10.3906 14.9628 10.7404 15.3125 11.1719 15.3125H12.3438C12.7753 15.3125 13.125 14.9628 13.125 14.5313V12.3047C13.125 11.8732 12.7753 11.5235 12.3438 11.5235ZM12.3438 18.4375H11.5625V17.6563C11.5625 17.2248 11.2128 16.875 10.7812 16.875H10V16.0938C10 15.6623 9.65027 15.3125 9.21875 15.3125C8.78723 15.3125 8.4375 15.6623 8.4375 16.0938V17.6563C8.4375 18.0878 8.78723 18.4375 9.21875 18.4375H10V19.2188C10 19.6503 10.3497 20 10.7812 20H12.3438C12.7753 20 13.125 19.6503 13.125 19.2188C13.125 18.7873 12.7753 18.4375 12.3438 18.4375ZM15.4688 16.875C15.4688 16.4435 15.119 16.0938 14.6875 16.0938H14.2969C13.8654 16.0938 13.5156 16.4435 13.5156 16.875C13.5156 17.3066 13.8654 17.6563 14.2969 17.6563H14.6875C15.119 17.6563 15.4688 17.3066 15.4688 16.875ZM19.2188 18.4375H18.5938V17.6563C18.5938 17.2248 18.244 16.875 17.8125 16.875C17.381 16.875 17.0312 17.2248 17.0312 17.6563V18.4375H15.4688C15.0372 18.4375 14.6875 18.7873 14.6875 19.2188C14.6875 19.6503 15.0372 20 15.4688 20H19.2188C19.6503 20 20 19.6503 20 19.2188C20 18.7873 19.6503 18.4375 19.2188 18.4375ZM9.21875 12.9688C9.65027 12.9688 10 12.6191 10 12.1875V10.7422C10 10.3107 9.65027 9.96098 9.21875 9.96098H6.40625V9.1985C6.40625 8.77476 6.07681 8.41405 5.65353 8.39894C5.20905 8.38322 4.84375 8.73875 4.84375 9.17973V9.96098H4.45312C4.02161 9.96098 3.67188 10.3107 3.67188 10.7422C3.67188 11.1737 4.02161 11.5235 4.45312 11.5235H8.4375V12.1875C8.4375 12.6191 8.78723 12.9688 9.21875 12.9688ZM0 4.68754V2.34379C0 1.05137 1.05133 4.39937e-05 2.34375 4.39937e-05H4.6875C5.97992 4.39937e-05 7.03125 1.05137 7.03125 2.34379V4.68754C7.03125 5.97996 5.97992 7.03129 4.6875 7.03129H2.34375C1.05133 7.03129 0 5.97996 0 4.68754ZM1.5625 4.68754C1.5625 5.1183 1.91299 5.46879 2.34375 5.46879H4.6875C5.11826 5.46879 5.46875 5.1183 5.46875 4.68754V2.34379C5.46875 1.91304 5.11826 1.56254 4.6875 1.56254H2.34375C1.91299 1.56254 1.5625 1.91304 1.5625 2.34379V4.68754ZM3.51562 4.29692C3.94714 4.29692 4.29688 3.94719 4.29688 3.51567C4.29688 3.08415 3.94714 2.73442 3.51562 2.73442C3.08411 2.73442 2.73438 3.08415 2.73438 3.51567C2.73438 3.94719 3.08411 4.29692 3.51562 4.29692ZM20 2.34379V4.68754C20 5.97996 18.9487 7.03129 17.6562 7.03129H15.3125C14.0201 7.03129 12.9688 5.97996 12.9688 4.68754V2.34379C12.9688 1.05137 14.0201 4.39937e-05 15.3125 4.39937e-05H17.6562C18.9487 4.39937e-05 20 1.05137 20 2.34379ZM18.4375 2.34379C18.4375 1.91304 18.087 1.56254 17.6562 1.56254H15.3125C14.8817 1.56254 14.5312 1.91304 14.5312 2.34379V4.68754C14.5312 5.1183 14.8817 5.46879 15.3125 5.46879H17.6562C18.087 5.46879 18.4375 5.1183 18.4375 4.68754V2.34379ZM16.4844 2.73442C16.0529 2.73442 15.7031 3.08415 15.7031 3.51567C15.7031 3.94719 16.0529 4.29692 16.4844 4.29692C16.9159 4.29692 17.2656 3.94719 17.2656 3.51567C17.2656 3.08415 16.9159 2.73442 16.4844 2.73442ZM7.03125 15.3125V17.6563C7.03125 18.9487 5.97992 20 4.6875 20H2.34375C1.05133 20 0 18.9487 0 17.6563V15.3125C0 14.0201 1.05133 12.9688 2.34375 12.9688H4.6875C5.97992 12.9688 7.03125 14.0201 7.03125 15.3125ZM5.46875 15.3125C5.46875 14.8818 5.11826 14.5313 4.6875 14.5313H2.34375C1.91299 14.5313 1.5625 14.8818 1.5625 15.3125V17.6563C1.5625 18.087 1.91299 18.4375 2.34375 18.4375H4.6875C5.11826 18.4375 5.46875 18.087 5.46875 17.6563V15.3125ZM3.51562 15.7032C3.08411 15.7032 2.73438 16.0529 2.73438 16.4844C2.73438 16.9159 3.08411 17.2657 3.51562 17.2657C3.94714 17.2657 4.29688 16.9159 4.29688 16.4844C4.29688 16.0529 3.94714 15.7032 3.51562 15.7032Z" fill="black"/>
</g>
<defs>
<clipPath id="clip0_1799_317">
<rect width="20" height="20" fill="white"/>
</clipPath>
</defs>
</svg>
