<svg width="32" height="32" viewBox="0 0 32 32" fill="none" xmlns="http://www.w3.org/2000/svg">
<rect width="32" height="32" rx="16" fill="#00BCD4"/>
<path d="M18.5424 9.92773C19.1168 9.8395 19.7045 9.96005 20.1976 10.2676C20.6908 10.5751 21.0573 11.0498 21.2308 11.6045C21.4043 12.1591 21.3728 12.7573 21.1429 13.291C20.913 13.8248 20.4992 14.2587 19.9769 14.5137C19.4547 14.7685 18.8584 14.8277 18.2963 14.6807C17.761 14.5406 17.2923 14.221 16.9633 13.7783L13.8695 15.1855C14.0623 15.7149 14.0616 16.2934 13.8676 16.8223L16.9633 18.2207C17.1803 17.9266 17.4615 17.6845 17.7855 17.5137C18.1342 17.33 18.5223 17.2337 18.9164 17.2334C19.3977 17.2333 19.8687 17.3762 20.2689 17.6436C20.669 17.9109 20.9812 18.2908 21.1654 18.7354C21.3496 19.18 21.3979 19.6696 21.3041 20.1416C21.2102 20.6136 20.9783 21.0474 20.6381 21.3877C20.2978 21.728 19.8639 21.9598 19.392 22.0537C18.9199 22.1476 18.4304 22.0992 17.9857 21.915C17.541 21.7308 17.1603 21.4188 16.8929 21.0186C16.6258 20.6185 16.4837 20.1481 16.4838 19.667V19.665C16.4856 19.5541 16.4963 19.4436 16.5131 19.334L13.1761 17.8271C12.8374 18.1248 12.4233 18.3238 11.9779 18.3994C11.5104 18.4787 11.0296 18.4195 10.5951 18.2295C10.1609 18.0395 9.79164 17.727 9.53259 17.3301C9.27345 16.933 9.13604 16.4683 9.13708 15.9941C9.1382 15.5201 9.27769 15.057 9.53845 14.6611C9.79927 14.2652 10.1697 13.9537 10.6049 13.7656C11.0402 13.5775 11.5215 13.5202 11.9886 13.6016C12.4332 13.679 12.8458 13.8802 13.183 14.1787L16.5111 12.667C16.4941 12.5572 16.4836 12.4462 16.4818 12.335V12.334C16.4809 11.7529 16.6878 11.1903 17.0658 10.749C17.4439 10.3077 17.968 10.016 18.5424 9.92773ZM18.6761 18.457C18.437 18.5046 18.2168 18.6216 18.0443 18.7939C17.8718 18.9664 17.754 19.1866 17.7064 19.4258C17.6588 19.665 17.6834 19.9133 17.7767 20.1387C17.8701 20.364 18.0281 20.5569 18.2308 20.6924C18.4337 20.8279 18.6724 20.9004 18.9164 20.9004C19.2435 20.9001 19.5572 20.7694 19.7885 20.5381C20.0195 20.3069 20.1494 19.9938 20.1498 19.667C20.1498 19.423 20.0773 19.1843 19.9418 18.9814C19.8062 18.7786 19.6134 18.6207 19.3881 18.5273C19.1628 18.4341 18.9152 18.4095 18.6761 18.457ZM11.3422 14.79C11.1029 14.8377 10.8828 14.9554 10.7103 15.1279C10.5379 15.3005 10.421 15.5205 10.3734 15.7598C10.3259 15.9991 10.3503 16.2473 10.4437 16.4727C10.5372 16.6979 10.695 16.8909 10.8978 17.0264C11.1007 17.1618 11.3394 17.2335 11.5834 17.2334L11.7054 17.2275C11.9874 17.1991 12.2523 17.0741 12.4545 16.8721C12.6856 16.6408 12.8164 16.327 12.8168 16C12.8167 15.7561 12.7443 15.5173 12.6088 15.3145C12.4732 15.1117 12.2804 14.9537 12.0551 14.8604C11.8297 14.767 11.5814 14.7424 11.3422 14.79ZM18.9164 11.1006C18.5895 11.101 18.2764 11.2308 18.0453 11.4619C17.8141 11.6932 17.6832 12.007 17.683 12.334C17.6831 12.5777 17.7557 12.8159 17.891 13.0186C18.0265 13.2214 18.2193 13.3803 18.4447 13.4736C18.6701 13.567 18.9183 13.5906 19.1576 13.543C19.3968 13.4954 19.617 13.3785 19.7894 13.2061C19.9618 13.0336 20.0788 12.8134 20.1263 12.5742C20.1739 12.3349 20.1495 12.0867 20.056 11.8613C19.9626 11.636 19.8048 11.4431 19.6019 11.3076C19.399 11.1722 19.1603 11.1005 18.9164 11.1006Z" fill="#E8F9FF" stroke="#E8F9FF" stroke-width="0.2"/>
</svg>
