<svg width="32" height="32" viewBox="0 0 32 32" fill="none" xmlns="http://www.w3.org/2000/svg">
<path d="M27.2959 5.05273C29.8806 5.05278 31.9999 7.17212 32 9.75684V23.9219C31.9482 26.5066 29.8805 28.626 27.2441 28.626H4.70508C2.12035 28.626 0.000118744 26.5066 0 23.9219V9.75684C6.99631e-05 7.1721 2.12032 5.05273 4.70508 5.05273H27.2959ZM5.11816 10.4287C4.80801 10.2221 4.39416 10.3256 4.13574 10.584C4.03242 10.6873 3.98047 10.7912 3.98047 10.8945C3.87734 11.153 3.98082 11.515 4.1875 11.7217L5.01465 12.4971L5.3252 12.8066C5.42853 12.91 5.53159 13.0139 5.68652 13.1172L5.8418 13.2725C6.82402 14.203 7.8586 15.0821 8.84082 15.9609C9.20247 16.271 9.56424 16.6325 9.97754 16.9941L9.82227 17.1494C8.21974 18.7519 6.61718 20.3027 5.01465 21.9053L4.80762 22.1123C4.60103 22.3708 4.6018 22.7328 4.75684 22.9912C4.96362 23.2495 5.27392 23.405 5.58398 23.25C5.73897 23.1983 5.89374 23.0944 5.99707 22.9395C7.59958 21.3886 9.20218 19.7862 10.8047 18.2354L11.0635 17.9766C11.5287 18.3901 11.9419 18.7524 12.3555 19.1143C13.1826 19.8897 14.2172 20.3546 15.3545 20.458C15.5611 20.4581 15.768 20.5098 15.9746 20.5098C16.1813 20.5098 16.388 20.5097 16.5947 20.458C17.7319 20.3546 18.714 19.8378 19.5928 19.1143C20.0063 18.7524 20.4205 18.3384 20.8857 17.9766C20.9891 18.0799 21.0919 18.132 21.1436 18.2354C22.7461 19.7862 24.3496 21.3886 25.9521 22.9395C26.0555 23.0428 26.2103 23.1983 26.3652 23.25C26.6754 23.3533 26.9856 23.2496 27.1924 22.9912C27.3992 22.7327 27.3474 22.3708 27.1406 22.1123L26.9336 21.9053C25.3311 20.3028 23.7285 18.7519 22.126 17.1494L21.9707 16.9941C22.3325 16.6323 22.6949 16.3227 23.1084 15.9609C24.0905 15.0822 25.1243 14.2029 26.1064 13.2725L26.2617 13.1172C26.3651 13.0138 26.4689 12.91 26.624 12.8066L26.9336 12.4971L27.7607 11.7217C27.9675 11.5149 28.0711 11.2046 27.9678 10.8945L27.8125 10.584C27.5541 10.3258 27.1411 10.274 26.8311 10.4287C26.7794 10.4803 26.7274 10.4808 26.6758 10.5322L26.0039 11.1523C23.9361 13.0134 21.9194 14.8235 19.8516 16.6846C19.3864 17.098 18.9212 17.5114 18.4561 17.9248C17.7324 18.5451 16.8534 18.8554 15.9746 18.8555C15.0958 18.8555 14.2686 18.5968 13.4932 17.9248C13.028 17.5114 12.5628 17.098 12.0977 16.6846C10.0298 14.8235 8.01315 13.0134 5.94531 11.1523L5.27344 10.5322C5.22176 10.4806 5.16985 10.4804 5.11816 10.4287Z" fill="#9E9E9E"/>
</svg>
