<svg width="19" height="19" viewBox="0 0 19 19" fill="none" xmlns="http://www.w3.org/2000/svg">
<path d="M13.359 3.46517C13.359 3.03458 13.4867 2.61367 13.726 2.25565C13.9652 1.89763 14.3052 1.61859 14.703 1.45381C15.1008 1.28903 15.5385 1.24592 15.9609 1.32992C16.3832 1.41392 16.7711 1.62127 17.0756 1.92574C17.38 2.23021 17.5874 2.61813 17.6714 3.04044C17.7554 3.46276 17.7123 3.90049 17.5475 4.2983C17.3827 4.69611 17.1037 5.03613 16.7457 5.27535C16.3876 5.51457 15.9667 5.64225 15.5361 5.64225C14.9589 5.64167 14.4055 5.41211 13.9974 5.00395C13.5892 4.5958 13.3596 4.04239 13.359 3.46517ZM17.1195 7.53932V11.3502C17.1195 11.869 17.0173 12.3827 16.8188 12.8619C16.6202 13.3412 16.3292 13.7767 15.9624 14.1436C15.5956 14.5104 15.1601 14.8014 14.6808 14.9999C14.2015 15.1984 13.6878 15.3006 13.1691 15.3006H11.9736C11.851 15.3006 11.7301 15.3291 11.6204 15.3838C11.5107 15.4384 11.4152 15.5179 11.3414 15.6157L10.1528 17.1927C10.0508 17.3521 9.91029 17.4833 9.74427 17.5741C9.57826 17.665 9.39205 17.7126 9.2028 17.7126C9.01355 17.7126 8.82734 17.665 8.66133 17.5741C8.49531 17.4833 8.35482 17.3521 8.2528 17.1927L7.0653 15.6173C6.98742 15.5235 6.89091 15.4469 6.78189 15.3924C6.67286 15.3379 6.55371 15.3067 6.43197 15.3006H5.24447C4.19465 15.3006 3.18783 14.8836 2.4455 14.1412C1.70317 13.3989 1.28613 12.3921 1.28613 11.3423V5.84019C1.28613 4.79038 1.70317 3.78356 2.4455 3.04123C3.18783 2.2989 4.19465 1.88186 5.24447 1.88186H11.462C11.579 1.88221 11.6944 1.90858 11.7999 1.95906C11.9055 2.00953 11.9985 2.08285 12.0722 2.1737C12.1459 2.26455 12.1985 2.37066 12.2261 2.48434C12.2537 2.59801 12.2557 2.71641 12.2319 2.83096C12.1447 3.29154 12.1522 3.76507 12.254 4.22265C12.3932 4.83908 12.7042 5.40343 13.151 5.85027C13.5979 6.29711 14.1622 6.60814 14.7787 6.74728C15.2362 6.84909 15.7098 6.8566 16.1704 6.76936C16.2849 6.74558 16.4033 6.74758 16.517 6.77522C16.6307 6.80285 16.7368 6.85542 16.8276 6.92912C16.9185 7.00283 16.9918 7.09582 17.0423 7.20135C17.0927 7.30689 17.1191 7.42234 17.1195 7.53932ZM6.8278 9.00684C6.8278 8.85026 6.78137 8.6972 6.69438 8.56701C6.60739 8.43682 6.48375 8.33535 6.33909 8.27543C6.19443 8.21551 6.03525 8.19984 5.88169 8.23038C5.72812 8.26093 5.58706 8.33633 5.47634 8.44704C5.36562 8.55776 5.29022 8.69882 5.25968 8.85239C5.22913 9.00596 5.24481 9.16514 5.30473 9.30979C5.36465 9.45445 5.46612 9.57809 5.59631 9.66508C5.7265 9.75207 5.87956 9.7985 6.03613 9.7985C6.2459 9.79788 6.4469 9.71427 6.59523 9.56594C6.74356 9.41761 6.82717 9.21661 6.8278 9.00684ZM9.99447 9.00684C9.99447 8.85026 9.94804 8.6972 9.86105 8.56701C9.77406 8.43682 9.65042 8.33535 9.50576 8.27543C9.3611 8.21551 9.20192 8.19984 9.04835 8.23038C8.89478 8.26093 8.75372 8.33633 8.64301 8.44704C8.53229 8.55776 8.45689 8.69882 8.42634 8.85239C8.3958 9.00596 8.41148 9.16514 8.4714 9.30979C8.53131 9.45445 8.63278 9.57809 8.76297 9.66508C8.89316 9.75207 9.04622 9.7985 9.2028 9.7985C9.41257 9.79788 9.61357 9.71427 9.7619 9.56594C9.91023 9.41761 9.99384 9.21661 9.99447 9.00684ZM13.1611 9.00684C13.1611 8.85026 13.1147 8.6972 13.0277 8.56701C12.9407 8.43682 12.8171 8.33535 12.6724 8.27543C12.5278 8.21551 12.3686 8.19984 12.215 8.23038C12.0615 8.26093 11.9204 8.33633 11.8097 8.44704C11.699 8.55776 11.6236 8.69882 11.593 8.85239C11.5625 9.00596 11.5781 9.16514 11.6381 9.30979C11.698 9.45445 11.7995 9.57809 11.9296 9.66508C12.0598 9.75207 12.2129 9.7985 12.3695 9.7985C12.5792 9.79788 12.7802 9.71427 12.9286 9.56594C13.0769 9.41761 13.1605 9.21661 13.1611 9.00684Z" fill="#009FB6"/>
</svg>
