<svg width="39" height="40" viewBox="0 0 39 40" fill="none" xmlns="http://www.w3.org/2000/svg">
<rect width="39" height="40" rx="19.5" fill="white"/>
<path d="M19.2974 17.1155C19.2974 16.5538 19.1408 15.7405 18.9941 15.2605C18.1499 12.5122 15.2258 10.8572 11.1716 10.833H11.1666C10.7083 10.833 10.3358 11.203 10.3333 11.6613C10.3308 12.1213 10.7008 12.4963 11.1616 12.4997C12.3941 12.5072 16.4841 12.763 17.3999 15.7497C17.5091 16.1047 17.6299 16.753 17.6299 17.1155C17.6299 18.1997 18.3483 19.233 18.9266 20.063C19.1058 20.3197 19.3608 20.6863 19.4624 20.8947C19.2966 21.1022 18.9116 21.3905 18.6008 21.558C18.3291 21.703 18.1599 21.9855 18.1599 22.293V24.113C18.1599 24.6338 18.1599 25.4197 15.1458 25.4197C14.6991 25.4197 14.3316 25.7713 14.3133 26.218C14.2933 26.708 14.2399 27.023 14.1933 27.213C13.5508 27.3188 12.2883 27.4997 11.1666 27.4997C10.7058 27.4997 10.3333 27.873 10.3333 28.333C10.3333 28.793 10.7058 29.1663 11.1666 29.1663C12.9024 29.1663 14.8549 28.7905 14.9366 28.7747C15.0933 28.7447 15.2366 28.6705 15.3524 28.5605C15.5524 28.3697 15.7908 27.9597 15.9108 27.0738C17.4383 27.008 19.8258 26.6047 19.8258 24.113V22.7613C20.2524 22.4747 20.8449 21.993 21.0816 21.4005C21.3766 20.6647 20.8749 19.9447 20.2949 19.1105C19.8508 18.4713 19.2974 17.6772 19.2974 17.1155Z" fill="#D6366B"/>
<path d="M22.8333 23.3346C23.2936 23.3346 23.6667 22.9615 23.6667 22.5013C23.6667 22.0411 23.2936 21.668 22.8333 21.668C22.3731 21.668 22 22.0411 22 22.5013C22 22.9615 22.3731 23.3346 22.8333 23.3346Z" fill="#D6366B"/>
<path d="M25.3333 21.6715C25.7936 21.6715 26.1667 21.2985 26.1667 20.8382C26.1667 20.378 25.7936 20.0049 25.3333 20.0049C24.8731 20.0049 24.5 20.378 24.5 20.8382C24.5 21.2985 24.8731 21.6715 25.3333 21.6715Z" fill="#D6366B"/>
<path d="M27.8333 19.9997C28.2936 19.9997 28.6667 19.6266 28.6667 19.1663C28.6667 18.7061 28.2936 18.333 27.8333 18.333C27.3731 18.333 27 18.7061 27 19.1663C27 19.6266 27.3731 19.9997 27.8333 19.9997Z" fill="#D6366B"/>
<path d="M27.8333 23.3346C28.2936 23.3346 28.6667 22.9615 28.6667 22.5013C28.6667 22.0411 28.2936 21.668 27.8333 21.668C27.3731 21.668 27 22.0411 27 22.5013C27 22.9615 27.3731 23.3346 27.8333 23.3346Z" fill="#D6366B"/>
<path d="M27.8333 26.6715C28.2936 26.6715 28.6667 26.2985 28.6667 25.8382C28.6667 25.378 28.2936 25.0049 27.8333 25.0049C27.3731 25.0049 27 25.378 27 25.8382C27 26.2985 27.3731 26.6715 27.8333 26.6715Z" fill="#D6366B"/>
<path d="M25.3333 25.0046C25.7936 25.0046 26.1667 24.6315 26.1667 24.1712C26.1667 23.711 25.7936 23.3379 25.3333 23.3379C24.8731 23.3379 24.5 23.711 24.5 24.1712C24.5 24.6315 24.8731 25.0046 25.3333 25.0046Z" fill="#D6366B"/>
</svg>
