<svg width="19" height="19" viewBox="0 0 19 19" fill="none" xmlns="http://www.w3.org/2000/svg">
<g clip-path="url(#clip0_1799_2999)">
<path d="M9.30699 6.75939C9.30699 6.22581 9.15815 5.45314 9.01882 4.99714C8.21686 2.38622 5.4389 0.813974 1.58744 0.791016H1.58269C1.14728 0.791016 0.793403 1.14252 0.791028 1.57793C0.788653 2.01493 1.14015 2.37118 1.57794 2.37435C2.74882 2.38147 6.63432 2.62452 7.50436 5.46185C7.60807 5.7991 7.72286 6.41502 7.72286 6.75939C7.72286 7.78935 8.40528 8.77102 8.95469 9.55951C9.1249 9.80335 9.36715 10.1517 9.46374 10.3496C9.30619 10.5467 8.94044 10.8206 8.64515 10.9798C8.38707 11.1175 8.22636 11.3859 8.22636 11.678V13.407C8.22636 13.9018 8.22636 14.6483 5.3629 14.6483C4.93857 14.6483 4.58944 14.9824 4.57203 15.4068C4.55303 15.8723 4.50236 16.1715 4.45803 16.352C3.84765 16.4526 2.64828 16.6243 1.58269 16.6243C1.1449 16.6243 0.791028 16.979 0.791028 17.416C0.791028 17.853 1.1449 18.2077 1.58269 18.2077C3.23174 18.2077 5.08661 17.8506 5.16419 17.8356C5.31303 17.8071 5.44919 17.7366 5.55924 17.6321C5.74924 17.4508 5.97565 17.0613 6.08965 16.2198C7.54078 16.1573 9.8089 15.7741 9.8089 13.407V12.1229C10.2142 11.8506 10.7771 11.393 11.0019 10.8301C11.2822 10.1311 10.8056 9.4471 10.2546 8.65464C9.83265 8.04743 9.30699 7.29297 9.30699 6.75939Z" fill="#212121"/>
<path d="M12.6667 12.6673C13.1039 12.6673 13.4583 12.3129 13.4583 11.8757C13.4583 11.4384 13.1039 11.084 12.6667 11.084C12.2294 11.084 11.875 11.4384 11.875 11.8757C11.875 12.3129 12.2294 12.6673 12.6667 12.6673Z" fill="#212121"/>
<path d="M15.0417 11.0872C15.4789 11.0872 15.8333 10.7328 15.8333 10.2956C15.8333 9.85835 15.4789 9.50391 15.0417 9.50391C14.6044 9.50391 14.25 9.85835 14.25 10.2956C14.25 10.7328 14.6044 11.0872 15.0417 11.0872Z" fill="#212121"/>
<path d="M17.4167 9.49935C17.8539 9.49935 18.2083 9.14491 18.2083 8.70768C18.2083 8.27046 17.8539 7.91602 17.4167 7.91602C16.9794 7.91602 16.625 8.27046 16.625 8.70768C16.625 9.14491 16.9794 9.49935 17.4167 9.49935Z" fill="#212121"/>
<path d="M17.4167 12.6673C17.8539 12.6673 18.2083 12.3129 18.2083 11.8757C18.2083 11.4384 17.8539 11.084 17.4167 11.084C16.9794 11.084 16.625 11.4384 16.625 11.8757C16.625 12.3129 16.9794 12.6673 17.4167 12.6673Z" fill="#212121"/>
<path d="M17.4167 15.8372C17.8539 15.8372 18.2083 15.4828 18.2083 15.0456C18.2083 14.6083 17.8539 14.2539 17.4167 14.2539C16.9794 14.2539 16.625 14.6083 16.625 15.0456C16.625 15.4828 16.9794 15.8372 17.4167 15.8372Z" fill="#212121"/>
<path d="M15.0417 14.2552C15.4789 14.2552 15.8333 13.9008 15.8333 13.4635C15.8333 13.0263 15.4789 12.6719 15.0417 12.6719C14.6044 12.6719 14.25 13.0263 14.25 13.4635C14.25 13.9008 14.6044 14.2552 15.0417 14.2552Z" fill="#212121"/>
</g>
<defs>
<clipPath id="clip0_1799_2999">
<rect width="19" height="19" fill="white"/>
</clipPath>
</defs>
</svg>
