<svg width="39" height="40" viewBox="0 0 39 40" fill="none" xmlns="http://www.w3.org/2000/svg">
<rect width="39" height="40" rx="19.5" fill="white"/>
<g clip-path="url(#clip0_154_982)">
<path d="M15.3333 10H12.8333C11.9493 10 11.1014 10.3512 10.4763 10.9763C9.85119 11.6014 9.5 12.4493 9.5 13.3333V15.8333C9.5 16.7174 9.85119 17.5652 10.4763 18.1904C11.1014 18.8155 11.9493 19.1667 12.8333 19.1667H15.3333C16.2174 19.1667 17.0652 18.8155 17.6904 18.1904C18.3155 17.5652 18.6667 16.7174 18.6667 15.8333V13.3333C18.6667 12.4493 18.3155 11.6014 17.6904 10.9763C17.0652 10.3512 16.2174 10 15.3333 10ZM17 15.8333C17 16.2754 16.8244 16.6993 16.5118 17.0118C16.1993 17.3244 15.7754 17.5 15.3333 17.5H12.8333C12.3913 17.5 11.9674 17.3244 11.6548 17.0118C11.3423 16.6993 11.1667 16.2754 11.1667 15.8333V13.3333C11.1667 12.8913 11.3423 12.4674 11.6548 12.1548C11.9674 11.8423 12.3913 11.6667 12.8333 11.6667H15.3333C15.7754 11.6667 16.1993 11.8423 16.5118 12.1548C16.8244 12.4674 17 12.8913 17 13.3333V15.8333Z" fill="#009FB6"/>
<path d="M26.1667 10H23.6667C22.7827 10 21.9348 10.3512 21.3097 10.9763C20.6846 11.6014 20.3334 12.4493 20.3334 13.3333V15.8333C20.3334 16.7174 20.6846 17.5652 21.3097 18.1904C21.9348 18.8155 22.7827 19.1667 23.6667 19.1667H26.1667C27.0508 19.1667 27.8986 18.8155 28.5237 18.1904C29.1489 17.5652 29.5 16.7174 29.5 15.8333V13.3333C29.5 12.4493 29.1489 11.6014 28.5237 10.9763C27.8986 10.3512 27.0508 10 26.1667 10ZM27.8334 15.8333C27.8334 16.2754 27.6578 16.6993 27.3452 17.0118C27.0327 17.3244 26.6087 17.5 26.1667 17.5H23.6667C23.2247 17.5 22.8008 17.3244 22.4882 17.0118C22.1756 16.6993 22 16.2754 22 15.8333V13.3333C22 12.8913 22.1756 12.4674 22.4882 12.1548C22.8008 11.8423 23.2247 11.6667 23.6667 11.6667H26.1667C26.6087 11.6667 27.0327 11.8423 27.3452 12.1548C27.6578 12.4674 27.8334 12.8913 27.8334 13.3333V15.8333Z" fill="#009FB6"/>
<path d="M15.3333 20.833H12.8333C11.9493 20.833 11.1014 21.1842 10.4763 21.8093C9.85119 22.4344 9.5 23.2823 9.5 24.1663V26.6663C9.5 27.5504 9.85119 28.3982 10.4763 29.0234C11.1014 29.6485 11.9493 29.9997 12.8333 29.9997H15.3333C16.2174 29.9997 17.0652 29.6485 17.6904 29.0234C18.3155 28.3982 18.6667 27.5504 18.6667 26.6663V24.1663C18.6667 23.2823 18.3155 22.4344 17.6904 21.8093C17.0652 21.1842 16.2174 20.833 15.3333 20.833ZM17 26.6663C17 27.1084 16.8244 27.5323 16.5118 27.8449C16.1993 28.1574 15.7754 28.333 15.3333 28.333H12.8333C12.3913 28.333 11.9674 28.1574 11.6548 27.8449C11.3423 27.5323 11.1667 27.1084 11.1667 26.6663V24.1663C11.1667 23.7243 11.3423 23.3004 11.6548 22.9878C11.9674 22.6753 12.3913 22.4997 12.8333 22.4997H15.3333C15.7754 22.4997 16.1993 22.6753 16.5118 22.9878C16.8244 23.3004 17 23.7243 17 24.1663V26.6663Z" fill="#009FB6"/>
<path d="M26.1666 20.833H23.6666C22.7825 20.833 21.9347 21.1842 21.3096 21.8093C20.6844 22.4344 20.3333 23.2823 20.3333 24.1663V26.6663C20.3333 27.5504 20.6844 28.3982 21.3096 29.0234C21.9347 29.6485 22.7825 29.9997 23.6666 29.9997H26.1666C27.0506 29.9997 27.8985 29.6485 28.5236 29.0234C29.1487 28.3982 29.4999 27.5504 29.4999 26.6663V24.1663C29.4999 23.2823 29.1487 22.4344 28.5236 21.8093C27.8985 21.1842 27.0506 20.833 26.1666 20.833ZM27.8333 26.6663C27.8333 27.1084 27.6577 27.5323 27.3451 27.8449C27.0325 28.1574 26.6086 28.333 26.1666 28.333H23.6666C23.2246 28.333 22.8006 28.1574 22.4881 27.8449C22.1755 27.5323 21.9999 27.1084 21.9999 26.6663V24.1663C21.9999 23.7243 22.1755 23.3004 22.4881 22.9878C22.8006 22.6753 23.2246 22.4997 23.6666 22.4997H26.1666C26.6086 22.4997 27.0325 22.6753 27.3451 22.9878C27.6577 23.3004 27.8333 23.7243 27.8333 24.1663V26.6663Z" fill="#009FB6"/>
</g>
<defs>
<clipPath id="clip0_154_982">
<rect width="20" height="20" fill="white" transform="translate(9.5 10)"/>
</clipPath>
</defs>
</svg>
