<svg width="17" height="16" viewBox="0 0 17 16" fill="none" xmlns="http://www.w3.org/2000/svg">
<path d="M3.36842 6.73623C3.36842 5.80587 4.12227 5.05201 5.05263 5.05201C5.98299 5.05201 6.73684 5.80587 6.73684 6.73623C6.73684 7.66658 5.98299 8.42044 5.05263 8.42044C4.12227 8.42044 3.36842 7.66658 3.36842 6.73623ZM16.1684 11.7889V5.05201C16.1684 3.19467 14.6573 1.68359 12.8 1.68359H3.36842C1.51107 1.68359 0 3.19467 0 5.05201V11.7889C0 13.6462 1.51107 15.1573 3.36842 15.1573H12.8C14.6573 15.1573 16.1684 13.6462 16.1684 11.7889ZM12.8 3.03096C13.9143 3.03096 14.8211 3.93774 14.8211 5.05201V11.7889C14.8211 12.9031 13.9143 13.8099 12.8 13.8099H3.36842C2.25415 13.8099 1.34737 12.9031 1.34737 11.7889V5.05201C1.34737 3.93774 2.25415 3.03096 3.36842 3.03096H12.8ZM13.4737 5.7257C13.4737 5.35383 13.1725 5.05201 12.8 5.05201H9.43158C9.05903 5.05201 8.7579 5.35383 8.7579 5.7257C8.7579 6.09757 9.05903 6.39938 9.43158 6.39938H12.8C13.1725 6.39938 13.4737 6.09757 13.4737 5.7257ZM13.4737 8.42044C13.4737 8.04856 13.1725 7.74675 12.8 7.74675H9.43158C9.05903 7.74675 8.7579 8.04856 8.7579 8.42044C8.7579 8.79231 9.05903 9.09412 9.43158 9.09412H12.8C13.1725 9.09412 13.4737 8.79231 13.4737 8.42044ZM12.1263 11.1152C12.1263 10.7426 11.8252 10.4415 11.4526 10.4415H9.43158C9.05903 10.4415 8.7579 10.7426 8.7579 11.1152C8.7579 11.4877 9.05903 11.7889 9.43158 11.7889H11.4526C11.8252 11.7889 12.1263 11.4877 12.1263 11.1152ZM6.8736 11.7747C7.23806 11.6993 7.47251 11.3422 7.39638 10.9777C7.1707 9.88637 6.18442 9.09345 5.05263 9.09345C3.92084 9.09345 2.93457 9.88637 2.70888 10.9777C2.63343 11.3422 2.8672 11.6986 3.23166 11.7747C3.59411 11.8468 3.95251 11.6157 4.02796 11.2519C4.12564 10.7824 4.55613 10.4415 5.05263 10.4415C5.54914 10.4415 5.97962 10.7824 6.07731 11.2519C6.15074 11.6184 6.5179 11.8508 6.8736 11.7747Z" fill="black"/>
</svg>
