<svg width="145" height="76" viewBox="0 0 145 76" fill="none" xmlns="http://www.w3.org/2000/svg">
<path d="M36.7543 75.7029C13.056 75.7029 -1.67574e-06 60.7817 -1.67574e-06 37.8514C-1.67574e-06 15.0309 13.056 -2.92097e-06 36.7543 -2.92097e-06C60.3429 -2.92097e-06 73.5086 15.0309 73.5086 37.8514C73.5086 60.7817 60.3429 75.7029 36.7543 75.7029ZM36.7543 59.6846C50.688 59.6846 55.8446 53.6503 55.8446 37.8514C55.8446 22.0526 50.688 16.0183 36.7543 16.0183C22.7109 16.0183 17.664 22.0526 17.664 37.8514C17.664 53.6503 22.7109 59.6846 36.7543 59.6846ZM143.918 74.6057H78.6377V64.0731C78.6377 51.1269 84.2331 44.4343 99.7029 39.2777L118.574 33.1337C125.157 30.8297 127.57 28.6354 127.57 23.808C127.57 18.2126 124.498 15.0309 112.43 15.0309C98.9349 15.0309 94.8754 19.0903 94.8754 27.2091V28.6354H78.7474V27.2091C78.7474 12.9463 88.512 -2.92097e-06 112.978 -2.92097e-06C135.141 -2.92097e-06 144.137 10.0937 144.137 24.0274C144.137 37.0834 135.579 43.5566 122.523 47.1771L106.505 51.5657C99.3737 53.76 95.9726 55.8446 95.9726 61.6594L115.173 59.7943H143.918V74.6057Z" fill="black" fill-opacity="0.16"/>
</svg>
