<svg width="17" height="17" viewBox="0 0 17 17" fill="none" xmlns="http://www.w3.org/2000/svg">
<g clip-path="url(#clip0_1799_1370)">
<path d="M14.6666 7.07751H11.4786C11.1333 7.07751 10.8453 7.34151 10.8146 7.68484C10.7553 8.34817 10.6506 8.88951 10.5753 9.22217C10.0653 9.33484 9.08196 9.51417 8.00063 9.51417C6.91929 9.51417 5.93529 9.33417 5.42463 9.22151C5.34863 8.89017 5.24396 8.35017 5.18529 7.68484C5.15463 7.34084 4.86663 7.07684 4.52129 7.07684H1.33329C0.965293 7.07684 0.666626 7.37551 0.666626 7.74351C0.666626 11.1935 1.43063 13.7315 1.46263 13.8382C1.52929 14.0548 1.70129 14.2235 1.91996 14.2848C2.03463 14.3175 4.76796 15.0768 8.00063 15.0768C11.2333 15.0768 13.966 14.3175 14.0806 14.2848C14.3 14.2228 14.4726 14.0535 14.5386 13.8355C14.5713 13.7282 15.334 11.1642 15.334 7.74284C15.334 7.37484 15.0353 7.07617 14.6673 7.07617L14.6666 7.07751ZM13.3573 13.0935C12.5273 13.2922 10.3793 13.7442 7.99996 13.7442C5.62063 13.7442 3.46929 13.2922 2.64129 13.0935C2.45929 12.3748 2.07663 10.6268 2.00996 8.41084H3.92463C4.04996 9.34151 4.23063 9.94017 4.24063 9.97017C4.30663 10.1868 4.47863 10.3555 4.69729 10.4168C4.75929 10.4342 6.24663 10.8475 7.99996 10.8475C9.75329 10.8475 11.24 10.4342 11.3026 10.4168C11.522 10.3548 11.6946 10.1855 11.7606 9.96817C11.77 9.93817 11.9493 9.33684 12.0746 8.41084H13.99C13.922 10.6062 13.5393 12.3688 13.3573 13.0935Z" fill="black"/>
<path d="M5.45397 4.52437C5.78064 4.69371 6.18331 4.56571 6.35264 4.23837C6.67197 3.62104 7.02264 3.17971 7.33331 2.87037V6.94637C7.33331 7.31437 7.63197 7.61304 7.99997 7.61304C8.36797 7.61304 8.66664 7.31437 8.66664 6.94637V2.87037C8.97797 3.18037 9.32797 3.62104 9.64731 4.23837C9.76597 4.46771 9.99864 4.59904 10.24 4.59904C10.3426 4.59904 10.448 4.57504 10.5453 4.52437C10.872 4.35571 11.0006 3.95304 10.8313 3.62571C9.75997 1.55438 8.29464 0.987708 8.23331 0.964375C8.08264 0.907708 7.91664 0.907708 7.76664 0.964375C7.70464 0.987708 6.2393 1.55438 5.16864 3.62571C4.9993 3.95304 5.12731 4.35504 5.45464 4.52437H5.45397Z" fill="black"/>
</g>
<defs>
<clipPath id="clip0_1799_1370">
<rect width="16" height="16" fill="white"/>
</clipPath>
</defs>
</svg>
