<svg width="23" height="23" viewBox="0 0 23 23" fill="none" xmlns="http://www.w3.org/2000/svg">
<g clip-path="url(#clip0_1799_807)">
<path d="M21.0835 10.1738H16.5007C16.0043 10.1738 15.5903 10.5533 15.5462 11.0468C15.461 12.0004 15.3105 12.7785 15.2022 13.2567C14.4691 13.4187 13.0555 13.6765 11.5011 13.6765C9.94671 13.6765 8.5322 13.4178 7.79812 13.2558C7.68887 12.7795 7.53841 12.0033 7.45408 11.0468C7.41 10.5523 6.996 10.1728 6.49958 10.1728H1.91683C1.38783 10.1728 0.958496 10.6022 0.958496 11.1312C0.958496 16.0905 2.05675 19.7389 2.10275 19.8923C2.19858 20.2037 2.44583 20.4462 2.76016 20.5343C2.925 20.5813 6.85416 21.6728 11.5011 21.6728C16.1481 21.6728 20.0763 20.5813 20.2411 20.5343C20.5564 20.4452 20.8046 20.2018 20.8995 19.8884C20.9465 19.7341 22.0428 16.0484 22.0428 11.1302C22.0428 10.6012 21.6135 10.1719 21.0845 10.1719L21.0835 10.1738ZM19.2013 18.8218C18.0082 19.1074 14.9205 19.7571 11.5002 19.7571C8.07987 19.7571 4.98733 19.1074 3.79708 18.8218C3.53545 17.7887 2.98537 15.276 2.88954 12.0905H5.64187C5.82204 13.4283 6.08175 14.2889 6.09612 14.332C6.191 14.6435 6.43825 14.8859 6.75258 14.9741C6.8417 14.999 8.97975 15.5932 11.5002 15.5932C14.0206 15.5932 16.1577 14.999 16.2477 14.9741C16.563 14.885 16.8112 14.6415 16.9061 14.3291C16.9195 14.286 17.1773 13.4216 17.3575 12.0905H20.1108C20.013 15.2463 19.463 17.7801 19.2013 18.8218Z" fill="#009FB6"/>
<path d="M7.83991 6.50281C8.30949 6.74623 8.88833 6.56223 9.13174 6.09169C9.59078 5.20427 10.0949 4.56985 10.5415 4.12519V9.98444C10.5415 10.5134 10.9708 10.9428 11.4998 10.9428C12.0288 10.9428 12.4581 10.5134 12.4581 9.98444V4.12519C12.9057 4.57081 13.4088 5.20427 13.8678 6.09169C14.0384 6.42135 14.3729 6.61015 14.7198 6.61015C14.8674 6.61015 15.0188 6.57565 15.1587 6.50281C15.6283 6.26035 15.8132 5.68152 15.5698 5.21098C14.0298 2.23344 11.9234 1.41885 11.8352 1.38531C11.6186 1.30385 11.38 1.30385 11.1644 1.38531C11.0752 1.41885 8.96883 2.23344 7.42974 5.21098C7.18633 5.68152 7.37033 6.2594 7.84087 6.50281H7.83991Z" fill="#009FB6"/>
</g>
<defs>
<clipPath id="clip0_1799_807">
<rect width="23" height="23" fill="white"/>
</clipPath>
</defs>
</svg>
