<svg width="20" height="20" viewBox="0 0 20 20" fill="none" xmlns="http://www.w3.org/2000/svg">
<g clip-path="url(#clip0_1799_321)">
<path d="M10.0485 10.2801C13.3313 10.261 15.0986 8.48827 15.1595 5.1246C15.1031 1.8882 13.2404 0.0209093 10.0376 0C6.80029 0.0200002 4.92664 1.97275 4.92664 5.1246C4.92664 8.371 6.8012 10.2619 10.0485 10.281V10.2801ZM10.0376 1.81729C12.2531 1.83184 13.3022 2.89276 13.3413 5.12278C13.2985 7.44917 12.3113 8.44736 10.0485 8.461C7.7803 8.44736 6.79211 7.45372 6.74484 5.13915C6.79029 2.85639 7.80939 1.83093 10.0376 1.81729Z" fill="black"/>
<path d="M10.0375 11.5088C5.19382 11.5397 2.58743 14.1552 2.50015 19.0743C2.49106 19.5761 2.89107 19.9907 3.39289 19.9998C3.86198 19.9825 4.30835 19.6089 4.31835 19.1071C4.38744 15.1879 6.20928 13.3515 10.0375 13.3279C13.8266 13.3524 15.7012 15.2425 15.7685 19.1061C15.7776 19.6025 16.183 19.9998 16.6776 19.9998H16.6939C17.1958 19.9907 17.5958 19.5771 17.5876 19.0752C17.5039 14.227 14.8276 11.5406 10.0384 11.5097L10.0375 11.5088Z" fill="black"/>
</g>
<defs>
<clipPath id="clip0_1799_321">
<rect width="20" height="20" fill="white"/>
</clipPath>
</defs>
</svg>
