<svg width="24" height="24" viewBox="0 0 24 24" fill="none" xmlns="http://www.w3.org/2000/svg">
<g clip-path="url(#clip0_584_4647)">
<path d="M15.5 -0.0996094C16.9342 -0.0996094 18.0996 1.06577 18.0996 2.5V9C18.0996 12.3642 15.3642 15.0996 12 15.0996C8.63579 15.0996 5.90039 12.3642 5.90039 9V2.5C5.90039 1.06579 7.06579 -0.099584 8.5 -0.0996094H15.5ZM7.09961 9C7.09961 11.7018 9.29825 13.9004 12 13.9004C14.7018 13.9004 16.9004 11.7018 16.9004 9V8.09961H7.09961V9ZM8.5 1.09961C7.72825 1.09963 7.09961 1.72824 7.09961 2.5V6.90039H16.9004V2.5C16.9004 1.72823 16.2718 1.09961 15.5 1.09961H8.5ZM12 1.90039C12.3312 1.90039 12.5996 2.16877 12.5996 2.5V3.40039H13.5C13.8312 3.40039 14.0996 3.66877 14.0996 4C14.0996 4.33123 13.8312 4.59961 13.5 4.59961H12.5996V5.5C12.5996 5.83123 12.3312 6.09961 12 6.09961C11.6688 6.09958 11.4004 5.83121 11.4004 5.5V4.59961H10.5C10.1688 4.59958 9.90039 4.33121 9.90039 4C9.90039 3.66879 10.1688 3.40042 10.5 3.40039H11.4004V2.5C11.4004 2.16879 11.6688 1.90042 12 1.90039ZM21.0996 23.5C21.0996 23.8312 20.8312 24.0996 20.5 24.0996C20.1688 24.0996 19.9004 23.8312 19.9004 23.5V22.875C19.9004 20.7829 19.0385 18.5762 17.7686 17.3857C17.5879 17.2173 17.3552 17.119 17.1113 17.1074H17.0059C16.7084 17.1211 16.4234 17.2543 16.2246 17.4746L12.4678 22.1855C12.3538 22.3281 12.1823 22.4111 11.999 22.4111C11.816 22.4111 11.6434 22.3283 11.5293 22.1855H11.5283L7.76367 17.4502C7.58444 17.2498 7.30125 17.1145 7.00391 17.0996C6.71112 17.1004 6.44098 17.1887 6.23926 17.377C4.9634 18.5674 4.09766 20.778 4.09766 22.874V23.499C4.09764 23.8302 3.82927 24.0986 3.49805 24.0986C3.16683 24.0986 2.89845 23.8302 2.89844 23.499V22.874C2.89844 20.4724 3.90724 17.9121 5.41992 16.5C5.8622 16.086 6.44608 15.8646 7.06055 15.9023H7.05957C7.60174 15.9273 8.12221 16.1465 8.51953 16.5117L8.68164 16.6777L8.68555 16.6816L11.999 20.8477L15.3037 16.708L15.3076 16.7031C15.7371 16.2197 16.329 15.9375 16.9492 15.9092H17.1787C17.7095 15.9355 18.1997 16.1474 18.5859 16.5088H18.5869C20.0781 17.9075 21.0745 20.4265 21.0947 22.8008L21.0996 22.8027V23.5Z" fill="black" stroke="black" stroke-width="0.2"/>
</g>
<defs>
<clipPath id="clip0_584_4647">
<rect width="24" height="24" fill="white"/>
</clipPath>
</defs>
</svg>
