<svg width="32" height="32" viewBox="0 0 32 32" fill="none" xmlns="http://www.w3.org/2000/svg">
<rect width="32" height="32" fill="#25D366"/>
<g clip-path="url(#clip0_266_2724)">
<path d="M22.4248 18.6915L22.4142 18.779C19.8487 17.5004 19.5804 17.33 19.2491 17.827C19.0192 18.1712 18.3496 18.9517 18.1477 19.1827C17.9436 19.4102 17.7406 19.4277 17.3941 19.2702C17.0441 19.0952 15.9206 18.7277 14.5906 17.5377C13.5546 16.6102 12.8592 15.4727 12.6539 15.1227C12.3121 14.5324 13.0272 14.4484 13.6782 13.2164C13.7949 12.9714 13.7354 12.7789 13.6491 12.605C13.5616 12.43 12.8651 10.715 12.5734 10.0314C12.2934 9.35003 12.0052 9.43637 11.7894 9.43637C11.1174 9.37803 10.6262 9.38737 10.1934 9.8377C8.31042 11.9074 8.78525 14.0424 10.3964 16.3127C13.5627 20.4567 15.2498 21.2197 18.3344 22.279C19.1674 22.5439 19.9269 22.5065 20.5278 22.4202C21.1974 22.314 22.5892 21.579 22.8797 20.7565C23.1772 19.934 23.1772 19.2515 23.0898 19.094C23.0034 18.9365 22.7748 18.849 22.4248 18.6915Z" fill="#FAFAFA"/>
<path d="M25.94 6.02336C16.9695 -2.64847 2.12367 3.64103 2.11783 15.8747C2.11783 18.32 2.75833 20.7047 3.97867 22.8105L2 29.9995L9.39083 28.0722C18.6133 33.0539 29.9953 26.4389 30 15.8817C30 12.1764 28.5533 8.6892 25.9225 6.06886L25.94 6.02336ZM27.669 15.8432C27.662 24.7484 17.8865 30.3099 10.155 25.7645L9.735 25.5149L5.36 26.6524L6.5325 22.3999L6.25367 21.9624C1.44233 14.3032 6.97 4.29319 16.084 4.29319C19.1803 4.29319 22.0865 5.50069 24.2752 7.68819C26.4627 9.85703 27.669 12.7632 27.669 15.8432Z" fill="#FAFAFA"/>
</g>
<defs>
<clipPath id="clip0_266_2724">
<rect width="28" height="28" fill="white" transform="translate(2 2)"/>
</clipPath>
</defs>
</svg>
