<svg width="32" height="32" viewBox="0 0 32 32" fill="none" xmlns="http://www.w3.org/2000/svg">
<rect width="32" height="32" rx="16" fill="white"/>
<path d="M21.2994 11.6907L18.9767 9.36667C18.0947 8.48533 16.9227 8 15.6767 8H12.6667C10.8287 8 9.33337 9.49533 9.33337 11.3333V20.6667C9.33337 22.5047 10.8287 24 12.6667 24H19.3334C21.1714 24 22.6667 22.5047 22.6667 20.6667V14.99C22.6667 13.7427 22.1807 12.572 21.2994 11.6907ZM20.3567 12.634C20.5687 12.8453 20.748 13.0807 20.8934 13.334H17.9994C17.6314 13.334 17.3327 13.0347 17.3327 12.6673V9.77267C17.586 9.918 17.8214 10.0973 18.0334 10.3093L20.356 12.6333L20.3567 12.634ZM21.3334 20.6673C21.3334 21.77 20.436 22.6673 19.3334 22.6673H12.6667C11.564 22.6673 10.6667 21.77 10.6667 20.6673V11.3333C10.6667 10.2307 11.564 9.33333 12.6667 9.33333H15.6767C15.7854 9.33333 15.8934 9.33867 16 9.34867V12.6667C16 13.7693 16.8974 14.6667 18 14.6667H21.318C21.328 14.7733 21.3334 14.8813 21.3334 14.99V20.6673ZM18.4714 18.7373C18.732 18.9973 18.732 19.4193 18.4714 19.68L17.396 20.756C17.0114 21.1407 16.5054 21.3333 16 21.3333C15.4947 21.3333 14.9887 21.1407 14.604 20.756L13.5287 19.68C13.268 19.4193 13.268 18.9973 13.5287 18.7373C13.7894 18.4767 14.2107 18.4767 14.4714 18.7373L15.3334 19.5993V16.6673C15.3334 16.2993 15.6314 16.0007 16 16.0007C16.3687 16.0007 16.6667 16.2993 16.6667 16.6673V19.5993L17.5287 18.7373C17.7894 18.4767 18.2107 18.4767 18.4714 18.7373Z" fill="#009FB6"/>
</svg>
